<svg width="26" height="25" viewBox="0 0 26 25" fill="none" xmlns="http://www.w3.org/2000/svg">
<path d="M8.58457 2.55611C8.29165 2.84912 8.12709 3.24648 8.12709 3.6608C8.12709 4.07512 8.29165 4.47247 8.58457 4.76549L16.3189 12.4999L8.58457 20.2342C8.29995 20.5289 8.14246 20.9236 8.14602 21.3333C8.14958 21.743 8.3139 22.1349 8.6036 22.4246C8.8933 22.7143 9.2852 22.8786 9.69488 22.8822C10.1046 22.8857 10.4993 22.7282 10.7939 22.4436L19.633 13.6045C19.9259 13.3115 20.0905 12.9142 20.0905 12.4999C20.0905 12.0855 19.9259 11.6882 19.633 11.3952L10.7939 2.55611C10.5009 2.26319 10.1036 2.09863 9.68926 2.09863C9.27494 2.09863 8.87758 2.26319 8.58457 2.55611V2.55611Z" fill="white"/>
</svg>
