<svg width="130" height="131" viewBox="0 0 130 131" fill="none" xmlns="http://www.w3.org/2000/svg">
<path fill-rule="evenodd" clip-rule="evenodd" d="M65 0C29.0875 0 0 30.0223 0 67.0889C0 96.7758 18.6062 121.85 44.4437 130.74C47.6937 131.327 48.9125 129.314 48.9125 127.553C48.9125 125.959 48.8312 120.676 48.8312 115.057C32.5 118.16 28.275 110.948 26.975 107.175C26.2437 105.246 23.075 99.2916 20.3125 97.6982C18.0375 96.4403 14.7875 93.3374 20.2312 93.2536C25.35 93.1697 29.0062 98.1175 30.225 100.13C36.075 110.277 45.4187 107.426 49.1562 105.665C49.725 101.304 51.4312 98.3691 53.3 96.6919C38.8375 95.0147 23.725 89.2282 23.725 63.5667C23.725 56.2708 26.2438 50.2328 30.3875 45.5366C29.7375 43.8594 27.4625 36.9828 31.0375 27.758C31.0375 27.758 36.4812 25.997 48.9125 34.6347C54.1125 33.1252 59.6375 32.3704 65.1625 32.3704C70.6875 32.3704 76.2125 33.1252 81.4125 34.6347C93.8438 25.9131 99.2875 27.758 99.2875 27.758C102.862 36.9828 100.588 43.8594 99.9375 45.5366C104.081 50.2328 106.6 56.187 106.6 63.5667C106.6 89.3121 91.4062 95.0147 76.9437 96.6919C79.3 98.7884 81.3313 102.814 81.3313 109.103C81.3313 118.076 81.25 125.289 81.25 127.553C81.25 129.314 82.4688 131.41 85.7188 130.74C98.6222 126.243 109.835 117.683 117.778 106.265C125.722 94.8472 129.996 81.1456 130 67.0889C130 30.0223 100.912 0 65 0Z" fill="white"/>
</svg>
