<svg width="130" height="130" viewBox="0 0 130 130" fill="none" xmlns="http://www.w3.org/2000/svg">
<path d="M127.701 64.738C127.701 99.3839 99.5654 127.476 64.8507 127.476C30.1359 127.476 2 99.3839 2 64.738C2 30.092 30.1359 2 64.8507 2C99.5654 2 127.701 30.092 127.701 64.738Z" stroke="#24A7FF" stroke-width="4"/>
<path d="M97 92.2449H47.3144V27.5034H90.0705L97 33.0241V92.2449Z" fill="#22A6FF"/>
<path d="M91.0643 37.624H53.5681V39.1044H91.0643V37.624Z" fill="#141D27"/>
<path d="M91.0642 43.4653H53.5681V44.9461H91.0642V43.4653Z" fill="#141D27"/>
<path d="M91.0643 49.3052H53.5681V50.7855H91.0643V49.3052Z" fill="#141D27"/>
<path d="M91.0643 55.1611H53.5681V56.6407H91.0643V55.1611Z" fill="#141D27"/>
<path d="M91.0642 61.001H53.5681V62.4813H91.0642V61.001Z" fill="#141D27"/>
<path d="M91.0643 66.855H53.5681V68.3353H91.0643V66.855Z" fill="#141D27"/>
<path d="M91.0642 72.6963H53.5681V74.1762H91.0642V72.6963Z" fill="#141D27"/>
<path d="M91.0643 78.5503H53.5681V80.0298H91.0643V78.5503Z" fill="#141D27"/>
<path d="M91.0643 84.3906H53.5681V85.871H91.0643V84.3906Z" fill="#141D27"/>
<path d="M89.4743 27.5034L91.634 33.6238L96.9868 33.0237C97.0001 33.0237 96.3641 27.9034 89.4743 27.5034Z" fill="white"/>
<path d="M87.2218 100.713H37.5362V35.958H80.2923L87.2218 41.492V100.713Z" fill="white"/>
<path d="M81.2861 46.0806H43.79V47.5605H81.2861V46.0806Z" fill="#22A6FF"/>
<path d="M81.2861 51.9199H43.79V53.4007H81.2861V51.9199Z" fill="#22A6FF"/>
<path d="M81.2861 57.7754H43.79V59.2553H81.2861V57.7754Z" fill="#22A6FF"/>
<path d="M81.2861 63.6152H43.79V65.0956H81.2861V63.6152Z" fill="#22A6FF"/>
<path d="M81.2861 69.4702H43.79V70.9502H81.2861V69.4702Z" fill="#22A6FF"/>
<path d="M81.2861 75.3101H43.79V76.79H81.2861V75.3101Z" fill="#22A6FF"/>
<path d="M81.2861 81.1646H43.79V82.6449H81.2861V81.1646Z" fill="#22A6FF"/>
<path d="M81.2861 87.0054H43.79V88.4861H81.2861V87.0054Z" fill="#22A6FF"/>
<path d="M81.2861 92.8472H43.79V94.3275H81.2861V92.8472Z" fill="#22A6FF"/>
<path d="M79.6963 35.958L81.8559 42.0788L87.2087 41.4787C87.222 41.492 86.586 36.3714 79.6963 35.958Z" fill="#22A6FF"/>
<path d="M71.7056 49.0001L57.7898 82.5947L60.7563 83.8395L74.6722 50.2448L71.7056 49.0001Z" fill="#15202B"/>
<path d="M60.7725 83.841L58.211 85.8112L57.7881 82.6006L60.7725 83.841Z" fill="#141D27"/>
<path d="M70.4751 67.0955L69.3514 66.6334L73.9187 55.6278L71.925 54.7887L72.3842 53.6699L75.4895 54.9711L70.4751 67.0955Z" fill="#141D27"/>
</svg>
