<svg width="130" height="131" viewBox="0 0 130 131" fill="none" xmlns="http://www.w3.org/2000/svg">
<path d="M128 65.4336C128 100.487 99.7886 128.867 65 128.867C30.2114 128.867 2 100.487 2 65.4336C2 30.3804 30.2114 2 65 2C99.7883 2 128 30.3964 128 65.4336Z" fill="#141D27" stroke="#24A7FF" stroke-width="4"/>
<path d="M78.362 55.2068H74.274L73.8854 54.0332C73.4968 52.844 73.0149 51.6548 72.4398 50.5438L71.8802 49.4328L74.7714 46.5224C75.2066 46.0843 75.4398 45.521 75.4398 44.8951C75.4398 44.2848 75.2066 43.7058 74.7714 43.2677L68.4451 36.8991C68.0098 36.461 67.4347 36.2263 66.8285 36.2263C66.2223 36.2263 65.6472 36.461 65.2119 36.8991L62.3208 39.8096L61.2172 39.2463C60.098 38.6673 58.9167 38.1822 57.7509 37.791L56.5851 37.3999V33.2845C56.5851 32.0171 55.5592 31 54.3001 31H49.8235H45.3469C44.0878 31 43.0619 32.0327 43.0619 33.2845V37.3999L41.8961 37.791C40.7148 38.1822 39.549 38.6673 38.4298 39.2463L37.3262 39.8096L34.4351 36.8991C33.9998 36.461 33.4247 36.2263 32.8185 36.2263C32.2123 36.2263 31.6372 36.461 31.2019 36.8991L24.8756 43.2677C23.9896 44.1596 23.9896 45.6148 24.8756 46.5224L27.7667 49.4328L27.2072 50.5438C26.632 51.6705 26.1502 52.844 25.7616 54.0332L25.373 55.2068H21.2849C20.0259 55.2068 19 56.2395 19 57.507V66.52C19 67.7875 20.0259 68.8202 21.2849 68.8202H25.373L25.7616 69.9938C26.1502 71.183 26.632 72.3566 27.2072 73.4832L27.7667 74.5942L24.8756 77.5046C23.9896 78.3965 23.9896 79.8517 24.8756 80.7593L31.2019 87.1279C31.6372 87.566 32.2123 87.8007 32.8185 87.8007C33.4247 87.8007 33.9998 87.566 34.4351 87.1279L37.3262 84.2174L38.4298 84.7807C39.549 85.344 40.7148 85.8448 41.8961 86.236L43.0619 86.6271V90.7425C43.0619 92.0099 44.0878 93.027 45.3469 93.027H49.8235H54.3001C55.5592 93.027 56.5851 91.9943 56.5851 90.7425V86.6271L57.7509 86.236C58.9477 85.8448 60.1135 85.344 61.2172 84.7807L62.3208 84.2174L65.2119 87.1279C65.6472 87.566 66.2067 87.8007 66.8285 87.8007C67.4347 87.8007 68.0098 87.566 68.4451 87.1279L74.7714 80.7593C75.6574 79.8674 75.6574 78.4122 74.7714 77.5046L71.8802 74.5942L72.4398 73.4832C72.9994 72.3566 73.4968 71.183 73.8854 69.9938L74.274 68.8202H78.362C79.6211 68.8202 80.647 67.7875 80.647 66.52V57.507C80.6314 56.2239 79.6211 55.2068 78.362 55.2068ZM49.839 80.6654C39.6112 80.6654 31.2952 72.294 31.2952 61.9979C31.2952 51.7017 39.6112 43.3303 49.839 43.3303C60.0669 43.3303 68.3829 51.7017 68.3829 61.9979C68.3829 72.294 60.0669 80.6654 49.839 80.6654Z" fill="white"/>
<path d="M108.78 76.2301L106.723 76.7167L106.388 76.1677C106.053 75.6061 105.669 75.082 105.248 74.5829L104.839 74.0962L105.954 72.2869C106.115 72.0248 106.177 71.7004 106.103 71.3884C106.029 71.0765 105.843 70.8144 105.582 70.6522L101.653 68.2064C101.38 68.0442 101.07 67.9943 100.76 68.0567C100.451 68.1315 100.19 68.3187 100.029 68.5808L98.9135 70.3901L98.2937 70.2404C97.6615 70.0907 97.0169 69.9783 96.3847 69.9284L95.7526 69.8785L95.2691 67.8071C95.1204 67.1707 94.4882 66.7714 93.856 66.9211L91.6 67.4577L89.344 67.9943C88.7118 68.144 88.3151 68.7804 88.4763 69.4168L88.9597 71.4882L88.4143 71.8252C87.8689 72.1621 87.3359 72.5489 86.84 72.9732L86.3566 73.385L84.5592 72.2619C84.2865 72.0997 83.9766 72.0498 83.6667 72.1122C83.3568 72.187 83.0965 72.3742 82.9354 72.6363L80.5058 76.5919C80.1711 77.141 80.3323 77.8772 80.8901 78.2266L82.6875 79.3497L82.5387 79.9736C82.39 80.61 82.2784 81.2589 82.2288 81.9078L82.1793 82.5442L80.1216 83.0308C79.4894 83.1806 79.0927 83.817 79.2415 84.4534L80.2951 88.9831C80.4439 89.6195 81.076 90.0188 81.7082 89.869L83.7659 89.3824L84.1006 89.9314C84.4353 90.4805 84.8195 91.017 85.2286 91.5162L85.6377 92.0028L84.522 93.8122C84.175 94.3738 84.3485 95.0975 84.9063 95.4469L88.8358 97.8927C89.1085 98.0549 89.4183 98.1173 89.7282 98.0424C90.0381 97.9676 90.2984 97.7804 90.4596 97.5183L91.5752 95.709L92.195 95.8587C92.8272 96.0084 93.4717 96.1207 94.1163 96.1707L94.7485 96.2206L95.2319 98.292C95.3807 98.9284 96.0129 99.3277 96.645 99.178L98.9011 98.6414L101.157 98.1048C101.789 97.9551 102.186 97.3187 102.037 96.6823L101.554 94.6108L102.099 94.2739C102.645 93.937 103.178 93.5502 103.673 93.1259L104.157 92.7141L105.954 93.8372C106.227 93.9994 106.537 94.0618 106.847 93.9869C107.157 93.9121 107.417 93.7249 107.578 93.4504L110.008 89.4947C110.355 88.9331 110.181 88.2094 109.623 87.86L107.826 86.7369L107.975 86.113C108.123 85.4766 108.235 84.8277 108.285 84.1913L108.334 83.5549L110.38 83.0683C111.012 82.9185 111.408 82.2821 111.26 81.6457L110.206 77.116C110.045 76.4796 109.413 76.0803 108.78 76.2301ZM97.6863 93.4628C91.9719 94.8105 86.245 91.2417 84.8939 85.4891C83.5552 79.7365 87.1004 73.9715 92.8024 72.6113C98.5168 71.2636 104.244 74.8325 105.595 80.585C106.946 86.3376 103.401 92.1152 97.6863 93.4628Z" fill="white"/>
<path d="M95.2568 75.9814C94.7238 75.9814 94.1784 76.0438 93.6454 76.1686C89.8771 77.0671 87.5343 80.8605 88.4268 84.6539C89.1829 87.9107 92.0711 90.0945 95.2444 90.0945C95.7774 90.0945 96.3228 90.0321 96.8558 89.9073C100.624 89.0213 102.967 85.2154 102.074 81.422C101.318 78.1776 98.4301 75.9814 95.2568 75.9814Z" fill="white"/>
<path d="M59.3986 61.9972C59.3986 67.3176 55.124 71.6209 49.8391 71.6209C44.5542 71.6209 40.2797 67.3176 40.2797 61.9972C40.2797 56.6768 44.5542 52.3735 49.8391 52.3735C55.124 52.3735 59.3986 56.6768 59.3986 61.9972Z" fill="white"/>
<path d="M49.8391 85.7344C36.8444 85.7344 26.259 75.0783 26.259 61.9968C26.259 48.8997 36.8444 38.2593 49.8391 38.2593C62.8338 38.2593 73.4192 48.9154 73.4192 61.9968C73.4192 75.0939 62.8338 85.7344 49.8391 85.7344ZM49.8391 41.514C38.6164 41.514 29.4922 50.6992 29.4922 61.9968C29.4922 73.2944 38.6164 82.4796 49.8391 82.4796C61.0618 82.4796 70.186 73.2944 70.186 61.9968C70.186 50.6992 61.0618 41.514 49.8391 41.514Z" fill="#141D27"/>
</svg>
