<svg width="130" height="130" viewBox="0 0 130 130" fill="none" xmlns="http://www.w3.org/2000/svg">
<circle cx="65" cy="65" r="65" fill="white"/>
<mask id="mask0_55_726" style="mask-type:alpha" maskUnits="userSpaceOnUse" x="0" y="0" width="130" height="130">
<path d="M130 65C130 100.899 100.899 130 65 130C29.1015 130 0 100.899 0 65C0 29.1015 29.1015 0 65 0C100.899 0 130 29.1015 130 65Z" fill="#65A3FF"/>
</mask>
<g mask="url(#mask0_55_726)">
<path d="M64.0383 90.783C64.0383 90.783 46.0335 106.922 38.2082 105.687C30.3828 104.452 23.486 92.6523 23.486 92.6523C23.486 92.6523 36.6828 90.4158 36.2518 80.9694C33.5826 22.622 64.0383 28.2298 64.0383 28.2298V90.783Z" fill="#141D27"/>
<path d="M64.0383 90.7831C64.0383 90.7831 82.0431 106.922 89.8683 105.687C97.6936 104.452 104.591 92.6524 104.591 92.6524C104.591 92.6524 91.6423 90.4326 91.8247 80.9696C92.9355 21.7381 64.0383 28.2304 64.0383 28.2304V90.7831Z" fill="#141D27"/>
<path d="M64.0383 131.792H45.304L41.209 99.1962L64.0383 92.6538V131.792Z" fill="#F9C172"/>
<path d="M64.0383 101.883L50.9906 97.0929V70.6899H64.0383V96.2751V101.883Z" fill="#F9C172"/>
<path d="M14.2018 131.791H64.0383L43.7622 98.4614L36.5337 99.1958C14.2018 99.1958 14.2018 131.791 14.2018 131.791Z" fill="#22A6FF"/>
<path d="M64.0383 131.792H82.7725L86.8676 99.1962L64.0383 92.6538V131.792Z" fill="#FFB45A"/>
<path d="M64.0383 101.883L77.0859 97.0929V70.6899H64.0383V96.2751V101.883Z" fill="#F9C172"/>
<path d="M113.875 131.791H64.0383L84.3144 98.4614L91.5429 99.1958C113.875 99.1958 113.875 131.791 113.875 131.791Z" fill="#22A6FF"/>
<path d="M64.0383 101.883L77.0859 97.0929V70.6899H64.0383V101.883Z" fill="#FFB45A"/>
<path d="M44.7403 52.0469L44.2595 51.8467C41.6732 50.7285 41.0432 50.595 41.2255 56.4363C41.2255 56.4363 41.1924 66.9508 45.0719 67.4682C45.4366 69.1538 45.934 70.7394 46.6635 72.0745C50.4766 79.0675 57.158 87.0952 64.0217 87.0952V67.4682V52.0469V36.6257C42.8171 34.0055 46.7961 43.2181 44.7403 52.0469Z" fill="#FACB88"/>
<path d="M83.2736 51.8986L83.7791 51.6981C86.4985 50.5782 87.161 50.4444 86.9692 56.2947C86.9692 56.2947 87.0041 66.8251 82.925 67.3432C82.5415 69.0314 82.0185 70.6194 81.2515 71.9566C77.2421 78.9601 70.2169 87 63 87V67.3432V51.8986V36.4541C85.3132 33.8298 81.1295 43.0564 83.2736 51.8986Z" fill="#F9C172"/>
<path d="M83.3363 52.0479C83.3363 52.0479 57.5061 47.141 54.6711 31.7193C54.6711 31.7193 81.2473 24.3923 83.3363 44.7543C83.5352 46.5735 83.3363 52.0479 83.3363 52.0479Z" fill="#141D27"/>
<path d="M44.6574 52.0483C44.6574 52.0483 44.4584 45.4893 44.6574 43.3197C46.1163 26.8637 63.3917 31.7204 63.3917 31.7204C63.3917 31.7204 52.3832 51.1638 44.6574 52.0483Z" fill="#141D27"/>
<path d="M33.0687 117.422C33.0687 117.422 38.1087 100.698 43.7621 98.4618C48.0726 96.7594 50.9906 87.0459 50.9906 87.0459C50.9906 87.0459 50.6424 99.1962 52.6319 108.075C54.1572 114.868 64.0383 131.792 64.0383 131.792L51.289 118.673C47.7908 115.068 42.5187 113.883 37.8268 115.636L33.0687 117.422Z" fill="white"/>
<path d="M95.0245 117.422C95.0245 117.422 89.9844 100.698 84.331 98.4618C80.0204 96.7594 77.1026 87.0459 77.1026 87.0459C77.1026 87.0459 77.4507 99.1962 75.4612 108.075C73.936 114.868 64.0549 131.792 64.0549 131.792L76.8041 118.673C80.3023 115.068 85.5744 113.883 90.2663 115.636L95.0245 117.422Z" fill="white"/>
<path d="M77.7988 81.2202L66.1438 81.2035V79.5346L77.7988 79.5513C80.4349 79.5513 82.7891 77.8657 83.6678 75.3791L85.7402 69.4712L87.2986 70.022L85.2263 75.9298C84.1155 79.1007 81.1312 81.2202 77.7988 81.2202Z" fill="white"/>
<path d="M67.8514 83.2402H69.2109H70.5704C72.1288 83.2402 73.4054 81.9718 73.4054 80.3862H65.0164C65.0164 81.9718 66.2764 83.2402 67.8514 83.2402Z" fill="#141D27"/>
<path d="M70.587 77.5493H69.2275H67.868C66.3096 77.5493 65.033 78.8344 65.033 80.4033H73.422C73.4054 78.8178 72.1454 77.5493 70.587 77.5493Z" fill="white"/>
<path d="M62.082 21.9244C49.714 21.9244 39.6505 32.1051 39.6505 44.6224V48.4443H42.9166V44.6224C42.9166 33.9243 51.5045 25.2123 62.082 25.2123H64.0383V21.9077H62.082V21.9244Z" fill="#22A6FF"/>
<path d="M65.9946 21.9233H64.0383V25.2279H65.9946C76.5554 25.2279 85.1599 33.9232 85.1599 44.638V48.46H88.426V44.638C88.426 32.104 78.3625 21.9233 65.9946 21.9233Z" fill="#22A6FF"/>
<path d="M93.7479 48.8441C92.0569 46.7245 89.2716 46.5409 89.2716 46.5409C88.2768 46.2906 87.3318 46.3073 86.5029 46.5409V71.3087C87.3318 71.5423 88.2768 71.559 89.2716 71.3087C89.2716 71.3087 92.0569 71.1251 93.7479 69.0055C95.439 66.8859 95.439 50.9637 93.7479 48.8441Z" fill="#22A6FF"/>
<path d="M83.1373 51.3815V66.4524C83.1373 68.9391 84.5134 70.7583 86.5029 71.3091V46.5415C84.5134 47.0923 83.1373 48.9114 83.1373 51.3815Z" fill="#22A6FF"/>
<path d="M38.805 46.5409C38.805 46.5409 36.0197 46.7245 34.3287 48.8441C32.6376 50.9637 32.6376 66.8859 34.3287 69.0055C36.0197 71.1251 38.805 71.3087 38.805 71.3087C39.7998 71.559 40.7448 71.5423 41.5737 71.3087V46.5409C40.7448 46.3073 39.7998 46.2906 38.805 46.5409Z" fill="#22A6FF"/>
<path d="M41.5738 46.5415V71.3091C43.5633 70.7583 44.9559 68.9391 44.9559 66.4524V51.3815C44.9393 48.9114 43.5633 47.0923 41.5738 46.5415Z" fill="#22A6FF"/>
</g>
</svg>
