<svg width="750" height="233" viewBox="0 0 750 233" fill="none" xmlns="http://www.w3.org/2000/svg">
<path d="M58.1498 85.6755H19.7085V89.6991H56.4741L102.074 135.175H198.564V131.151H103.749L58.1498 85.6755Z" fill="#22A6FF"/>
<path d="M79.1323 171.804H16.9214V175.828H80.7989L103.749 152.949H199.201V148.926H102.073L79.1323 171.804Z" fill="#22A6FF"/>
<path d="M88.5672 213.638H60.8633V217.661H90.2338L138.301 169.724H193.937V165.701H136.635L88.5672 213.638Z" fill="#22A6FF"/>
<path d="M15.2544 80.5532C11.22 80.5532 7.94141 83.8229 7.94141 87.8464C7.94141 91.8699 11.22 95.1396 15.2544 95.1396C19.2889 95.1396 22.5675 91.8699 22.5675 87.8464C22.5675 83.8229 19.2889 80.5532 15.2544 80.5532ZM15.2544 91.107C13.4512 91.107 11.985 89.6447 11.985 87.8373C11.985 86.0299 13.4512 84.5677 15.2544 84.5677C17.0668 84.5677 18.533 86.0299 18.533 87.8373C18.533 89.6447 17.0668 91.107 15.2544 91.107Z" fill="#22A6FF"/>
<path d="M12.0757 166.528C8.04127 166.528 4.7627 169.797 4.7627 173.821C4.7627 177.844 8.04127 181.114 12.0757 181.114C16.1102 181.114 19.3888 177.844 19.3888 173.821C19.3888 169.797 16.1102 166.528 12.0757 166.528ZM12.0757 177.081C10.2725 177.081 8.80627 175.619 8.80627 173.812C8.80627 172.013 10.2725 170.542 12.0757 170.542C13.8881 170.542 15.3543 172.004 15.3543 173.812C15.3543 175.619 13.8881 177.081 12.0757 177.081Z" fill="#22A6FF"/>
<path d="M157.608 183.485C153.573 183.485 150.295 186.9 150.295 191.105C150.295 195.31 153.573 198.725 157.608 198.725C161.642 198.725 164.921 195.31 164.921 191.105C164.921 186.9 161.642 183.485 157.608 183.485ZM157.608 194.52C155.805 194.52 154.329 192.994 154.329 191.105C154.329 189.225 155.796 187.69 157.608 187.69C159.411 187.69 160.877 189.216 160.877 191.105C160.887 192.985 159.42 194.52 157.608 194.52Z" fill="#22A6FF"/>
<path d="M157.608 216.88C153.573 216.88 150.295 220.295 150.295 224.501C150.295 228.706 153.573 232.121 157.608 232.121C161.642 232.121 164.921 228.706 164.921 224.501C164.921 220.295 161.642 216.88 157.608 216.88ZM157.608 227.916C155.805 227.916 154.329 226.39 154.329 224.501C154.329 222.62 155.796 221.086 157.608 221.086C159.411 221.086 160.877 222.611 160.877 224.501C160.887 226.381 159.42 227.916 157.608 227.916Z" fill="#22A6FF"/>
<path d="M56.273 208.361C52.2385 208.361 48.96 211.631 48.96 215.654C48.96 219.678 52.2385 222.947 56.273 222.947C60.2984 222.947 63.5769 219.678 63.5769 215.654C63.5769 211.631 60.3075 208.361 56.273 208.361ZM56.273 218.915C54.4607 218.915 52.9944 217.453 52.9944 215.645C52.9944 213.838 54.4607 212.376 56.273 212.376C58.0762 212.376 59.5425 213.838 59.5425 215.645C59.5425 217.453 58.0762 218.915 56.273 218.915Z" fill="#22A6FF"/>
<path d="M159.631 195.31H155.596V220.868H159.631V195.31Z" fill="#22A6FF"/>
<path d="M48.8228 122.941C44.7883 122.941 41.5098 126.211 41.5098 130.234C41.5098 134.258 44.7883 137.527 48.8228 137.527C52.8573 137.527 56.1358 134.258 56.1358 130.234C56.1358 126.211 52.8482 122.941 48.8228 122.941ZM48.8228 133.504C47.0196 133.504 45.5533 132.042 45.5533 130.234C45.5533 128.427 47.0196 126.964 48.8228 126.964C50.6351 126.964 52.1014 128.427 52.1014 130.234C52.1014 132.042 50.626 133.504 48.8228 133.504Z" fill="#22A6FF"/>
<path d="M7.31304 122.941C3.27857 122.941 0 126.211 0 130.234C0 134.258 3.27857 137.527 7.31304 137.527C11.3475 137.527 14.6261 134.258 14.6261 130.234C14.6261 126.211 11.3475 122.941 7.31304 122.941ZM7.31304 133.504C5.50072 133.504 4.03447 132.042 4.03447 130.234C4.03447 128.427 5.50072 126.964 7.31304 126.964C9.11626 126.964 10.5825 128.427 10.5825 130.234C10.5825 132.042 9.11626 133.504 7.31304 133.504Z" fill="#22A6FF"/>
<path d="M44.7799 128.218H10.792V132.241H44.7799V128.218Z" fill="#22A6FF"/>
<path d="M677.524 46.6362H710.783V50.1686H678.973L639.52 90.0927H556.036V86.5603H638.071L677.524 46.6362Z" fill="#22A6FF"/>
<path d="M685.504 163.979H739.401V167.466H684.06L664.177 147.628H581.474V144.148H665.621L685.504 163.979Z" fill="#22A6FF"/>
<path d="M395.834 175.371H435.624V178.065H394.769L380.09 162.736H319.034V160.047H381.156L395.834 175.371Z" fill="#22A6FF"/>
<path d="M677.413 199.974H701.244V203.503H675.971L634.624 161.456H586.773V157.927H636.065L677.413 199.974Z" fill="#22A6FF"/>
<path d="M708.664 48.756C708.664 52.2644 711.515 55.1154 715.023 55.1154C718.531 55.1154 721.383 52.2644 721.383 48.756C721.383 45.2476 718.531 42.3965 715.023 42.3965C711.515 42.3965 708.664 45.2476 708.664 48.756ZM712.172 48.756C712.172 47.18 713.447 45.9049 715.023 45.9049C716.591 45.9049 717.866 47.18 717.866 48.756C717.866 50.3241 716.591 51.607 715.023 51.607C713.447 51.5991 712.172 50.3241 712.172 48.756Z" fill="#22A6FF"/>
<path d="M737.281 165.346C737.281 168.855 740.14 171.706 743.641 171.706C747.149 171.706 750 168.855 750 165.346C750 161.838 747.149 158.987 743.641 158.987C740.14 158.995 737.281 161.846 737.281 165.346ZM740.79 165.346C740.79 163.778 742.065 162.495 743.641 162.495C745.209 162.495 746.484 163.77 746.484 165.346C746.484 166.914 745.209 168.197 743.641 168.197C742.073 168.197 740.79 166.922 740.79 165.346Z" fill="#22A6FF"/>
<path d="M435.682 176.591C435.713 179.222 437.883 181.334 440.509 181.302C443.14 181.27 445.252 179.106 445.22 176.475C445.188 173.844 443.024 171.732 440.393 171.764C437.768 171.801 435.65 173.965 435.682 176.591ZM438.313 176.559C438.299 175.383 439.243 174.409 440.425 174.395C441.601 174.381 442.569 175.325 442.583 176.507C442.597 177.683 441.653 178.657 440.477 178.671C439.301 178.685 438.327 177.741 438.313 176.559Z" fill="#22A6FF"/>
<path d="M627.83 189.724C624.816 189.724 622.369 192.061 622.369 194.937C622.369 197.813 624.816 200.15 627.83 200.15C630.838 200.15 633.292 197.813 633.292 194.937C633.292 192.061 630.838 189.724 627.83 189.724ZM627.83 192.607C629.178 192.607 630.278 193.652 630.278 194.937C630.278 196.223 629.184 197.274 627.83 197.274C626.483 197.274 625.383 196.229 625.383 194.937C625.383 193.652 626.476 192.607 627.83 192.607Z" fill="#22A6FF"/>
<path d="M603.894 189.724C600.88 189.724 598.433 192.061 598.433 194.937C598.433 197.813 600.88 200.15 603.894 200.15C606.902 200.15 609.356 197.813 609.356 194.937C609.349 192.061 606.902 189.724 603.894 189.724ZM603.894 192.607C605.242 192.607 606.342 193.652 606.342 194.937C606.342 196.223 605.248 197.274 603.894 197.274C602.547 197.274 601.447 196.229 601.447 194.937C601.447 193.652 602.54 192.607 603.894 192.607Z" fill="#22A6FF"/>
<path d="M699.124 201.383C699.124 204.892 701.977 207.743 705.48 207.743C708.99 207.743 711.843 204.892 711.843 201.383C711.843 197.875 708.99 195.024 705.48 195.024C701.977 195.032 699.124 197.883 699.124 201.383ZM702.635 201.383C702.635 199.815 703.91 198.532 705.48 198.532C707.057 198.532 708.332 199.807 708.332 201.383C708.332 202.959 707.057 204.234 705.48 204.234C703.918 204.234 702.635 202.959 702.635 201.383Z" fill="#22A6FF"/>
<path d="M701.244 87.9727C698.32 87.9727 695.944 90.3485 695.944 93.2722C695.944 96.1959 698.32 98.5718 701.244 98.5718C704.168 98.5718 706.543 96.1959 706.543 93.2722C706.543 90.3551 704.168 87.9727 701.244 87.9727ZM701.244 90.8963C702.551 90.8963 703.62 91.9589 703.62 93.2722C703.62 94.579 702.557 95.6415 701.244 95.6415C699.937 95.6415 698.868 94.579 698.868 93.2722C698.875 91.9589 699.937 90.8963 701.244 90.8963Z" fill="#22A6FF"/>
<path d="M701.244 116.59C698.32 116.59 695.944 118.966 695.944 121.89C695.944 124.814 698.32 127.189 701.244 127.189C704.168 127.189 706.543 124.814 706.543 121.89C706.543 118.966 704.168 116.59 701.244 116.59ZM701.244 119.514C702.551 119.514 703.62 120.577 703.62 121.883C703.62 123.197 702.557 124.259 701.244 124.259C699.937 124.259 698.868 123.197 698.868 121.883C698.875 120.577 699.937 119.514 701.244 119.514Z" fill="#22A6FF"/>
<path d="M703.364 95.3921H700.184V119.77H703.364V95.3921Z" fill="#22A6FF"/>
<g opacity="0.5">
<path d="M244.592 168.862L240.295 198.588H291.317L286.487 168.862H244.592Z" fill="white"/>
<path d="M309.05 202.873H222.577V205.015H309.05V202.873Z" fill="white"/>
<path d="M240.296 198.588L222.577 202.873H309.043L291.318 198.588H240.296Z" fill="#22A6FF"/>
</g>
<path d="M365.487 153.554H166.132V50.4434C166.132 45.8991 169.83 42.2117 174.386 42.2117H357.233C361.796 42.2117 365.487 45.8991 365.487 50.4434V153.554Z" fill="#22A6FF"/>
<path d="M357.266 172.614H174.354C169.81 172.614 166.132 168.946 166.132 164.415V153.561H365.487V164.415C365.487 168.94 361.809 172.614 357.266 172.614Z" fill="#22A6FF"/>
<path d="M358.138 48.6387H173.488V146.66H358.138V48.6387Z" fill="#141D27"/>
<path d="M269.699 162.325C269.699 164.467 267.954 166.207 265.806 166.207C263.658 166.207 261.914 164.467 261.914 162.325C261.914 160.182 263.658 158.442 265.806 158.442C267.961 158.442 269.699 160.182 269.699 162.325Z" fill="#15202B"/>
<path d="M254.955 59.8242H189.573V135.935H254.955V59.8242Z" fill="white" fill-opacity="0.5"/>
<path d="M245.509 70.2046H199.024V74.3529H245.509V70.2046Z" fill="white" fill-opacity="0.5"/>
<path d="M245.509 77.8198H199.024V81.9681H245.509V77.8198Z" fill="white" fill-opacity="0.5"/>
<path d="M245.509 85.4282H199.024V89.5765H245.509V85.4282Z" fill="white" fill-opacity="0.5"/>
<path d="M245.509 93.0369H199.024V97.1852H245.509V93.0369Z" fill="white" fill-opacity="0.5"/>
<path d="M245.509 100.652H199.024V104.8H245.509V100.652Z" fill="white" fill-opacity="0.5"/>
<path d="M245.509 108.26H199.024V112.408H245.509V108.26Z" fill="white" fill-opacity="0.5"/>
<path d="M245.509 115.875H199.024V120.024H245.509V115.875Z" fill="white" fill-opacity="0.5"/>
<path d="M245.509 123.484H199.024V127.632H245.509V123.484Z" fill="white" fill-opacity="0.5"/>
<path d="M341.282 54.362C348.186 47.4763 348.186 36.3123 341.282 29.4266C334.377 22.5408 323.183 22.5408 316.279 29.4266C309.374 36.3123 309.374 47.4763 316.279 54.362C323.183 61.2477 334.377 61.2477 341.282 54.362Z" fill="white"/>
<path d="M186.136 97.886H134.496V108.747H186.136V97.886Z" fill="white"/>
<path d="M143.504 102.729C143.504 104.586 141.994 106.085 140.139 106.085C138.277 106.085 136.773 104.579 136.773 102.729C136.773 100.879 138.284 99.3726 140.139 99.3726C141.994 99.3661 143.504 100.872 143.504 102.729Z" fill="#141D27"/>
<path d="M141.311 101.502C141.311 102.151 140.783 102.671 140.139 102.671C139.488 102.671 138.967 102.145 138.967 101.502C138.967 100.859 139.495 100.334 140.139 100.334C140.783 100.327 141.311 100.853 141.311 101.502Z" fill="white"/>
<path d="M142.463 106.131H137.809V104.696C137.809 103.625 138.681 102.755 139.755 102.755H140.51C141.584 102.755 142.456 103.625 142.456 104.696V106.131H142.463Z" fill="white"/>
<path d="M179.522 100.651H145.152V101.171H179.522V100.651Z" fill="#141D27"/>
<path d="M179.522 102.209H145.152V102.729H179.522V102.209Z" fill="#141D27"/>
<path d="M179.522 103.768H145.152V104.287H179.522V103.768Z" fill="#141D27"/>
<path d="M179.522 105.326H145.152V105.845H179.522V105.326Z" fill="#141D27"/>
<path d="M186.136 112.519H134.496V123.379H186.136V112.519Z" fill="white"/>
<path d="M143.504 117.361C143.504 119.218 141.994 120.718 140.139 120.718C138.277 120.718 136.773 119.212 136.773 117.361C136.773 115.505 138.284 114.005 140.139 114.005C141.994 114.005 143.504 115.505 143.504 117.361Z" fill="#141D27"/>
<path d="M141.311 116.135C141.311 116.784 140.783 117.303 140.139 117.303C139.488 117.303 138.967 116.777 138.967 116.135C138.967 115.485 139.495 114.966 140.139 114.966C140.783 114.966 141.311 115.485 141.311 116.135Z" fill="white"/>
<path d="M142.463 120.763H137.809V119.329C137.809 118.258 138.681 117.388 139.755 117.388H140.51C141.584 117.388 142.456 118.258 142.456 119.329V120.763H142.463Z" fill="white"/>
<path d="M179.522 115.284H145.152V115.803H179.522V115.284Z" fill="#141D27"/>
<path d="M179.522 116.842H145.152V117.361H179.522V116.842Z" fill="#141D27"/>
<path d="M179.522 118.4H145.152V118.92H179.522V118.4Z" fill="#141D27"/>
<path d="M179.522 119.958H145.152V120.478H179.522V119.958Z" fill="#141D27"/>
<path d="M201.232 31.4C201.099 31.4 200.972 31.4053 200.845 31.4106C201.099 30.3751 201.232 29.2921 201.232 28.1774C201.232 20.6229 195.092 14.5 187.517 14.5C184.328 14.5 181.394 15.5882 179.063 17.4108C176.875 12.7619 172.139 9.53931 166.646 9.53931C160.083 9.53931 154.595 14.1407 153.249 20.29C151.829 19.7934 150.304 19.5187 148.709 19.5187C141.743 19.5187 135.996 24.696 135.116 31.4053C135.074 31.4053 135.037 31.4 134.995 31.4C131.085 31.4 127.679 33.5343 125.878 36.6935C125.401 37.5282 126.005 38.5689 126.969 38.5689H144.943H154.399H181.828H191.273H209.247C210.211 38.5689 210.815 37.5282 210.338 36.6935C208.547 33.5343 205.141 31.4 201.232 31.4Z" fill="white"/>
<path d="M597.053 58.9578H547.281C541.272 58.9578 536.403 63.8137 536.403 69.8057V166.295C536.403 172.287 541.272 177.143 547.281 177.143H597.053C603.061 177.143 607.93 172.287 607.93 166.295V69.8057C607.93 63.8137 603.061 58.9578 597.053 58.9578Z" fill="white"/>
<path d="M592.926 64.5537H551.401C546.389 64.5537 542.327 68.6046 542.327 73.6034V154.109C542.327 159.108 546.389 163.159 551.401 163.159H592.926C597.938 163.159 602 159.108 602 154.109V73.6034C602 68.6046 597.938 64.5537 592.926 64.5537Z" fill="#141D27"/>
<path d="M575.669 169.45C575.669 171.378 574.1 172.949 572.16 172.949C570.227 172.949 568.652 171.384 568.652 169.45C568.652 167.521 570.221 165.95 572.16 165.95C574.1 165.957 575.669 167.521 575.669 169.45Z" fill="#22A6FF"/>
<path d="M338.754 89.0327H210.504V139.909H338.754V89.0327Z" fill="white"/>
<path d="M261.724 129.034L247.286 114.635L261.926 100.035L264.38 102.482L252.194 114.635L264.184 126.586L261.724 129.034Z" fill="#22A6FF"/>
<path d="M286.519 129.034L284.065 126.586L296.251 114.434L284.267 102.482L286.721 100.035L301.159 114.434L286.519 129.034Z" fill="#22A6FF"/>
<path d="M277.902 101.705L267.329 127.151L270.534 128.476L281.107 103.03L277.902 101.705Z" fill="#22A6FF"/>
<path d="M338.754 82.6731H210.504V89.0326H338.754V82.6731Z" fill="#22A6FF"/>
<path opacity="0.5" d="M459.712 97.5184L449.922 97.5184C449.137 97.5214 448.385 97.8912 447.824 98.5476C447.263 99.2039 446.938 100.096 446.919 101.034L446.89 101.034L446.89 111.978C446.892 112.032 446.904 112.083 446.904 112.137C446.904 112.192 446.892 112.243 446.89 112.296L446.89 112.481L446.874 112.481C446.724 115.023 444.969 117.036 442.805 117.036C441.866 117.036 441.012 116.644 440.32 116.009L440.32 116.105C439.376 115.452 438.303 115.108 437.212 115.108C436.391 115.108 435.579 115.301 434.821 115.676C434.064 116.052 433.375 116.602 432.795 117.295C432.215 117.989 431.755 118.812 431.441 119.718C431.128 120.624 430.966 121.595 430.966 122.575C430.966 123.556 431.128 124.527 431.442 125.433C431.755 126.338 432.215 127.161 432.795 127.855C433.375 128.548 434.064 129.098 434.822 129.473C435.579 129.848 436.392 130.041 437.212 130.041C438.344 130.041 439.404 129.675 440.32 129.044L440.32 129.127C441.029 128.472 441.899 128.115 442.794 128.112C444.957 128.112 446.712 130.125 446.861 132.668L446.89 132.668L446.89 145.856L446.906 145.856C446.909 146.81 447.228 147.723 447.794 148.396C448.359 149.07 449.124 149.448 449.922 149.448C449.966 149.448 450.007 149.434 450.051 149.432L460.247 149.432L460.247 149.393C460.699 149.393 461.133 149.178 461.452 148.796C461.772 148.415 461.952 147.897 461.952 147.356C461.952 147.151 461.918 146.957 461.869 146.771C461.464 145.658 461.255 144.458 461.255 143.244C461.255 138.347 464.576 134.377 468.672 134.377C472.768 134.377 476.088 138.347 476.088 143.244C476.089 144.426 475.892 145.596 475.508 146.684C475.437 146.908 475.4 147.144 475.399 147.383C475.398 147.65 475.442 147.915 475.528 148.163C475.614 148.41 475.739 148.634 475.898 148.824C476.056 149.013 476.244 149.163 476.451 149.265C476.658 149.367 476.88 149.419 477.103 149.419C477.2 149.419 477.293 149.403 477.386 149.384L477.386 149.432L487.174 149.432C487.218 149.435 487.259 149.448 487.303 149.448C488.104 149.447 488.871 149.067 489.437 148.39C490.003 147.714 490.321 146.797 490.321 145.84C490.321 145.741 490.304 145.647 490.297 145.55L490.297 133.57C490.297 133.302 490.253 133.037 490.167 132.79C490.081 132.543 489.955 132.318 489.797 132.129C489.639 131.94 489.451 131.789 489.244 131.687C489.037 131.585 488.815 131.532 488.591 131.532C488.402 131.532 488.225 131.578 488.056 131.645L488.045 131.648C488.007 131.664 487.965 131.673 487.928 131.692L487.928 131.685C487.251 131.923 486.55 132.044 485.845 132.045C484.871 132.046 483.907 131.816 483.007 131.371C482.107 130.926 481.29 130.273 480.601 129.449C479.912 128.626 479.366 127.649 478.993 126.573C478.621 125.497 478.429 124.344 478.429 123.18C478.429 122.016 478.621 120.863 478.993 119.788C479.366 118.712 479.912 117.735 480.601 116.911C481.29 116.088 482.107 115.435 483.007 114.99C483.907 114.544 484.871 114.315 485.845 114.315C486.55 114.316 487.251 114.438 487.928 114.676L487.928 114.653C488.187 114.785 488.47 114.838 488.75 114.807C489.031 114.776 489.301 114.663 489.536 114.477C489.771 114.291 489.963 114.039 490.097 113.742C490.23 113.445 490.3 113.114 490.3 112.777C490.3 112.765 490.297 112.754 490.297 112.742L490.297 101.125C490.296 100.176 489.982 99.2644 489.423 98.5896C488.863 97.9148 488.104 97.5309 487.309 97.5211L487.309 97.5166L477.386 97.5166L477.386 97.5584C476.975 97.6182 476.596 97.8559 476.321 98.2266C476.046 98.5973 475.894 99.0754 475.894 99.5708L475.819 99.5708C475.995 100.33 476.085 101.114 476.087 101.902C476.087 106.799 472.767 110.768 468.671 110.768C464.575 110.768 461.255 106.799 461.255 101.902C461.255 101.094 461.353 100.315 461.523 99.5708L461.451 99.5708L461.453 99.5481C461.453 98.6309 460.944 97.8653 460.247 97.6101L460.247 97.5166L459.787 97.5166C459.774 97.5166 459.763 97.512 459.75 97.512C459.737 97.5138 459.725 97.5175 459.712 97.5184Z" fill="white"/>
<path d="M441.559 112.313V100.775C441.556 99.8495 441.186 98.9622 440.53 98.3012C439.874 97.6403 438.982 97.2578 438.044 97.2352V97.2012H427.099C427.046 97.203 426.995 97.2173 426.94 97.2173C426.886 97.2173 426.835 97.203 426.781 97.2012H426.597V97.1824C424.054 97.0051 422.042 94.9368 422.042 92.3868C422.042 91.2802 422.434 90.2729 423.069 89.4581H422.973C423.626 88.3446 423.97 87.0808 423.97 85.7943C423.97 84.8275 423.777 83.8702 423.401 82.9771C423.026 82.0839 422.476 81.2724 421.782 80.5889C421.089 79.9053 420.266 79.3632 419.36 78.9934C418.454 78.6236 417.483 78.4334 416.502 78.4336C415.522 78.4335 414.551 78.6238 413.645 78.9937C412.739 79.3635 411.916 79.9057 411.223 80.5892C410.53 81.2728 409.98 82.0843 409.605 82.9774C409.229 83.8705 409.036 84.8277 409.037 85.7943C409.037 87.1293 409.403 88.3783 410.034 89.4581H409.951C410.606 90.2932 410.962 91.318 410.965 92.3734C410.965 94.9225 408.953 96.9908 406.409 97.1671V97.2012H393.222V97.2191C392.268 97.2231 391.354 97.5994 390.681 98.2658C390.008 98.9321 389.63 99.8341 389.63 100.775C389.63 100.826 389.644 100.875 389.645 100.927V112.943H389.684C389.685 113.476 389.899 113.987 390.281 114.363C390.663 114.74 391.181 114.952 391.721 114.953C391.927 114.953 392.121 114.912 392.307 114.855C393.42 114.378 394.62 114.131 395.833 114.131C400.731 114.131 404.7 118.045 404.7 122.872C404.7 127.7 400.731 131.612 395.833 131.612C394.652 131.614 393.482 131.381 392.393 130.929C392.17 130.846 391.934 130.802 391.695 130.8C391.427 130.8 391.162 130.852 390.915 130.953C390.668 131.054 390.443 131.202 390.254 131.388C390.065 131.575 389.915 131.797 389.813 132.04C389.711 132.284 389.658 132.546 389.659 132.81C389.659 132.923 389.674 133.033 389.693 133.143H389.645V144.678C389.643 144.73 389.63 144.779 389.63 144.831C389.63 145.774 390.011 146.678 390.687 147.345C391.364 148.012 392.281 148.387 393.238 148.388C393.337 148.388 393.43 148.367 393.528 148.359H405.508C405.775 148.359 406.04 148.307 406.288 148.206C406.535 148.105 406.76 147.957 406.949 147.77C407.138 147.583 407.288 147.361 407.391 147.118C407.493 146.874 407.546 146.612 407.545 146.348C407.545 146.126 407.5 145.918 407.433 145.718L407.429 145.705C407.414 145.66 407.405 145.61 407.386 145.567H407.393C407.155 144.77 407.034 143.943 407.032 143.112C407.032 141.965 407.261 140.828 407.707 139.767C408.152 138.707 408.805 137.743 409.628 136.931C410.452 136.12 411.429 135.476 412.505 135.037C413.58 134.598 414.733 134.372 415.897 134.372C417.062 134.372 418.214 134.598 419.29 135.037C420.366 135.476 421.343 136.12 422.166 136.932C422.99 137.743 423.642 138.707 424.088 139.767C424.533 140.828 424.763 141.965 424.763 143.112C424.761 143.943 424.64 144.77 424.402 145.567H424.425C424.293 145.872 424.24 146.205 424.271 146.536C424.302 146.867 424.415 147.185 424.601 147.462C424.787 147.739 425.039 147.966 425.336 148.123C425.633 148.28 425.964 148.363 426.301 148.363C426.313 148.363 426.324 148.359 426.335 148.359H437.952C438.902 148.358 439.813 147.988 440.488 147.328C441.163 146.669 441.547 145.774 441.557 144.838H441.561V133.143H441.519C441.459 132.658 441.222 132.211 440.851 131.887C440.48 131.563 440.266 131.833 439.507 132.04C438.748 132.248 437.964 132.807 437.176 132.81C431.496 133.238 428.31 127.699 428.31 122.871C428.31 118.044 430.437 112.223 437.176 113.411C437.972 113.551 438.702 113.74 439.446 113.941L440.851 113.411L440.148 113.676C441.066 113.676 441.304 113.135 441.559 112.313L441.561 112.942V112.401C441.561 112.386 441.566 112.372 441.566 112.357C441.564 112.342 441.56 112.328 441.559 112.313Z" fill="white"/>
<path d="M600.562 108.994C600.254 109.015 599.945 108.969 599.657 108.86C599.599 108.834 599.537 108.818 599.473 108.812C599.308 108.812 599.14 108.812 598.974 108.812H598.561C598.433 107.13 597.748 105.535 596.61 104.266L596.732 104.147L597.215 103.676C597.357 103.537 597.41 103.359 597.519 103.197C597.679 102.95 597.892 102.74 598.144 102.582C598.375 102.439 598.613 102.305 598.83 102.141C599.033 102.008 599.193 101.821 599.29 101.601C599.369 101.362 599.256 101.146 599.087 100.975C599.011 100.891 598.916 100.826 598.81 100.784C598.703 100.743 598.588 100.726 598.474 100.735C598.264 100.773 598.072 100.878 597.93 101.034C597.605 101.356 597.433 101.784 597.14 102.128C596.937 102.353 596.686 102.533 596.405 102.655C596.345 102.677 596.29 102.709 596.242 102.749C596.119 102.868 595.997 102.988 595.874 103.115L595.624 103.339C594.826 102.705 593.91 102.228 592.927 101.934C592.316 101.731 591.684 101.598 591.042 101.539V100.599C591.045 100.572 591.045 100.545 591.042 100.518C591.03 100.459 590.993 100.398 590.975 100.341C590.927 100.187 590.894 100.03 590.877 99.8705C590.81 99.3466 591.03 98.8694 591.084 98.3538C591.105 98.1481 591.112 97.9136 590.996 97.7306C590.879 97.5476 590.638 97.4866 590.414 97.4782H590.386C590.153 97.4679 589.924 97.5444 589.746 97.6923C589.626 97.8264 589.563 98 589.569 98.178C589.554 98.6206 589.725 99.0428 589.792 99.4758C589.826 99.7764 589.792 100.081 589.692 100.367C589.659 100.444 589.633 100.524 589.614 100.606C589.604 100.761 589.604 100.917 589.614 101.071V101.545C587.956 101.7 586.384 102.339 585.103 103.378L584.948 103.22L584.489 102.777C584.469 102.754 584.446 102.732 584.422 102.711C584.374 102.686 584.325 102.664 584.273 102.647C584.121 102.572 583.976 102.484 583.841 102.382C583.388 102.043 583.196 101.519 582.83 101.105C582.697 100.927 582.5 100.805 582.277 100.764C582.147 100.757 582.018 100.778 581.897 100.825C581.776 100.872 581.667 100.944 581.577 101.037C580.776 101.844 582.331 102.371 582.79 102.801C583.011 103.024 583.191 103.282 583.323 103.563C583.338 103.592 583.357 103.619 583.381 103.642C583.511 103.774 583.646 103.9 583.778 104.031L584.097 104.341C584.065 104.378 584.031 104.412 583.999 104.449C582.963 105.688 582.345 107.207 582.227 108.801H581.332C581.274 108.798 581.216 108.805 581.161 108.821C580.946 108.899 580.722 108.951 580.495 108.978C579.98 109.027 579.487 108.799 578.977 108.762C578.743 108.733 578.505 108.775 578.295 108.881C578.195 108.943 578.114 109.03 578.061 109.134C578.007 109.237 577.983 109.352 577.99 109.467C578.006 110.575 579.454 109.995 580.1 109.918C580.398 109.896 580.698 109.937 580.979 110.038C581.044 110.067 581.113 110.087 581.184 110.099C581.349 110.112 581.522 110.099 581.688 110.099H582.031C585.36 109.762 588.328 109.97 589.611 111.399C590.651 112.559 589.895 114.995 588.857 117.172C589.103 117.214 589.359 117.247 589.611 117.267V118.291C589.609 118.32 589.609 118.349 589.611 118.378C589.628 118.429 589.647 118.479 589.67 118.528C589.719 118.674 589.755 118.823 589.777 118.974C589.814 119.241 589.798 119.512 589.729 119.772C589.664 120.02 589.614 120.27 589.578 120.523C589.555 120.735 589.548 120.976 589.667 121.165C589.786 121.354 590.042 121.421 590.28 121.424C590.513 121.435 590.742 121.358 590.918 121.208C591.038 121.072 591.101 120.897 591.095 120.718C591.108 120.276 590.938 119.855 590.872 119.422C590.839 119.122 590.873 118.818 590.972 118.532C591.005 118.454 591.031 118.374 591.05 118.293C591.058 118.138 591.058 117.982 591.05 117.827V117.258C591.675 117.203 592.292 117.079 592.889 116.888C593.86 116.603 594.767 116.14 595.56 115.523L595.703 115.665L596.173 116.122C596.194 116.147 596.218 116.17 596.244 116.191C596.283 116.215 596.324 116.235 596.367 116.251C596.505 116.313 596.637 116.388 596.762 116.473C596.998 116.644 597.198 116.859 597.349 117.106C597.489 117.338 597.644 117.561 597.813 117.773C597.951 117.959 598.15 118.091 598.377 118.148C598.506 118.161 598.635 118.145 598.756 118.1C598.877 118.055 598.985 117.983 599.071 117.89C599.896 117.058 598.366 116.541 597.885 116.095C597.656 115.881 597.473 115.625 597.345 115.342C597.331 115.306 597.311 115.273 597.284 115.245C597.161 115.113 597.024 114.991 596.895 114.864L596.586 114.564C597.721 113.313 598.412 111.739 598.558 110.075H599.326C599.385 110.078 599.443 110.071 599.499 110.053C599.727 109.97 599.965 109.916 600.208 109.893C600.715 109.858 601.203 110.091 601.71 110.117C601.942 110.14 602.177 110.095 602.383 109.988C602.599 109.861 602.668 109.643 602.672 109.406C602.646 108.331 601.175 108.928 600.562 108.994ZM587.524 108.799H584.949C585.055 107.853 585.411 106.95 585.981 106.178L587.321 107.485L587.858 108.01C587.708 108.256 587.595 108.521 587.524 108.799ZM589.608 106.013V106.719C589.34 106.786 589.083 106.892 588.848 107.033C588.211 106.411 587.574 105.79 586.938 105.17C587.264 104.903 587.62 104.673 587.999 104.484C588.508 104.248 589.05 104.089 589.608 104.013V106.013ZM594.691 106.132C595.265 106.868 595.644 107.731 595.794 108.644C595.803 108.701 595.809 108.756 595.816 108.811H593.151C593.083 108.515 592.966 108.232 592.805 107.973L594.691 106.132ZM591.045 104.009C592.036 104.145 592.97 104.546 593.742 105.168L592.292 106.587L591.831 107.036C591.585 106.895 591.321 106.789 591.045 106.722V104.009ZM591.045 114.793V112.082C591.289 112.021 591.525 111.928 591.743 111.805L593.685 113.698C592.947 114.261 592.073 114.631 591.148 114.775L591.045 114.793ZM593.329 111.399L592.759 110.844C592.912 110.607 593.03 110.35 593.108 110.08H595.819C595.691 111.044 595.298 111.956 594.683 112.721L593.329 111.399Z" fill="#22A6FF"/>
<path d="M553.328 113.818C553.328 113.689 553.205 113.571 552.967 113.459C552.729 113.348 552.36 113.299 551.864 113.299C551.591 113.292 551.318 113.316 551.051 113.368C550.889 113.399 550.735 113.462 550.598 113.553C550.506 113.616 550.437 113.706 550.402 113.811C550.373 113.904 550.359 114.002 550.359 114.099C550.362 114.203 550.389 114.304 550.439 114.395C550.489 114.487 550.561 114.565 550.647 114.624C550.882 114.799 551.139 114.943 551.411 115.053C551.728 115.187 552.088 115.322 552.491 115.456C552.895 115.59 553.309 115.74 553.733 115.905C554.158 116.071 554.572 116.26 554.974 116.472C555.365 116.677 555.728 116.93 556.054 117.224C556.371 117.513 556.631 117.857 556.819 118.238C557.019 118.656 557.117 119.113 557.107 119.574C557.107 120.224 556.979 120.769 556.722 121.209C556.467 121.65 556.097 122.017 555.65 122.274C555.146 122.559 554.595 122.754 554.021 122.852C553.338 122.971 552.645 123.029 551.951 123.023C551.514 123.023 551.077 122.99 550.645 122.926C550.227 122.864 549.814 122.77 549.412 122.643C549.035 122.527 548.671 122.376 548.324 122.191C548.009 122.027 547.716 121.824 547.454 121.587C547.218 121.374 547.023 121.122 546.876 120.843C546.736 120.573 546.664 120.273 546.665 119.97C546.661 119.759 546.7 119.548 546.779 119.352C546.847 119.187 546.951 119.039 547.082 118.916C547.207 118.803 547.354 118.717 547.514 118.663C547.676 118.607 547.848 118.578 548.02 118.579C548.24 118.58 548.458 118.621 548.663 118.699C548.876 118.777 549.072 118.894 549.24 119.045C549.428 119.214 549.577 119.42 549.676 119.649C549.776 119.878 549.824 120.125 549.817 120.374C549.824 120.458 549.861 120.537 549.922 120.597C550.006 120.687 550.108 120.762 550.221 120.816C550.376 120.893 550.541 120.951 550.711 120.989C550.931 121.038 551.156 121.062 551.382 121.059C551.664 121.065 551.946 121.043 552.223 120.993C552.394 120.963 552.557 120.903 552.705 120.815C552.802 120.755 552.877 120.667 552.918 120.562C552.951 120.473 552.968 120.378 552.968 120.283C552.968 120.164 552.88 120.066 552.705 119.977C552.481 119.871 552.249 119.782 552.012 119.709C551.728 119.62 551.399 119.523 551.031 119.421C550.663 119.319 550.288 119.197 549.908 119.055C549.523 118.911 549.148 118.743 548.785 118.551C548.425 118.363 548.095 118.125 547.804 117.844C547.516 117.565 547.282 117.237 547.113 116.877C546.928 116.471 546.838 116.03 546.848 115.586C546.843 115.143 546.905 114.702 547.033 114.278C547.145 113.911 547.319 113.565 547.547 113.255C547.767 112.961 548.035 112.704 548.341 112.496C548.661 112.28 549.007 112.105 549.372 111.975C549.769 111.833 550.18 111.733 550.598 111.676C551.048 111.612 551.502 111.58 551.957 111.581C552.682 111.567 553.406 111.651 554.107 111.829C554.623 111.959 555.111 112.174 555.552 112.465C555.884 112.69 556.158 112.987 556.351 113.334C556.51 113.619 556.597 113.938 556.603 114.263C556.61 114.511 556.549 114.756 556.426 114.972C556.31 115.168 556.152 115.337 555.962 115.466C555.765 115.6 555.545 115.697 555.312 115.752C555.072 115.812 554.825 115.843 554.577 115.843C554.343 115.843 554.11 115.818 553.882 115.767C553.672 115.719 553.471 115.64 553.286 115.531C553.121 115.437 552.977 115.309 552.865 115.158C552.757 115.01 552.702 114.831 552.707 114.65C552.698 114.537 552.732 114.425 552.803 114.336C552.866 114.272 552.938 114.216 553.017 114.171C553.091 114.129 553.162 114.082 553.231 114.032C553.264 114.008 553.291 113.975 553.308 113.938C553.325 113.9 553.332 113.859 553.328 113.818Z" fill="#22A6FF"/>
<path d="M567.017 117.779H563.805V119.901C563.797 120.068 563.828 120.234 563.895 120.388C563.944 120.492 564.019 120.583 564.113 120.654C564.196 120.711 564.29 120.752 564.39 120.773C564.49 120.797 564.582 120.822 564.665 120.85C564.742 120.876 564.813 120.917 564.875 120.969C564.907 121.001 564.93 121.038 564.945 121.08C564.96 121.121 564.965 121.165 564.961 121.209C564.961 121.789 564.654 122.208 564.041 122.465C563.427 122.721 562.539 122.85 561.378 122.852C560.878 122.856 560.378 122.825 559.883 122.758C559.503 122.711 559.132 122.613 558.78 122.466C558.512 122.356 558.278 122.18 558.102 121.955C557.944 121.737 557.863 121.476 557.87 121.21C557.866 121.166 557.871 121.122 557.886 121.081C557.901 121.04 557.925 121.002 557.956 120.971C558.017 120.92 558.089 120.882 558.165 120.859C558.249 120.834 558.34 120.81 558.436 120.786C558.534 120.764 558.626 120.724 558.707 120.667C558.798 120.6 558.87 120.513 558.918 120.413C558.983 120.262 559.013 120.098 559.004 119.935V114.682C559.012 114.519 558.983 114.355 558.918 114.204C558.871 114.102 558.798 114.014 558.707 113.947C558.625 113.891 558.534 113.85 558.436 113.827C558.34 113.804 558.249 113.78 558.165 113.754C558.088 113.732 558.017 113.694 557.956 113.643C557.925 113.611 557.901 113.574 557.886 113.532C557.871 113.491 557.866 113.447 557.87 113.404C557.863 113.139 557.944 112.879 558.102 112.663C558.279 112.439 558.512 112.264 558.78 112.155C559.132 112.007 559.503 111.909 559.883 111.863C560.378 111.796 560.878 111.764 561.378 111.768C561.893 111.764 562.408 111.796 562.919 111.863C563.305 111.909 563.683 112.007 564.042 112.155C564.312 112.263 564.548 112.438 564.727 112.663C564.885 112.879 564.966 113.139 564.959 113.404C564.963 113.447 564.957 113.491 564.943 113.532C564.928 113.574 564.904 113.611 564.873 113.643C564.812 113.694 564.74 113.732 564.662 113.754C564.58 113.78 564.488 113.804 564.387 113.827C564.289 113.85 564.196 113.89 564.113 113.947C564.022 114.014 563.95 114.103 563.903 114.204C563.838 114.355 563.809 114.519 563.817 114.682V116.436H567.017V114.682C567.026 114.519 566.996 114.355 566.931 114.204C566.885 114.102 566.813 114.014 566.722 113.947C566.639 113.89 566.546 113.85 566.447 113.827C566.347 113.804 566.256 113.78 566.173 113.754C566.095 113.732 566.023 113.694 565.962 113.643C565.931 113.611 565.907 113.573 565.892 113.532C565.878 113.491 565.872 113.447 565.876 113.404C565.876 112.829 566.182 112.412 566.793 112.155C567.403 111.898 568.292 111.768 569.457 111.768C570.601 111.768 571.479 111.897 572.089 112.155C572.702 112.412 573.001 112.829 573.001 113.404C573.006 113.447 573 113.491 572.985 113.533C572.969 113.574 572.945 113.612 572.913 113.643C572.848 113.695 572.772 113.732 572.691 113.754C572.604 113.78 572.507 113.804 572.403 113.827C572.3 113.849 572.202 113.89 572.114 113.947C572.019 114.013 571.943 114.101 571.893 114.204C571.826 114.354 571.795 114.518 571.804 114.682V119.901C571.795 120.068 571.826 120.235 571.893 120.388C571.943 120.493 572.019 120.584 572.114 120.654C572.201 120.712 572.3 120.752 572.403 120.773C572.507 120.797 572.604 120.822 572.691 120.85C572.772 120.876 572.847 120.916 572.913 120.969C572.945 121 572.969 121.038 572.985 121.079C573 121.121 573.006 121.165 573.001 121.209C573.008 121.475 572.927 121.736 572.77 121.954C572.593 122.179 572.358 122.356 572.089 122.465C571.734 122.612 571.359 122.71 570.976 122.756C570.473 122.823 569.965 122.855 569.457 122.851C568.942 122.855 568.427 122.824 567.916 122.756C567.53 122.71 567.152 122.612 566.793 122.465C566.522 122.356 566.286 122.18 566.108 121.954C565.95 121.736 565.869 121.475 565.876 121.209C565.872 121.165 565.878 121.121 565.892 121.08C565.907 121.039 565.931 121.001 565.962 120.969C566.024 120.917 566.095 120.876 566.173 120.85C566.256 120.822 566.347 120.797 566.447 120.773C566.546 120.752 566.639 120.711 566.722 120.654C566.812 120.584 566.884 120.494 566.931 120.392C566.997 120.236 567.026 120.069 567.017 119.901V117.779Z" fill="#22A6FF"/>
<path d="M582.943 114.682C583.055 114.624 583.146 114.536 583.207 114.427C583.24 114.361 583.26 114.289 583.264 114.216C583.262 114.173 583.25 114.132 583.229 114.095C583.207 114.059 583.178 114.027 583.142 114.004C583.063 113.94 582.975 113.876 582.877 113.809C582.782 113.744 582.694 113.67 582.613 113.589C582.574 113.552 582.543 113.508 582.522 113.459C582.501 113.41 582.49 113.357 582.491 113.304C582.481 113.039 582.56 112.777 582.715 112.559C582.869 112.354 583.072 112.19 583.307 112.08C583.572 111.959 583.853 111.875 584.142 111.833C584.457 111.784 584.776 111.759 585.095 111.76C585.457 111.758 585.818 111.786 586.175 111.844C586.484 111.89 586.785 111.976 587.07 112.101C587.308 112.202 587.518 112.357 587.683 112.553C587.836 112.74 587.917 112.974 587.912 113.214C587.919 113.356 587.872 113.495 587.78 113.604C587.68 113.71 587.558 113.794 587.423 113.851C587.256 113.924 587.083 113.983 586.906 114.025C586.71 114.074 586.508 114.131 586.3 114.195C586.084 114.263 585.873 114.346 585.668 114.443C585.453 114.544 585.255 114.677 585.08 114.836L583.584 116.205L586.566 119.913C586.691 120.076 586.838 120.222 587.005 120.345C587.135 120.436 587.272 120.516 587.416 120.584C587.531 120.639 587.65 120.686 587.771 120.726C587.871 120.756 587.966 120.796 588.057 120.846C588.137 120.891 588.202 120.957 588.246 121.037C588.297 121.147 588.321 121.267 588.314 121.388C588.314 121.904 588.023 122.277 587.44 122.509C586.857 122.74 586.016 122.854 584.917 122.852C584.421 122.856 583.925 122.823 583.433 122.755C583.049 122.704 582.674 122.602 582.318 122.451C582.042 122.338 581.8 122.159 581.615 121.93C581.449 121.709 581.363 121.441 581.37 121.168C581.367 121.117 581.376 121.067 581.397 121.02C581.419 120.974 581.452 120.934 581.493 120.903C581.578 120.843 581.67 120.792 581.766 120.75C581.865 120.706 581.957 120.66 582.041 120.615C582.079 120.595 582.111 120.565 582.133 120.528C582.155 120.491 582.165 120.448 582.163 120.406C582.16 120.336 582.139 120.267 582.102 120.207C582.045 120.112 581.982 120.02 581.913 119.932L580.687 118.367C580.642 118.308 580.584 118.259 580.517 118.224C580.45 118.189 580.379 118.163 580.306 118.144C580.229 118.125 580.15 118.115 580.071 118.113H579.825H579.683V119.907C579.675 120.072 579.704 120.238 579.768 120.391C579.815 120.496 579.888 120.587 579.981 120.657C580.065 120.714 580.159 120.755 580.259 120.776C580.36 120.8 580.452 120.826 580.538 120.853C580.616 120.879 580.689 120.92 580.752 120.973C580.783 121.004 580.806 121.042 580.821 121.083C580.835 121.125 580.841 121.168 580.837 121.212C580.837 121.792 580.53 122.211 579.917 122.468C579.304 122.725 578.417 122.853 577.257 122.854C576.757 122.858 576.257 122.827 575.762 122.76C575.382 122.714 575.011 122.615 574.659 122.468C574.391 122.358 574.157 122.182 573.981 121.957C573.824 121.739 573.742 121.478 573.749 121.212C573.745 121.168 573.751 121.125 573.766 121.083C573.781 121.042 573.804 121.004 573.835 120.973C573.897 120.922 573.969 120.885 574.046 120.861C574.129 120.836 574.219 120.812 574.317 120.788C574.414 120.766 574.506 120.726 574.588 120.669C574.678 120.602 574.751 120.515 574.799 120.415C574.863 120.264 574.892 120.1 574.883 119.937V114.682C574.891 114.518 574.862 114.355 574.799 114.204C574.751 114.102 574.679 114.014 574.588 113.946C574.506 113.891 574.414 113.85 574.317 113.827C574.219 113.804 574.129 113.78 574.046 113.754C573.968 113.732 573.897 113.694 573.835 113.643C573.804 113.611 573.781 113.573 573.766 113.532C573.751 113.491 573.745 113.447 573.749 113.403C573.742 113.139 573.823 112.879 573.981 112.663C574.158 112.439 574.392 112.264 574.659 112.155C575.011 112.007 575.382 111.909 575.762 111.863C576.257 111.796 576.757 111.764 577.257 111.768C577.772 111.764 578.287 111.795 578.798 111.863C579.184 111.909 579.562 112.007 579.921 112.155C580.191 112.263 580.426 112.438 580.605 112.663C580.763 112.879 580.844 113.139 580.837 113.403C580.841 113.447 580.835 113.491 580.821 113.532C580.806 113.573 580.783 113.611 580.752 113.643C580.69 113.694 580.617 113.732 580.538 113.754C580.452 113.78 580.36 113.804 580.259 113.827C580.16 113.85 580.066 113.891 579.981 113.946C579.888 114.013 579.815 114.101 579.768 114.204C579.703 114.355 579.674 114.518 579.682 114.682V116.853C579.816 116.853 579.955 116.846 580.102 116.833C580.248 116.82 580.387 116.769 580.503 116.683L582.943 114.682Z" fill="#22A6FF"/>
<path d="M331.51 49.5114C331.289 49.5114 331.061 49.4595 330.846 49.3556C329.459 48.6805 328.099 49.3232 328.04 49.3492C327.285 49.7127 326.374 49.4076 326.003 48.661C325.632 47.9144 325.925 47.0121 326.667 46.6355C326.777 46.5771 329.407 45.2722 332.18 46.6226C332.935 46.9926 333.254 47.9015 332.883 48.6545C332.617 49.1998 332.076 49.5114 331.51 49.5114Z" fill="#22A6FF"/>
<path d="M335.208 45.3823C334.908 45.3823 334.602 45.2914 334.336 45.1097C329.434 41.6819 324.734 45.0512 324.688 45.0902C324.011 45.5901 323.054 45.4472 322.553 44.7656C322.052 44.0904 322.195 43.1361 322.879 42.6362C325.111 40.9938 330.742 38.8774 336.087 42.6168C336.777 43.0972 336.946 44.045 336.458 44.7331C336.165 45.1551 335.69 45.3823 335.208 45.3823Z" fill="#22A6FF"/>
<path d="M338.911 41.5264C338.586 41.5264 338.254 41.4225 337.98 41.2083C328.9 34.2036 321.492 40.8318 321.179 41.1174C320.561 41.6822 319.597 41.6498 319.025 41.033C318.452 40.4163 318.484 39.462 319.096 38.8907C319.194 38.7998 328.672 30.1916 339.842 38.7998C340.506 39.3127 340.63 40.267 340.116 40.9356C339.823 41.3252 339.367 41.5264 338.911 41.5264Z" fill="#22A6FF"/>
<path d="M545.929 31.669C545.929 48.6174 532.342 62.3381 515.604 62.3381C498.866 62.3381 485.279 48.6174 485.279 31.669C485.279 14.7207 498.866 1 515.604 1C532.342 1 545.929 14.7207 545.929 31.669Z" fill="#15202B" stroke="#22A6FF" stroke-width="2"/>
<path d="M525.57 34.1961C524.549 32.8101 523.173 31.9764 521.451 31.6949C524.828 30.5054 526.519 28.2325 526.519 24.8657C526.519 22.6035 525.746 20.7342 524.204 19.2633C524.116 19.1783 524.018 19.0986 523.926 19.019C523.116 18.3233 522.178 17.8082 521.1 17.4843C520.688 17.3621 520.255 17.2612 519.801 17.1922V13.4112V12.6677H516.234V16.8895V17.0541H516.063H514.378V12.6677H510.81V17.0541H506.861V26.0287V31.3657V35.6565V46.8349H510.81V51.2213H514.378V46.8349H516.234V51.0939V51.2213H519.801V47.6156V46.7818C520.147 46.75 520.477 46.7022 520.801 46.6438C522.446 46.357 523.802 45.7251 524.859 44.7373C526.014 43.6593 526.715 42.2839 526.978 40.6217C527.055 40.1279 527.101 39.6181 527.101 39.0764C527.101 37.2071 526.591 35.5822 525.57 34.1961ZM513.099 29.0185V25.2853V22.5663H515.888H517.187C518.084 22.5663 518.811 22.8425 519.358 23.3948C519.373 23.4107 519.378 23.4266 519.394 23.4426C519.915 23.9948 520.178 24.7808 520.178 25.8163C520.178 26.8784 519.904 27.675 519.358 28.2113C518.811 28.7477 518.084 29.0185 517.187 29.0185H513.671H513.099ZM519.92 40.4306C519.358 41.0253 513.099 41.3227 513.099 41.3227V34.536H517.878C518.729 34.536 519.42 34.8493 519.956 35.4706C520.492 36.092 520.76 36.9257 520.76 37.9718C520.755 39.018 520.477 39.8358 519.92 40.4306Z" fill="white"/>
<path d="M515.26 67.4195C515.26 76.2834 508.125 83.463 499.331 83.463C490.537 83.463 483.402 76.2834 483.402 67.4195C483.402 58.5556 490.537 51.376 499.331 51.376C508.125 51.376 515.26 58.5556 515.26 67.4195Z" fill="#15202B" stroke="#22A6FF"/>
<path d="M505.41 72.8759H497.792L499.766 68.7168L504.81 67.8171V64.9756L501.242 65.6113L503.153 61.5886L504.796 58.1318H504.323H501.262H500.34L499.576 59.7398L497.043 65.0743L496.374 66.482L495.38 66.659L492.125 67.2395V69.7587V70.0809L494.737 69.6165L494.898 69.5875L492.984 73.6131C492.255 75.1485 493.368 76.9247 495.057 76.9247H501.161H504.81L506.563 72.8759H505.41Z" fill="white"/>
<path d="M577.672 56.1977C577.672 69.7541 566.76 80.7378 553.306 80.7378C539.852 80.7378 528.94 69.7541 528.94 56.1977C528.94 42.6414 539.852 31.6577 553.306 31.6577C566.76 31.6577 577.672 42.6414 577.672 56.1977Z" fill="#15202B" stroke="#22A6FF"/>
<path opacity="0.5" d="M553.304 59.7753L562.441 54.0783L557.67 44.7771L556.472 42.4346L554.976 39.5237L553.304 36.2683L548.495 45.6513L544.18 54.0611L544.172 54.0783L546.383 55.4563L553.304 59.7753Z" fill="white"/>
<path opacity="0.5" d="M544.742 57.1293L544.642 57.226L551.609 70.9189L553.389 74.4157L558.528 64.3207L562.258 56.9932L553.389 62.5635L544.742 57.1293Z" fill="white"/>
</svg>
