<svg width="750" height="348" viewBox="0 0 750 348" fill="none" xmlns="http://www.w3.org/2000/svg">
<g clip-path="url(#clip0_308_118)">
<path d="M89.5191 238.697H239.407V236.621H90.415L50.2037 194.024H16.6427V196.101H49.3078L89.5191 238.697Z" fill="#22A6FF"/>
<path d="M90.4149 255.342H239.407V253.265H89.5191L69.2928 274.685H14.1617V276.761H70.1887L90.4149 255.342Z" fill="#22A6FF"/>
<path d="M120.84 271.051H239.407V268.975H119.979L77.597 313.89H52.8913V315.966H78.4928L120.84 271.051Z" fill="#22A6FF"/>
<path d="M12.7145 201.187C15.8501 201.187 18.3999 198.488 18.3999 195.201C18.3999 191.914 15.8501 189.215 12.7145 189.215C9.57893 189.215 7.02911 191.914 7.02911 195.201C6.99465 198.488 9.54447 201.187 12.7145 201.187ZM12.7145 191.291C14.713 191.291 16.3325 193.055 16.3325 195.201C16.3325 197.346 14.713 199.111 12.7145 199.111C10.716 199.111 9.09654 197.346 9.09654 195.201C9.06209 193.055 10.716 191.291 12.7145 191.291Z" fill="#22A6FF"/>
<path d="M76.0119 180.875C79.1475 180.875 81.6973 178.176 81.6973 174.889C81.6973 171.602 79.1475 168.903 76.0119 168.903C72.8763 168.903 70.3265 171.602 70.3265 174.889C70.3265 178.211 72.8763 180.875 76.0119 180.875ZM76.0119 170.979C78.0104 170.979 79.6299 172.743 79.6299 174.889C79.6299 177.034 78.0104 178.799 76.0119 178.799C74.0134 178.799 72.3939 177.034 72.3939 174.889C72.3939 172.743 74.0134 170.979 76.0119 170.979Z" fill="#22A6FF"/>
<path d="M9.88906 281.709C13.0246 281.709 15.5745 279.01 15.5745 275.723C15.5745 272.436 13.0246 269.736 9.88906 269.736C6.75348 269.736 4.20366 272.436 4.20366 275.723C4.20366 279.045 6.75348 281.709 9.88906 281.709ZM9.88906 271.847C11.8876 271.847 13.5071 273.612 13.5071 275.757C13.5071 277.903 11.8876 279.668 9.88906 279.668C7.89056 279.668 6.27107 277.903 6.27107 275.757C6.27107 273.577 7.89056 271.847 9.88906 271.847Z" fill="#22A6FF"/>
<path d="M130.144 297.869C133.28 297.869 135.829 295.17 135.829 291.883C135.829 288.595 133.28 285.896 130.144 285.896C127.008 285.896 124.459 288.595 124.459 291.883C124.424 295.17 126.974 297.869 130.144 297.869ZM130.144 287.972C132.142 287.972 133.762 289.737 133.762 291.883C133.762 294.028 132.142 295.793 130.144 295.793C128.145 295.793 126.526 294.028 126.526 291.883C126.492 289.703 128.145 287.972 130.144 287.972Z" fill="#22A6FF"/>
<path d="M130.144 327.801C133.28 327.801 135.829 325.102 135.829 321.814C135.829 318.527 133.28 315.828 130.144 315.828C127.008 315.828 124.459 318.527 124.459 321.814C124.424 325.102 126.974 327.801 130.144 327.801ZM130.144 317.904C132.142 317.904 133.762 319.669 133.762 321.814C133.762 323.96 132.142 325.725 130.144 325.725C128.145 325.725 126.526 323.96 126.526 321.814C126.492 319.669 128.145 317.904 130.144 317.904Z" fill="#22A6FF"/>
<path d="M48.8598 320.915C51.9954 320.915 54.5452 318.215 54.5452 314.928C54.5452 311.641 51.9954 308.942 48.8598 308.942C45.7242 308.942 43.1744 311.641 43.1744 314.928C43.1399 318.215 45.6898 320.915 48.8598 320.915ZM48.8598 311.018C50.8583 311.018 52.4778 312.783 52.4778 314.928C52.4778 317.074 50.8583 318.838 48.8598 318.838C46.8613 318.838 45.2418 317.074 45.2418 314.928C45.2074 312.783 46.8613 311.018 48.8598 311.018Z" fill="#22A6FF"/>
<path d="M129.11 318.562H131.177V295.654H129.11V318.562Z" fill="#22A6FF"/>
<path d="M42.2787 240.877C45.4143 240.877 47.9641 238.178 47.9641 234.891C47.9641 231.604 45.4143 228.904 42.2787 228.904C39.1431 228.904 36.5933 231.604 36.5933 234.891C36.5933 238.213 39.1431 240.877 42.2787 240.877ZM42.2787 231.015C44.2772 231.015 45.8967 232.78 45.8967 234.925C45.8967 237.071 44.2772 238.836 42.2787 238.836C40.2802 238.836 38.6607 237.071 38.6607 234.925C38.6607 232.745 40.2802 231.015 42.2787 231.015Z" fill="#22A6FF"/>
<path d="M5.71988 240.877C8.85546 240.877 11.4053 238.178 11.4053 234.891C11.4053 231.604 8.85546 228.904 5.71988 228.904C2.5843 228.904 0.0344791 231.604 0.0344791 234.891C2.19345e-05 238.213 2.54984 240.877 5.71988 240.877ZM5.71988 231.015C7.71838 231.015 9.33786 232.78 9.33786 234.925C9.33786 237.071 7.71838 238.836 5.71988 238.836C3.72137 238.836 2.10189 237.071 2.10189 234.925C2.06743 232.745 3.68692 231.015 5.71988 231.015Z" fill="#22A6FF"/>
<path d="M196.439 200.011C199.574 200.011 202.124 197.312 202.124 194.024C202.124 190.737 199.574 188.038 196.439 188.038C193.303 188.038 190.753 190.737 190.753 194.024C190.719 197.312 193.269 200.011 196.439 200.011ZM196.439 190.114C198.437 190.114 200.057 191.879 200.057 194.024C200.057 196.17 198.437 197.935 196.439 197.935C194.44 197.935 192.821 196.17 192.821 194.024C192.786 191.879 194.44 190.114 196.439 190.114Z" fill="#22A6FF"/>
<path d="M127.87 200.011C131.005 200.011 133.555 197.312 133.555 194.024C133.555 190.737 131.005 188.038 127.87 188.038C124.734 188.038 122.184 190.737 122.184 194.024C122.15 197.312 124.734 200.011 127.87 200.011ZM127.87 190.114C129.868 190.114 131.488 191.879 131.488 194.024C131.488 196.17 129.868 197.935 127.87 197.935C125.871 197.935 124.252 196.17 124.252 194.024C124.217 191.879 125.871 190.114 127.87 190.114Z" fill="#22A6FF"/>
<path d="M130.936 195.062H192.855V192.986H130.936V195.062Z" fill="#22A6FF"/>
</g>
<g clip-path="url(#clip1_308_118)">
<path d="M653.351 160.261H491.525V162.504H652.384L695.798 208.508H732.032V206.266H696.765L653.351 160.261Z" fill="#22A6FF"/>
<path d="M652.384 142.286H491.525V144.528H653.351L675.188 121.395H734.71V119.153H674.221L652.384 142.286Z" fill="#22A6FF"/>
<path d="M619.535 125.319H491.525V127.561H620.465L666.223 79.0528H692.896V76.8105H665.255L619.535 125.319Z" fill="#22A6FF"/>
<path d="M736.272 200.772C732.887 200.772 730.134 203.687 730.134 207.237C730.134 210.788 732.887 213.703 736.272 213.703C739.658 213.703 742.411 210.788 742.411 207.237C742.448 203.687 739.695 200.772 736.272 200.772ZM736.272 211.46C734.115 211.46 732.366 209.554 732.366 207.237C732.366 204.92 734.115 203.014 736.272 203.014C738.43 203.014 740.179 204.92 740.179 207.237C740.216 209.554 738.43 211.46 736.272 211.46Z" fill="#22A6FF"/>
<path d="M667.934 222.709C664.549 222.709 661.796 225.624 661.796 229.175C661.796 232.725 664.549 235.64 667.934 235.64C671.319 235.64 674.072 232.725 674.072 229.175C674.072 225.587 671.319 222.709 667.934 222.709ZM667.934 233.397C665.776 233.397 664.028 231.492 664.028 229.175C664.028 226.857 665.776 224.952 667.934 224.952C670.092 224.952 671.84 226.857 671.84 229.175C671.84 231.492 670.092 233.397 667.934 233.397Z" fill="#22A6FF"/>
<path d="M739.323 113.808C735.938 113.808 733.185 116.723 733.185 120.274C733.185 123.824 735.938 126.739 739.323 126.739C742.709 126.739 745.462 123.824 745.462 120.274C745.462 116.686 742.709 113.808 739.323 113.808ZM739.323 124.459C737.166 124.459 735.417 122.553 735.417 120.236C735.417 117.919 737.166 116.013 739.323 116.013C741.481 116.013 743.229 117.919 743.229 120.236C743.229 122.591 741.481 124.459 739.323 124.459Z" fill="#22A6FF"/>
<path d="M609.491 96.356C606.105 96.356 603.353 99.2709 603.353 102.821C603.353 106.372 606.105 109.287 609.491 109.287C612.876 109.287 615.629 106.372 615.629 102.821C615.666 99.2709 612.913 96.356 609.491 96.356ZM609.491 107.044C607.333 107.044 605.585 105.138 605.585 102.821C605.585 100.504 607.333 98.5983 609.491 98.5983C611.648 98.5983 613.397 100.504 613.397 102.821C613.434 105.176 611.648 107.044 609.491 107.044Z" fill="#22A6FF"/>
<path d="M609.491 64.0295C606.105 64.0295 603.353 66.9445 603.353 70.4948C603.353 74.0451 606.105 76.9601 609.491 76.9601C612.876 76.9601 615.629 74.0451 615.629 70.4948C615.666 66.9445 612.913 64.0295 609.491 64.0295ZM609.491 74.7178C607.333 74.7178 605.585 72.8119 605.585 70.4948C605.585 68.1778 607.333 66.2718 609.491 66.2718C611.648 66.2718 613.397 68.1778 613.397 70.4948C613.434 72.8119 611.648 74.7178 609.491 74.7178Z" fill="#22A6FF"/>
<path d="M697.249 71.4666C693.863 71.4666 691.11 74.3815 691.11 77.9318C691.11 81.4821 693.863 84.3971 697.249 84.3971C700.634 84.3971 703.387 81.4821 703.387 77.9318C703.424 74.3815 700.671 71.4666 697.249 71.4666ZM697.249 82.1548C695.091 82.1548 693.342 80.2489 693.342 77.9318C693.342 75.6148 695.091 73.7088 697.249 73.7088C699.406 73.7088 701.155 75.6148 701.155 77.9318C701.192 80.2489 699.406 82.1548 697.249 82.1548Z" fill="#22A6FF"/>
<path d="M610.607 74.0078H608.375V98.7478H610.607V74.0078Z" fill="#22A6FF"/>
<path d="M704.354 157.907C700.969 157.907 698.216 160.822 698.216 164.372C698.216 167.922 700.969 170.837 704.354 170.837C707.739 170.837 710.492 167.922 710.492 164.372C710.492 160.784 707.739 157.907 704.354 157.907ZM704.354 168.558C702.196 168.558 700.448 166.652 700.448 164.335C700.448 162.018 702.196 160.112 704.354 160.112C706.512 160.112 708.26 162.018 708.26 164.335C708.26 166.689 706.512 168.558 704.354 168.558Z" fill="#22A6FF"/>
<path d="M743.825 157.907C740.439 157.907 737.687 160.822 737.687 164.372C737.687 167.922 740.439 170.837 743.825 170.837C747.21 170.837 749.963 167.922 749.963 164.372C750 160.784 747.247 157.907 743.825 157.907ZM743.825 168.558C741.667 168.558 739.919 166.652 739.919 164.335C739.919 162.018 741.667 160.112 743.825 160.112C745.982 160.112 747.731 162.018 747.731 164.335C747.768 166.689 746.02 168.558 743.825 168.558Z" fill="#22A6FF"/>
<path d="M740.513 163.214H708.186V165.456H740.513V163.214Z" fill="#22A6FF"/>
<path d="M537.916 202.043C534.53 202.043 531.777 204.958 531.777 208.508C531.777 212.058 534.53 214.973 537.916 214.973C541.301 214.973 544.054 212.058 544.054 208.508C544.091 204.958 541.338 202.043 537.916 202.043ZM537.916 212.731C535.758 212.731 534.009 210.825 534.009 208.508C534.009 206.191 535.758 204.285 537.916 204.285C540.073 204.285 541.822 206.191 541.822 208.508C541.859 210.825 540.073 212.731 537.916 212.731Z" fill="#22A6FF"/>
<path d="M611.946 202.043C608.561 202.043 605.808 204.958 605.808 208.508C605.808 212.058 608.561 214.973 611.946 214.973C615.331 214.973 618.084 212.058 618.084 208.508C618.121 204.958 615.331 202.043 611.946 202.043ZM611.946 212.731C609.788 212.731 608.04 210.825 608.04 208.508C608.04 206.191 609.788 204.285 611.946 204.285C614.103 204.285 615.852 206.191 615.852 208.508C615.889 210.825 614.103 212.731 611.946 212.731Z" fill="#22A6FF"/>
<path d="M608.635 207.387H541.784V209.629H608.635V207.387Z" fill="#22A6FF"/>
</g>
<path d="M512.627 20.9894C512.977 19.6758 513.167 18.2987 513.167 16.8792C513.167 8.10805 506.059 1 497.288 1C490.847 1 485.307 4.83475 482.818 10.3326C480.742 8.86017 478.21 7.99153 475.477 7.99153C468.528 7.99153 462.881 13.5742 462.765 20.5021C458.072 21.9746 454.672 26.3602 454.672 31.5297C454.672 37.9174 459.852 43.0869 466.229 43.0869H507.892C514.28 43.0869 519.449 37.9068 519.449 31.5297C519.46 26.8369 516.653 22.8008 512.627 20.9894Z" stroke="#E4F3FE" stroke-miterlimit="10"/>
<path d="M219.502 275.28C219.852 273.966 220.042 272.589 220.042 271.17C220.042 262.398 212.934 255.29 204.163 255.29C197.722 255.29 192.182 259.125 189.693 264.623C187.617 263.15 185.085 262.282 182.352 262.282C175.403 262.282 169.756 267.864 169.64 274.792C164.947 276.265 161.547 280.65 161.547 285.82C161.547 292.208 166.727 297.377 173.104 297.377H214.767C221.155 297.377 226.324 292.197 226.324 285.82C226.335 281.127 223.528 277.091 219.502 275.28Z" stroke="#E4F3FE" stroke-miterlimit="10"/>
<path d="M503.231 284.231H239.481V118.723C239.481 116.827 241.017 115.291 242.913 115.291H499.798C501.695 115.291 503.231 116.827 503.231 118.723V284.231Z" fill="#22A6FF"/>
<path d="M487.606 271.138H255.116C253.22 271.138 251.684 269.602 251.684 267.706V129.136C251.684 127.24 253.22 125.704 255.116 125.704H487.606C489.502 125.704 491.038 127.24 491.038 129.136V267.706C491.038 269.602 489.502 271.138 487.606 271.138Z" fill="#DAE8F5"/>
<path d="M304.862 271.138H255.021C253.178 271.138 251.674 269.645 251.674 267.791V129.051C251.674 127.208 253.167 125.704 255.021 125.704H482.277" fill="#EEF7FF"/>
<path d="M373.051 120.365C373.051 121.297 372.298 122.049 371.366 122.049C370.434 122.049 369.682 121.297 369.682 120.365C369.682 119.433 370.434 118.68 371.366 118.68C372.288 118.68 373.051 119.433 373.051 120.365Z" fill="#9EA8FF"/>
<path d="M361.324 144.56H274.078V148.998H361.324V144.56Z" fill="#22A6FF"/>
<path d="M361.324 168.214H274.078V172.653H361.324V168.214Z" fill="#22A6FF"/>
<path d="M324.957 152.451H274.078V156.89H324.957V152.451Z" fill="#22A6FF"/>
<path d="M371.758 160.333H274.078V164.771H371.758V160.333Z" fill="#22A6FF"/>
<path d="M389.152 160.333H373.368V164.771H389.152V160.333Z" fill="#22A6FF"/>
<path d="M400.201 160.333H391.652V164.771H400.201V160.333Z" fill="#22A6FF"/>
<path d="M329.735 176.096H274.078V180.534H329.735V176.096Z" fill="#22A6FF"/>
<path d="M339.639 176.096H330.646V180.534H339.639V176.096Z" fill="#22A6FF"/>
<path d="M345.942 176.096H341.07V180.534H345.942V176.096Z" fill="#22A6FF"/>
<path d="M305.911 237.102H273.856V241.541H305.911V237.102Z" fill="#22A6FF"/>
<path d="M292.542 244.983H273.856V249.422H292.542V244.983Z" fill="#22A6FF"/>
<path d="M416.136 241.939H476.009V237.501H416.136V241.939Z" fill="#22A6FF"/>
<path d="M441.083 249.814H475.999V245.376H441.083V249.814Z" fill="#22A6FF"/>
<path d="M408.968 257.699H476.001V253.26H408.968V257.699Z" fill="#22A6FF"/>
<path d="M397.032 257.699H407.858V253.26H397.032V257.699Z" fill="#22A6FF"/>
<path d="M389.442 257.699H395.31V253.26H389.442V257.699Z" fill="#22A6FF"/>
<path d="M275.265 185.396H274.078V232.822H275.265V185.396Z" fill="#22A6FF"/>
<path d="M250.01 303.267H492.712C498.527 303.267 503.241 298.553 503.241 292.737V284.22H239.481V292.737C239.481 298.553 244.195 303.267 250.01 303.267Z" fill="#ADB5BD"/>
<path d="M418.58 323.426H324.142L335.582 303.267H407.139L418.58 323.426Z" fill="#253141"/>
<path d="M434.523 328.934H308.188V327.229C308.188 324.136 310.699 321.636 313.782 321.636H428.919C432.013 321.636 434.513 324.146 434.513 327.229V328.934H434.523Z" fill="#ADB5BD"/>
<path opacity="0.43" d="M335.582 303.267L329.862 313.352H412.86L407.14 303.267H335.582Z" fill="#ADB5BD"/>
<path d="M542.648 231.275H463.813C462.277 231.275 461.027 230.025 461.027 228.489V155.788C461.027 154.252 462.277 153.002 463.813 153.002H542.648C544.184 153.002 545.434 154.252 545.434 155.788V228.489C545.434 230.025 544.184 231.275 542.648 231.275Z" fill="#ADB5BD"/>
<path d="M539.714 225.894H466.758C465.646 225.894 464.746 224.993 464.746 223.881V166.392C464.746 165.279 465.646 164.379 466.758 164.379H539.714C540.826 164.379 541.727 165.279 541.727 166.392V223.881C541.727 224.983 540.826 225.894 539.714 225.894Z" fill="white"/>
<path d="M470.476 158.669C470.476 159.877 469.502 160.862 468.284 160.862C467.076 160.862 466.091 159.888 466.091 158.669C466.091 157.462 467.065 156.477 468.284 156.477C469.491 156.477 470.476 157.462 470.476 158.669Z" fill="#15202B"/>
<path d="M475.731 160.862C476.942 160.862 477.924 159.88 477.924 158.669C477.924 157.458 476.942 156.477 475.731 156.477C474.52 156.477 473.538 157.458 473.538 158.669C473.538 159.88 474.52 160.862 475.731 160.862Z" fill="#15202B"/>
<path d="M483.178 160.862C484.389 160.862 485.37 159.88 485.37 158.669C485.37 157.458 484.389 156.477 483.178 156.477C481.967 156.477 480.985 157.458 480.985 158.669C480.985 159.88 481.967 160.862 483.178 160.862Z" fill="#15202B"/>
<path d="M557.426 303.309H513.188C510.826 303.309 508.919 301.18 508.919 298.563V241.106C508.919 238.479 510.837 236.36 513.188 236.36H551.091L561.695 249.856V298.574C561.705 301.18 559.788 303.309 557.426 303.309Z" fill="white"/>
<path d="M551.091 236.349V246.434C551.091 248.362 552.511 249.93 554.248 249.909L561.695 249.835L551.091 236.349Z" fill="#DBE8F1"/>
<path opacity="0.18" d="M551.123 255.428H519.513V258.172H551.123V255.428Z" fill="#15202B"/>
<path opacity="0.18" d="M551.123 261.943H519.513V264.686H551.123V261.943Z" fill="#15202B"/>
<path opacity="0.18" d="M551.123 268.458H519.513V271.201H551.123V268.458Z" fill="#15202B"/>
<path opacity="0.18" d="M551.123 274.962H519.513V277.705H551.123V274.962Z" fill="#15202B"/>
<path opacity="0.18" d="M551.123 281.477H519.513V284.22H551.123V281.477Z" fill="#15202B"/>
<path d="M292.33 103.648C295.487 96.8475 294.195 88.9979 289.661 82.8221C289.047 81.9852 287.765 82.07 287.277 82.9916L281.398 93.9556C279.82 96.9005 276.218 98.1081 273.188 96.6992L266.97 93.8178C263.941 92.409 262.532 88.8814 263.761 85.7776L268.337 74.2098C268.718 73.2458 267.966 72.2077 266.928 72.2818C259.28 72.8115 252.458 76.8899 249.301 83.6907C245.169 92.5996 248.655 103.299 257.087 109.697C257.616 110.1 257.775 110.831 257.479 111.424L219.597 188.045C217.977 191.434 219.438 195.492 222.839 197.07C226.25 198.648 230.286 197.144 231.822 193.723L265.869 115.322C266.133 114.708 266.79 114.358 267.447 114.506C277.775 116.805 288.199 112.557 292.33 103.648ZM225.095 192.197C223.57 191.487 222.902 189.676 223.612 188.15C224.322 186.625 228.199 181.519 229.725 182.229C231.25 182.939 229.852 189.189 229.142 190.725C228.443 192.25 226.621 192.907 225.095 192.197Z" fill="#ADB5BD"/>
<path d="M224.777 127.324H179.915C178.379 127.324 177.129 126.074 177.129 124.538V83.3305C177.129 81.7944 178.379 80.5444 179.915 80.5444H224.777C226.313 80.5444 227.563 81.7944 227.563 83.3305V124.538C227.563 126.074 226.313 127.324 224.777 127.324Z" fill="#ADB5BD"/>
<path d="M223.337 124.104H181.366C180.254 124.104 179.354 123.203 179.354 122.091V89.3472C179.354 88.2349 180.254 87.3345 181.366 87.3345H223.337C224.449 87.3345 225.35 88.2349 225.35 89.3472V122.08C225.35 123.203 224.449 124.104 223.337 124.104Z" fill="#22A6FF"/>
<path d="M182.775 83.9345C182.775 84.6548 182.193 85.2374 181.472 85.2374C180.752 85.2374 180.169 84.6548 180.169 83.9345C180.169 83.2141 180.752 82.6315 181.472 82.6315C182.182 82.6209 182.775 83.2141 182.775 83.9345Z" fill="#15202B"/>
<path d="M187.225 83.9345C187.225 84.6548 186.642 85.2374 185.922 85.2374C185.201 85.2374 184.619 84.6548 184.619 83.9345C184.619 83.2141 185.201 82.6315 185.922 82.6315C186.631 82.6209 187.225 83.2141 187.225 83.9345Z" fill="#15202B"/>
<path d="M191.674 83.9345C191.674 84.6548 191.091 85.2374 190.371 85.2374C189.65 85.2374 189.068 84.6548 189.068 83.9345C189.068 83.2141 189.65 82.6315 190.371 82.6315C191.091 82.6209 191.674 83.2141 191.674 83.9345Z" fill="#15202B"/>
<path d="M202.5 91.2649C206.176 91.2649 209.163 94.2522 209.163 97.928C209.163 101.604 206.176 104.591 202.5 104.591C198.824 104.591 195.837 101.604 195.837 97.928C195.847 94.2522 198.824 91.2649 202.5 91.2649Z" fill="white"/>
<path d="M214.799 124.104H190.212V119.453C190.212 112.663 195.72 107.155 202.511 107.155C209.301 107.155 214.809 112.663 214.809 119.453V124.104H214.799Z" fill="white"/>
<path d="M324.597 30.0995H260.498C256.96 30.0995 254.078 27.2287 254.078 23.68C254.078 20.1419 256.949 17.2605 260.498 17.2605H324.597C328.136 17.2605 331.017 20.1313 331.017 23.68C331.017 27.2287 328.146 30.0995 324.597 30.0995Z" fill="#EEF7FF"/>
<path d="M263.422 30.0995H260.498C256.96 30.0995 254.078 27.2287 254.078 23.68C254.078 20.1419 256.949 17.2605 260.498 17.2605H263.422C266.96 17.2605 269.841 20.1313 269.841 23.68C269.841 27.2287 266.97 30.0995 263.422 30.0995Z" fill="#ADB5BD"/>
<path d="M324.597 47.2391H260.498C256.96 47.2391 254.078 44.3684 254.078 40.8196C254.078 37.2815 256.949 34.4001 260.498 34.4001H324.597C328.136 34.4001 331.017 37.2709 331.017 40.8196C331.017 44.3684 328.146 47.2391 324.597 47.2391Z" fill="#EEF7FF"/>
<path d="M263.422 47.2391H260.498C256.96 47.2391 254.078 44.3684 254.078 40.8196C254.078 37.2815 256.949 34.4001 260.498 34.4001H263.422C266.96 34.4001 269.841 37.2709 269.841 40.8196C269.841 44.3684 266.97 47.2391 263.422 47.2391Z" fill="#ADB5BD"/>
<path d="M324.597 64.3898H260.498C256.96 64.3898 254.078 61.519 254.078 57.9703C254.078 54.4321 256.949 51.5508 260.498 51.5508H324.597C328.136 51.5508 331.017 54.4215 331.017 57.9703C331.017 61.519 328.146 64.3898 324.597 64.3898Z" fill="#EEF7FF"/>
<path d="M263.422 64.3898H260.498C256.96 64.3898 254.078 61.519 254.078 57.9703C254.078 54.4321 256.949 51.5508 260.498 51.5508H263.422C266.96 51.5508 269.841 54.4215 269.841 57.9703C269.841 61.519 266.97 64.3898 263.422 64.3898Z" fill="#ADB5BD"/>
<path d="M322.913 22.0486H274.078V25.6609H322.913V22.0486Z" fill="#DAE8F5"/>
<path d="M322.913 39.019H274.078V42.6313H322.913V39.019Z" fill="#DAE8F5"/>
<path d="M322.913 56H274.078V59.6123H322.913V56Z" fill="#DAE8F5"/>
<path d="M512.627 20.9894C512.977 19.6758 513.167 18.2987 513.167 16.8792C513.167 8.10805 506.059 1 497.288 1C490.847 1 485.307 4.83475 482.818 10.3326C480.742 8.86017 478.21 7.99153 475.477 7.99153C468.528 7.99153 462.881 13.5742 462.765 20.5021C458.072 21.9746 454.672 26.3602 454.672 31.5297C454.672 37.9174 459.852 43.0869 466.229 43.0869H507.892C514.28 43.0869 519.449 37.9068 519.449 31.5297C519.46 26.8369 516.653 22.8008 512.627 20.9894Z" stroke="#E4F3FE" stroke-miterlimit="10"/>
<path d="M219.502 275.28C219.852 273.966 220.042 272.589 220.042 271.17C220.042 262.398 212.934 255.29 204.163 255.29C197.722 255.29 192.182 259.125 189.693 264.623C187.617 263.15 185.085 262.282 182.352 262.282C175.403 262.282 169.756 267.864 169.64 274.792C164.947 276.265 161.547 280.65 161.547 285.82C161.547 292.208 166.727 297.377 173.104 297.377H214.767C221.155 297.377 226.324 292.197 226.324 285.82C226.335 281.127 223.528 277.091 219.502 275.28Z" fill="#141D27" stroke="#E4F3FE" stroke-miterlimit="10"/>
<path d="M503.231 284.231H239.481V118.723C239.481 116.827 241.017 115.291 242.913 115.291H499.798C501.695 115.291 503.231 116.827 503.231 118.723V284.231Z" fill="#22A6FF"/>
<path d="M487.606 271.138H255.116C253.22 271.138 251.684 269.602 251.684 267.706V129.136C251.684 127.24 253.22 125.704 255.116 125.704H487.606C489.502 125.704 491.038 127.24 491.038 129.136V267.706C491.038 269.602 489.502 271.138 487.606 271.138Z" fill="#141D27"/>
<path d="M304.862 271.138H255.021C253.178 271.138 251.674 269.645 251.674 267.791V129.051C251.674 127.208 253.167 125.704 255.021 125.704H482.277" fill="#253141"/>
<path d="M373.051 120.365C373.051 121.297 372.298 122.049 371.366 122.049C370.434 122.049 369.682 121.297 369.682 120.365C369.682 119.433 370.434 118.68 371.366 118.68C372.288 118.68 373.051 119.433 373.051 120.365Z" fill="#9EA8FF"/>
<path d="M361.324 144.56H274.078V148.998H361.324V144.56Z" fill="#22A6FF"/>
<path d="M361.324 168.214H274.078V172.653H361.324V168.214Z" fill="#22A6FF"/>
<path d="M324.957 152.451H274.078V156.89H324.957V152.451Z" fill="#22A6FF"/>
<path d="M371.758 160.333H274.078V164.771H371.758V160.333Z" fill="#22A6FF"/>
<path d="M389.152 160.333H373.368V164.771H389.152V160.333Z" fill="#22A6FF"/>
<path d="M400.201 160.333H391.652V164.771H400.201V160.333Z" fill="#22A6FF"/>
<path d="M329.735 176.096H274.078V180.534H329.735V176.096Z" fill="#22A6FF"/>
<path d="M339.639 176.096H330.646V180.534H339.639V176.096Z" fill="#22A6FF"/>
<path d="M345.942 176.096H341.07V180.534H345.942V176.096Z" fill="#22A6FF"/>
<path d="M305.911 237.102H273.856V241.541H305.911V237.102Z" fill="#22A6FF"/>
<path d="M292.542 244.983H273.856V249.422H292.542V244.983Z" fill="#22A6FF"/>
<path d="M416.136 241.939H476.009V237.501H416.136V241.939Z" fill="#22A6FF"/>
<path d="M441.083 249.814H475.999V245.376H441.083V249.814Z" fill="#22A6FF"/>
<path d="M408.968 257.699H476.001V253.26H408.968V257.699Z" fill="#22A6FF"/>
<path d="M397.032 257.699H407.858V253.26H397.032V257.699Z" fill="#22A6FF"/>
<path d="M389.442 257.699H395.31V253.26H389.442V257.699Z" fill="#22A6FF"/>
<path d="M275.265 185.396H274.078V232.822H275.265V185.396Z" fill="#22A6FF"/>
<path d="M250.01 303.267H492.712C498.527 303.267 503.241 298.553 503.241 292.737V284.22H239.481V292.737C239.481 298.553 244.195 303.267 250.01 303.267Z" fill="#ADB5BD"/>
<path d="M418.58 323.426H324.142L335.582 303.267H407.139L418.58 323.426Z" fill="#253141"/>
<path d="M434.523 328.934H308.188V327.229C308.188 324.136 310.699 321.636 313.782 321.636H428.919C432.013 321.636 434.513 324.146 434.513 327.229V328.934H434.523Z" fill="#ADB5BD"/>
<path opacity="0.43" d="M335.582 303.267L329.862 313.352H412.86L407.14 303.267H335.582Z" fill="#ADB5BD"/>
<path d="M614.681 231.275H466.272C463.381 231.275 461.027 230.025 461.027 228.489V155.788C461.027 154.252 463.381 153.002 466.272 153.002H614.681C617.572 153.002 619.926 154.252 619.926 155.788V228.489C619.926 230.025 617.572 231.275 614.681 231.275Z" fill="#ADB5BD"/>
<path d="M609.553 222.928H472.015C469.918 222.928 468.22 222.075 468.22 221.021V166.571C468.22 165.518 469.918 164.665 472.015 164.665H609.553C611.65 164.665 613.347 165.518 613.347 166.571V221.021C613.347 222.065 611.65 222.928 609.553 222.928Z" fill="white"/>
<path d="M476.052 158.669C476.052 159.877 474.831 160.862 473.306 160.862C471.793 160.862 470.56 159.888 470.56 158.669C470.56 157.462 471.78 156.477 473.306 156.477C474.818 156.477 476.052 157.462 476.052 158.669Z" fill="#15202B"/>
<path d="M482.631 160.862C484.148 160.862 485.377 159.88 485.377 158.669C485.377 157.458 484.148 156.477 482.631 156.477C481.115 156.477 479.885 157.458 479.885 158.669C479.885 159.88 481.115 160.862 482.631 160.862Z" fill="#15202B"/>
<path d="M491.957 160.862C493.474 160.862 494.703 159.88 494.703 158.669C494.703 157.458 493.474 156.477 491.957 156.477C490.441 156.477 489.211 157.458 489.211 158.669C489.211 159.88 490.441 160.862 491.957 160.862Z" fill="#15202B"/>
<path d="M292.33 103.648C295.487 96.8475 294.195 88.9979 289.661 82.8221C289.047 81.9852 287.765 82.07 287.277 82.9916L281.398 93.9556C279.82 96.9005 276.218 98.1081 273.188 96.6992L266.97 93.8178C263.941 92.409 262.532 88.8814 263.761 85.7776L268.337 74.2098C268.718 73.2458 267.966 72.2077 266.928 72.2818C259.28 72.8115 252.458 76.8899 249.301 83.6907C245.169 92.5996 248.655 103.299 257.087 109.697C257.616 110.1 257.775 110.831 257.479 111.424L219.597 188.045C217.977 191.434 219.438 195.492 222.839 197.07C226.25 198.648 230.286 197.144 231.822 193.723L265.869 115.322C266.133 114.708 266.79 114.358 267.447 114.506C277.775 116.805 288.199 112.557 292.33 103.648ZM225.095 192.197C223.57 191.487 222.902 189.676 223.612 188.15C224.322 186.625 228.199 181.519 229.725 182.229C231.25 182.939 229.852 189.189 229.142 190.725C228.443 192.25 226.621 192.907 225.095 192.197Z" fill="#ADB5BD"/>
<path d="M224.777 127.324H179.915C178.379 127.324 177.129 126.074 177.129 124.538V83.3305C177.129 81.7944 178.379 80.5444 179.915 80.5444H224.777C226.313 80.5444 227.563 81.7944 227.563 83.3305V124.538C227.563 126.074 226.313 127.324 224.777 127.324Z" fill="#ADB5BD"/>
<path d="M223.337 124.104H181.366C180.254 124.104 179.354 123.203 179.354 122.091V89.3472C179.354 88.2349 180.254 87.3345 181.366 87.3345H223.337C224.449 87.3345 225.35 88.2349 225.35 89.3472V122.08C225.35 123.203 224.449 124.104 223.337 124.104Z" fill="#22A6FF"/>
<path d="M182.775 83.9345C182.775 84.6548 182.193 85.2374 181.472 85.2374C180.752 85.2374 180.169 84.6548 180.169 83.9345C180.169 83.2141 180.752 82.6315 181.472 82.6315C182.182 82.6209 182.775 83.2141 182.775 83.9345Z" fill="#15202B"/>
<path d="M187.225 83.9345C187.225 84.6548 186.642 85.2374 185.922 85.2374C185.201 85.2374 184.619 84.6548 184.619 83.9345C184.619 83.2141 185.201 82.6315 185.922 82.6315C186.631 82.6209 187.225 83.2141 187.225 83.9345Z" fill="#15202B"/>
<path d="M191.674 83.9345C191.674 84.6548 191.091 85.2374 190.371 85.2374C189.65 85.2374 189.068 84.6548 189.068 83.9345C189.068 83.2141 189.65 82.6315 190.371 82.6315C191.091 82.6209 191.674 83.2141 191.674 83.9345Z" fill="#15202B"/>
<path d="M202.5 91.2649C206.176 91.2649 209.163 94.2522 209.163 97.928C209.163 101.604 206.176 104.591 202.5 104.591C198.824 104.591 195.837 101.604 195.837 97.928C195.847 94.2522 198.824 91.2649 202.5 91.2649Z" fill="white"/>
<path d="M214.799 124.104H190.212V119.453C190.212 112.663 195.72 107.155 202.511 107.155C209.301 107.155 214.809 112.663 214.809 119.453V124.104H214.799Z" fill="white"/>
<path d="M324.597 30.0995H260.498C256.96 30.0995 254.078 27.2287 254.078 23.68C254.078 20.1419 256.949 17.2605 260.498 17.2605H324.597C328.136 17.2605 331.017 20.1313 331.017 23.68C331.017 27.2287 328.146 30.0995 324.597 30.0995Z" fill="#EEF7FF"/>
<path d="M263.422 30.0995H260.498C256.96 30.0995 254.078 27.2287 254.078 23.68C254.078 20.1419 256.949 17.2605 260.498 17.2605H263.422C266.96 17.2605 269.841 20.1313 269.841 23.68C269.841 27.2287 266.97 30.0995 263.422 30.0995Z" fill="#ADB5BD"/>
<path d="M324.597 47.2391H260.498C256.96 47.2391 254.078 44.3684 254.078 40.8196C254.078 37.2815 256.949 34.4001 260.498 34.4001H324.597C328.136 34.4001 331.017 37.2709 331.017 40.8196C331.017 44.3684 328.146 47.2391 324.597 47.2391Z" fill="#EEF7FF"/>
<path d="M263.422 47.2391H260.498C256.96 47.2391 254.078 44.3684 254.078 40.8196C254.078 37.2815 256.949 34.4001 260.498 34.4001H263.422C266.96 34.4001 269.841 37.2709 269.841 40.8196C269.841 44.3684 266.97 47.2391 263.422 47.2391Z" fill="#ADB5BD"/>
<path d="M324.597 64.3898H260.498C256.96 64.3898 254.078 61.519 254.078 57.9703C254.078 54.4321 256.949 51.5508 260.498 51.5508H324.597C328.136 51.5508 331.017 54.4215 331.017 57.9703C331.017 61.519 328.146 64.3898 324.597 64.3898Z" fill="#EEF7FF"/>
<path d="M263.422 64.3898H260.498C256.96 64.3898 254.078 61.519 254.078 57.9703C254.078 54.4321 256.949 51.5508 260.498 51.5508H263.422C266.96 51.5508 269.841 54.4215 269.841 57.9703C269.841 61.519 266.97 64.3898 263.422 64.3898Z" fill="#ADB5BD"/>
<path d="M322.913 22.0486H274.078V25.6609H322.913V22.0486Z" fill="#DAE8F5"/>
<path d="M322.913 39.019H274.078V42.6313H322.913V39.019Z" fill="#DAE8F5"/>
<path d="M322.913 56H274.078V59.6123H322.913V56Z" fill="#DAE8F5"/>
<path d="M565.737 267.802C565.737 294.172 544.595 315.531 518.538 315.531C492.481 315.531 471.339 294.172 471.339 267.802C471.339 241.432 492.481 220.073 518.538 220.073C544.595 220.073 565.737 241.432 565.737 267.802Z" fill="#15202B" stroke="#22A6FF" stroke-width="2"/>
<path d="M533.873 271.69C532.303 269.558 530.185 268.275 527.535 267.842C532.731 266.012 535.333 262.514 535.333 257.334C535.333 253.853 534.143 250.977 531.771 248.713C531.636 248.583 531.486 248.46 531.343 248.338C530.097 247.267 528.654 246.475 526.996 245.976C526.361 245.788 525.695 245.633 524.997 245.527V239.709V238.565H519.507V245.061V245.314H519.245H516.651V238.565H511.162V245.314H505.085V259.123V267.335V273.938V291.138H511.162V297.887H516.651V291.138H519.507V297.691V297.887H524.997V292.339V291.056C525.528 291.007 526.036 290.933 526.536 290.844C529.066 290.402 531.153 289.43 532.779 287.91C534.556 286.251 535.635 284.135 536.039 281.577C536.158 280.818 536.23 280.033 536.23 279.2C536.23 276.323 535.444 273.823 533.873 271.69ZM514.684 263.724V257.979V253.796H518.976H520.975C522.355 253.796 523.474 254.221 524.314 255.071C524.338 255.095 524.346 255.12 524.37 255.144C525.171 255.994 525.576 257.203 525.576 258.797C525.576 260.431 525.155 261.656 524.314 262.482C523.474 263.307 522.355 263.724 520.975 263.724H515.565H514.684ZM525.179 281.283C524.314 282.198 514.684 282.656 514.684 282.656V272.213H522.038C523.347 272.213 524.41 272.696 525.235 273.652C526.06 274.608 526.472 275.89 526.472 277.5C526.464 279.11 526.036 280.368 525.179 281.283Z" fill="white"/>
<path d="M530.968 315.985C530.968 333.3 517.03 347.33 499.844 347.33C482.658 347.33 468.72 333.3 468.72 315.985C468.72 298.67 482.658 284.64 499.844 284.64C517.03 284.64 530.968 298.67 530.968 315.985Z" fill="#15202B" stroke="#22A6FF"/>
<path d="M511.545 326.488H496.882L500.682 318.482L510.391 316.75V311.281L503.523 312.504L507.201 304.761L510.364 298.107H509.454H503.562H501.786L500.316 301.202L495.439 311.471L494.152 314.18L492.238 314.521L485.974 315.638V320.488V321.108L491.001 320.214L491.311 320.158L487.627 327.907C486.224 330.863 488.365 334.282 491.617 334.282H503.367H510.391L513.764 326.488H511.545Z" fill="white"/>
<path d="M619.204 300.652C619.204 321.658 602.294 338.68 581.442 338.68C560.591 338.68 543.681 321.658 543.681 300.652C543.681 279.646 560.591 262.623 581.442 262.623C602.294 262.623 619.204 279.646 619.204 300.652Z" fill="#15202B" stroke="#22A6FF"/>
<path d="M581.44 306.156L595.498 297.39L588.157 283.079L586.314 279.474L584.013 274.995L581.44 269.986L574.039 284.424L567.401 297.364L567.388 297.39L570.79 299.51L581.44 306.156Z" fill="white"/>
<path d="M568.265 302.085L568.111 302.234L578.831 323.303L581.569 328.683L589.477 313.15L595.216 301.875L581.569 310.446L568.265 302.085Z" fill="white"/>
<path d="M360.843 210.111C359.43 210.111 358.15 209.804 357.003 209.191C355.87 208.564 354.977 207.704 354.323 206.611C353.683 205.518 353.363 204.284 353.363 202.911C353.363 201.538 353.69 200.304 354.343 199.211C354.997 198.118 355.89 197.264 357.023 196.651C358.17 196.024 359.45 195.711 360.863 195.711C362.01 195.711 363.057 195.911 364.003 196.311C364.95 196.711 365.75 197.291 366.403 198.051L364.723 199.631C363.71 198.538 362.463 197.991 360.983 197.991C360.023 197.991 359.163 198.204 358.403 198.631C357.643 199.044 357.05 199.624 356.623 200.371C356.197 201.118 355.983 201.964 355.983 202.911C355.983 203.858 356.197 204.704 356.623 205.451C357.05 206.198 357.643 206.784 358.403 207.211C359.163 207.624 360.023 207.831 360.983 207.831C362.463 207.831 363.71 207.278 364.723 206.171L366.403 207.771C365.75 208.531 364.943 209.111 363.983 209.511C363.037 209.911 361.99 210.111 360.843 210.111ZM382.755 209.911L382.735 200.631L378.135 208.311H376.975L372.375 200.751V209.911H369.895V195.911H372.035L377.595 205.191L383.055 195.911H385.195L385.215 209.911H382.755ZM394.336 210.111C393.256 210.111 392.21 209.958 391.196 209.651C390.196 209.344 389.403 208.938 388.816 208.431L389.716 206.411C390.29 206.864 390.99 207.238 391.816 207.531C392.656 207.811 393.496 207.951 394.336 207.951C395.376 207.951 396.15 207.784 396.656 207.451C397.176 207.118 397.436 206.678 397.436 206.131C397.436 205.731 397.29 205.404 396.996 205.151C396.716 204.884 396.356 204.678 395.916 204.531C395.476 204.384 394.876 204.218 394.116 204.031C393.05 203.778 392.183 203.524 391.516 203.271C390.863 203.018 390.296 202.624 389.816 202.091C389.35 201.544 389.116 200.811 389.116 199.891C389.116 199.118 389.323 198.418 389.736 197.791C390.163 197.151 390.796 196.644 391.636 196.271C392.49 195.898 393.53 195.711 394.756 195.711C395.61 195.711 396.45 195.818 397.276 196.031C398.103 196.244 398.816 196.551 399.416 196.951L398.596 198.971C397.983 198.611 397.343 198.338 396.676 198.151C396.01 197.964 395.363 197.871 394.736 197.871C393.71 197.871 392.943 198.044 392.436 198.391C391.943 198.738 391.696 199.198 391.696 199.771C391.696 200.171 391.836 200.498 392.116 200.751C392.41 201.004 392.776 201.204 393.216 201.351C393.656 201.498 394.256 201.664 395.016 201.851C396.056 202.091 396.91 202.344 397.576 202.611C398.243 202.864 398.81 203.258 399.276 203.791C399.756 204.324 399.996 205.044 399.996 205.951C399.996 206.724 399.783 207.424 399.356 208.051C398.943 208.678 398.31 209.178 397.456 209.551C396.603 209.924 395.563 210.111 394.336 210.111Z" fill="white"/>
<path d="M600.372 185.731C600.036 185.77 599.663 185.687 599.348 185.572C599.275 185.545 599.217 185.519 599.141 185.516C598.953 185.507 598.763 185.516 598.574 185.516C598.419 185.516 598.263 185.516 598.106 185.516C597.956 183.458 597.148 181.588 595.896 180.123C595.94 180.078 595.986 180.031 596.031 179.986C596.213 179.8 596.396 179.613 596.578 179.427C596.739 179.263 596.798 179.053 596.922 178.856C597.112 178.552 597.336 178.32 597.63 178.127C597.891 177.955 598.161 177.796 598.406 177.602C598.617 177.435 598.841 177.232 598.927 176.964C599.019 176.682 598.89 176.424 598.698 176.221C598.506 176.031 598.277 175.901 598.002 175.936C597.761 175.967 597.554 176.117 597.386 176.289C597.018 176.67 596.823 177.178 596.49 177.585C596.272 177.853 595.96 178.066 595.652 178.212C595.582 178.244 595.524 178.27 595.468 178.322C595.321 178.46 595.185 178.612 595.043 178.756C594.956 178.846 594.868 178.935 594.781 179.024C593.888 178.283 592.857 177.711 591.729 177.357C591.043 177.119 590.327 176.958 589.595 176.889C589.595 176.767 589.595 176.645 589.595 176.523C589.595 176.275 589.595 176.027 589.595 175.779C589.595 175.749 589.601 175.713 589.594 175.684C589.58 175.614 589.538 175.542 589.517 175.474C589.462 175.294 589.422 175.108 589.399 174.921C589.323 174.3 589.573 173.732 589.633 173.123C589.656 172.879 589.664 172.601 589.534 172.384C589.392 172.15 589.133 172.09 588.88 172.082C588.873 172.081 588.862 172.081 588.848 172.081C588.594 172.085 588.309 172.144 588.123 172.334C587.975 172.488 587.93 172.702 587.922 172.91C587.904 173.435 588.1 173.935 588.175 174.449C588.226 174.799 588.162 175.17 588.062 175.505C588.034 175.597 587.984 175.689 587.973 175.784C587.951 175.963 587.973 176.157 587.973 176.336C587.973 176.523 587.973 176.71 587.973 176.896C586.084 177.083 584.311 177.84 582.865 179.068C582.807 179.009 582.75 178.951 582.692 178.891C582.518 178.714 582.346 178.538 582.172 178.361C582.149 178.337 582.124 178.301 582.096 178.283C582.049 178.25 581.981 178.232 581.928 178.206C581.754 178.118 581.591 178.012 581.436 177.891C580.925 177.489 580.706 176.868 580.292 176.377C580.13 176.184 579.926 176 579.667 175.973C579.368 175.94 579.083 176.089 578.873 176.298C577.965 177.255 579.727 177.879 580.246 178.388C580.513 178.649 580.682 178.963 580.85 179.291C580.871 179.332 580.884 179.352 580.916 179.384C581.064 179.54 581.217 179.692 581.367 179.845C581.486 179.967 581.607 180.091 581.727 180.213C581.691 180.257 581.652 180.298 581.617 180.342C580.426 181.812 579.754 183.63 579.611 185.5C579.506 185.5 579.402 185.5 579.298 185.5C579.065 185.5 578.832 185.5 578.597 185.5C578.529 185.5 578.469 185.5 578.403 185.524C578.154 185.611 577.914 185.686 577.649 185.711C577.066 185.768 576.507 185.499 575.93 185.455C575.67 185.435 575.387 185.453 575.158 185.591C574.909 185.741 574.815 186.001 574.812 186.286C574.831 187.599 576.47 186.911 577.203 186.82C577.529 186.781 577.887 186.856 578.197 186.962C578.276 186.989 578.347 187.027 578.43 187.034C578.618 187.05 578.812 187.034 579.001 187.034C579.13 187.034 579.259 187.034 579.388 187.034C583.16 186.634 586.521 186.88 587.973 188.576C589.151 189.95 588.294 192.838 587.119 195.417C587.403 195.468 587.687 195.507 587.973 195.531C587.973 195.682 587.973 195.836 587.973 195.987C587.973 196.24 587.973 196.492 587.973 196.746C587.973 196.779 587.968 196.817 587.973 196.848C587.984 196.906 588.021 196.97 588.04 197.027C588.096 197.198 588.136 197.377 588.161 197.556C588.208 197.89 588.177 198.177 588.107 198.501C588.041 198.796 587.968 199.09 587.936 199.39C587.909 199.641 587.9 199.928 588.036 200.15C588.183 200.394 588.461 200.455 588.725 200.458C588.981 200.454 589.262 200.396 589.449 200.202C589.598 200.047 589.642 199.833 589.649 199.622C589.664 199.095 589.471 198.598 589.397 198.083C589.347 197.734 589.41 197.361 589.51 197.028C589.538 196.935 589.588 196.842 589.598 196.747C589.617 196.569 589.598 196.376 589.598 196.196C589.598 195.97 589.598 195.746 589.598 195.521C590.302 195.456 590.999 195.31 591.678 195.083C592.791 194.741 593.815 194.187 594.703 193.465C594.757 193.52 594.812 193.575 594.866 193.631C595.043 193.812 595.22 193.992 595.398 194.174C595.422 194.199 595.449 194.233 595.478 194.256C595.521 194.289 595.575 194.304 595.624 194.327C595.778 194.402 595.927 194.493 596.067 194.595C596.351 194.805 596.547 195.047 596.732 195.345C596.898 195.614 597.058 195.891 597.258 196.136C597.423 196.338 597.633 196.535 597.897 196.58C598.195 196.631 598.474 196.481 598.683 196.274C599.617 195.29 597.884 194.676 597.337 194.152C597.079 193.906 596.873 193.588 596.728 193.259C596.705 193.21 596.693 193.183 596.658 193.144C596.518 192.988 596.364 192.844 596.217 192.693C596.1 192.574 595.983 192.455 595.867 192.336C597.115 190.891 597.929 189.048 598.099 187.016C598.156 187.016 598.212 187.016 598.269 187.016C598.502 187.016 598.735 187.016 598.97 187.016C599.039 187.016 599.096 187.014 599.166 186.99C599.43 186.898 599.686 186.82 599.968 186.8C600.543 186.761 601.096 187.034 601.668 187.066C601.927 187.08 602.204 187.053 602.43 186.914C602.676 186.762 602.755 186.504 602.758 186.225C602.74 184.946 601.071 185.653 600.372 185.731ZM585.609 185.5C584.637 185.5 583.666 185.5 582.694 185.5C582.817 184.349 583.232 183.287 583.862 182.393C584.367 182.91 584.874 183.427 585.38 183.943C585.582 184.15 585.785 184.357 585.988 184.566C585.82 184.854 585.691 185.168 585.609 185.5ZM587.973 182.198C587.973 182.477 587.973 182.755 587.973 183.034C587.665 183.115 587.376 183.241 587.112 183.406C586.392 182.67 585.671 181.934 584.951 181.198C585.319 180.883 585.721 180.611 586.153 180.386C586.721 180.109 587.333 179.918 587.975 179.827C587.973 180.617 587.973 181.408 587.973 182.198ZM593.73 182.337C594.369 183.196 594.813 184.217 594.982 185.319C594.992 185.384 594.999 185.45 595.007 185.516C594.291 185.516 593.573 185.516 592.857 185.516C592.565 185.516 592.273 185.516 591.982 185.516C591.903 185.156 591.769 184.822 591.59 184.522C592.303 183.793 593.016 183.065 593.73 182.337ZM589.596 179.823C590.734 179.981 591.785 180.472 592.654 181.197C592.105 181.757 591.557 182.317 591.009 182.877C590.835 183.054 590.661 183.231 590.486 183.41C590.213 183.244 589.914 183.119 589.596 183.039C589.596 181.967 589.596 180.895 589.596 179.823ZM589.596 192.606C589.596 191.85 589.596 191.094 589.596 190.337C589.596 190.022 589.596 189.707 589.596 189.392C589.877 189.319 590.144 189.208 590.388 189.063C591.121 189.812 591.854 190.561 592.586 191.308C591.765 191.96 590.784 192.417 589.712 192.588C589.674 192.596 589.635 192.6 589.596 192.606ZM592.187 188.583C591.972 188.363 591.757 188.143 591.542 187.923C591.714 187.644 591.849 187.339 591.937 187.019C592.961 187.019 593.984 187.019 595.007 187.019C594.866 188.17 594.409 189.249 593.722 190.15C593.209 189.628 592.698 189.106 592.187 188.583Z" fill="#22A6FF"/>
<path d="M490.594 188.961C490.594 188.807 490.458 188.668 490.186 188.54C489.914 188.414 489.497 188.35 488.938 188.35C488.551 188.35 488.244 188.377 488.017 188.433C487.791 188.488 487.62 188.56 487.505 188.651C487.39 188.742 487.315 188.844 487.283 188.956C487.251 189.069 487.234 189.183 487.234 189.298C487.234 189.534 487.344 189.741 487.562 189.92C487.78 190.099 488.069 190.267 488.427 190.428C488.785 190.588 489.193 190.747 489.65 190.907C490.108 191.066 490.576 191.244 491.055 191.439C491.534 191.634 492.004 191.858 492.46 192.111C492.919 192.363 493.325 192.661 493.684 193.001C494.042 193.343 494.329 193.741 494.549 194.198C494.767 194.655 494.876 195.182 494.876 195.782C494.876 196.552 494.731 197.198 494.44 197.72C494.15 198.242 493.745 198.663 493.224 198.982C492.705 199.301 492.088 199.529 491.375 199.667C490.661 199.805 489.882 199.874 489.036 199.874C488.541 199.874 488.048 199.836 487.558 199.759C487.068 199.683 486.601 199.571 486.161 199.425C485.719 199.279 485.308 199.1 484.929 198.889C484.55 198.677 484.221 198.438 483.944 198.171C483.666 197.905 483.448 197.61 483.29 197.289C483.131 196.967 483.051 196.623 483.051 196.254C483.051 195.973 483.094 195.729 483.18 195.52C483.266 195.311 483.38 195.138 483.523 195.003C483.666 194.869 483.828 194.768 484.012 194.703C484.195 194.636 484.386 194.604 484.585 194.604C484.828 194.604 485.07 194.65 485.313 194.744C485.556 194.837 485.774 194.975 485.967 195.157C486.161 195.338 486.318 195.561 486.439 195.824C486.559 196.088 486.621 196.392 486.621 196.732C486.621 196.814 486.659 196.902 486.737 196.996C486.815 197.089 486.929 197.176 487.076 197.255C487.225 197.334 487.408 197.403 487.63 197.456C487.851 197.512 488.103 197.539 488.389 197.539C488.788 197.539 489.106 197.513 489.343 197.461C489.581 197.408 489.763 197.339 489.889 197.251C490.015 197.163 490.097 197.064 490.135 196.954C490.172 196.844 490.192 196.735 490.192 196.624C490.192 196.487 490.092 196.366 489.893 196.261C489.693 196.156 489.432 196.051 489.11 195.943C488.787 195.836 488.417 195.722 487.999 195.602C487.581 195.481 487.158 195.337 486.727 195.169C486.297 195.002 485.872 194.802 485.456 194.571C485.038 194.34 484.668 194.06 484.345 193.733C484.021 193.405 483.76 193.024 483.562 192.586C483.362 192.149 483.263 191.639 483.263 191.056C483.263 190.479 483.331 189.961 483.469 189.505C483.606 189.048 483.801 188.644 484.05 188.292C484.3 187.941 484.602 187.64 484.952 187.389C485.301 187.139 485.69 186.932 486.119 186.771C486.547 186.609 487.008 186.49 487.501 186.416C487.994 186.342 488.506 186.304 489.039 186.304C489.993 186.304 490.804 186.402 491.475 186.598C492.145 186.793 492.691 187.044 493.11 187.352C493.531 187.66 493.836 188.003 494.027 188.379C494.218 188.756 494.314 189.123 494.314 189.48C494.314 189.805 494.246 190.086 494.113 190.321C493.978 190.558 493.803 190.752 493.588 190.907C493.373 191.061 493.127 191.173 492.853 191.244C492.578 191.315 492.301 191.352 492.022 191.352C491.752 191.352 491.49 191.322 491.234 191.261C490.979 191.2 490.753 191.11 490.555 190.989C490.358 190.869 490.2 190.721 490.079 190.548C489.958 190.375 489.897 190.175 489.897 189.95C489.897 189.785 489.933 189.661 490.007 189.578C490.079 189.496 490.16 189.427 490.25 189.373C490.339 189.317 490.419 189.262 490.493 189.208C490.558 189.154 490.594 189.072 490.594 188.961Z" fill="#22A6FF"/>
<path d="M506.104 193.656H502.46V196.172C502.46 196.42 502.494 196.611 502.562 196.749C502.628 196.886 502.712 196.991 502.808 197.062C502.905 197.133 503.009 197.183 503.123 197.211C503.235 197.238 503.339 197.269 503.434 197.302C503.528 197.335 503.607 197.38 503.673 197.438C503.738 197.496 503.77 197.591 503.77 197.723C503.77 198.411 503.423 198.907 502.728 199.212C502.034 199.517 501.029 199.67 499.715 199.67C499.079 199.67 498.516 199.633 498.023 199.558C497.53 199.483 497.115 199.368 496.779 199.212C496.443 199.055 496.186 198.853 496.011 198.605C495.836 198.357 495.749 198.063 495.749 197.723C495.749 197.591 495.78 197.496 495.846 197.438C495.911 197.38 495.99 197.336 496.085 197.306C496.179 197.276 496.282 197.247 496.391 197.22C496.501 197.193 496.604 197.145 496.698 197.075C496.793 197.007 496.872 196.906 496.937 196.774C497.002 196.643 497.034 196.453 497.034 196.206V189.985C497.034 189.743 497.002 189.556 496.937 189.419C496.872 189.285 496.793 189.183 496.698 189.115C496.604 189.047 496.501 188.998 496.391 188.97C496.28 188.943 496.179 188.913 496.085 188.884C495.99 188.854 495.911 188.81 495.846 188.752C495.78 188.693 495.749 188.598 495.749 188.467C495.749 188.126 495.836 187.833 496.011 187.587C496.186 187.342 496.441 187.142 496.779 186.985C497.115 186.827 497.53 186.713 498.023 186.639C498.516 186.565 499.079 186.527 499.715 186.527C500.372 186.527 500.954 186.564 501.461 186.639C501.968 186.713 502.391 186.829 502.733 186.985C503.074 187.142 503.332 187.342 503.507 187.587C503.682 187.833 503.77 188.125 503.77 188.467C503.77 188.598 503.738 188.693 503.673 188.752C503.607 188.81 503.528 188.854 503.434 188.884C503.339 188.913 503.235 188.943 503.123 188.97C503.01 188.997 502.906 189.045 502.812 189.115C502.717 189.184 502.638 189.285 502.573 189.419C502.508 189.554 502.476 189.743 502.476 189.985V192.064H506.102V189.985C506.102 189.743 506.07 189.556 506.005 189.419C505.94 189.285 505.861 189.183 505.766 189.115C505.672 189.047 505.568 188.998 505.455 188.97C505.343 188.943 505.239 188.913 505.144 188.884C505.05 188.854 504.971 188.81 504.906 188.752C504.84 188.693 504.808 188.598 504.808 188.467C504.808 187.785 505.154 187.291 505.847 186.986C506.538 186.681 507.545 186.528 508.864 186.528C510.162 186.528 511.155 186.681 511.845 186.986C512.534 187.291 512.88 187.785 512.88 188.467C512.88 188.598 512.846 188.693 512.778 188.752C512.71 188.81 512.627 188.854 512.528 188.884C512.428 188.913 512.32 188.943 512.201 188.97C512.083 188.997 511.973 189.045 511.873 189.115C511.773 189.184 511.69 189.285 511.623 189.419C511.555 189.554 511.522 189.743 511.522 189.985V196.172C511.522 196.42 511.555 196.611 511.623 196.749C511.69 196.886 511.774 196.991 511.873 197.062C511.973 197.133 512.081 197.183 512.201 197.211C512.319 197.238 512.428 197.269 512.528 197.302C512.628 197.335 512.712 197.38 512.778 197.438C512.845 197.496 512.88 197.591 512.88 197.723C512.88 198.065 512.792 198.358 512.617 198.605C512.442 198.853 512.185 199.055 511.845 199.212C511.506 199.369 511.086 199.484 510.584 199.558C510.083 199.632 509.51 199.67 508.864 199.67C508.207 199.67 507.626 199.633 507.119 199.558C506.612 199.484 506.188 199.368 505.847 199.212C505.505 199.055 505.246 198.853 505.072 198.605C504.897 198.357 504.81 198.063 504.81 197.723C504.81 197.591 504.842 197.496 504.907 197.438C504.972 197.38 505.051 197.335 505.146 197.302C505.24 197.269 505.344 197.238 505.457 197.211C505.569 197.184 505.673 197.135 505.768 197.062C505.862 196.991 505.941 196.888 506.007 196.753C506.072 196.618 506.104 196.424 506.104 196.172V193.656Z" fill="#22A6FF"/>
<path d="M524.134 189.986C524.29 189.886 524.39 189.786 524.433 189.685C524.476 189.583 524.498 189.499 524.498 189.434C524.498 189.34 524.454 189.257 524.365 189.183C524.276 189.109 524.176 189.031 524.066 188.952C523.955 188.872 523.857 188.786 523.768 188.692C523.679 188.599 523.635 188.487 523.635 188.353C523.635 188.002 523.719 187.707 523.889 187.47C524.058 187.233 524.282 187.046 524.559 186.909C524.837 186.771 525.152 186.673 525.505 186.615C525.857 186.557 526.217 186.529 526.584 186.529C527.014 186.529 527.422 186.561 527.807 186.628C528.191 186.694 528.53 186.795 528.82 186.933C529.111 187.07 529.343 187.249 529.515 187.469C529.687 187.688 529.773 187.949 529.773 188.253C529.773 188.446 529.723 188.599 529.623 188.715C529.523 188.83 529.388 188.928 529.219 189.007C529.05 189.087 528.854 189.156 528.633 189.213C528.412 189.271 528.183 189.338 527.946 189.416C527.708 189.492 527.471 189.59 527.231 189.709C526.99 189.827 526.768 189.983 526.564 190.176L524.859 191.785L528.236 196.174C528.403 196.393 528.568 196.563 528.733 196.685C528.897 196.806 529.052 196.902 529.198 196.975C529.344 197.046 529.479 197.102 529.602 197.143C529.726 197.185 529.834 197.233 529.926 197.288C530.017 197.343 530.088 197.418 530.14 197.515C530.191 197.611 530.216 197.75 530.216 197.932C530.216 198.542 529.885 198.985 529.226 199.26C528.566 199.535 527.611 199.673 526.363 199.673C525.738 199.673 525.179 199.635 524.683 199.558C524.187 199.482 523.766 199.361 523.419 199.199C523.072 199.038 522.807 198.831 522.624 198.581C522.44 198.332 522.349 198.03 522.349 197.678C522.349 197.54 522.396 197.435 522.49 197.365C522.585 197.294 522.689 197.231 522.801 197.179C522.914 197.126 523.018 197.073 523.112 197.019C523.207 196.963 523.254 196.881 523.254 196.77C523.254 196.7 523.23 196.62 523.186 196.535C523.14 196.45 523.069 196.341 522.972 196.209L521.582 194.353C521.528 194.282 521.464 194.225 521.388 194.184C521.313 194.143 521.232 194.112 521.149 194.089C521.066 194.068 520.977 194.055 520.883 194.052C520.788 194.049 520.695 194.048 520.603 194.048H520.442V196.176C520.442 196.424 520.474 196.616 520.54 196.753C520.605 196.891 520.685 196.996 520.783 197.067C520.88 197.138 520.984 197.187 521.098 197.216C521.21 197.243 521.316 197.274 521.413 197.306C521.51 197.339 521.591 197.384 521.656 197.443C521.721 197.501 521.753 197.596 521.753 197.728C521.753 198.415 521.406 198.912 520.712 199.216C520.018 199.521 519.012 199.674 517.699 199.674C517.063 199.674 516.499 199.638 516.006 199.562C515.513 199.487 515.098 199.372 514.762 199.216C514.426 199.059 514.169 198.858 513.994 198.61C513.819 198.361 513.732 198.068 513.732 197.728C513.732 197.596 513.764 197.501 513.829 197.443C513.894 197.384 513.974 197.34 514.068 197.311C514.162 197.281 514.265 197.251 514.375 197.224C514.484 197.197 514.587 197.149 514.682 197.08C514.776 197.012 514.855 196.911 514.92 196.779C514.986 196.647 515.018 196.457 515.018 196.21V189.99C515.018 189.747 514.986 189.56 514.92 189.424C514.855 189.289 514.776 189.187 514.682 189.119C514.587 189.051 514.484 189.003 514.375 188.975C514.264 188.948 514.162 188.918 514.068 188.888C513.974 188.858 513.894 188.814 513.829 188.756C513.764 188.698 513.732 188.603 513.732 188.471C513.732 188.131 513.819 187.837 513.994 187.592C514.169 187.347 514.425 187.147 514.762 186.989C515.098 186.832 515.513 186.717 516.006 186.643C516.499 186.57 517.063 186.531 517.699 186.531C518.356 186.531 518.937 186.568 519.444 186.643C519.951 186.717 520.374 186.833 520.716 186.989C521.058 187.147 521.316 187.347 521.491 187.592C521.666 187.837 521.753 188.129 521.753 188.471C521.753 188.603 521.721 188.698 521.656 188.756C521.591 188.814 521.51 188.858 521.413 188.888C521.316 188.918 521.212 188.948 521.098 188.975C520.985 189.001 520.88 189.05 520.783 189.119C520.685 189.189 520.605 189.289 520.54 189.424C520.474 189.559 520.442 189.747 520.442 189.99V192.563C520.594 192.563 520.752 192.555 520.919 192.539C521.085 192.522 521.237 192.463 521.371 192.358L524.134 189.986Z" fill="#22A6FF"/>
<path d="M535.564 188.739C536.286 188.739 536.936 188.85 537.515 189.07C538.094 189.289 538.587 189.593 538.994 189.977C539.4 190.361 539.713 190.814 539.931 191.334C540.149 191.855 540.258 192.413 540.258 193.013C540.258 193.261 540.225 193.453 540.157 193.59C540.089 193.728 539.995 193.83 539.87 193.895C539.746 193.96 539.592 194.003 539.409 194.018C539.225 194.035 539.019 194.042 538.787 194.042H534.902C534.902 194.648 534.963 195.139 535.084 195.514C535.204 195.891 535.372 196.184 535.589 196.393C535.804 196.602 536.063 196.744 536.364 196.819C536.665 196.893 537 196.931 537.365 196.931C537.559 196.931 537.759 196.912 537.966 196.873C538.173 196.834 538.373 196.785 538.565 196.724C538.756 196.663 538.932 196.6 539.094 196.534C539.255 196.467 539.389 196.405 539.498 196.344C539.584 196.294 539.667 196.27 539.748 196.27C539.871 196.27 539.968 196.324 540.038 196.43C540.107 196.538 540.143 196.657 540.143 196.789C540.143 196.833 540.14 196.874 540.135 196.912C540.129 196.951 540.118 196.989 540.103 197.027C539.946 197.434 539.734 197.811 539.464 198.157C539.195 198.503 538.867 198.805 538.483 199.061C538.098 199.316 537.652 199.516 537.146 199.659C536.639 199.802 536.071 199.873 535.44 199.873C534.838 199.873 534.287 199.801 533.788 199.655C533.29 199.509 532.84 199.306 532.439 199.044C532.037 198.783 531.686 198.476 531.385 198.123C531.083 197.772 530.832 197.387 530.634 196.972C530.434 196.556 530.285 196.123 530.185 195.669C530.085 195.215 530.035 194.757 530.035 194.295C530.035 193.827 530.087 193.365 530.189 192.905C530.292 192.446 530.445 192.01 530.65 191.598C530.854 191.185 531.111 190.805 531.418 190.455C531.725 190.106 532.083 189.803 532.493 189.547C532.902 189.292 533.362 189.092 533.874 188.949C534.388 188.812 534.95 188.739 535.564 188.739ZM536.162 190.852C535.99 190.852 535.828 190.892 535.678 190.971C535.527 191.051 535.396 191.174 535.286 191.338C535.175 191.503 535.089 191.714 535.028 191.969C534.966 192.225 534.935 192.529 534.935 192.881H537.512C537.512 192.497 537.483 192.174 537.423 191.911C537.364 191.65 537.277 191.44 537.165 191.284C537.052 191.129 536.911 191.016 536.741 190.95C536.569 190.885 536.378 190.852 536.162 190.852Z" fill="#22A6FF"/>
<path d="M546.429 188.739C547.151 188.739 547.801 188.85 548.38 189.07C548.959 189.289 549.452 189.593 549.858 189.977C550.265 190.361 550.578 190.814 550.796 191.334C551.014 191.855 551.123 192.413 551.123 193.013C551.123 193.261 551.09 193.453 551.022 193.59C550.954 193.728 550.859 193.83 550.734 193.895C550.611 193.96 550.457 194.003 550.273 194.018C550.09 194.035 549.883 194.042 549.651 194.042H545.767C545.767 194.648 545.828 195.139 545.948 195.514C546.069 195.891 546.237 196.184 546.454 196.393C546.669 196.602 546.927 196.744 547.229 196.819C547.53 196.893 547.864 196.931 548.23 196.931C548.424 196.931 548.624 196.912 548.831 196.873C549.038 196.834 549.238 196.785 549.429 196.724C549.621 196.663 549.797 196.6 549.958 196.534C550.119 196.467 550.254 196.405 550.362 196.344C550.448 196.294 550.532 196.27 550.612 196.27C550.736 196.27 550.833 196.324 550.902 196.43C550.972 196.538 551.008 196.657 551.008 196.789C551.008 196.833 551.005 196.874 551 196.912C550.994 196.951 550.983 196.989 550.968 197.027C550.811 197.434 550.598 197.811 550.329 198.157C550.06 198.503 549.732 198.805 549.347 199.061C548.963 199.316 548.517 199.516 548.01 199.659C547.503 199.802 546.936 199.873 546.305 199.873C545.703 199.873 545.151 199.801 544.653 199.655C544.154 199.509 543.705 199.306 543.303 199.044C542.902 198.783 542.551 198.476 542.249 198.123C541.948 197.772 541.697 197.387 541.498 196.972C541.298 196.556 541.15 196.123 541.05 195.669C540.95 195.215 540.9 194.757 540.9 194.295C540.9 193.827 540.951 193.365 541.054 192.905C541.157 192.446 541.31 192.01 541.515 191.598C541.719 191.185 541.976 190.805 542.283 190.455C542.59 190.106 542.948 189.803 543.358 189.547C543.767 189.292 544.227 189.092 544.739 188.949C545.253 188.812 545.815 188.739 546.429 188.739ZM547.027 190.852C546.855 190.852 546.693 190.892 546.543 190.971C546.391 191.051 546.261 191.174 546.151 191.338C546.04 191.503 545.954 191.714 545.893 191.969C545.83 192.225 545.8 192.529 545.8 192.881H548.377C548.377 192.497 548.348 192.174 548.288 191.911C548.228 191.65 548.142 191.44 548.03 191.284C547.917 191.129 547.776 191.016 547.606 190.95C547.434 190.885 547.242 190.852 547.027 190.852Z" fill="#22A6FF"/>
<path d="M564.71 194.383C564.71 194.807 564.685 195.235 564.633 195.67C564.582 196.104 564.494 196.525 564.371 196.932C564.247 197.339 564.082 197.722 563.878 198.079C563.674 198.437 563.418 198.749 563.114 199.015C562.81 199.282 562.449 199.493 562.031 199.646C561.613 199.799 561.133 199.877 560.589 199.877C559.975 199.877 559.446 199.811 559.002 199.679C558.557 199.547 558.18 199.387 557.867 199.2V201.122C557.867 201.353 557.896 201.531 557.956 201.654C558.016 201.777 558.088 201.871 558.174 201.935C558.26 201.999 558.356 202.043 558.462 202.067C558.567 202.091 558.662 202.118 558.749 202.145C558.835 202.172 558.907 202.211 558.967 202.264C559.027 202.316 559.056 202.403 559.056 202.523C559.056 203.15 558.738 203.602 558.102 203.88C557.466 204.158 556.548 204.297 555.347 204.297C554.771 204.297 554.26 204.264 553.813 204.198C553.366 204.131 552.99 204.026 552.681 203.88C552.375 203.734 552.141 203.55 551.983 203.327C551.825 203.105 551.744 202.837 551.744 202.523C551.744 202.403 551.772 202.316 551.829 202.264C551.886 202.211 551.958 202.172 552.047 202.145C552.136 202.118 552.23 202.092 552.33 202.071C552.43 202.048 552.524 202.006 552.613 201.943C552.702 201.879 552.774 201.789 552.831 201.671C552.888 201.553 552.916 201.38 552.916 201.155V192.121C552.916 191.901 552.888 191.731 552.831 191.609C552.774 191.489 552.702 191.397 552.613 191.333C552.524 191.269 552.43 191.226 552.33 191.205C552.23 191.184 552.136 191.158 552.047 191.131C551.958 191.104 551.886 191.065 551.829 191.012C551.772 190.96 551.744 190.873 551.744 190.753C551.744 190.439 551.823 190.171 551.983 189.949C552.141 189.726 552.375 189.542 552.681 189.396C552.988 189.25 553.366 189.145 553.813 189.078C554.26 189.012 554.771 188.979 555.347 188.979C555.978 188.979 556.464 189.026 556.805 189.119C557.147 189.213 557.397 189.377 557.552 189.614C557.703 189.499 557.876 189.389 558.069 189.284C558.263 189.179 558.482 189.087 558.727 189.007C558.971 188.928 559.243 188.863 559.543 188.813C559.842 188.763 560.175 188.739 560.542 188.739C561.086 188.739 561.568 188.819 561.987 188.979C562.408 189.139 562.771 189.355 563.081 189.627C563.391 189.899 563.649 190.22 563.856 190.588C564.063 190.957 564.231 191.35 564.357 191.768C564.483 192.186 564.574 192.617 564.628 193.063C564.682 193.508 564.71 193.947 564.71 194.383ZM557.867 197.559C557.98 197.603 558.096 197.636 558.214 197.658C558.332 197.681 558.455 197.691 558.578 197.691C558.879 197.691 559.111 197.643 559.272 197.546C559.433 197.45 559.553 197.278 559.628 197.03C559.703 196.782 559.747 196.447 559.761 196.023C559.775 195.599 559.782 195.063 559.782 194.415C559.782 193.733 559.758 193.163 559.71 192.704C559.661 192.244 559.583 191.879 559.475 191.606C559.367 191.334 559.228 191.14 559.056 191.025C558.884 190.91 558.674 190.852 558.425 190.852C558.328 190.852 558.231 190.861 558.135 190.876C558.038 190.893 557.949 190.917 557.869 190.95C557.88 191.12 557.885 191.302 557.885 191.494C557.885 191.687 557.885 191.896 557.885 192.121L557.867 197.559Z" fill="#22A6FF"/>
<path d="M571.019 188.739C571.741 188.739 572.39 188.85 572.969 189.07C573.548 189.289 574.041 189.593 574.448 189.977C574.855 190.361 575.167 190.814 575.385 191.334C575.603 191.855 575.713 192.413 575.713 193.013C575.713 193.261 575.68 193.453 575.612 193.59C575.544 193.728 575.449 193.83 575.324 193.895C575.201 193.96 575.047 194.003 574.863 194.018C574.68 194.035 574.473 194.042 574.241 194.042H570.356C570.356 194.648 570.417 195.139 570.538 195.514C570.659 195.891 570.827 196.184 571.044 196.393C571.259 196.602 571.517 196.744 571.818 196.819C572.12 196.893 572.454 196.931 572.819 196.931C573.014 196.931 573.214 196.912 573.421 196.873C573.628 196.834 573.828 196.785 574.019 196.724C574.211 196.663 574.387 196.6 574.548 196.534C574.709 196.467 574.844 196.405 574.952 196.344C575.038 196.294 575.122 196.27 575.202 196.27C575.326 196.27 575.423 196.324 575.492 196.43C575.562 196.538 575.598 196.657 575.598 196.789C575.598 196.833 575.595 196.874 575.589 196.912C575.584 196.951 575.573 196.989 575.558 197.027C575.401 197.434 575.188 197.811 574.919 198.157C574.649 198.503 574.322 198.805 573.937 199.061C573.553 199.316 573.107 199.516 572.6 199.659C572.093 199.802 571.525 199.873 570.895 199.873C570.292 199.873 569.741 199.801 569.243 199.655C568.744 199.509 568.294 199.306 567.893 199.044C567.492 198.783 567.141 198.476 566.839 198.123C566.538 197.772 566.287 197.387 566.088 196.972C565.888 196.556 565.74 196.123 565.64 195.669C565.54 195.215 565.49 194.757 565.49 194.295C565.49 193.827 565.541 193.365 565.644 192.905C565.747 192.446 565.899 192.01 566.105 191.598C566.309 191.185 566.566 190.805 566.873 190.455C567.18 190.106 567.538 189.803 567.947 189.547C568.357 189.292 568.817 189.092 569.329 188.949C569.841 188.812 570.405 188.739 571.019 188.739ZM571.616 190.852C571.444 190.852 571.281 190.892 571.131 190.971C570.98 191.051 570.849 191.174 570.74 191.338C570.628 191.503 570.542 191.714 570.481 191.969C570.419 192.225 570.388 192.529 570.388 192.881H572.965C572.965 192.497 572.936 192.174 572.876 191.911C572.817 191.65 572.731 191.44 572.618 191.284C572.506 191.129 572.364 191.016 572.195 190.95C572.024 190.885 571.831 190.852 571.616 190.852Z" fill="#22A6FF"/>
<path d="M582.303 196.494C582.303 196.719 582.332 196.895 582.392 197.021C582.451 197.147 582.525 197.242 582.614 197.306C582.703 197.37 582.798 197.414 582.9 197.438C583.003 197.462 583.098 197.489 583.187 197.516C583.276 197.543 583.35 197.584 583.409 197.635C583.469 197.688 583.498 197.774 583.498 197.895C583.498 198.521 583.18 198.974 582.544 199.252C581.908 199.53 580.991 199.669 579.79 199.669C579.208 199.669 578.694 199.636 578.247 199.569C577.8 199.504 577.424 199.398 577.115 199.252C576.809 199.106 576.575 198.921 576.417 198.699C576.259 198.476 576.178 198.208 576.178 197.895C576.178 197.774 576.207 197.688 576.267 197.635C576.327 197.583 576.399 197.543 576.485 197.516C576.571 197.489 576.666 197.464 576.768 197.442C576.871 197.421 576.965 197.377 577.052 197.315C577.138 197.251 577.21 197.16 577.27 197.043C577.329 196.925 577.358 196.752 577.358 196.526V192.121C577.358 191.901 577.329 191.731 577.27 191.609C577.21 191.488 577.138 191.396 577.052 191.332C576.965 191.269 576.871 191.226 576.768 191.205C576.666 191.184 576.571 191.158 576.485 191.131C576.399 191.104 576.327 191.064 576.267 191.012C576.207 190.959 576.178 190.873 576.178 190.752C576.178 190.439 576.257 190.171 576.417 189.948C576.577 189.726 576.809 189.542 577.115 189.395C577.422 189.249 577.8 189.145 578.247 189.078C578.694 189.011 579.208 188.979 579.79 188.979C580.323 188.979 580.749 189.032 581.07 189.139C581.391 189.247 581.642 189.404 581.825 189.614C581.976 189.515 582.132 189.42 582.293 189.329C582.454 189.238 582.626 189.159 582.81 189.089C582.993 189.021 583.191 188.967 583.408 188.929C583.623 188.891 583.861 188.871 584.119 188.871C584.442 188.871 584.753 188.905 585.052 188.974C585.35 189.044 585.616 189.156 585.848 189.313C586.079 189.471 586.264 189.673 586.402 189.924C586.539 190.175 586.607 190.484 586.607 190.853C586.607 191.096 586.567 191.331 586.486 191.562C586.406 191.793 586.285 191.997 586.127 192.176C585.968 192.355 585.768 192.499 585.528 192.609C585.288 192.719 585.013 192.773 584.701 192.773C584.388 192.773 584.144 192.726 583.966 192.633C583.788 192.539 583.651 192.424 583.554 192.287C583.457 192.149 583.386 191.999 583.34 191.837C583.294 191.676 583.246 191.525 583.194 191.388C583.143 191.25 583.076 191.135 582.993 191.042C582.91 190.948 582.785 190.901 582.617 190.901C582.45 190.901 582.339 190.923 582.285 190.964C582.231 191.005 582.204 191.064 582.204 191.141C582.204 191.24 582.224 191.366 582.261 191.521C582.299 191.676 582.318 191.863 582.318 192.083L582.303 196.494Z" fill="#22A6FF"/>
<path d="M485.336 202.389L485.043 202.698C484.8 202.457 484.561 202.337 484.328 202.337C484.18 202.337 484.053 202.386 483.948 202.486C483.842 202.585 483.789 202.701 483.789 202.834C483.789 202.952 483.833 203.064 483.92 203.17C484.007 203.28 484.189 203.406 484.468 203.553C484.807 203.733 485.038 203.905 485.16 204.072C485.279 204.241 485.339 204.43 485.339 204.641C485.339 204.937 485.236 205.19 485.032 205.395C484.828 205.601 484.573 205.704 484.266 205.704C484.062 205.704 483.866 205.659 483.681 205.568C483.497 205.477 483.342 205.353 483.22 205.192L483.506 204.861C483.74 205.129 483.985 205.263 484.246 205.263C484.43 205.263 484.584 205.204 484.713 205.083C484.842 204.963 484.906 204.822 484.906 204.661C484.906 204.527 484.863 204.41 484.778 204.305C484.693 204.203 484.502 204.075 484.205 203.919C483.885 203.75 483.667 203.584 483.552 203.42C483.437 203.256 483.38 203.068 483.38 202.858C483.38 202.583 483.472 202.355 483.655 202.174C483.838 201.992 484.07 201.901 484.35 201.901C484.678 201.901 485.007 202.063 485.336 202.389Z" fill="white"/>
<path d="M489.604 204.41L489.989 204.615C489.863 204.868 489.717 205.072 489.553 205.226C489.389 205.381 489.202 205.5 488.996 205.581C488.791 205.662 488.556 205.703 488.297 205.703C487.719 205.703 487.268 205.51 486.941 205.123C486.615 204.736 486.453 204.299 486.453 203.811C486.453 203.353 486.59 202.944 486.866 202.585C487.216 202.128 487.684 201.9 488.27 201.9C488.874 201.9 489.356 202.134 489.717 202.602C489.974 202.932 490.103 203.343 490.107 203.838H486.921C486.929 204.258 487.061 204.603 487.315 204.871C487.569 205.139 487.883 205.273 488.256 205.273C488.437 205.273 488.612 205.241 488.782 205.177C488.953 205.113 489.098 205.028 489.217 204.922C489.336 204.817 489.466 204.646 489.604 204.41ZM489.604 203.436C489.543 203.187 489.455 202.989 489.339 202.84C489.223 202.691 489.07 202.572 488.878 202.481C488.687 202.391 488.487 202.345 488.276 202.345C487.929 202.345 487.63 202.459 487.38 202.687C487.198 202.853 487.059 203.102 486.966 203.434H489.604V203.436Z" fill="white"/>
<path d="M491.366 200.598H491.822V205.609H491.366V200.598Z" fill="white"/>
<path d="M494.707 200.598V201.053C494.541 200.98 494.398 200.944 494.278 200.944C494.189 200.944 494.116 200.963 494.058 201C493.999 201.036 493.962 201.078 493.946 201.126C493.931 201.174 493.924 201.3 493.924 201.506V201.995H494.663V202.398H493.923L493.92 205.611H493.465V202.396H493V201.994H493.465V201.429C493.465 201.17 493.488 200.985 493.534 200.875C493.58 200.764 493.66 200.675 493.772 200.607C493.883 200.539 494.019 200.506 494.177 200.506C494.324 200.505 494.502 200.536 494.707 200.598Z" fill="white"/>
<path d="M498.146 200.598H498.602V202.641C498.786 202.393 498.989 202.208 499.21 202.084C499.431 201.961 499.671 201.9 499.929 201.9C500.194 201.9 500.429 201.968 500.633 202.105C500.837 202.243 500.99 202.427 501.087 202.658C501.184 202.89 501.233 203.253 501.233 203.747V205.608H500.778V203.885C500.778 203.468 500.761 203.19 500.729 203.051C500.672 202.812 500.571 202.631 500.422 202.511C500.274 202.39 500.079 202.329 499.838 202.329C499.563 202.329 499.315 202.423 499.098 202.609C498.88 202.795 498.735 203.026 498.666 203.301C498.623 203.478 498.6 203.806 498.6 204.285V205.611H498.145V200.598H498.146Z" fill="white"/>
<path d="M504.367 201.901C504.912 201.901 505.364 202.103 505.723 202.507C506.049 202.874 506.212 203.309 506.212 203.813C506.212 204.318 506.04 204.76 505.695 205.137C505.351 205.514 504.908 205.704 504.367 205.704C503.824 205.704 503.379 205.516 503.035 205.137C502.691 204.76 502.519 204.318 502.519 203.813C502.519 203.312 502.681 202.878 503.007 202.51C503.366 202.104 503.82 201.901 504.367 201.901ZM504.365 202.357C503.986 202.357 503.661 202.5 503.389 202.785C503.117 203.07 502.981 203.416 502.981 203.821C502.981 204.082 503.043 204.326 503.167 204.553C503.291 204.778 503.459 204.953 503.67 205.076C503.881 205.2 504.113 205.261 504.365 205.261C504.618 205.261 504.85 205.2 505.061 205.076C505.272 204.953 505.44 204.778 505.563 204.553C505.687 204.327 505.75 204.084 505.75 203.821C505.75 203.416 505.613 203.07 505.34 202.785C505.066 202.498 504.742 202.357 504.365 202.357Z" fill="white"/>
<path d="M509.315 202.389L509.022 202.698C508.779 202.457 508.54 202.337 508.307 202.337C508.159 202.337 508.032 202.386 507.927 202.486C507.821 202.585 507.768 202.701 507.768 202.834C507.768 202.952 507.812 203.064 507.899 203.17C507.986 203.28 508.168 203.406 508.447 203.553C508.786 203.733 509.017 203.905 509.139 204.072C509.258 204.241 509.318 204.43 509.318 204.641C509.318 204.937 509.215 205.19 509.011 205.395C508.807 205.601 508.552 205.704 508.245 205.704C508.041 205.704 507.845 205.659 507.66 205.568C507.476 205.477 507.321 205.353 507.199 205.192L507.485 204.861C507.719 205.129 507.964 205.263 508.225 205.263C508.409 205.263 508.563 205.204 508.692 205.083C508.821 204.963 508.885 204.822 508.885 204.661C508.885 204.527 508.842 204.41 508.757 204.305C508.672 204.203 508.481 204.075 508.184 203.919C507.864 203.75 507.646 203.584 507.531 203.42C507.416 203.256 507.359 203.068 507.359 202.858C507.359 202.583 507.451 202.355 507.634 202.174C507.817 201.992 508.049 201.901 508.329 201.901C508.656 201.901 508.985 202.063 509.315 202.389Z" fill="white"/>
<path d="M510.998 200.651H511.453V201.993H512.175V202.396H511.453V205.609H510.998V202.396H510.376V201.993H510.998V200.651Z" fill="white"/>
<path d="M516.321 204.41L516.706 204.615C516.58 204.868 516.434 205.072 516.27 205.226C516.106 205.381 515.919 205.5 515.713 205.581C515.508 205.662 515.273 205.703 515.013 205.703C514.436 205.703 513.984 205.51 513.658 205.123C513.332 204.736 513.169 204.299 513.169 203.811C513.169 203.353 513.307 202.944 513.583 202.585C513.933 202.128 514.401 201.9 514.987 201.9C515.591 201.9 516.073 202.134 516.434 202.602C516.691 202.932 516.82 203.343 516.824 203.838H513.637C513.646 204.258 513.778 204.603 514.032 204.871C514.286 205.139 514.6 205.273 514.973 205.273C515.154 205.273 515.329 205.241 515.499 205.177C515.67 205.113 515.814 205.028 515.934 204.922C516.052 204.817 516.181 204.646 516.321 204.41ZM516.321 203.436C516.26 203.187 516.171 202.989 516.056 202.84C515.939 202.691 515.787 202.572 515.595 202.481C515.403 202.391 515.204 202.345 514.993 202.345C514.645 202.345 514.347 202.459 514.097 202.687C513.915 202.853 513.776 203.102 513.683 203.434H516.321V203.436Z" fill="white"/>
<path d="M521.685 200.598V205.609H521.236V204.988C521.045 205.225 520.831 205.404 520.594 205.523C520.356 205.642 520.097 205.703 519.815 205.703C519.313 205.703 518.886 205.517 518.53 205.146C518.175 204.774 517.999 204.323 517.999 203.791C517.999 203.271 518.178 202.826 518.536 202.456C518.894 202.086 519.325 201.901 519.827 201.901C520.117 201.901 520.381 201.965 520.616 202.091C520.85 202.217 521.057 202.407 521.235 202.66V200.6H521.685V200.598ZM519.865 202.349C519.611 202.349 519.377 202.413 519.162 202.541C518.947 202.668 518.777 202.847 518.65 203.077C518.522 203.306 518.46 203.55 518.46 203.807C518.46 204.061 518.523 204.305 518.651 204.537C518.779 204.77 518.951 204.95 519.166 205.08C519.381 205.209 519.613 205.275 519.86 205.275C520.109 205.275 520.346 205.211 520.569 205.082C520.791 204.953 520.963 204.78 521.084 204.561C521.205 204.343 521.264 204.095 521.264 203.821C521.264 203.403 521.13 203.053 520.86 202.772C520.591 202.49 520.259 202.349 519.865 202.349Z" fill="white"/>
<path d="M525.519 200.598H525.974V203.452L527.615 201.993H528.284L526.338 203.718L528.398 205.609H527.757L525.974 203.981V205.609H525.519V200.598Z" fill="white"/>
<path d="M532.328 204.41L532.712 204.615C532.586 204.868 532.44 205.072 532.276 205.226C532.112 205.381 531.925 205.5 531.719 205.581C531.514 205.662 531.279 205.703 531.02 205.703C530.442 205.703 529.991 205.51 529.665 205.123C529.338 204.736 529.176 204.299 529.176 203.811C529.176 203.353 529.313 202.944 529.59 202.585C529.939 202.128 530.407 201.9 530.993 201.9C531.597 201.9 532.079 202.134 532.44 202.602C532.697 202.932 532.826 203.343 532.83 203.838H529.644C529.652 204.258 529.784 204.603 530.038 204.871C530.292 205.139 530.606 205.273 530.979 205.273C531.16 205.273 531.335 205.241 531.506 205.177C531.676 205.113 531.821 205.028 531.94 204.922C532.06 204.817 532.189 204.646 532.328 204.41ZM532.328 203.436C532.267 203.187 532.178 202.989 532.062 202.84C531.946 202.691 531.793 202.572 531.601 202.481C531.41 202.391 531.21 202.345 530.999 202.345C530.652 202.345 530.353 202.459 530.103 202.687C529.921 202.853 529.783 203.102 529.69 203.434H532.328V203.436Z" fill="white"/>
<path d="M537.139 204.41L537.523 204.615C537.397 204.868 537.251 205.072 537.087 205.226C536.923 205.381 536.736 205.5 536.531 205.581C536.325 205.662 536.09 205.703 535.831 205.703C535.253 205.703 534.802 205.51 534.476 205.123C534.149 204.736 533.987 204.299 533.987 203.811C533.987 203.353 534.124 202.944 534.401 202.585C534.75 202.128 535.218 201.9 535.804 201.9C536.408 201.9 536.89 202.134 537.251 202.602C537.508 202.932 537.637 203.343 537.641 203.838H534.455C534.463 204.258 534.595 204.603 534.849 204.871C535.103 205.139 535.417 205.273 535.79 205.273C535.971 205.273 536.146 205.241 536.317 205.177C536.487 205.113 536.632 205.028 536.751 204.922C536.871 204.817 537 204.646 537.139 204.41ZM537.139 203.436C537.078 203.187 536.989 202.989 536.873 202.84C536.757 202.691 536.604 202.572 536.412 202.481C536.221 202.391 536.021 202.345 535.81 202.345C535.463 202.345 535.164 202.459 534.914 202.687C534.732 202.853 534.594 203.102 534.501 203.434H537.139V203.436Z" fill="white"/>
<path d="M538.976 201.993H539.431V202.659C539.611 202.406 539.818 202.216 540.052 202.09C540.286 201.964 540.547 201.9 540.835 201.9C541.337 201.9 541.768 202.084 542.126 202.454C542.484 202.824 542.662 203.27 542.662 203.79C542.662 204.322 542.484 204.773 542.13 205.144C541.776 205.516 541.348 205.701 540.847 205.701C540.565 205.701 540.307 205.642 540.07 205.521C539.834 205.402 539.62 205.224 539.43 204.987V206.931H538.974V201.993H538.976ZM540.799 202.349C540.404 202.349 540.072 202.49 539.803 202.771C539.534 203.051 539.399 203.402 539.399 203.82C539.399 204.095 539.459 204.342 539.579 204.56C539.7 204.778 539.871 204.953 540.096 205.08C540.321 205.208 540.557 205.273 540.806 205.273C541.05 205.273 541.28 205.208 541.496 205.079C541.711 204.95 541.883 204.768 542.011 204.536C542.138 204.303 542.202 204.059 542.202 203.806C542.202 203.549 542.138 203.305 542.012 203.075C541.886 202.846 541.715 202.667 541.501 202.539C541.285 202.413 541.051 202.349 540.799 202.349Z" fill="white"/>
<path d="M546.976 204.41L547.361 204.615C547.234 204.868 547.089 205.072 546.925 205.226C546.761 205.381 546.573 205.5 546.368 205.581C546.162 205.662 545.928 205.703 545.668 205.703C545.091 205.703 544.639 205.51 544.313 205.123C543.987 204.736 543.824 204.299 543.824 203.811C543.824 203.353 543.962 202.944 544.238 202.585C544.588 202.128 545.056 201.9 545.642 201.9C546.246 201.9 546.728 202.134 547.089 202.602C547.345 202.932 547.475 203.343 547.479 203.838H544.292C544.3 204.258 544.432 204.603 544.686 204.871C544.941 205.139 545.254 205.273 545.628 205.273C545.808 205.273 545.983 205.241 546.154 205.177C546.325 205.113 546.469 205.028 546.589 204.922C546.708 204.817 546.837 204.646 546.976 204.41ZM546.976 203.436C546.915 203.187 546.826 202.989 546.711 202.84C546.594 202.691 546.441 202.572 546.25 202.481C546.058 202.391 545.858 202.345 545.647 202.345C545.3 202.345 545.002 202.459 544.752 202.687C544.57 202.853 544.431 203.102 544.338 203.434H546.976V203.436Z" fill="white"/>
<path d="M548.634 201.994H549.099V202.522C549.238 202.314 549.384 202.158 549.538 202.056C549.692 201.954 549.853 201.901 550.019 201.901C550.146 201.901 550.281 201.942 550.424 202.025L550.186 202.418C550.09 202.375 550.01 202.354 549.946 202.354C549.795 202.354 549.647 202.418 549.507 202.545C549.367 202.673 549.259 202.87 549.185 203.138C549.128 203.343 549.1 203.76 549.1 204.387V205.609H548.635V201.994H548.634Z" fill="white"/>
<defs>
<clipPath id="clip0_308_118">
<rect width="239.407" height="158.898" fill="white" transform="translate(239.407 327.801) rotate(-180)"/>
</clipPath>
<clipPath id="clip1_308_118">
<rect width="258.475" height="171.61" fill="white" transform="translate(491.525 64.0295)"/>
</clipPath>
</defs>
</svg>
