<svg width="750" height="380" viewBox="0 0 750 380" fill="none" xmlns="http://www.w3.org/2000/svg">
<path d="M291.571 63.3925C291.571 87.7595 271.817 107.513 247.45 107.513C223.083 107.513 203.33 87.7595 203.33 63.3925C203.33 39.0256 223.083 19.2722 247.45 19.2722C271.817 19.2722 291.571 39.0256 291.571 63.3925Z" fill="#22A6FF"/>
<path d="M111.019 241.723C117.137 241.723 123.254 241.762 129.372 241.714C132.944 241.684 134.599 243.146 134.56 246.956C134.425 258.952 134.464 270.947 134.551 282.933C134.57 285.798 133.505 287.815 131.269 289.53C125.248 294.139 119.305 298.856 113.381 303.601C111.551 305.063 109.606 306.067 107.234 306.057C98.5414 306.018 89.8488 305.94 81.1562 305.959C77.5939 305.969 75.9968 304.644 76.0839 300.766C76.2968 291.537 76.1516 282.29 76.1226 273.052C76.1129 270.051 76.9551 267.332 78.2909 264.672C81.4756 258.309 84.7668 251.975 87.6514 245.475C88.9388 242.581 90.778 241.733 93.6433 241.772C99.4416 241.86 105.23 241.801 111.028 241.801C111.019 241.772 111.019 241.743 111.019 241.723ZM111.571 284.551C111.571 284.502 111.571 284.463 111.571 284.414C116.885 284.414 122.189 284.385 127.504 284.424C130.466 284.443 131.995 283.118 131.986 280.049C131.957 269.68 131.947 259.312 131.947 248.944C131.947 246.128 130.543 244.783 127.784 244.773C117.001 244.725 106.227 244.666 95.4438 244.647C92.5011 244.637 91.02 246.128 91.0297 249.149C91.0394 259.351 91.0491 269.563 90.9813 279.766C90.962 283.381 92.8399 284.599 96.131 284.56C101.271 284.502 106.421 284.551 111.571 284.551ZM126.894 289.306C126.778 288.838 126.671 288.38 126.555 287.912C115.171 287.912 103.788 287.883 92.4043 287.942C90.4489 287.951 89.2002 289.364 88.1451 290.836C86.1704 293.603 84.3022 296.439 82.3468 299.226C80.5851 301.74 81.011 303.046 84.2634 303.056C88.4548 303.065 92.7431 302.588 96.8183 303.309C110.361 305.735 117.882 296.078 126.894 289.306Z" fill="#22A6FF"/>
<path d="M578.345 60.0925H575.595V90.3481H578.345V60.0925Z" fill="#22A6FF"/>
<path d="M738.36 169.187H698.54V171.929H738.36V169.187Z" fill="#22A6FF"/>
<path d="M273.655 253.586C273.79 228.036 254.179 207.904 229.02 207.768C203.62 207.621 183.215 227.812 183.099 253.177C182.992 277.987 203.572 298.772 228.382 298.898C253.443 299.015 273.519 278.922 273.655 253.586Z" fill="white"/>
<path d="M190.91 222.998C168.521 242.39 170.95 279.702 194.579 294.718C196.012 295.634 197.522 297.154 199.235 295.176C201.055 293.071 199.632 291.736 198.103 290.313C195.973 288.345 193.766 286.406 191.946 284.165C177.63 266.595 177.058 245.693 190.91 222.998Z" fill="white"/>
<circle cx="442.123" cy="309.955" r="51.1128" transform="rotate(-18.8728 442.123 309.955)" fill="#15202B" stroke="white" stroke-width="5"/>
<path d="M459.939 308.385C457.49 306.743 454.753 306.186 451.747 306.711C456.689 302.893 458.245 298.295 456.401 292.901C455.163 289.278 452.858 286.721 449.499 285.238C449.307 285.151 449.102 285.079 448.904 285.004C447.183 284.348 445.346 284.054 443.384 284.145C442.634 284.183 441.862 284.267 441.072 284.413L439.002 278.356L438.595 277.165L432.685 279.185L434.997 285.948L435.087 286.212L434.805 286.308L432.013 287.263L429.611 280.236L423.702 282.256L426.104 289.283L419.562 291.519L424.477 305.895L427.399 314.445L429.749 321.318L435.87 339.225L442.412 336.989L444.814 344.015L450.723 341.995L448.321 334.968L451.395 333.918L453.728 340.74L453.797 340.944L459.707 338.924L457.732 333.148L457.276 331.812C457.83 331.566 458.351 331.302 458.857 331.025C461.424 329.634 463.324 327.854 464.533 325.674C465.856 323.293 466.264 320.693 465.789 317.881C465.647 317.046 465.445 316.203 465.148 315.336C464.124 312.341 462.389 310.027 459.939 308.385ZM436.447 307.152L434.403 301.172L432.914 296.817L437.534 295.237L439.686 294.502C441.171 293.994 442.527 294.025 443.734 294.6C443.769 294.617 443.786 294.639 443.82 294.656C444.985 295.246 445.851 296.356 446.418 298.015C447 299.716 446.983 301.147 446.372 302.315C445.76 303.484 444.705 304.33 443.219 304.837L437.395 306.828L436.447 307.152ZM453.994 321.571C453.389 322.842 443.185 326.862 443.185 326.862L439.468 315.991L447.385 313.285C448.794 312.803 450.109 312.914 451.338 313.606C452.566 314.297 453.467 315.481 454.04 317.157C454.604 318.836 454.591 320.303 453.994 321.571Z" fill="white"/>
<path d="M576.97 87.4233C572.8 87.4233 569.409 90.9882 569.409 95.33C569.409 99.6718 572.8 103.237 576.97 103.237C581.14 103.237 584.531 99.6718 584.531 95.33C584.577 90.9882 581.186 87.4233 576.97 87.4233ZM576.97 100.494C574.312 100.494 572.159 98.1636 572.159 95.33C572.159 92.4964 574.312 90.1655 576.97 90.1655C579.628 90.1655 581.782 92.4964 581.782 95.33C581.827 98.2093 579.628 100.494 576.97 100.494Z" fill="#22A6FF"/>
<path d="M576.97 47.8901C572.8 47.8901 569.409 51.455 569.409 55.7968C569.409 60.1386 572.8 63.7035 576.97 63.7035C581.14 63.7035 584.531 60.1386 584.531 55.7968C584.577 51.455 581.186 47.8901 576.97 47.8901ZM576.97 60.9613C574.312 60.9613 572.159 58.6304 572.159 55.7968C572.159 52.9632 574.312 50.6323 576.97 50.6323C579.628 50.6323 581.782 52.9632 581.782 55.7968C581.827 58.6304 579.628 60.9613 576.97 60.9613Z" fill="#22A6FF"/>
<path d="M693.82 162.697C689.65 162.697 686.259 166.262 686.259 170.603C686.259 174.945 689.65 178.51 693.82 178.51C697.99 178.51 701.381 174.945 701.381 170.603C701.381 166.216 697.99 162.697 693.82 162.697ZM693.82 175.722C691.162 175.722 689.008 173.391 689.008 170.558C689.008 167.724 691.162 165.393 693.82 165.393C696.478 165.393 698.631 167.724 698.631 170.558C698.631 173.437 696.478 175.722 693.82 175.722Z" fill="#22A6FF"/>
<path d="M742.439 162.697C738.269 162.697 734.878 166.262 734.878 170.603C734.878 174.945 738.269 178.51 742.439 178.51C746.609 178.51 750 174.945 750 170.603C750.046 166.216 746.655 162.697 742.439 162.697ZM742.439 175.722C739.781 175.722 737.627 173.391 737.627 170.558C737.627 167.724 739.781 165.393 742.439 165.393C745.097 165.393 747.25 167.724 747.25 170.558C747.296 173.437 745.142 175.722 742.439 175.722Z" fill="#22A6FF"/>
<path d="M79.2497 17.2443C79.2691 8.05512 86.3645 0.980551 95.5217 1.00004C105.608 1.01953 112.616 7.99665 112.675 18.0531C112.723 27.1448 105.105 34.7553 96.0541 34.6481C86.0741 34.5311 79.2207 27.4371 79.2497 17.2443Z" fill="#22A6FF"/>
<path d="M558.03 294.925C558.03 285.58 564.922 278.486 574.108 278.399C583.226 278.311 590.341 285.453 590.341 294.691C590.341 304.056 583.468 311.11 574.263 311.198C565.047 311.296 558.03 304.26 558.03 294.925Z" fill="white"/>
<path d="M229.905 32.2002C223.842 35.7237 218.954 40.9777 215.858 47.2979C212.762 53.6181 211.597 60.7206 212.511 67.7072C213.424 74.6938 216.375 81.2508 220.991 86.5489C225.607 91.8471 231.679 95.6484 238.441 97.4723C245.203 99.2962 252.35 99.0607 258.978 96.7955C265.607 94.5304 271.42 90.3373 275.681 84.7466C279.943 79.1559 282.461 72.4187 282.919 65.3869C283.377 58.355 281.753 51.3444 278.253 45.2416C275.948 41.1945 272.873 37.6441 269.204 34.7932C265.536 31.9423 261.345 29.8467 256.872 28.6261C252.399 27.4055 247.731 27.0837 243.135 27.6792C238.538 28.2747 234.103 29.7758 230.083 32.0967L229.905 32.2002ZM248.721 63.8006L251.743 76.4887L268.813 66.5676C268.923 66.4979 269.047 66.4508 269.176 66.4292C269.305 66.4075 269.436 66.4116 269.564 66.4412C269.691 66.4708 269.811 66.5255 269.917 66.6019C270.024 66.6784 270.114 66.7752 270.183 66.8868L270.346 67.1707L271.818 73.1886C271.893 73.4704 271.87 73.7693 271.753 74.0362C271.636 74.3031 271.433 74.5222 271.176 74.6574L245.052 89.8411L240.818 72.2788L236.777 76.62L235.919 72.5362L239.96 68.195L234.037 43.5458C233.965 43.264 233.99 42.9663 234.106 42.7001C234.223 42.4339 234.424 42.2145 234.679 42.0769L241.284 38.2379C241.395 38.1682 241.518 38.1211 241.647 38.0994C241.776 38.0778 241.908 38.0818 242.035 38.1115C242.162 38.1411 242.282 38.1957 242.389 38.2722C242.495 38.3486 242.585 38.4454 242.654 38.557L242.817 38.841L247.82 59.6421L251.862 55.3009L252.879 59.491L248.721 63.8006Z" fill="#141D27"/>
<g clip-path="url(#clip0_397_177)">
<circle cx="226.971" cy="253.763" r="26.7927" fill="white"/>
<path d="M226.017 240.727L220.768 242.134L223.541 252.483L231.799 250.27L232.96 254.603L224.702 256.815L227.475 267.163L232.981 265.688C234.396 265.309 244.639 262.736 241.354 250.54C238.069 238.345 227.98 240.201 226.017 240.727Z" fill="#141D27"/>
<path d="M218.648 216.753C198.358 222.19 186.317 243.045 191.754 263.335C197.191 283.625 218.046 295.666 238.336 290.229C258.626 284.792 270.667 263.937 265.23 243.647C259.793 223.357 238.938 211.317 218.648 216.753ZM235.252 272.947L221.948 276.512L217.208 258.824L212.518 260.08L211.357 255.748L216.047 254.491L211.307 236.802L222.726 233.742C225.427 233.018 243.169 227.663 248.729 248.411C254.38 269.502 235.253 272.947 235.253 272.947L235.252 272.947Z" fill="#141D27"/>
</g>
<defs>
<clipPath id="clip0_397_177">
<rect width="76.0678" height="76.0678" fill="white" transform="translate(181.91 226.597) rotate(-15)"/>
</clipPath>
</defs>
</svg>
