<svg width="650" height="306" viewBox="0 0 650 306" fill="none" xmlns="http://www.w3.org/2000/svg">
<path d="M77.5609 207.024H207.476V205.224H78.3374L43.4844 168.304H14.3954V170.103H42.7079L77.5609 207.024Z" fill="#22A6FF"/>
<path d="M78.3374 221.45H207.476V219.651H77.5609L60.0299 238.216H12.2451V240.015H60.8064L78.3374 221.45Z" fill="#22A6FF"/>
<path d="M104.709 235.067H207.476V233.267H103.962L67.2275 272.197H45.8139V273.997H68.0039L104.709 235.067Z" fill="#22A6FF"/>
<path d="M10.9906 174.512C13.7084 174.512 15.9185 172.173 15.9185 169.324C15.9185 166.474 13.7084 164.135 10.9906 164.135C8.27289 164.135 6.06284 166.474 6.06284 169.324C6.03297 172.173 8.24302 174.512 10.9906 174.512ZM10.9906 165.934C12.7228 165.934 14.1265 167.464 14.1265 169.324C14.1265 171.183 12.7228 172.713 10.9906 172.713C9.25845 172.713 7.85479 171.183 7.85479 169.324C7.82492 167.464 9.25845 165.934 10.9906 165.934Z" fill="#22A6FF"/>
<path d="M8.54167 244.304C11.2594 244.304 13.4695 241.965 13.4695 239.116C13.4695 236.266 11.2594 233.927 8.54167 233.927C5.82391 233.927 3.61386 236.266 3.61386 239.116C3.61386 241.995 5.82391 244.304 8.54167 244.304ZM8.54167 235.756C10.2739 235.756 11.6776 237.286 11.6776 239.146C11.6776 241.005 10.2739 242.535 8.54167 242.535C6.80947 242.535 5.40578 241.005 5.40578 239.146C5.40578 237.256 6.80947 235.756 8.54167 235.756Z" fill="#22A6FF"/>
<path d="M42.3195 278.286C45.0373 278.286 47.2473 275.946 47.2473 273.097C47.2473 270.248 45.0373 267.908 42.3195 267.908C39.6018 267.908 37.3917 270.248 37.3917 273.097C37.3619 275.946 39.5719 278.286 42.3195 278.286ZM42.3195 269.708C44.0517 269.708 45.4554 271.237 45.4554 273.097C45.4554 274.956 44.0517 276.486 42.3195 276.486C40.5873 276.486 39.1837 274.956 39.1837 273.097C39.1538 271.237 40.5873 269.708 42.3195 269.708Z" fill="#22A6FF"/>
<path d="M36.6152 208.913C39.3329 208.913 41.543 206.574 41.543 203.725C41.543 200.875 39.3329 198.536 36.6152 198.536C33.8974 198.536 31.6874 200.875 31.6874 203.725C31.6874 206.604 33.8974 208.913 36.6152 208.913ZM36.6152 200.366C38.3474 200.366 39.751 201.895 39.751 203.755C39.751 205.614 38.3474 207.144 36.6152 207.144C34.883 207.144 33.4793 205.614 33.4793 203.755C33.4793 201.865 34.883 200.366 36.6152 200.366Z" fill="#22A6FF"/>
<path d="M170.234 173.492C172.951 173.492 175.161 171.153 175.161 168.304C175.161 165.454 172.951 163.115 170.234 163.115C167.516 163.115 165.306 165.454 165.306 168.304C165.276 171.153 167.486 173.492 170.234 173.492ZM170.234 164.915C171.966 164.915 173.369 166.444 173.369 168.304C173.369 170.163 171.966 171.693 170.234 171.693C168.501 171.693 167.098 170.163 167.098 168.304C167.068 166.444 168.501 164.915 170.234 164.915Z" fill="#22A6FF"/>
<path d="M110.801 173.492C113.519 173.492 115.729 171.153 115.729 168.304C115.729 165.454 113.519 163.115 110.801 163.115C108.083 163.115 105.873 165.454 105.873 168.304C105.844 171.153 108.083 173.492 110.801 173.492ZM110.801 164.915C112.533 164.915 113.937 166.444 113.937 168.304C113.937 170.163 112.533 171.693 110.801 171.693C109.069 171.693 107.665 170.163 107.665 168.304C107.635 166.444 109.069 164.915 110.801 164.915Z" fill="#22A6FF"/>
<path d="M113.459 169.203H167.127V167.404H113.459V169.203Z" fill="#22A6FF"/>
<path d="M566.261 139.04H425.999V140.983H565.423L603.052 180.857H634.458V178.914H603.89L566.261 139.04Z" fill="#22A6FF"/>
<path d="M565.423 123.459H425.999V125.403H566.261L585.189 105.352H636.779V103.409H584.35L565.423 123.459Z" fill="#22A6FF"/>
<path d="M536.951 108.753H425.999V110.697H537.758L577.418 68.6525H600.537V66.709H576.58L536.951 108.753Z" fill="#22A6FF"/>
<path d="M638.134 174.152C635.2 174.152 632.813 176.679 632.813 179.756C632.813 182.833 635.2 185.36 638.134 185.36C641.068 185.36 643.454 182.833 643.454 179.756C643.486 176.679 641.1 174.152 638.134 174.152ZM638.134 183.416C636.264 183.416 634.748 181.764 634.748 179.756C634.748 177.748 636.264 176.096 638.134 176.096C640.004 176.096 641.519 177.748 641.519 179.756C641.552 181.764 640.004 183.416 638.134 183.416Z" fill="#22A6FF"/>
<path d="M640.778 98.7766C637.844 98.7766 635.458 101.303 635.458 104.38C635.458 107.458 637.844 109.984 640.778 109.984C643.712 109.984 646.098 107.458 646.098 104.38C646.098 101.271 643.712 98.7766 640.778 98.7766ZM640.778 108.008C638.908 108.008 637.392 106.356 637.392 104.348C637.392 102.34 638.908 100.688 640.778 100.688C642.648 100.688 644.163 102.34 644.163 104.348C644.163 106.389 642.648 108.008 640.778 108.008Z" fill="#22A6FF"/>
<path d="M528.246 83.6497C525.311 83.6497 522.925 86.1762 522.925 89.2534C522.925 92.3306 525.311 94.8572 528.246 94.8572C531.18 94.8572 533.566 92.3306 533.566 89.2534C533.598 86.1762 531.212 83.6497 528.246 83.6497ZM528.246 92.9137C526.375 92.9137 524.86 91.2617 524.86 89.2534C524.86 87.2451 526.375 85.5932 528.246 85.5932C530.116 85.5932 531.631 87.2451 531.631 89.2534C531.663 91.2941 530.116 92.9137 528.246 92.9137Z" fill="#22A6FF"/>
<path d="M528.246 55.6309C525.311 55.6309 522.925 58.1574 522.925 61.2346C522.925 64.3118 525.311 66.8384 528.246 66.8384C531.18 66.8384 533.566 64.3118 533.566 61.2346C533.598 58.1574 531.212 55.6309 528.246 55.6309ZM528.246 64.8949C526.375 64.8949 524.86 63.2429 524.86 61.2346C524.86 59.2263 526.375 57.5744 528.246 57.5744C530.116 57.5744 531.631 59.2263 531.631 61.2346C531.663 63.2429 530.116 64.8949 528.246 64.8949Z" fill="#22A6FF"/>
<path d="M604.31 62.0767C601.375 62.0767 598.989 64.6032 598.989 67.6804C598.989 70.7576 601.375 73.2842 604.31 73.2842C607.244 73.2842 609.63 70.7576 609.63 67.6804C609.662 64.6032 607.276 62.0767 604.31 62.0767ZM604.31 71.3407C602.439 71.3407 600.924 69.6887 600.924 67.6804C600.924 65.6721 602.439 64.0202 604.31 64.0202C606.18 64.0202 607.695 65.6721 607.695 67.6804C607.727 69.6887 606.18 71.3407 604.31 71.3407Z" fill="#22A6FF"/>
<path d="M529.213 64.2793H527.278V85.7226H529.213V64.2793Z" fill="#22A6FF"/>
<path d="M466.208 175.253C463.274 175.253 460.888 177.78 460.888 180.857C460.888 183.934 463.274 186.461 466.208 186.461C469.142 186.461 471.528 183.934 471.528 180.857C471.561 177.78 469.174 175.253 466.208 175.253ZM466.208 184.517C464.338 184.517 462.822 182.865 462.822 180.857C462.822 178.849 464.338 177.197 466.208 177.197C468.078 177.197 469.594 178.849 469.594 180.857C469.626 182.865 468.078 184.517 466.208 184.517Z" fill="#22A6FF"/>
<path d="M530.374 175.253C527.439 175.253 525.053 177.78 525.053 180.857C525.053 183.934 527.439 186.461 530.374 186.461C533.308 186.461 535.694 183.934 535.694 180.857C535.726 177.78 533.308 175.253 530.374 175.253ZM530.374 184.517C528.503 184.517 526.988 182.865 526.988 180.857C526.988 178.849 528.503 177.197 530.374 177.197C532.244 177.197 533.759 178.849 533.759 180.857C533.791 182.865 532.244 184.517 530.374 184.517Z" fill="#22A6FF"/>
<path d="M527.504 179.885H469.561V181.829H527.504V179.885Z" fill="#22A6FF"/>
<path d="M444.289 18.3258C444.592 17.1873 444.758 15.9936 444.758 14.7633C444.758 7.16089 438.597 1 430.994 1C425.412 1 420.61 4.32376 418.452 9.08904C416.652 7.81279 414.458 7.05989 412.089 7.05989C406.066 7.05989 401.172 11.8986 401.071 17.9034C397.004 19.1797 394.056 22.9809 394.056 27.4615C394.056 32.9981 398.546 37.4787 404.074 37.4787H440.185C445.722 37.4787 450.202 32.9889 450.202 27.4615C450.211 23.3941 447.778 19.8959 444.289 18.3258Z" stroke="#E4F3FE" stroke-miterlimit="10"/>
<path d="M436.144 246.49H207.54V103.036C207.54 101.393 208.871 100.061 210.514 100.061H433.17C434.813 100.061 436.144 101.393 436.144 103.036V246.49Z" fill="#22A6FF"/>
<path d="M422.601 235.142H221.092C219.448 235.142 218.117 233.811 218.117 232.167V112.062C218.117 110.418 219.448 109.087 221.092 109.087H422.601C424.245 109.087 425.576 110.418 425.576 112.062V232.167C425.576 233.811 424.245 235.142 422.601 235.142Z" fill="#DAE8F5"/>
<path d="M264.209 235.142H221.009C219.411 235.142 218.108 233.847 218.108 232.24V111.988C218.108 110.391 219.402 109.087 221.009 109.087H417.983" fill="#EEF7FF"/>
<path d="M323.311 104.459C323.311 105.267 322.659 105.919 321.851 105.919C321.043 105.919 320.391 105.267 320.391 104.459C320.391 103.651 321.043 103 321.851 103C322.65 103 323.311 103.651 323.311 104.459Z" fill="#9EA8FF"/>
<path d="M313.147 125.43H237.527V129.278H313.147V125.43Z" fill="#22A6FF"/>
<path d="M313.147 145.933H237.527V149.78H313.147V145.933Z" fill="#22A6FF"/>
<path d="M281.626 132.271H237.527V136.118H281.626V132.271Z" fill="#22A6FF"/>
<path d="M322.191 139.102H237.527V142.949H322.191V139.102Z" fill="#22A6FF"/>
<path d="M337.267 139.102H323.587V142.949H337.267V139.102Z" fill="#22A6FF"/>
<path d="M346.844 139.102H339.434V142.949H346.844V139.102Z" fill="#22A6FF"/>
<path d="M285.767 152.764H237.527V156.612H285.767V152.764Z" fill="#22A6FF"/>
<path d="M294.352 152.764H286.557V156.612H294.352V152.764Z" fill="#22A6FF"/>
<path d="M299.815 152.764H295.592V156.612H299.815V152.764Z" fill="#22A6FF"/>
<path d="M265.118 205.641H237.334V209.488H265.118V205.641Z" fill="#22A6FF"/>
<path d="M253.53 212.472H237.334V216.32H253.53V212.472Z" fill="#22A6FF"/>
<path d="M360.655 209.834H412.55V205.987H360.655V209.834Z" fill="#22A6FF"/>
<path d="M382.278 216.66H412.541V212.813H382.278V216.66Z" fill="#22A6FF"/>
<path d="M354.442 223.494H412.543V219.647H354.442V223.494Z" fill="#22A6FF"/>
<path d="M344.096 223.494H353.48V219.647H344.096V223.494Z" fill="#22A6FF"/>
<path d="M337.518 223.494H342.604V219.647H337.518V223.494Z" fill="#22A6FF"/>
<path d="M238.555 160.826H237.527V201.932H238.555V160.826Z" fill="#22A6FF"/>
<path d="M216.666 262.99H427.027C432.068 262.99 436.154 258.904 436.154 253.863V246.481H207.54V253.863C207.54 258.904 211.625 262.99 216.666 262.99Z" fill="#ADB5BD"/>
<path d="M362.774 280.462H280.919L290.836 262.99H352.858L362.774 280.462Z" fill="#253141"/>
<path d="M376.592 285.237H267.092V283.759C267.092 281.078 269.268 278.911 271.94 278.911H371.735C374.416 278.911 376.583 281.087 376.583 283.759V285.237H376.592Z" fill="#ADB5BD"/>
<path opacity="0.43" d="M290.836 262.99L285.877 271.73H357.816L352.858 262.99H290.836Z" fill="#ADB5BD"/>
<path d="M444.289 18.3258C444.592 17.1873 444.758 15.9936 444.758 14.7633C444.758 7.16089 438.597 1 430.994 1C425.412 1 420.61 4.32376 418.452 9.08904C416.652 7.81279 414.458 7.05989 412.089 7.05989C406.066 7.05989 401.172 11.8986 401.071 17.9034C397.004 19.1797 394.056 22.9809 394.056 27.4615C394.056 32.9981 398.546 37.4787 404.074 37.4787H440.185C445.722 37.4787 450.202 32.9889 450.202 27.4615C450.211 23.3941 447.778 19.8959 444.289 18.3258Z" stroke="#E4F3FE" stroke-miterlimit="10"/>
<path d="M191.483 241.08C191.786 239.942 191.952 238.748 191.952 237.518C191.952 229.915 185.791 223.754 178.188 223.754C172.606 223.754 167.804 227.078 165.646 231.843C163.847 230.567 161.652 229.814 159.283 229.814C153.26 229.814 148.366 234.653 148.265 240.658C144.198 241.934 141.25 245.735 141.25 250.216C141.25 255.752 145.74 260.233 151.268 260.233H187.379C192.916 260.233 197.396 255.743 197.396 250.216C197.406 246.148 194.972 242.65 191.483 241.08Z" fill="#141D27" stroke="#E4F3FE" stroke-miterlimit="10"/>
<path d="M436.144 246.49H207.54V103.036C207.54 101.393 208.871 100.061 210.514 100.061H433.17C434.813 100.061 436.144 101.393 436.144 103.036V246.49Z" fill="#22A6FF"/>
<path d="M422.601 235.142H221.092C219.448 235.142 218.117 233.811 218.117 232.167V112.062C218.117 110.418 219.448 109.087 221.092 109.087H422.601C424.245 109.087 425.576 110.418 425.576 112.062V232.167C425.576 233.811 424.245 235.142 422.601 235.142Z" fill="#141D27"/>
<path d="M264.209 235.142H221.009C219.411 235.142 218.108 233.847 218.108 232.24V111.988C218.108 110.391 219.402 109.087 221.009 109.087H417.983" fill="#253141"/>
<path d="M323.311 104.459C323.311 105.267 322.659 105.919 321.851 105.919C321.043 105.919 320.391 105.267 320.391 104.459C320.391 103.651 321.043 103 321.851 103C322.65 103 323.311 103.651 323.311 104.459Z" fill="#9EA8FF"/>
<path d="M313.147 125.43H237.527V129.278H313.147V125.43Z" fill="#22A6FF"/>
<path d="M313.147 145.933H237.527V149.78H313.147V145.933Z" fill="#22A6FF"/>
<path d="M281.626 132.271H237.527V136.118H281.626V132.271Z" fill="#22A6FF"/>
<path d="M322.191 139.102H237.527V142.949H322.191V139.102Z" fill="#22A6FF"/>
<path d="M337.267 139.102H323.587V142.949H337.267V139.102Z" fill="#22A6FF"/>
<path d="M346.844 139.102H339.434V142.949H346.844V139.102Z" fill="#22A6FF"/>
<path d="M285.767 152.764H237.527V156.612H285.767V152.764Z" fill="#22A6FF"/>
<path d="M294.352 152.764H286.557V156.612H294.352V152.764Z" fill="#22A6FF"/>
<path d="M299.815 152.764H295.592V156.612H299.815V152.764Z" fill="#22A6FF"/>
<path d="M265.118 205.641H237.334V209.488H265.118V205.641Z" fill="#22A6FF"/>
<path d="M253.53 212.472H237.334V216.32H253.53V212.472Z" fill="#22A6FF"/>
<path d="M360.655 209.834H412.55V205.987H360.655V209.834Z" fill="#22A6FF"/>
<path d="M382.278 216.66H412.541V212.813H382.278V216.66Z" fill="#22A6FF"/>
<path d="M354.442 223.494H412.543V219.647H354.442V223.494Z" fill="#22A6FF"/>
<path d="M344.096 223.494H353.48V219.647H344.096V223.494Z" fill="#22A6FF"/>
<path d="M337.518 223.494H342.604V219.647H337.518V223.494Z" fill="#22A6FF"/>
<path d="M238.555 160.826H237.527V201.932H238.555V160.826Z" fill="#22A6FF"/>
<path d="M216.666 262.99H427.027C432.068 262.99 436.154 258.904 436.154 253.863V246.481H207.54V253.863C207.54 258.904 211.625 262.99 216.666 262.99Z" fill="#ADB5BD"/>
<path d="M362.774 280.462H280.919L290.836 262.99H352.858L362.774 280.462Z" fill="#253141"/>
<path d="M376.592 285.237H267.092V283.759C267.092 281.078 269.268 278.911 271.94 278.911H371.735C374.416 278.911 376.583 281.087 376.583 283.759V285.237H376.592Z" fill="#ADB5BD"/>
<path opacity="0.43" d="M290.836 262.99L285.877 271.73H357.816L352.858 262.99H290.836Z" fill="#ADB5BD"/>
<path d="M532.744 200.591H404.111C401.605 200.591 399.565 199.507 399.565 198.176V135.162C399.565 133.831 401.605 132.748 404.111 132.748H532.744C535.25 132.748 537.29 133.831 537.29 135.162V198.176C537.29 199.507 535.25 200.591 532.744 200.591Z" fill="#ADB5BD"/>
<path d="M528.299 193.356H409.088C407.271 193.356 405.8 192.616 405.8 191.703V144.509C405.8 143.596 407.271 142.856 409.088 142.856H528.299C530.117 142.856 531.588 143.596 531.588 144.509V191.703C531.588 192.608 530.117 193.356 528.299 193.356Z" fill="white"/>
<path d="M412.587 137.66C412.587 138.706 411.529 139.56 410.207 139.56C408.896 139.56 407.827 138.716 407.827 137.66C407.827 136.613 408.885 135.759 410.207 135.759C411.518 135.759 412.587 136.613 412.587 137.66Z" fill="#15202B"/>
<path d="M418.29 139.56C419.605 139.56 420.67 138.709 420.67 137.66C420.67 136.61 419.605 135.759 418.29 135.759C416.976 135.759 415.91 136.61 415.91 137.66C415.91 138.709 416.976 139.56 418.29 139.56Z" fill="#15202B"/>
<path d="M426.374 139.56C427.688 139.56 428.754 138.709 428.754 137.66C428.754 136.61 427.688 135.759 426.374 135.759C425.059 135.759 423.994 136.61 423.994 137.66C423.994 138.709 425.059 139.56 426.374 139.56Z" fill="#15202B"/>
<path d="M194.796 110.491H155.912C154.58 110.491 153.497 109.408 153.497 108.076V72.3598C153.497 71.0285 154.58 69.9451 155.912 69.9451H194.796C196.127 69.9451 197.211 71.0285 197.211 72.3598V108.076C197.211 109.408 196.127 110.491 194.796 110.491Z" fill="#ADB5BD"/>
<path d="M193.547 107.7H157.17C156.205 107.7 155.425 106.919 155.425 105.955V77.5748C155.425 76.6108 156.205 75.8303 157.17 75.8303H193.547C194.511 75.8303 195.292 76.6108 195.292 77.5748V105.946C195.292 106.919 194.511 107.7 193.547 107.7Z" fill="#22A6FF"/>
<path d="M158.391 72.8834C158.391 73.5077 157.886 74.0127 157.261 74.0127C156.637 74.0127 156.132 73.5077 156.132 72.8834C156.132 72.259 156.637 71.754 157.261 71.754C157.876 71.7448 158.391 72.259 158.391 72.8834Z" fill="#15202B"/>
<path d="M162.247 72.8834C162.247 73.5077 161.742 74.0127 161.118 74.0127C160.493 74.0127 159.988 73.5077 159.988 72.8834C159.988 72.259 160.493 71.754 161.118 71.754C161.733 71.7448 162.247 72.259 162.247 72.8834Z" fill="#15202B"/>
<path d="M166.103 72.8834C166.103 73.5077 165.598 74.0127 164.974 74.0127C164.349 74.0127 163.844 73.5077 163.844 72.8834C163.844 72.259 164.349 71.754 164.974 71.754C165.598 71.7448 166.103 72.259 166.103 72.8834Z" fill="#15202B"/>
<path d="M175.487 79.2371C178.673 79.2371 181.262 81.8263 181.262 85.0123C181.262 88.1984 178.673 90.7876 175.487 90.7876C172.301 90.7876 169.711 88.1984 169.711 85.0123C169.721 81.8263 172.301 79.2371 175.487 79.2371Z" fill="white"/>
<path d="M186.147 107.7H164.836V103.669C164.836 97.7837 169.611 93.0093 175.496 93.0093C181.382 93.0093 186.156 97.7837 186.156 103.669V107.7H186.147Z" fill="white"/>
<path d="M490.189 232.25C490.189 255.034 471.923 273.486 449.413 273.486C426.903 273.486 408.636 255.034 408.636 232.25C408.636 209.466 426.903 191.015 449.413 191.015C471.923 191.015 490.189 209.466 490.189 232.25Z" fill="#15202B" stroke="#22A6FF" stroke-width="2"/>
<path d="M462.704 235.62C461.343 233.772 459.507 232.66 457.211 232.285C461.714 230.698 463.97 227.667 463.97 223.177C463.97 220.16 462.938 217.667 460.882 215.705C460.765 215.592 460.635 215.486 460.511 215.379C459.432 214.452 458.18 213.765 456.743 213.333C456.193 213.17 455.616 213.035 455.01 212.943V207.9V206.909H450.252V212.539V212.759H450.026H447.777V206.909H443.019V212.759H437.752V224.728V231.846V237.568V252.476H443.019V258.326H447.777V252.476H450.252V258.156V258.326H455.01V253.517V252.405C455.471 252.363 455.911 252.299 456.344 252.221C458.538 251.839 460.346 250.996 461.756 249.679C463.296 248.241 464.231 246.407 464.581 244.19C464.685 243.531 464.747 242.851 464.747 242.129C464.747 239.636 464.066 237.469 462.704 235.62ZM446.072 228.715V223.736V220.11H449.792H451.525C452.721 220.11 453.69 220.479 454.419 221.215C454.44 221.236 454.447 221.258 454.467 221.279C455.162 222.015 455.512 223.064 455.512 224.445C455.512 225.861 455.148 226.923 454.419 227.639C453.69 228.354 452.721 228.715 451.525 228.715H446.835H446.072ZM455.169 243.935C454.419 244.728 446.072 245.125 446.072 245.125V236.074H452.446C453.58 236.074 454.502 236.492 455.217 237.32C455.932 238.149 456.289 239.261 456.289 240.656C456.283 242.051 455.911 243.142 455.169 243.935Z" fill="white"/>
<path d="M317.422 168.338C316.008 168.338 314.728 168.032 313.582 167.418C312.448 166.792 311.555 165.932 310.902 164.838C310.262 163.745 309.942 162.512 309.942 161.138C309.942 159.765 310.268 158.532 310.922 157.438C311.575 156.345 312.468 155.492 313.602 154.878C314.748 154.252 316.028 153.938 317.442 153.938C318.588 153.938 319.635 154.138 320.582 154.538C321.528 154.938 322.328 155.518 322.982 156.278L321.302 157.858C320.288 156.765 319.042 156.218 317.562 156.218C316.602 156.218 315.742 156.432 314.982 156.858C314.222 157.272 313.628 157.852 313.202 158.598C312.775 159.345 312.562 160.192 312.562 161.138C312.562 162.085 312.775 162.932 313.202 163.678C313.628 164.425 314.222 165.012 314.982 165.438C315.742 165.852 316.602 166.058 317.562 166.058C319.042 166.058 320.288 165.505 321.302 164.398L322.982 165.998C322.328 166.758 321.522 167.338 320.562 167.738C319.615 168.138 318.568 168.338 317.422 168.338ZM339.333 168.138L339.313 158.858L334.713 166.538H333.553L328.953 158.978V168.138H326.473V154.138H328.613L334.173 163.418L339.633 154.138H341.773L341.793 168.138H339.333ZM326.309 198.338C325.229 198.338 324.182 198.185 323.169 197.878C322.169 197.572 321.376 197.165 320.789 196.658L321.689 194.638C322.262 195.092 322.962 195.465 323.789 195.758C324.629 196.038 325.469 196.178 326.309 196.178C327.349 196.178 328.122 196.012 328.629 195.678C329.149 195.345 329.409 194.905 329.409 194.358C329.409 193.958 329.262 193.632 328.969 193.378C328.689 193.112 328.329 192.905 327.889 192.758C327.449 192.612 326.849 192.445 326.089 192.258C325.022 192.005 324.156 191.752 323.489 191.498C322.836 191.245 322.269 190.852 321.789 190.318C321.322 189.772 321.089 189.038 321.089 188.118C321.089 187.345 321.296 186.645 321.709 186.018C322.136 185.378 322.769 184.872 323.609 184.498C324.462 184.125 325.502 183.938 326.729 183.938C327.582 183.938 328.422 184.045 329.249 184.258C330.076 184.472 330.789 184.778 331.389 185.178L330.569 187.198C329.956 186.838 329.316 186.565 328.649 186.378C327.982 186.192 327.336 186.098 326.709 186.098C325.682 186.098 324.916 186.272 324.409 186.618C323.916 186.965 323.669 187.425 323.669 187.998C323.669 188.398 323.809 188.725 324.089 188.978C324.382 189.232 324.749 189.432 325.189 189.578C325.629 189.725 326.229 189.892 326.989 190.078C328.029 190.318 328.882 190.572 329.549 190.838C330.216 191.092 330.782 191.485 331.249 192.018C331.729 192.552 331.969 193.272 331.969 194.178C331.969 194.952 331.756 195.652 331.329 196.278C330.916 196.905 330.282 197.405 329.429 197.778C328.576 198.152 327.536 198.338 326.309 198.338Z" fill="white"/>
<path d="M520.342 161.115C520.051 161.149 519.727 161.077 519.454 160.978C519.392 160.954 519.341 160.931 519.275 160.929C519.112 160.921 518.948 160.929 518.784 160.929C518.649 160.929 518.514 160.929 518.378 160.929C518.248 159.145 517.548 157.524 516.462 156.255C516.501 156.215 516.541 156.175 516.579 156.135C516.737 155.974 516.896 155.812 517.053 155.651C517.193 155.509 517.245 155.327 517.352 155.156C517.517 154.893 517.71 154.691 517.966 154.524C518.192 154.375 518.425 154.238 518.638 154.069C518.821 153.924 519.015 153.749 519.09 153.516C519.169 153.272 519.057 153.048 518.891 152.872C518.725 152.708 518.526 152.595 518.288 152.625C518.079 152.652 517.899 152.783 517.754 152.931C517.435 153.262 517.266 153.702 516.978 154.055C516.789 154.287 516.518 154.471 516.251 154.598C516.19 154.626 516.14 154.648 516.092 154.694C515.964 154.813 515.846 154.945 515.724 155.07C515.648 155.147 515.572 155.225 515.496 155.302C514.722 154.659 513.828 154.164 512.851 153.857C512.256 153.65 511.635 153.511 511.001 153.451C511.001 153.346 511.001 153.24 511.001 153.134C511.001 152.919 511.001 152.704 511.001 152.489C511.001 152.463 511.006 152.432 511 152.407C510.988 152.346 510.952 152.284 510.934 152.225C510.886 152.069 510.851 151.908 510.831 151.745C510.765 151.207 510.982 150.715 511.034 150.187C511.054 149.976 511.061 149.735 510.948 149.547C510.825 149.344 510.6 149.292 510.381 149.285C510.375 149.284 510.366 149.284 510.354 149.284C510.133 149.287 509.887 149.339 509.726 149.504C509.597 149.636 509.558 149.822 509.551 150.003C509.535 150.457 509.705 150.891 509.77 151.336C509.815 151.64 509.759 151.962 509.673 152.252C509.649 152.332 509.605 152.412 509.596 152.494C509.576 152.649 509.596 152.817 509.596 152.972C509.596 153.134 509.596 153.296 509.596 153.457C507.958 153.62 506.421 154.276 505.168 155.34C505.117 155.289 505.068 155.238 505.018 155.187C504.867 155.033 504.718 154.881 504.568 154.727C504.547 154.706 504.525 154.675 504.501 154.659C504.46 154.631 504.401 154.615 504.356 154.593C504.205 154.517 504.063 154.425 503.93 154.32C503.487 153.971 503.297 153.433 502.938 153.008C502.797 152.84 502.62 152.681 502.396 152.657C502.137 152.629 501.89 152.758 501.708 152.939C500.921 153.768 502.448 154.309 502.898 154.75C503.129 154.976 503.276 155.249 503.422 155.533C503.44 155.569 503.451 155.586 503.478 155.614C503.607 155.75 503.74 155.881 503.87 156.014C503.973 156.119 504.078 156.226 504.181 156.332C504.15 156.37 504.116 156.406 504.086 156.444C503.054 157.718 502.471 159.294 502.347 160.915C502.257 160.915 502.167 160.915 502.076 160.915C501.874 160.915 501.672 160.915 501.469 160.915C501.41 160.915 501.358 160.915 501.3 160.936C501.085 161.011 500.877 161.076 500.647 161.098C500.141 161.147 499.657 160.914 499.157 160.876C498.932 160.859 498.686 160.875 498.488 160.994C498.272 161.124 498.19 161.349 498.188 161.596C498.205 162.734 499.625 162.138 500.26 162.059C500.543 162.025 500.854 162.09 501.122 162.182C501.191 162.206 501.252 162.239 501.324 162.245C501.487 162.258 501.655 162.245 501.819 162.245C501.931 162.245 502.043 162.245 502.155 162.245C505.423 161.898 508.337 162.111 509.596 163.581C510.616 164.772 509.874 167.275 508.855 169.511C509.101 169.555 509.348 169.588 509.596 169.609C509.596 169.741 509.596 169.873 509.596 170.005C509.596 170.224 509.596 170.442 509.596 170.662C509.596 170.691 509.591 170.724 509.596 170.751C509.605 170.801 509.636 170.857 509.653 170.906C509.701 171.054 509.736 171.209 509.758 171.364C509.799 171.654 509.772 171.902 509.711 172.184C509.655 172.44 509.591 172.694 509.563 172.954C509.54 173.172 509.532 173.42 509.65 173.613C509.777 173.825 510.018 173.877 510.247 173.88C510.469 173.876 510.712 173.826 510.875 173.657C511.004 173.524 511.042 173.338 511.048 173.155C511.061 172.699 510.894 172.267 510.829 171.821C510.786 171.519 510.841 171.196 510.928 170.907C510.952 170.826 510.995 170.746 511.004 170.664C511.02 170.509 511.004 170.342 511.004 170.186C511.004 169.99 511.004 169.796 511.004 169.6C511.614 169.544 512.218 169.417 512.806 169.221C513.772 168.925 514.658 168.444 515.429 167.818C515.476 167.866 515.523 167.914 515.57 167.962C515.724 168.12 515.876 168.276 516.03 168.433C516.052 168.455 516.075 168.485 516.1 168.504C516.138 168.532 516.184 168.546 516.227 168.566C516.36 168.631 516.489 168.709 516.61 168.798C516.857 168.98 517.027 169.19 517.187 169.448C517.331 169.682 517.47 169.921 517.643 170.134C517.786 170.308 517.968 170.479 518.197 170.519C518.455 170.563 518.697 170.433 518.878 170.253C519.688 169.4 518.186 168.868 517.712 168.415C517.488 168.201 517.31 167.925 517.183 167.64C517.164 167.597 517.153 167.574 517.123 167.541C517.002 167.405 516.868 167.28 516.74 167.15C516.639 167.047 516.538 166.943 516.437 166.84C517.519 165.588 518.224 163.99 518.372 162.229C518.422 162.229 518.47 162.229 518.519 162.229C518.721 162.229 518.924 162.229 519.127 162.229C519.187 162.229 519.236 162.228 519.297 162.207C519.525 162.127 519.748 162.059 519.992 162.042C520.49 162.008 520.969 162.245 521.465 162.272C521.69 162.284 521.93 162.261 522.126 162.14C522.339 162.009 522.408 161.785 522.41 161.543C522.394 160.435 520.948 161.048 520.342 161.115ZM507.546 160.915C506.704 160.915 505.862 160.915 505.02 160.915C505.126 159.917 505.486 158.997 506.032 158.222C506.47 158.67 506.909 159.118 507.347 159.566C507.523 159.745 507.699 159.924 507.875 160.105C507.729 160.355 507.617 160.627 507.546 160.915ZM509.596 158.053C509.596 158.295 509.596 158.536 509.596 158.778C509.328 158.848 509.078 158.957 508.849 159.1C508.225 158.462 507.6 157.824 506.976 157.186C507.295 156.913 507.644 156.677 508.018 156.482C508.51 156.242 509.041 156.076 509.597 155.998C509.596 156.682 509.596 157.368 509.596 158.053ZM514.585 158.173C515.139 158.918 515.524 159.803 515.671 160.758C515.679 160.814 515.685 160.872 515.692 160.929C515.071 160.929 514.449 160.929 513.828 160.929C513.575 160.929 513.323 160.929 513.07 160.929C513.001 160.616 512.886 160.328 512.731 160.067C513.348 159.435 513.967 158.805 514.585 158.173ZM511.002 155.994C511.988 156.132 512.899 156.557 513.652 157.185C513.177 157.67 512.702 158.156 512.226 158.641C512.076 158.795 511.925 158.949 511.774 159.104C511.537 158.96 511.278 158.852 511.002 158.782C511.002 157.852 511.002 156.923 511.002 155.994ZM511.002 167.074C511.002 166.419 511.002 165.764 511.002 165.107C511.002 164.834 511.002 164.562 511.002 164.289C511.245 164.225 511.477 164.129 511.688 164.004C512.324 164.652 512.959 165.301 513.593 165.949C512.882 166.514 512.031 166.91 511.102 167.059C511.07 167.065 511.036 167.069 511.002 167.074ZM513.248 163.587C513.062 163.396 512.875 163.206 512.688 163.015C512.838 162.773 512.954 162.509 513.031 162.231C513.918 162.231 514.805 162.231 515.692 162.231C515.57 163.229 515.174 164.165 514.578 164.945C514.134 164.493 513.691 164.04 513.248 163.587Z" fill="#22A6FF"/>
<path d="M425.192 163.915C425.192 163.781 425.074 163.661 424.839 163.55C424.603 163.441 424.242 163.386 423.757 163.386C423.421 163.386 423.155 163.409 422.959 163.457C422.763 163.505 422.615 163.567 422.515 163.646C422.415 163.725 422.35 163.813 422.322 163.91C422.295 164.009 422.28 164.107 422.28 164.207C422.28 164.412 422.375 164.591 422.564 164.746C422.753 164.901 423.003 165.047 423.314 165.186C423.624 165.325 423.978 165.463 424.374 165.601C424.771 165.739 425.177 165.894 425.592 166.062C426.007 166.232 426.414 166.426 426.81 166.645C427.207 166.864 427.56 167.122 427.87 167.417C428.181 167.713 428.43 168.058 428.62 168.454C428.809 168.85 428.904 169.307 428.904 169.827C428.904 170.494 428.778 171.055 428.526 171.507C428.274 171.959 427.923 172.324 427.472 172.601C427.022 172.877 426.487 173.075 425.869 173.194C425.25 173.313 424.575 173.374 423.842 173.374C423.413 173.374 422.985 173.341 422.56 173.274C422.136 173.208 421.731 173.111 421.35 172.984C420.967 172.858 420.611 172.703 420.282 172.52C419.954 172.336 419.669 172.129 419.428 171.898C419.187 171.667 418.998 171.411 418.861 171.133C418.724 170.854 418.654 170.556 418.654 170.236C418.654 169.993 418.691 169.781 418.766 169.599C418.841 169.419 418.939 169.269 419.063 169.152C419.187 169.035 419.328 168.948 419.487 168.892C419.646 168.834 419.812 168.805 419.984 168.805C420.194 168.805 420.404 168.846 420.614 168.927C420.825 169.008 421.014 169.127 421.181 169.285C421.35 169.442 421.486 169.635 421.59 169.864C421.695 170.092 421.748 170.355 421.748 170.65C421.748 170.722 421.782 170.798 421.849 170.879C421.917 170.96 422.015 171.035 422.143 171.104C422.272 171.173 422.431 171.232 422.623 171.278C422.814 171.326 423.033 171.35 423.281 171.35C423.627 171.35 423.902 171.327 424.108 171.282C424.314 171.236 424.472 171.176 424.581 171.1C424.691 171.024 424.762 170.938 424.794 170.843C424.827 170.747 424.843 170.653 424.843 170.557C424.843 170.438 424.757 170.333 424.585 170.242C424.411 170.151 424.185 170.06 423.906 169.967C423.626 169.873 423.305 169.775 422.943 169.671C422.581 169.566 422.214 169.441 421.841 169.296C421.468 169.151 421.099 168.978 420.738 168.777C420.376 168.577 420.056 168.335 419.776 168.051C419.495 167.767 419.269 167.436 419.097 167.057C418.924 166.678 418.838 166.236 418.838 165.73C418.838 165.23 418.897 164.782 419.016 164.386C419.135 163.99 419.304 163.64 419.521 163.335C419.737 163.03 419.998 162.77 420.302 162.552C420.605 162.336 420.942 162.157 421.314 162.016C421.684 161.876 422.084 161.773 422.511 161.709C422.938 161.645 423.382 161.612 423.845 161.612C424.671 161.612 425.374 161.697 425.955 161.866C426.537 162.036 427.01 162.254 427.373 162.52C427.738 162.787 428.003 163.084 428.167 163.41C428.333 163.737 428.416 164.055 428.416 164.365C428.416 164.646 428.358 164.89 428.242 165.094C428.125 165.299 427.974 165.467 427.787 165.601C427.601 165.735 427.388 165.832 427.15 165.894C426.912 165.955 426.671 165.987 426.43 165.987C426.196 165.987 425.969 165.962 425.747 165.909C425.526 165.856 425.33 165.777 425.159 165.673C424.988 165.568 424.851 165.44 424.746 165.29C424.641 165.141 424.588 164.967 424.588 164.772C424.588 164.629 424.62 164.521 424.683 164.45C424.746 164.379 424.816 164.318 424.894 164.272C424.971 164.224 425.041 164.176 425.105 164.129C425.161 164.082 425.192 164.011 425.192 163.915Z" fill="#22A6FF"/>
<path d="M438.635 167.984H435.477V170.165C435.477 170.38 435.506 170.546 435.565 170.665C435.623 170.784 435.695 170.875 435.778 170.936C435.863 170.998 435.953 171.041 436.051 171.066C436.149 171.089 436.239 171.116 436.321 171.144C436.403 171.172 436.471 171.212 436.528 171.262C436.585 171.313 436.612 171.395 436.612 171.509C436.612 172.105 436.311 172.535 435.71 172.8C435.108 173.064 434.237 173.197 433.098 173.197C432.547 173.197 432.058 173.165 431.631 173.1C431.204 173.034 430.844 172.935 430.553 172.8C430.262 172.663 430.039 172.489 429.887 172.274C429.736 172.059 429.66 171.804 429.66 171.509C429.66 171.395 429.688 171.313 429.744 171.262C429.801 171.212 429.869 171.174 429.951 171.148C430.033 171.122 430.122 171.096 430.217 171.073C430.312 171.05 430.401 171.008 430.483 170.948C430.565 170.889 430.634 170.801 430.69 170.687C430.747 170.573 430.774 170.408 430.774 170.194V164.802C430.774 164.592 430.747 164.43 430.69 164.312C430.634 164.195 430.565 164.107 430.483 164.048C430.401 163.989 430.312 163.947 430.217 163.923C430.121 163.899 430.033 163.873 429.951 163.848C429.869 163.822 429.801 163.784 429.744 163.733C429.688 163.683 429.66 163.601 429.66 163.486C429.66 163.191 429.736 162.937 429.887 162.724C430.039 162.512 430.26 162.338 430.553 162.202C430.844 162.065 431.204 161.966 431.631 161.902C432.058 161.838 432.547 161.805 433.098 161.805C433.667 161.805 434.172 161.837 434.611 161.902C435.05 161.966 435.417 162.067 435.713 162.202C436.009 162.338 436.233 162.512 436.385 162.724C436.536 162.937 436.612 163.19 436.612 163.486C436.612 163.601 436.585 163.683 436.528 163.733C436.471 163.784 436.403 163.822 436.321 163.848C436.239 163.873 436.149 163.899 436.051 163.923C435.954 163.946 435.864 163.988 435.782 164.048C435.7 164.108 435.631 164.195 435.575 164.312C435.518 164.429 435.491 164.592 435.491 164.802V166.604H438.634V164.802C438.634 164.592 438.606 164.43 438.55 164.312C438.493 164.195 438.425 164.107 438.343 164.048C438.261 163.989 438.171 163.947 438.073 163.923C437.976 163.899 437.886 163.873 437.804 163.848C437.722 163.822 437.653 163.784 437.597 163.733C437.54 163.683 437.512 163.601 437.512 163.486C437.512 162.895 437.812 162.467 438.413 162.203C439.012 161.939 439.884 161.806 441.028 161.806C442.153 161.806 443.013 161.939 443.612 162.203C444.208 162.467 444.508 162.895 444.508 163.486C444.508 163.601 444.479 163.683 444.42 163.733C444.361 163.784 444.289 163.822 444.204 163.848C444.117 163.873 444.023 163.899 443.92 163.923C443.817 163.946 443.722 163.988 443.636 164.048C443.549 164.108 443.477 164.195 443.419 164.312C443.36 164.429 443.331 164.592 443.331 164.802V170.165C443.331 170.38 443.36 170.546 443.419 170.665C443.477 170.784 443.55 170.875 443.636 170.936C443.722 170.998 443.816 171.041 443.92 171.066C444.022 171.089 444.117 171.116 444.204 171.144C444.29 171.172 444.363 171.212 444.42 171.262C444.478 171.313 444.508 171.395 444.508 171.509C444.508 171.805 444.432 172.06 444.281 172.274C444.129 172.489 443.906 172.663 443.612 172.8C443.318 172.936 442.953 173.036 442.519 173.1C442.084 173.163 441.587 173.197 441.028 173.197C440.459 173.197 439.954 173.165 439.515 173.1C439.076 173.036 438.709 172.935 438.413 172.8C438.117 172.663 437.892 172.489 437.741 172.274C437.589 172.059 437.514 171.804 437.514 171.509C437.514 171.395 437.541 171.313 437.598 171.262C437.654 171.212 437.723 171.172 437.805 171.144C437.887 171.116 437.977 171.089 438.074 171.066C438.172 171.042 438.262 170.999 438.344 170.936C438.426 170.875 438.494 170.785 438.551 170.669C438.608 170.552 438.635 170.383 438.635 170.165V167.984V167.984Z" fill="#22A6FF"/>
<path d="M454.263 164.803C454.398 164.717 454.485 164.63 454.522 164.542C454.559 164.454 454.578 164.381 454.578 164.325C454.578 164.244 454.54 164.171 454.463 164.107C454.386 164.043 454.299 163.976 454.204 163.907C454.108 163.838 454.022 163.763 453.945 163.682C453.868 163.601 453.83 163.504 453.83 163.388C453.83 163.084 453.903 162.828 454.05 162.623C454.197 162.417 454.391 162.255 454.631 162.136C454.872 162.017 455.145 161.932 455.451 161.882C455.757 161.831 456.068 161.807 456.386 161.807C456.759 161.807 457.113 161.835 457.446 161.893C457.78 161.95 458.073 162.038 458.325 162.157C458.576 162.276 458.777 162.431 458.927 162.621C459.076 162.812 459.15 163.038 459.15 163.301C459.15 163.468 459.107 163.601 459.02 163.702C458.934 163.801 458.817 163.886 458.67 163.955C458.523 164.024 458.354 164.084 458.162 164.133C457.971 164.184 457.772 164.241 457.567 164.309C457.361 164.375 457.155 164.46 456.947 164.563C456.739 164.665 456.546 164.801 456.369 164.968L454.891 166.363L457.818 170.166C457.963 170.357 458.106 170.504 458.249 170.61C458.391 170.715 458.526 170.798 458.652 170.861C458.779 170.922 458.895 170.971 459.002 171.007C459.109 171.043 459.203 171.084 459.283 171.132C459.362 171.18 459.424 171.245 459.468 171.329C459.513 171.413 459.534 171.533 459.534 171.69C459.534 172.219 459.248 172.604 458.676 172.842C458.105 173.08 457.277 173.2 456.195 173.2C455.653 173.2 455.168 173.166 454.738 173.1C454.309 173.034 453.944 172.929 453.643 172.789C453.342 172.649 453.113 172.47 452.954 172.253C452.795 172.037 452.715 171.775 452.715 171.47C452.715 171.351 452.756 171.26 452.838 171.199C452.92 171.137 453.01 171.083 453.108 171.038C453.205 170.992 453.296 170.946 453.377 170.899C453.459 170.851 453.5 170.78 453.5 170.684C453.5 170.622 453.48 170.554 453.441 170.48C453.401 170.406 453.34 170.311 453.256 170.197L452.051 168.588C452.004 168.527 451.949 168.478 451.883 168.442C451.818 168.406 451.748 168.379 451.676 168.36C451.603 168.341 451.526 168.33 451.445 168.328C451.363 168.325 451.282 168.324 451.203 168.324H451.063V170.169C451.063 170.384 451.091 170.55 451.147 170.669C451.204 170.788 451.274 170.879 451.358 170.941C451.442 171.002 451.532 171.045 451.631 171.07C451.729 171.093 451.82 171.12 451.904 171.148C451.989 171.177 452.058 171.216 452.115 171.266C452.172 171.317 452.199 171.399 452.199 171.513C452.199 172.109 451.898 172.54 451.297 172.804C450.695 173.068 449.824 173.201 448.685 173.201C448.134 173.201 447.645 173.169 447.218 173.104C446.791 173.039 446.431 172.939 446.14 172.804C445.849 172.667 445.626 172.493 445.474 172.278C445.323 172.063 445.247 171.808 445.247 171.513C445.247 171.399 445.275 171.317 445.331 171.266C445.388 171.216 445.456 171.178 445.538 171.152C445.62 171.126 445.709 171.1 445.804 171.077C445.899 171.054 445.988 171.012 446.07 170.952C446.152 170.893 446.22 170.805 446.277 170.691C446.334 170.577 446.361 170.412 446.361 170.198V164.807C446.361 164.597 446.334 164.434 446.277 164.316C446.22 164.2 446.152 164.111 446.07 164.052C445.988 163.993 445.899 163.951 445.804 163.927C445.708 163.903 445.62 163.878 445.538 163.852C445.456 163.826 445.388 163.788 445.331 163.737C445.275 163.687 445.247 163.605 445.247 163.49C445.247 163.195 445.323 162.941 445.474 162.728C445.626 162.516 445.847 162.342 446.14 162.206C446.431 162.07 446.791 161.97 447.218 161.906C447.645 161.842 448.134 161.809 448.685 161.809C449.254 161.809 449.759 161.841 450.198 161.906C450.637 161.97 451.004 162.071 451.3 162.206C451.596 162.342 451.82 162.516 451.972 162.728C452.123 162.941 452.199 163.194 452.199 163.49C452.199 163.605 452.172 163.687 452.115 163.737C452.058 163.788 451.989 163.826 451.904 163.852C451.82 163.878 451.73 163.903 451.631 163.927C451.534 163.95 451.442 163.992 451.358 164.052C451.274 164.112 451.204 164.2 451.147 164.316C451.091 164.433 451.063 164.597 451.063 164.807V167.037C451.194 167.037 451.332 167.03 451.476 167.016C451.62 167.002 451.752 166.95 451.868 166.859L454.263 164.803Z" fill="#22A6FF"/>
<path d="M464.17 163.723C464.796 163.723 465.359 163.819 465.861 164.009C466.363 164.2 466.79 164.463 467.142 164.796C467.495 165.129 467.766 165.521 467.955 165.972C468.144 166.423 468.239 166.907 468.239 167.427C468.239 167.642 468.21 167.808 468.151 167.927C468.092 168.046 468.01 168.135 467.902 168.191C467.795 168.248 467.661 168.285 467.502 168.298C467.343 168.313 467.164 168.319 466.963 168.319H463.596C463.596 168.844 463.649 169.269 463.753 169.595C463.858 169.922 464.004 170.175 464.192 170.357C464.378 170.538 464.602 170.66 464.863 170.726C465.124 170.789 465.414 170.823 465.731 170.823C465.899 170.823 466.073 170.807 466.252 170.772C466.431 170.739 466.604 170.696 466.771 170.643C466.937 170.59 467.089 170.536 467.229 170.479C467.369 170.421 467.485 170.367 467.579 170.314C467.654 170.271 467.726 170.25 467.796 170.25C467.903 170.25 467.987 170.297 468.047 170.389C468.108 170.482 468.139 170.585 468.139 170.7C468.139 170.738 468.136 170.774 468.132 170.807C468.127 170.84 468.117 170.873 468.104 170.906C467.968 171.259 467.784 171.586 467.55 171.886C467.317 172.186 467.033 172.447 466.7 172.669C466.366 172.89 465.98 173.063 465.541 173.187C465.101 173.311 464.609 173.373 464.063 173.373C463.54 173.373 463.063 173.31 462.631 173.184C462.199 173.057 461.809 172.881 461.461 172.654C461.113 172.428 460.809 172.162 460.547 171.856C460.286 171.551 460.068 171.218 459.896 170.858C459.723 170.498 459.594 170.122 459.508 169.729C459.421 169.336 459.378 168.939 459.378 168.538C459.378 168.132 459.422 167.732 459.511 167.333C459.6 166.935 459.733 166.558 459.911 166.2C460.088 165.843 460.31 165.513 460.576 165.21C460.842 164.907 461.153 164.644 461.508 164.423C461.863 164.202 462.261 164.029 462.705 163.905C463.151 163.785 463.638 163.723 464.17 163.723ZM464.689 165.554C464.539 165.554 464.399 165.588 464.269 165.657C464.137 165.726 464.024 165.833 463.929 165.975C463.833 166.118 463.758 166.301 463.705 166.522C463.651 166.744 463.625 167.008 463.625 167.313H465.858C465.858 166.98 465.833 166.699 465.781 166.472C465.73 166.246 465.655 166.064 465.557 165.929C465.46 165.794 465.337 165.696 465.19 165.639C465.041 165.582 464.875 165.554 464.689 165.554Z" fill="#22A6FF"/>
<path d="M473.587 163.723C474.213 163.723 474.776 163.819 475.278 164.009C475.78 164.2 476.207 164.463 476.559 164.796C476.912 165.129 477.183 165.521 477.372 165.972C477.561 166.423 477.656 166.907 477.656 167.427C477.656 167.642 477.627 167.808 477.568 167.927C477.509 168.046 477.427 168.135 477.319 168.191C477.212 168.248 477.078 168.285 476.919 168.298C476.76 168.313 476.581 168.319 476.38 168.319H473.013C473.013 168.844 473.066 169.269 473.17 169.595C473.275 169.922 473.421 170.175 473.609 170.357C473.795 170.538 474.019 170.66 474.28 170.726C474.541 170.789 474.831 170.823 475.148 170.823C475.316 170.823 475.49 170.807 475.669 170.772C475.848 170.739 476.021 170.696 476.188 170.643C476.354 170.59 476.506 170.536 476.646 170.479C476.786 170.421 476.902 170.367 476.996 170.314C477.071 170.271 477.143 170.25 477.213 170.25C477.32 170.25 477.404 170.297 477.464 170.389C477.525 170.482 477.556 170.585 477.556 170.7C477.556 170.738 477.553 170.774 477.549 170.807C477.544 170.84 477.534 170.873 477.521 170.906C477.385 171.259 477.201 171.586 476.967 171.886C476.734 172.186 476.45 172.447 476.117 172.669C475.783 172.89 475.397 173.063 474.958 173.187C474.518 173.311 474.026 173.373 473.48 173.373C472.957 173.373 472.48 173.31 472.048 173.184C471.616 173.057 471.226 172.881 470.878 172.654C470.53 172.428 470.226 172.162 469.964 171.856C469.703 171.551 469.485 171.218 469.313 170.858C469.14 170.498 469.011 170.122 468.925 169.729C468.838 169.336 468.795 168.939 468.795 168.538C468.795 168.132 468.839 167.732 468.928 167.333C469.017 166.935 469.15 166.558 469.328 166.2C469.505 165.843 469.727 165.513 469.993 165.21C470.259 164.907 470.57 164.644 470.925 164.423C471.28 164.202 471.678 164.029 472.122 163.905C472.568 163.785 473.055 163.723 473.587 163.723ZM474.106 165.554C473.956 165.554 473.816 165.588 473.686 165.657C473.554 165.726 473.441 165.833 473.346 165.975C473.25 166.118 473.175 166.301 473.122 166.522C473.068 166.744 473.042 167.008 473.042 167.313H475.275C475.275 166.98 475.25 166.699 475.198 166.472C475.147 166.246 475.072 166.064 474.974 165.929C474.877 165.794 474.754 165.696 474.607 165.639C474.458 165.582 474.292 165.554 474.106 165.554Z" fill="#22A6FF"/>
<path d="M489.432 168.614C489.432 168.982 489.41 169.353 489.366 169.73C489.321 170.106 489.245 170.471 489.138 170.824C489.031 171.177 488.888 171.508 488.711 171.818C488.534 172.128 488.313 172.398 488.049 172.629C487.785 172.86 487.472 173.043 487.11 173.176C486.748 173.309 486.332 173.377 485.86 173.377C485.328 173.377 484.869 173.319 484.484 173.204C484.099 173.09 483.772 172.951 483.501 172.789V174.456C483.501 174.656 483.526 174.81 483.578 174.917C483.63 175.023 483.692 175.105 483.767 175.16C483.842 175.215 483.925 175.253 484.016 175.274C484.108 175.295 484.189 175.318 484.265 175.342C484.34 175.365 484.402 175.4 484.454 175.445C484.506 175.49 484.531 175.565 484.531 175.67C484.531 176.213 484.256 176.605 483.704 176.846C483.153 177.087 482.358 177.207 481.317 177.207C480.817 177.207 480.375 177.179 479.987 177.121C479.599 177.064 479.273 176.973 479.006 176.846C478.74 176.719 478.538 176.56 478.401 176.367C478.264 176.174 478.194 175.942 478.194 175.67C478.194 175.565 478.218 175.49 478.267 175.445C478.317 175.4 478.379 175.365 478.456 175.342C478.533 175.318 478.615 175.296 478.702 175.278C478.788 175.258 478.87 175.221 478.947 175.167C479.024 175.112 479.087 175.033 479.136 174.931C479.185 174.829 479.21 174.679 479.21 174.484V166.654C479.21 166.463 479.185 166.316 479.136 166.21C479.087 166.106 479.024 166.026 478.947 165.971C478.87 165.915 478.788 165.878 478.702 165.86C478.615 165.841 478.533 165.819 478.456 165.796C478.379 165.773 478.317 165.738 478.267 165.693C478.218 165.647 478.194 165.572 478.194 165.468C478.194 165.196 478.262 164.964 478.401 164.771C478.538 164.578 478.74 164.418 479.006 164.292C479.272 164.165 479.599 164.074 479.987 164.016C480.375 163.959 480.817 163.93 481.317 163.93C481.863 163.93 482.284 163.971 482.58 164.052C482.876 164.133 483.093 164.276 483.228 164.481C483.359 164.381 483.508 164.286 483.676 164.195C483.844 164.104 484.034 164.024 484.246 163.955C484.458 163.886 484.694 163.83 484.954 163.787C485.212 163.744 485.501 163.723 485.819 163.723C486.291 163.723 486.708 163.791 487.072 163.93C487.436 164.069 487.752 164.256 488.02 164.492C488.288 164.728 488.512 165.006 488.692 165.325C488.871 165.645 489.017 165.985 489.126 166.348C489.236 166.71 489.314 167.084 489.361 167.47C489.408 167.856 489.432 168.237 489.432 168.614ZM483.501 171.367C483.599 171.405 483.7 171.433 483.802 171.453C483.904 171.473 484.01 171.481 484.117 171.481C484.378 171.481 484.579 171.44 484.719 171.356C484.859 171.272 484.962 171.124 485.027 170.909C485.092 170.694 485.131 170.404 485.143 170.036C485.155 169.669 485.161 169.204 485.161 168.642C485.161 168.051 485.14 167.557 485.098 167.159C485.056 166.761 484.989 166.444 484.895 166.208C484.801 165.972 484.68 165.803 484.531 165.704C484.382 165.604 484.2 165.554 483.985 165.554C483.901 165.554 483.816 165.561 483.733 165.575C483.649 165.59 483.572 165.61 483.502 165.639C483.512 165.786 483.517 165.943 483.517 166.111C483.517 166.278 483.517 166.458 483.517 166.654L483.501 171.367Z" fill="#22A6FF"/>
<path d="M494.9 163.723C495.526 163.723 496.089 163.819 496.591 164.009C497.093 164.2 497.52 164.463 497.873 164.796C498.225 165.129 498.496 165.521 498.685 165.972C498.874 166.423 498.969 166.907 498.969 167.427C498.969 167.642 498.94 167.808 498.881 167.927C498.822 168.046 498.74 168.135 498.632 168.191C498.525 168.248 498.391 168.285 498.232 168.298C498.074 168.313 497.894 168.319 497.693 168.319H494.326C494.326 168.844 494.379 169.269 494.484 169.595C494.588 169.922 494.734 170.175 494.922 170.357C495.108 170.538 495.332 170.66 495.593 170.726C495.854 170.789 496.144 170.823 496.461 170.823C496.629 170.823 496.803 170.807 496.982 170.772C497.161 170.739 497.335 170.696 497.501 170.643C497.667 170.59 497.82 170.536 497.959 170.479C498.099 170.421 498.216 170.367 498.309 170.314C498.384 170.271 498.456 170.25 498.526 170.25C498.633 170.25 498.717 170.297 498.778 170.389C498.838 170.482 498.869 170.585 498.869 170.7C498.869 170.738 498.867 170.774 498.862 170.807C498.857 170.84 498.847 170.873 498.834 170.906C498.698 171.259 498.514 171.586 498.281 171.886C498.047 172.186 497.763 172.447 497.43 172.669C497.096 172.89 496.71 173.063 496.271 173.187C495.832 173.311 495.339 173.373 494.793 173.373C494.271 173.373 493.793 173.31 493.361 173.184C492.929 173.057 492.539 172.881 492.191 172.654C491.843 172.428 491.539 172.162 491.278 171.856C491.017 171.551 490.799 171.218 490.627 170.858C490.453 170.498 490.325 170.122 490.238 169.729C490.151 169.336 490.108 168.939 490.108 168.538C490.108 168.132 490.152 167.732 490.241 167.333C490.331 166.935 490.463 166.558 490.641 166.2C490.818 165.843 491.041 165.513 491.307 165.21C491.573 164.907 491.883 164.644 492.238 164.423C492.593 164.202 492.991 164.029 493.435 163.905C493.88 163.785 494.368 163.723 494.9 163.723ZM495.418 165.554C495.268 165.554 495.128 165.588 494.998 165.657C494.866 165.726 494.753 165.833 494.658 165.975C494.562 166.118 494.487 166.301 494.434 166.522C494.38 166.744 494.354 167.008 494.354 167.313H496.587C496.587 166.98 496.562 166.699 496.51 166.472C496.459 166.246 496.384 166.064 496.286 165.929C496.189 165.794 496.066 165.696 495.919 165.639C495.771 165.582 495.604 165.554 495.418 165.554Z" fill="#22A6FF"/>
<path d="M504.681 170.444C504.681 170.639 504.706 170.792 504.758 170.901C504.809 171.01 504.873 171.093 504.95 171.148C505.027 171.203 505.11 171.241 505.198 171.262C505.287 171.283 505.37 171.307 505.447 171.33C505.524 171.353 505.588 171.389 505.64 171.433C505.691 171.479 505.717 171.554 505.717 171.658C505.717 172.201 505.441 172.593 504.89 172.834C504.339 173.075 503.543 173.196 502.502 173.196C501.998 173.196 501.553 173.167 501.165 173.11C500.778 173.053 500.452 172.961 500.184 172.834C499.918 172.708 499.716 172.548 499.579 172.355C499.442 172.162 499.372 171.93 499.372 171.658C499.372 171.554 499.397 171.479 499.449 171.433C499.501 171.388 499.563 171.353 499.638 171.33C499.713 171.307 499.794 171.284 499.884 171.266C499.973 171.248 500.054 171.21 500.129 171.155C500.204 171.1 500.266 171.021 500.318 170.919C500.37 170.817 500.395 170.668 500.395 170.472V166.654C500.395 166.463 500.37 166.316 500.318 166.21C500.266 166.105 500.204 166.026 500.129 165.97C500.054 165.915 499.973 165.878 499.884 165.86C499.794 165.841 499.713 165.819 499.638 165.796C499.563 165.772 499.501 165.738 499.449 165.692C499.397 165.647 499.372 165.572 499.372 165.468C499.372 165.196 499.441 164.964 499.579 164.771C499.717 164.578 499.918 164.418 500.184 164.291C500.45 164.165 500.778 164.074 501.165 164.016C501.553 163.958 501.998 163.93 502.502 163.93C502.964 163.93 503.334 163.977 503.612 164.069C503.89 164.162 504.108 164.299 504.267 164.481C504.398 164.395 504.532 164.312 504.672 164.234C504.812 164.155 504.961 164.086 505.12 164.026C505.279 163.967 505.451 163.92 505.638 163.887C505.825 163.854 506.031 163.837 506.255 163.837C506.535 163.837 506.805 163.866 507.063 163.926C507.322 163.987 507.552 164.084 507.753 164.22C507.954 164.357 508.114 164.532 508.233 164.75C508.352 164.967 508.411 165.235 508.411 165.555C508.411 165.765 508.376 165.969 508.307 166.169C508.237 166.37 508.132 166.547 507.995 166.701C507.858 166.856 507.684 166.982 507.476 167.076C507.268 167.172 507.03 167.219 506.759 167.219C506.488 167.219 506.276 167.178 506.122 167.097C505.968 167.016 505.849 166.917 505.765 166.797C505.681 166.678 505.619 166.548 505.58 166.408C505.54 166.268 505.498 166.137 505.453 166.018C505.409 165.899 505.351 165.799 505.279 165.718C505.206 165.637 505.098 165.597 504.952 165.597C504.808 165.597 504.712 165.615 504.665 165.651C504.618 165.686 504.595 165.738 504.595 165.804C504.595 165.89 504.612 166 504.644 166.134C504.677 166.268 504.694 166.43 504.694 166.62L504.681 170.444Z" fill="#22A6FF"/>
<path d="M420.635 175.553L420.381 175.821C420.17 175.612 419.963 175.508 419.761 175.508C419.632 175.508 419.523 175.551 419.431 175.637C419.34 175.723 419.294 175.824 419.294 175.939C419.294 176.041 419.332 176.138 419.407 176.231C419.483 176.325 419.641 176.435 419.883 176.562C420.176 176.719 420.376 176.867 420.482 177.012C420.586 177.158 420.637 177.322 420.637 177.505C420.637 177.762 420.548 177.981 420.371 178.159C420.194 178.337 419.973 178.427 419.707 178.427C419.53 178.427 419.36 178.387 419.2 178.309C419.04 178.23 418.907 178.122 418.801 177.983L419.049 177.696C419.251 177.928 419.464 178.045 419.69 178.045C419.849 178.045 419.983 177.993 420.094 177.889C420.206 177.784 420.262 177.662 420.262 177.522C420.262 177.407 420.224 177.305 420.151 177.214C420.078 177.125 419.912 177.015 419.654 176.88C419.377 176.733 419.188 176.589 419.088 176.447C418.989 176.304 418.939 176.142 418.939 175.96C418.939 175.722 419.019 175.524 419.177 175.367C419.336 175.209 419.537 175.131 419.78 175.131C420.064 175.131 420.35 175.271 420.635 175.553Z" fill="white"/>
<path d="M424.334 177.305L424.668 177.483C424.558 177.702 424.432 177.879 424.29 178.013C424.148 178.147 423.985 178.25 423.807 178.32C423.629 178.39 423.426 178.426 423.201 178.426C422.7 178.426 422.309 178.258 422.026 177.923C421.743 177.587 421.603 177.209 421.603 176.786C421.603 176.389 421.722 176.034 421.961 175.723C422.264 175.327 422.67 175.129 423.178 175.129C423.701 175.129 424.119 175.332 424.432 175.738C424.655 176.024 424.766 176.381 424.77 176.809H422.008C422.015 177.173 422.13 177.472 422.35 177.704C422.57 177.936 422.842 178.053 423.166 178.053C423.322 178.053 423.474 178.025 423.622 177.97C423.77 177.914 423.895 177.841 423.999 177.748C424.102 177.657 424.214 177.51 424.334 177.305ZM424.334 176.46C424.281 176.245 424.204 176.073 424.105 175.944C424.003 175.815 423.871 175.712 423.705 175.633C423.539 175.555 423.366 175.515 423.183 175.515C422.882 175.515 422.623 175.614 422.406 175.811C422.249 175.955 422.128 176.172 422.048 176.459H424.334V176.46Z" fill="white"/>
<path d="M425.861 174.001H426.256V178.345H425.861V174.001Z" fill="white"/>
<path d="M428.757 174.001V174.396C428.613 174.332 428.489 174.301 428.385 174.301C428.308 174.301 428.244 174.317 428.194 174.349C428.143 174.381 428.111 174.417 428.098 174.459C428.084 174.5 428.078 174.61 428.078 174.788V175.212H428.719V175.561H428.077L428.075 178.346H427.68V175.56H427.277V175.211H427.68V174.722C427.68 174.497 427.7 174.337 427.74 174.241C427.78 174.145 427.85 174.068 427.946 174.009C428.042 173.95 428.16 173.921 428.297 173.921C428.425 173.92 428.579 173.947 428.757 174.001Z" fill="white"/>
<path d="M431.738 174.001H432.133V175.772C432.293 175.557 432.469 175.396 432.66 175.289C432.851 175.182 433.059 175.129 433.283 175.129C433.513 175.129 433.716 175.188 433.893 175.308C434.07 175.427 434.203 175.587 434.287 175.787C434.371 175.987 434.413 176.302 434.413 176.731V178.343H434.019V176.85C434.019 176.489 434.004 176.248 433.976 176.127C433.927 175.92 433.839 175.764 433.71 175.659C433.582 175.555 433.413 175.502 433.204 175.502C432.966 175.502 432.751 175.583 432.562 175.744C432.373 175.905 432.248 176.105 432.188 176.344C432.151 176.497 432.132 176.781 432.132 177.197V178.346H431.737V174.001H431.738Z" fill="white"/>
<path d="M437.129 175.131C437.602 175.131 437.993 175.305 438.305 175.655C438.588 175.974 438.729 176.351 438.729 176.787C438.729 177.225 438.58 177.608 438.281 177.935C437.983 178.262 437.599 178.427 437.129 178.427C436.659 178.427 436.274 178.263 435.975 177.935C435.677 177.608 435.528 177.225 435.528 176.787C435.528 176.353 435.668 175.977 435.951 175.658C436.262 175.306 436.655 175.131 437.129 175.131ZM437.128 175.525C436.8 175.525 436.518 175.649 436.282 175.896C436.046 176.143 435.928 176.443 435.928 176.795C435.928 177.021 435.982 177.232 436.09 177.429C436.197 177.624 436.342 177.775 436.525 177.882C436.708 177.989 436.909 178.042 437.128 178.042C437.347 178.042 437.548 177.989 437.731 177.882C437.914 177.775 438.06 177.624 438.167 177.429C438.274 177.233 438.328 177.022 438.328 176.795C438.328 176.443 438.21 176.143 437.973 175.896C437.736 175.648 437.454 175.525 437.128 175.525Z" fill="white"/>
<path d="M441.419 175.553L441.165 175.821C440.954 175.612 440.747 175.508 440.545 175.508C440.416 175.508 440.307 175.551 440.215 175.637C440.124 175.723 440.078 175.824 440.078 175.939C440.078 176.041 440.115 176.138 440.191 176.231C440.267 176.325 440.424 176.435 440.666 176.562C440.96 176.719 441.16 176.867 441.266 177.012C441.369 177.158 441.421 177.322 441.421 177.505C441.421 177.762 441.332 177.981 441.155 178.159C440.978 178.337 440.757 178.427 440.491 178.427C440.314 178.427 440.144 178.387 439.984 178.309C439.824 178.23 439.69 178.122 439.584 177.983L439.832 177.696C440.035 177.928 440.248 178.045 440.474 178.045C440.633 178.045 440.766 177.993 440.878 177.889C440.99 177.784 441.045 177.662 441.045 177.522C441.045 177.407 441.008 177.305 440.935 177.214C440.861 177.125 440.695 177.015 440.438 176.88C440.161 176.733 439.972 176.589 439.872 176.447C439.772 176.304 439.723 176.142 439.723 175.96C439.723 175.722 439.802 175.524 439.961 175.367C440.12 175.209 440.321 175.131 440.564 175.131C440.847 175.131 441.132 175.271 441.419 175.553Z" fill="white"/>
<path d="M442.877 174.047H443.272V175.211H443.898V175.56H443.272V178.344H442.877V175.56H442.338V175.211H442.877V174.047Z" fill="white"/>
<path d="M447.491 177.305L447.824 177.483C447.715 177.702 447.589 177.879 447.447 178.013C447.305 178.147 447.142 178.25 446.964 178.32C446.786 178.39 446.583 178.426 446.357 178.426C445.857 178.426 445.466 178.258 445.183 177.923C444.9 177.587 444.759 177.209 444.759 176.786C444.759 176.389 444.878 176.034 445.118 175.723C445.421 175.327 445.827 175.129 446.335 175.129C446.858 175.129 447.276 175.332 447.589 175.738C447.811 176.024 447.923 176.381 447.927 176.809H445.165C445.172 177.173 445.286 177.472 445.507 177.704C445.727 177.936 445.999 178.053 446.323 178.053C446.479 178.053 446.631 178.025 446.779 177.97C446.927 177.914 447.052 177.841 447.155 177.748C447.258 177.657 447.37 177.51 447.491 177.305ZM447.491 176.46C447.438 176.245 447.361 176.073 447.261 175.944C447.16 175.815 447.028 175.712 446.862 175.633C446.696 175.555 446.522 175.515 446.339 175.515C446.039 175.515 445.78 175.614 445.563 175.811C445.406 175.955 445.285 176.172 445.205 176.459H447.491V176.46Z" fill="white"/>
<path d="M452.14 174.001V178.345H451.751V177.806C451.585 178.011 451.4 178.166 451.194 178.27C450.988 178.373 450.763 178.426 450.519 178.426C450.084 178.426 449.714 178.265 449.406 177.943C449.098 177.621 448.945 177.23 448.945 176.769C448.945 176.318 449.1 175.932 449.411 175.611C449.721 175.29 450.094 175.131 450.53 175.131C450.781 175.131 451.01 175.186 451.213 175.295C451.417 175.405 451.596 175.569 451.75 175.788V174.002H452.14V174.001ZM450.562 175.519C450.342 175.519 450.14 175.574 449.953 175.685C449.767 175.796 449.62 175.95 449.509 176.15C449.399 176.349 449.344 176.56 449.344 176.782C449.344 177.002 449.4 177.214 449.51 177.415C449.621 177.617 449.77 177.773 449.957 177.886C450.143 177.998 450.344 178.055 450.559 178.055C450.774 178.055 450.98 177.999 451.172 177.887C451.365 177.776 451.514 177.626 451.619 177.436C451.724 177.247 451.775 177.032 451.775 176.795C451.775 176.432 451.659 176.129 451.425 175.885C451.192 175.641 450.904 175.519 450.562 175.519Z" fill="white"/>
<path d="M455.463 174.001H455.858V176.475L457.28 175.211H457.86L456.173 176.705L457.959 178.345H457.403L455.858 176.934V178.345H455.463V174.001Z" fill="white"/>
<path d="M461.364 177.305L461.698 177.483C461.588 177.702 461.462 177.879 461.32 178.013C461.178 178.147 461.015 178.25 460.837 178.32C460.659 178.39 460.456 178.426 460.231 178.426C459.73 178.426 459.339 178.258 459.056 177.923C458.773 177.587 458.633 177.209 458.633 176.786C458.633 176.389 458.752 176.034 458.991 175.723C459.294 175.327 459.7 175.129 460.208 175.129C460.731 175.129 461.149 175.332 461.462 175.738C461.685 176.024 461.796 176.381 461.8 176.809H459.038C459.045 177.173 459.16 177.472 459.38 177.704C459.6 177.936 459.872 178.053 460.196 178.053C460.352 178.053 460.504 178.025 460.652 177.97C460.8 177.914 460.925 177.841 461.029 177.748C461.132 177.657 461.244 177.51 461.364 177.305ZM461.364 176.46C461.311 176.245 461.234 176.073 461.135 175.944C461.033 175.815 460.901 175.712 460.735 175.633C460.569 175.555 460.396 175.515 460.213 175.515C459.912 175.515 459.653 175.614 459.436 175.811C459.279 175.955 459.158 176.172 459.078 176.459H461.364V176.46Z" fill="white"/>
<path d="M465.535 177.305L465.868 177.483C465.758 177.702 465.632 177.879 465.49 178.013C465.348 178.147 465.186 178.25 465.007 178.32C464.829 178.39 464.626 178.426 464.401 178.426C463.9 178.426 463.509 178.258 463.226 177.923C462.944 177.587 462.803 177.209 462.803 176.786C462.803 176.389 462.922 176.034 463.161 175.723C463.465 175.327 463.87 175.129 464.378 175.129C464.902 175.129 465.319 175.332 465.632 175.738C465.855 176.024 465.967 176.381 465.97 176.809H463.208C463.216 177.173 463.33 177.472 463.55 177.704C463.77 177.936 464.042 178.053 464.366 178.053C464.522 178.053 464.674 178.025 464.822 177.97C464.97 177.914 465.095 177.841 465.199 177.748C465.302 177.657 465.414 177.51 465.535 177.305ZM465.535 176.46C465.482 176.245 465.405 176.073 465.305 175.944C465.204 175.815 465.071 175.712 464.905 175.633C464.739 175.555 464.566 175.515 464.383 175.515C464.082 175.515 463.823 175.614 463.607 175.811C463.449 175.955 463.329 176.172 463.248 176.459H465.535V176.46Z" fill="white"/>
<path d="M467.127 175.211H467.521V175.787C467.678 175.568 467.857 175.403 468.059 175.294C468.263 175.185 468.489 175.129 468.738 175.129C469.174 175.129 469.547 175.289 469.857 175.61C470.168 175.931 470.322 176.317 470.322 176.768C470.322 177.229 470.168 177.619 469.861 177.941C469.554 178.263 469.183 178.424 468.749 178.424C468.505 178.424 468.281 178.373 468.075 178.268C467.87 178.165 467.685 178.01 467.52 177.805V179.49H467.125V175.211H467.127ZM468.707 175.519C468.365 175.519 468.077 175.641 467.844 175.884C467.61 176.127 467.494 176.431 467.494 176.793C467.494 177.032 467.545 177.246 467.65 177.435C467.755 177.624 467.903 177.775 468.098 177.886C468.293 177.997 468.497 178.053 468.713 178.053C468.925 178.053 469.124 177.997 469.311 177.885C469.497 177.773 469.647 177.616 469.757 177.414C469.868 177.213 469.924 177.001 469.924 176.781C469.924 176.559 469.868 176.347 469.759 176.148C469.649 175.949 469.501 175.794 469.316 175.684C469.128 175.574 468.926 175.519 468.707 175.519Z" fill="white"/>
<path d="M474.061 177.305L474.394 177.483C474.285 177.702 474.158 177.879 474.016 178.013C473.874 178.147 473.712 178.25 473.534 178.32C473.356 178.39 473.152 178.426 472.927 178.426C472.427 178.426 472.036 178.258 471.753 177.923C471.47 177.587 471.329 177.209 471.329 176.786C471.329 176.389 471.448 176.034 471.688 175.723C471.991 175.327 472.397 175.129 472.904 175.129C473.428 175.129 473.846 175.332 474.158 175.738C474.381 176.024 474.493 176.381 474.497 176.809H471.735C471.742 177.173 471.856 177.472 472.076 177.704C472.297 177.936 472.569 178.053 472.892 178.053C473.049 178.053 473.2 178.025 473.349 177.97C473.497 177.914 473.622 177.841 473.725 177.748C473.829 177.657 473.941 177.51 474.061 177.305ZM474.061 176.46C474.008 176.245 473.931 176.073 473.831 175.944C473.73 175.815 473.598 175.712 473.432 175.633C473.265 175.555 473.092 175.515 472.909 175.515C472.608 175.515 472.35 175.614 472.133 175.811C471.975 175.955 471.855 176.172 471.774 176.459H474.061V176.46Z" fill="white"/>
<path d="M475.498 175.211H475.901V175.669C476.022 175.488 476.148 175.353 476.281 175.265C476.415 175.176 476.555 175.131 476.699 175.131C476.809 175.131 476.925 175.166 477.049 175.238L476.844 175.578C476.76 175.541 476.691 175.523 476.635 175.523C476.504 175.523 476.377 175.578 476.255 175.689C476.133 175.799 476.04 175.97 475.976 176.202C475.926 176.381 475.902 176.742 475.902 177.285V178.344H475.499V175.211H475.498Z" fill="white"/>
</svg>
