<svg width="751" height="446" viewBox="0 0 751 446" fill="none" xmlns="http://www.w3.org/2000/svg">
<path d="M648.121 175.134C643.849 175.134 640.375 178.813 640.375 183.293C640.375 187.774 643.849 191.453 648.121 191.453C652.394 191.453 655.868 187.774 655.868 183.293C655.868 178.765 652.394 175.134 648.121 175.134ZM648.121 188.576C645.398 188.576 643.191 186.17 643.191 183.246C643.191 180.322 645.398 177.916 648.121 177.916C650.844 177.916 653.051 180.322 653.051 183.246C653.051 186.217 650.844 188.576 648.121 188.576Z" fill="#22A6FF"/>
<path d="M697.934 175.134C693.662 175.134 690.188 178.813 690.188 183.293C690.188 187.774 693.662 191.453 697.934 191.453C702.207 191.453 705.681 187.774 705.681 183.293C705.728 178.765 702.253 175.134 697.934 175.134ZM697.934 188.576C695.211 188.576 693.004 186.17 693.004 183.246C693.004 180.322 695.211 177.916 697.934 177.916C700.657 177.916 702.864 180.322 702.864 183.246C702.911 186.217 700.704 188.576 697.934 188.576Z" fill="#22A6FF"/>
<path d="M693.755 181.831H652.957V184.661H693.755V181.831Z" fill="#22A6FF"/>
<path d="M153.796 88.3472V224.426H262.643" stroke="white" stroke-width="2" stroke-miterlimit="10"/>
<path d="M492.639 128.533V281.801H379.373" stroke="white" stroke-width="2" stroke-miterlimit="10"/>
<path d="M574.867 322.192H459.206V431.818H402.407" stroke="white" stroke-width="2" stroke-miterlimit="10"/>
<path d="M99.3638 373.209V414.282H259.963" stroke="white" stroke-width="2" stroke-miterlimit="10"/>
<path d="M16.1665 151.893H131.365V264.698" stroke="white" stroke-width="2" stroke-miterlimit="10"/>
<path d="M124.039 264.698H250.322" stroke="white" stroke-width="2" stroke-miterlimit="10"/>
<path d="M510.18 75.5891H407.65V201.951" stroke="white" stroke-width="2" stroke-miterlimit="10"/>
<path d="M663.102 359.625H750V240.641H670.781" stroke="white" stroke-width="2" stroke-miterlimit="10"/>
<path d="M356.568 152.551V114.973H342.63V152.551H336.898L343.249 161.837L349.599 171.123L355.949 161.837L362.3 152.551H356.568Z" fill="white"/>
<path d="M613.13 227.389V197.861H602.125V227.389H597.594L602.61 234.677L607.627 241.978L612.631 234.677L617.647 227.389H613.13Z" fill="white"/>
<path d="M370.916 354.281H330.109V377.086H370.916V354.281Z" fill="#253141"/>
<path d="M386.437 380.962C385.445 376.529 381.478 373.209 376.744 373.209H322.834C318.084 373.209 314.133 376.529 313.142 380.962H386.437Z" fill="#253141"/>
<path d="M479.205 357.201C479.205 360.4 476.578 363.024 473.376 363.024H226.204C223.002 363.024 220.374 360.4 220.374 357.201V206.801C220.374 203.603 223.002 200.978 226.204 200.978H473.376C476.578 200.978 479.205 203.603 479.205 206.801V357.201Z" fill="#22A6FF"/>
<path d="M469.495 210.677H230.084V353.308H469.495V210.677Z" fill="#141D27"/>
<path d="M170.431 334.223H161V363.337H170.431V334.223Z" fill="white"/>
<path d="M184.37 321.778H174.938V363.337H184.37V321.778Z" fill="white"/>
<path d="M200.64 309.351H191.208V363.337H200.64V309.351Z" fill="white"/>
<path d="M654.35 379.679H540.107V264.706H654.35C664.356 264.706 672.46 272.841 672.46 282.868V361.5C672.46 371.544 664.356 379.679 654.35 379.679Z" fill="white"/>
<path d="M657.825 334.225H675.134V308.823H657.825C656.315 308.823 655.08 310.622 655.08 312.831V330.206C655.08 332.426 656.303 334.225 657.825 334.225Z" fill="#22A6FF"/>
<path d="M665.107 324.866C666.953 324.866 668.449 323.37 668.449 321.524C668.449 319.678 666.953 318.182 665.107 318.182C663.261 318.182 661.765 319.678 661.765 321.524C661.765 323.37 663.261 324.866 665.107 324.866Z" fill="white"/>
<path d="M9.8667 161.401C15.3159 161.401 19.7334 156.989 19.7334 151.546C19.7334 146.103 15.3159 141.69 9.8667 141.69C4.41747 141.69 0 146.103 0 151.546C0 156.989 4.41747 161.401 9.8667 161.401Z" fill="white"/>
<path d="M99.3633 383.065C104.813 383.065 109.23 378.653 109.23 373.21C109.23 367.767 104.813 363.354 99.3633 363.354C93.9141 363.354 89.4966 367.767 89.4966 373.21C89.4966 378.653 93.9141 383.065 99.3633 383.065Z" fill="white"/>
<path d="M131.364 278.62C139.62 278.62 146.312 271.936 146.312 263.69C146.312 255.444 139.62 248.759 131.364 248.759C123.109 248.759 116.417 255.444 116.417 263.69C116.417 271.936 123.109 278.62 131.364 278.62Z" fill="white"/>
<path d="M492.639 143.463C500.895 143.463 507.587 136.779 507.587 128.533C507.587 120.287 500.895 113.602 492.639 113.602C484.384 113.602 477.691 120.287 477.691 128.533C477.691 136.779 484.384 143.463 492.639 143.463Z" fill="white"/>
<path d="M393.29 445.637C401.546 445.637 408.238 438.952 408.238 430.706C408.238 422.46 401.546 415.775 393.29 415.775C385.035 415.775 378.342 422.46 378.342 430.706C378.342 438.952 385.035 445.637 393.29 445.637Z" fill="white"/>
<path d="M153.795 98.915C159.639 98.915 164.376 94.1836 164.376 88.3471C164.376 82.5107 159.639 77.7793 153.795 77.7793C147.952 77.7793 143.215 82.5107 143.215 88.3471C143.215 94.1836 147.952 98.915 153.795 98.915Z" fill="white"/>
<path d="M511.328 86.6437C517.171 86.6437 521.908 81.9124 521.908 76.0759C521.908 70.2394 517.171 65.5081 511.328 65.5081C505.485 65.5081 500.748 70.2394 500.748 76.0759C500.748 81.9124 505.485 86.6437 511.328 86.6437Z" fill="white"/>
<path d="M665.107 251.337C670.644 251.337 675.134 246.848 675.134 241.31C675.134 235.773 670.644 231.283 665.107 231.283C659.569 231.283 655.08 235.773 655.08 241.31C655.08 246.848 659.569 251.337 665.107 251.337Z" fill="white"/>
<path d="M465.841 183.406C465.266 183.406 464.675 183.475 464.135 183.666C463.926 177.652 458.984 172.82 452.911 172.82C447.987 172.82 443.81 175.966 442.279 180.346C440.748 179.321 438.903 178.713 436.919 178.713C431.647 178.713 427.366 182.988 427.366 188.255C427.366 188.655 427.383 189.072 427.47 189.454H443.027H446.403H459.767H462.778H471.914C471.896 186.117 469.182 183.406 465.841 183.406Z" fill="white"/>
<path d="M275.815 283.47H432.394" stroke="white" stroke-width="2" stroke-miterlimit="10"/>
<path d="M261.215 266.176H285.021V256.859H315.16" stroke="white" stroke-width="2" stroke-miterlimit="10"/>
<path d="M300.909 237.375H317.11L324.07 244.657" stroke="white" stroke-width="2" stroke-miterlimit="10"/>
<path d="M305.659 299.947L280.566 299.843L271.43 292.682H252.828" stroke="white" stroke-width="2" stroke-miterlimit="10"/>
<path d="M271.43 316.286H318.554" stroke="white" stroke-width="2" stroke-miterlimit="10"/>
<path d="M441.444 266.176H417.621V256.859H387.499" stroke="white" stroke-width="2" stroke-miterlimit="10"/>
<path d="M407.719 244.814H391.501L384.541 252.097" stroke="white" stroke-width="2" stroke-miterlimit="10"/>
<path d="M344.204 304.606L358.734 308.76H406.571L414.906 300.434H423.972" stroke="white" stroke-width="2" stroke-miterlimit="10"/>
<path d="M431.211 316.286H368.374" stroke="white" stroke-width="2" stroke-miterlimit="10"/>
<path d="M391.501 224.79C387.412 226.476 386.037 227.85 384.349 231.934C382.661 227.85 381.286 226.476 377.197 224.79C381.286 223.104 382.661 221.731 384.349 217.647C386.054 221.731 387.412 223.104 391.501 224.79Z" fill="white"/>
<path d="M289.824 257.276C289.824 259.623 287.927 261.517 285.578 261.517C283.228 261.517 281.332 259.623 281.332 257.276C281.332 254.93 283.228 253.035 285.578 253.035C287.927 253.018 289.824 254.93 289.824 257.276Z" fill="#4A4A4A" stroke="white" stroke-miterlimit="10"/>
<path d="M305.154 237.374C305.154 239.721 303.257 241.615 300.908 241.615C298.559 241.615 296.662 239.721 296.662 237.374C296.662 235.028 298.559 233.133 300.908 233.133C303.257 233.133 305.154 235.028 305.154 237.374Z" fill="#4A4A4A" stroke="white" stroke-miterlimit="10"/>
<path d="M280.897 283.279C280.897 285.625 279 287.52 276.651 287.52C274.302 287.52 272.405 285.625 272.405 283.279C272.405 280.932 274.302 279.037 276.651 279.037C279 279.02 280.897 280.932 280.897 283.279Z" fill="#4A4A4A" stroke="white" stroke-miterlimit="10"/>
<path d="M257.091 292.682C257.091 295.028 255.194 296.923 252.845 296.923C250.496 296.923 248.599 295.028 248.599 292.682C248.599 290.335 250.496 288.441 252.845 288.441C255.177 288.423 257.091 290.335 257.091 292.682Z" fill="#4A4A4A" stroke="white" stroke-miterlimit="10"/>
<path d="M263.39 266.176C263.39 268.522 261.494 270.417 259.144 270.417C256.795 270.417 254.898 268.522 254.898 266.176C254.898 263.829 256.795 261.935 259.144 261.935C261.476 261.935 263.39 263.829 263.39 266.176Z" fill="#4A4A4A" stroke="white" stroke-miterlimit="10"/>
<path d="M275.676 316.286C275.676 318.632 273.779 320.527 271.43 320.527C269.081 320.527 267.184 318.632 267.184 316.286C267.184 313.939 269.081 312.045 271.43 312.045C273.779 312.045 275.676 313.939 275.676 316.286Z" fill="#4A4A4A" stroke="white" stroke-miterlimit="10"/>
<path d="M428.236 300.434C428.236 302.78 426.339 304.675 423.99 304.675C421.64 304.675 419.744 302.78 419.744 300.434C419.744 298.087 421.64 296.193 423.99 296.193C426.321 296.193 428.236 298.087 428.236 300.434Z" fill="#4A4A4A" stroke="white" stroke-miterlimit="10"/>
<path d="M435.475 283.47C435.475 285.817 433.578 287.711 431.229 287.711C428.88 287.711 426.983 285.817 426.983 283.47C426.983 281.124 428.88 279.229 431.229 279.229C433.578 279.229 435.475 281.124 435.475 283.47Z" fill="#4A4A4A" stroke="white" stroke-miterlimit="10"/>
<path d="M445.69 266.176C445.69 268.522 443.793 270.417 441.444 270.417C439.095 270.417 437.198 268.522 437.198 266.176C437.198 263.829 439.095 261.935 441.444 261.935C443.793 261.935 445.69 263.829 445.69 266.176Z" fill="#4A4A4A" stroke="white" stroke-miterlimit="10"/>
<path d="M411.896 244.658C411.896 247.004 409.999 248.899 407.65 248.899C405.301 248.899 403.404 247.004 403.404 244.658C403.404 242.311 405.301 240.417 407.65 240.417C409.999 240.417 411.896 242.311 411.896 244.658Z" fill="#4A4A4A" stroke="white" stroke-miterlimit="10"/>
<path d="M435.092 315.347C435.092 317.694 433.195 319.588 430.846 319.588C428.496 319.588 426.6 317.694 426.6 315.347C426.6 313.001 428.496 311.106 430.846 311.106C433.177 311.089 435.092 313.001 435.092 315.347Z" fill="#4A4A4A" stroke="white" stroke-miterlimit="10"/>
<path d="M349.789 329.756C375.382 329.756 396.13 309.033 396.13 283.47C396.13 257.907 375.382 237.183 349.789 237.183C324.196 237.183 303.449 257.907 303.449 283.47C303.449 309.033 324.196 329.756 349.789 329.756Z" fill="white"/>
<path d="M258.223 414.282V357.531" stroke="white" stroke-width="2" stroke-miterlimit="10"/>
<path d="M374.014 271.135C373.852 270.91 373.637 270.727 373.388 270.6C373.139 270.473 372.862 270.407 372.581 270.407H335.154L332.321 260.853C331.21 257.091 328.57 256.685 327.487 256.685H319.933C318.965 256.685 318.182 257.451 318.182 258.397C318.182 259.343 318.966 260.11 319.933 260.11H327.486C327.725 260.11 328.454 260.11 328.951 261.79L338.698 296.817C338.909 297.556 339.598 298.067 340.383 298.067H364.189C364.928 298.067 365.587 297.614 365.837 296.934L374.228 272.699C374.421 272.174 374.341 271.589 374.014 271.135ZM362.957 294.643H341.713L336.138 273.833H370.091L362.957 294.643ZM359.483 301.538C357.048 301.538 355.075 303.467 355.075 305.849C355.075 308.231 357.048 310.161 359.483 310.161C361.919 310.161 363.892 308.231 363.892 305.849C363.892 303.467 361.919 301.538 359.483 301.538ZM343.612 301.538C341.176 301.538 339.203 303.467 339.203 305.849C339.203 308.231 341.176 310.161 343.612 310.161C346.047 310.161 348.021 308.231 348.021 305.849C348.021 303.467 346.047 301.538 343.612 301.538Z" fill="#22A6FF"/>
<path d="M646.912 306.789C646.5 306.817 646.087 306.756 645.703 306.61C645.625 306.575 645.542 306.554 645.457 306.546C645.236 306.546 645.011 306.546 644.79 306.546H644.238C644.066 304.298 643.15 302.166 641.629 300.47L641.792 300.31L642.438 299.68C642.628 299.495 642.699 299.256 642.845 299.041C643.058 298.71 643.343 298.429 643.68 298.219C643.989 298.027 644.306 297.848 644.597 297.629C644.868 297.451 645.082 297.201 645.211 296.908C645.318 296.588 645.167 296.298 644.941 296.07C644.839 295.958 644.712 295.871 644.57 295.815C644.428 295.76 644.274 295.737 644.121 295.75C643.84 295.8 643.584 295.941 643.394 296.15C642.959 296.58 642.73 297.152 642.338 297.611C642.066 297.912 641.731 298.153 641.355 298.316C641.276 298.346 641.202 298.388 641.137 298.441C640.973 298.601 640.809 298.761 640.645 298.93L640.311 299.231C639.245 298.383 638.02 297.745 636.706 297.352C635.89 297.08 635.045 296.903 634.187 296.824V295.568C634.19 295.531 634.19 295.495 634.187 295.459C634.17 295.381 634.121 295.299 634.097 295.222C634.033 295.017 633.989 294.807 633.965 294.594C633.877 293.894 634.17 293.256 634.242 292.566C634.27 292.291 634.28 291.978 634.124 291.733C633.969 291.489 633.646 291.407 633.348 291.396H633.31C632.998 291.382 632.692 291.484 632.454 291.682C632.294 291.861 632.209 292.093 632.217 292.331C632.197 292.923 632.427 293.487 632.515 294.066C632.56 294.468 632.515 294.875 632.382 295.257C632.338 295.361 632.303 295.468 632.277 295.577C632.264 295.784 632.264 295.992 632.277 296.199V296.832C630.061 297.04 627.96 297.893 626.248 299.282L626.04 299.071L625.427 298.479C625.4 298.448 625.369 298.418 625.337 298.391C625.273 298.357 625.207 298.329 625.139 298.305C624.935 298.205 624.741 298.087 624.56 297.952C623.955 297.498 623.698 296.797 623.21 296.244C623.032 296.006 622.768 295.843 622.471 295.788C622.297 295.779 622.123 295.807 621.962 295.87C621.8 295.933 621.654 296.029 621.535 296.153C620.463 297.232 622.543 297.936 623.156 298.511C623.45 298.809 623.692 299.153 623.869 299.53C623.888 299.569 623.914 299.605 623.946 299.635C624.119 299.811 624.3 299.981 624.477 300.155L624.903 300.569C624.86 300.619 624.814 300.665 624.772 300.715C623.387 302.37 622.56 304.401 622.403 306.532H621.207C621.13 306.527 621.052 306.536 620.978 306.559C620.69 306.662 620.392 306.732 620.088 306.768C619.399 306.834 618.741 306.528 618.059 306.479C617.746 306.441 617.428 306.497 617.148 306.639C617.014 306.722 616.906 306.838 616.834 306.976C616.762 307.114 616.729 307.268 616.74 307.422C616.761 308.903 618.696 308.127 619.56 308.025C619.959 307.995 620.36 308.05 620.735 308.185C620.822 308.224 620.914 308.251 621.009 308.266C621.23 308.284 621.461 308.266 621.682 308.266H622.141C626.591 307.816 630.558 308.094 632.274 310.004C633.664 311.555 632.653 314.811 631.266 317.721C631.594 317.777 631.937 317.822 632.274 317.849V319.218C632.271 319.256 632.271 319.294 632.274 319.333C632.296 319.401 632.322 319.469 632.353 319.534C632.418 319.728 632.466 319.928 632.495 320.131C632.545 320.487 632.523 320.849 632.431 321.197C632.345 321.528 632.277 321.863 632.23 322.201C632.199 322.484 632.189 322.806 632.348 323.058C632.507 323.311 632.849 323.4 633.167 323.405C633.48 323.42 633.786 323.317 634.021 323.116C634.181 322.934 634.265 322.701 634.257 322.462C634.275 321.87 634.047 321.307 633.959 320.729C633.915 320.327 633.961 319.921 634.093 319.539C634.137 319.435 634.172 319.328 634.196 319.219C634.208 319.012 634.208 318.804 634.196 318.597V317.836C635.032 317.762 635.857 317.597 636.655 317.342C637.953 316.961 639.165 316.342 640.226 315.518L640.417 315.706L641.045 316.317C641.074 316.351 641.105 316.382 641.14 316.41C641.192 316.442 641.247 316.469 641.304 316.49C641.489 316.573 641.666 316.673 641.832 316.787C642.149 317.015 642.415 317.303 642.617 317.633C642.804 317.943 643.011 318.241 643.238 318.525C643.421 318.773 643.688 318.95 643.992 319.026C644.163 319.043 644.337 319.021 644.498 318.961C644.659 318.901 644.804 318.805 644.919 318.68C646.022 317.569 643.977 316.878 643.333 316.282C643.027 315.995 642.782 315.653 642.612 315.275C642.593 315.227 642.566 315.183 642.53 315.145C642.366 314.969 642.183 314.806 642.01 314.637L641.597 314.235C643.114 312.563 644.038 310.459 644.233 308.234H645.26C645.338 308.238 645.417 308.229 645.491 308.206C645.796 308.094 646.114 308.022 646.439 307.991C647.117 307.945 647.769 308.255 648.446 308.29C648.757 308.321 649.07 308.261 649.346 308.118C649.634 307.948 649.728 307.657 649.733 307.341C649.698 305.903 647.732 306.701 646.912 306.789ZM629.483 306.528H626.042C626.183 305.264 626.659 304.057 627.422 303.025L629.213 304.773L629.931 305.475C629.729 305.803 629.579 306.158 629.483 306.528ZM632.269 302.804V303.748C631.911 303.837 631.568 303.979 631.253 304.168C630.402 303.337 629.551 302.506 628.7 301.677C629.136 301.321 629.612 301.014 630.119 300.761C630.799 300.445 631.524 300.233 632.269 300.131V302.804ZM639.064 302.964C639.832 303.948 640.338 305.101 640.539 306.322C640.55 306.397 640.558 306.471 640.568 306.544H637.005C636.915 306.149 636.759 305.771 636.543 305.425L639.064 302.964ZM634.19 300.126C635.515 300.308 636.763 300.844 637.795 301.676L635.857 303.572L635.24 304.172C634.913 303.983 634.559 303.842 634.19 303.753V300.126ZM634.19 314.541V310.917C634.517 310.836 634.831 310.711 635.124 310.546L637.72 313.078C636.732 313.83 635.565 314.325 634.328 314.517L634.19 314.541ZM637.243 310.004L636.481 309.263C636.686 308.946 636.843 308.601 636.948 308.241H640.572C640.4 309.529 639.876 310.749 639.054 311.771L637.243 310.004Z" fill="#22A6FF"/>
<path d="M583.772 313.239C583.772 313.066 583.608 312.908 583.29 312.759C582.972 312.61 582.479 312.545 581.815 312.545C581.451 312.536 581.086 312.567 580.729 312.637C580.512 312.678 580.306 312.762 580.124 312.884C580 312.968 579.908 313.089 579.862 313.229C579.823 313.354 579.804 313.484 579.805 313.614C579.808 313.753 579.844 313.888 579.911 314.01C579.978 314.132 580.074 314.237 580.19 314.316C580.503 314.55 580.846 314.742 581.211 314.889C581.633 315.069 582.115 315.248 582.654 315.428C583.194 315.607 583.748 315.807 584.315 316.029C584.882 316.25 585.436 316.503 585.973 316.787C586.496 317.06 586.981 317.398 587.417 317.791C587.841 318.177 588.188 318.637 588.44 319.147C588.706 319.705 588.838 320.316 588.825 320.933C588.825 321.801 588.653 322.53 588.31 323.118C587.968 323.707 587.474 324.198 586.876 324.542C586.203 324.922 585.466 325.184 584.7 325.314C583.786 325.474 582.86 325.55 581.932 325.542C581.347 325.543 580.764 325.499 580.186 325.413C579.627 325.331 579.076 325.205 578.538 325.036C578.034 324.88 577.548 324.678 577.084 324.431C576.662 324.212 576.271 323.94 575.92 323.624C575.605 323.339 575.344 323.002 575.149 322.629C574.961 322.267 574.865 321.867 574.867 321.462C574.861 321.179 574.912 320.898 575.019 320.635C575.11 320.415 575.248 320.217 575.424 320.053C575.59 319.903 575.787 319.787 576.001 319.714C576.218 319.639 576.447 319.601 576.678 319.602C576.971 319.604 577.262 319.658 577.536 319.762C577.822 319.867 578.084 320.024 578.308 320.226C578.559 320.451 578.758 320.726 578.891 321.033C579.024 321.339 579.089 321.67 579.08 322.002C579.089 322.114 579.139 322.22 579.219 322.3C579.333 322.421 579.468 322.52 579.619 322.592C579.827 322.696 580.047 322.774 580.275 322.824C580.569 322.89 580.87 322.921 581.171 322.917C581.548 322.925 581.925 322.896 582.296 322.829C582.524 322.79 582.742 322.709 582.94 322.591C583.07 322.512 583.17 322.393 583.225 322.253C583.268 322.134 583.291 322.008 583.292 321.881C583.292 321.721 583.174 321.59 582.94 321.472C582.641 321.33 582.331 321.21 582.014 321.113C581.633 320.993 581.194 320.864 580.703 320.728C580.211 320.592 579.709 320.429 579.201 320.239C578.686 320.047 578.185 319.822 577.7 319.566C577.219 319.313 576.778 318.995 576.389 318.621C576.004 318.247 575.691 317.809 575.465 317.327C575.218 316.784 575.097 316.195 575.111 315.602C575.104 315.01 575.187 314.42 575.358 313.853C575.508 313.363 575.74 312.901 576.045 312.486C576.339 312.092 576.698 311.75 577.107 311.472C577.534 311.183 577.997 310.949 578.485 310.775C579.015 310.585 579.565 310.451 580.124 310.375C580.725 310.289 581.332 310.247 581.94 310.249C582.909 310.23 583.876 310.341 584.814 310.58C585.503 310.753 586.156 311.041 586.745 311.43C587.19 311.73 587.556 312.128 587.814 312.591C588.027 312.973 588.142 313.399 588.151 313.833C588.16 314.165 588.078 314.492 587.913 314.782C587.759 315.044 587.548 315.269 587.294 315.442C587.031 315.62 586.736 315.75 586.425 315.824C586.104 315.904 585.774 315.945 585.442 315.946C585.129 315.946 584.818 315.911 584.513 315.843C584.232 315.78 583.963 315.673 583.716 315.528C583.496 315.402 583.304 315.232 583.154 315.029C583.01 314.831 582.936 314.593 582.943 314.35C582.931 314.2 582.977 314.05 583.071 313.931C583.155 313.845 583.252 313.77 583.358 313.71C583.456 313.654 583.551 313.592 583.643 313.525C583.688 313.492 583.723 313.448 583.746 313.398C583.768 313.348 583.777 313.293 583.772 313.239Z" fill="#22A6FF"/>
<path d="M602.071 318.532H597.778V321.369C597.767 321.592 597.808 321.814 597.897 322.02C597.964 322.159 598.064 322.281 598.189 322.374C598.3 322.451 598.426 322.506 598.559 322.534C598.694 322.566 598.817 322.6 598.927 322.637C599.03 322.672 599.125 322.727 599.208 322.797C599.25 322.839 599.282 322.889 599.302 322.944C599.321 322.999 599.329 323.058 599.323 323.116C599.323 323.892 598.913 324.452 598.092 324.795C597.272 325.139 596.085 325.311 594.533 325.313C593.865 325.319 593.197 325.277 592.535 325.187C592.027 325.125 591.531 324.994 591.06 324.797C590.702 324.651 590.389 324.415 590.154 324.114C589.944 323.823 589.835 323.474 589.844 323.118C589.839 323.06 589.846 323.001 589.866 322.946C589.885 322.891 589.917 322.84 589.959 322.798C590.041 322.731 590.136 322.68 590.239 322.65C590.351 322.616 590.472 322.584 590.601 322.552C590.732 322.523 590.855 322.468 590.963 322.392C591.084 322.303 591.181 322.187 591.245 322.053C591.332 321.851 591.371 321.632 591.36 321.414V314.393C591.371 314.174 591.332 313.955 591.245 313.753C591.182 313.618 591.085 313.499 590.963 313.409C590.854 313.334 590.731 313.28 590.601 313.249C590.472 313.219 590.351 313.187 590.239 313.152C590.136 313.123 590.04 313.072 589.959 313.003C589.917 312.961 589.885 312.911 589.866 312.855C589.846 312.8 589.839 312.742 589.844 312.683C589.834 312.329 589.943 311.982 590.154 311.694C590.39 311.394 590.703 311.16 591.06 311.014C591.531 310.817 592.027 310.686 592.535 310.624C593.197 310.534 593.865 310.492 594.533 310.498C595.222 310.492 595.91 310.534 596.593 310.624C597.109 310.685 597.615 310.817 598.094 311.014C598.455 311.158 598.771 311.393 599.01 311.694C599.221 311.982 599.329 312.329 599.32 312.683C599.325 312.742 599.318 312.8 599.298 312.855C599.279 312.911 599.247 312.961 599.205 313.003C599.123 313.072 599.027 313.122 598.923 313.152C598.813 313.187 598.691 313.219 598.556 313.249C598.425 313.28 598.3 313.334 598.189 313.409C598.068 313.5 597.972 313.618 597.909 313.753C597.822 313.955 597.783 314.174 597.794 314.393V316.737H602.071V314.393C602.083 314.174 602.043 313.955 601.957 313.753C601.894 313.617 601.798 313.499 601.676 313.409C601.565 313.334 601.441 313.28 601.309 313.249C601.175 313.219 601.054 313.187 600.942 313.152C600.839 313.122 600.743 313.072 600.66 313.003C600.619 312.961 600.588 312.91 600.568 312.855C600.548 312.8 600.541 312.742 600.546 312.683C600.546 311.916 600.955 311.358 601.772 311.014C602.588 310.67 603.776 310.498 605.333 310.498C606.862 310.498 608.035 310.67 608.851 311.014C609.671 311.358 610.071 311.916 610.071 312.683C610.076 312.742 610.068 312.801 610.048 312.856C610.028 312.911 609.995 312.961 609.953 313.003C609.865 313.072 609.764 313.123 609.656 313.152C609.54 313.187 609.41 313.219 609.271 313.249C609.133 313.279 609.002 313.334 608.884 313.409C608.757 313.497 608.656 313.616 608.589 313.753C608.499 313.954 608.458 314.173 608.469 314.393V321.369C608.458 321.592 608.499 321.814 608.589 322.02C608.655 322.16 608.757 322.282 608.884 322.374C609.001 322.452 609.132 322.506 609.271 322.534C609.41 322.566 609.54 322.6 609.656 322.637C609.764 322.672 609.865 322.726 609.953 322.797C609.995 322.838 610.028 322.888 610.048 322.944C610.068 322.999 610.076 323.058 610.071 323.116C610.08 323.472 609.971 323.822 609.761 324.113C609.524 324.414 609.211 324.65 608.851 324.795C608.376 324.992 607.875 325.124 607.363 325.185C606.69 325.275 606.012 325.317 605.333 325.312C604.644 325.317 603.955 325.275 603.273 325.185C602.756 325.124 602.251 324.993 601.772 324.795C601.41 324.651 601.094 324.415 600.855 324.113C600.645 323.822 600.537 323.472 600.546 323.116C600.541 323.058 600.548 323 600.568 322.944C600.588 322.889 600.619 322.839 600.66 322.797C600.743 322.727 600.839 322.672 600.942 322.637C601.054 322.6 601.175 322.566 601.309 322.534C601.442 322.506 601.566 322.451 601.676 322.374C601.798 322.282 601.894 322.162 601.957 322.024C602.044 321.817 602.083 321.593 602.071 321.369V318.532Z" fill="#22A6FF"/>
<path d="M623.36 314.393C623.509 314.316 623.632 314.197 623.712 314.053C623.757 313.964 623.783 313.868 623.789 313.77C623.787 313.713 623.77 313.658 623.742 313.609C623.713 313.56 623.674 313.518 623.626 313.487C623.521 313.402 623.403 313.315 623.272 313.226C623.145 313.139 623.027 313.04 622.919 312.932C622.867 312.882 622.826 312.823 622.797 312.758C622.769 312.692 622.755 312.622 622.755 312.551C622.742 312.196 622.848 311.847 623.055 311.555C623.261 311.281 623.533 311.061 623.847 310.915C624.2 310.753 624.576 310.641 624.963 310.584C625.384 310.519 625.81 310.486 626.236 310.487C626.72 310.485 627.203 310.522 627.68 310.599C628.093 310.661 628.495 310.776 628.876 310.943C629.194 311.079 629.475 311.286 629.696 311.547C629.901 311.798 630.009 312.111 630.002 312.431C630.012 312.62 629.949 312.806 629.825 312.952C629.691 313.093 629.529 313.206 629.348 313.282C629.126 313.38 628.894 313.458 628.657 313.515C628.396 313.58 628.126 313.656 627.847 313.742C627.558 313.834 627.276 313.944 627.003 314.073C626.715 314.209 626.45 314.386 626.217 314.599L624.217 316.429L628.203 321.385C628.369 321.604 628.567 321.798 628.79 321.962C628.963 322.084 629.147 322.191 629.339 322.282C629.493 322.356 629.651 322.419 629.814 322.473C629.947 322.512 630.075 322.566 630.196 322.632C630.303 322.693 630.39 322.781 630.448 322.888C630.517 323.035 630.549 323.196 630.54 323.357C630.54 324.046 630.15 324.546 629.371 324.855C628.592 325.164 627.468 325.317 625.999 325.314C625.335 325.319 624.672 325.276 624.016 325.184C623.502 325.117 623 324.98 622.524 324.778C622.156 324.627 621.833 324.387 621.585 324.081C621.363 323.786 621.248 323.428 621.257 323.063C621.253 322.995 621.265 322.927 621.294 322.866C621.323 322.804 621.366 322.75 621.421 322.709C621.535 322.629 621.658 322.56 621.787 322.505C621.92 322.445 622.042 322.385 622.154 322.324C622.205 322.297 622.248 322.257 622.277 322.207C622.306 322.158 622.32 322.101 622.318 322.044C622.313 321.95 622.285 321.859 622.236 321.779C622.16 321.651 622.076 321.528 621.983 321.411L620.345 319.319C620.284 319.24 620.206 319.175 620.117 319.128C620.027 319.082 619.933 319.046 619.835 319.02C619.732 318.996 619.626 318.982 619.52 318.979H619.193H619.002V321.377C618.991 321.599 619.03 321.82 619.115 322.025C619.178 322.165 619.277 322.287 619.401 322.38C619.513 322.456 619.639 322.511 619.773 322.54C619.907 322.572 620.03 322.605 620.145 322.642C620.25 322.677 620.347 322.731 620.431 322.802C620.472 322.844 620.504 322.895 620.523 322.95C620.543 323.005 620.55 323.064 620.545 323.122C620.545 323.898 620.135 324.457 619.315 324.801C618.496 325.144 617.311 325.316 615.759 325.317C615.091 325.323 614.423 325.28 613.761 325.191C613.253 325.129 612.757 324.998 612.286 324.801C611.928 324.654 611.616 324.419 611.38 324.118C611.17 323.827 611.061 323.478 611.07 323.122C611.065 323.064 611.073 323.005 611.093 322.95C611.112 322.895 611.144 322.844 611.185 322.802C611.268 322.735 611.364 322.684 611.467 322.653C611.578 322.62 611.698 322.588 611.829 322.556C611.959 322.526 612.083 322.472 612.191 322.396C612.312 322.307 612.409 322.191 612.473 322.057C612.559 321.854 612.597 321.636 612.586 321.417V314.393C612.597 314.174 612.559 313.956 612.473 313.754C612.41 313.618 612.313 313.5 612.191 313.41C612.082 313.335 611.959 313.281 611.829 313.25C611.698 313.219 611.578 313.188 611.467 313.152C611.363 313.123 611.267 313.072 611.185 313.004C611.144 312.961 611.112 312.911 611.093 312.856C611.073 312.801 611.065 312.742 611.07 312.684C611.061 312.33 611.17 311.982 611.38 311.694C611.617 311.395 611.929 311.161 612.286 311.015C612.757 310.817 613.253 310.686 613.761 310.624C614.423 310.535 615.091 310.492 615.759 310.498C616.448 310.492 617.136 310.535 617.819 310.624C618.336 310.686 618.841 310.817 619.32 311.015C619.681 311.159 619.996 311.394 620.235 311.694C620.445 311.982 620.554 312.33 620.545 312.684C620.55 312.742 620.543 312.8 620.523 312.856C620.504 312.911 620.472 312.961 620.431 313.004C620.348 313.073 620.25 313.123 620.145 313.152C620.03 313.188 619.907 313.219 619.773 313.25C619.64 313.281 619.514 313.335 619.401 313.41C619.277 313.498 619.179 313.617 619.115 313.754C619.029 313.956 618.99 314.174 619.001 314.393V317.295C619.179 317.295 619.366 317.286 619.563 317.268C619.757 317.251 619.943 317.182 620.099 317.068L623.36 314.393Z" fill="#22A6FF"/>
<path d="M538.102 418.449C562.098 418.449 581.551 398.996 581.551 375C581.551 351.004 562.098 331.551 538.102 331.551C514.105 331.551 494.652 351.004 494.652 375C494.652 398.996 514.105 418.449 538.102 418.449Z" fill="#22A6FF"/>
<path d="M557.386 369.354C558.192 364.016 554.087 361.146 548.472 359.232L550.294 352.001L545.847 350.904L544.074 357.944C542.905 357.656 541.705 357.384 540.512 357.114L542.297 350.027L537.854 348.93L536.031 356.159C535.064 355.941 534.114 355.725 533.192 355.498L533.197 355.476L527.065 353.96L525.882 358.661C525.882 358.661 529.181 359.41 529.112 359.456C530.912 359.901 531.238 361.081 531.183 362.016L529.109 370.254C529.233 370.285 529.394 370.33 529.571 370.401C529.423 370.364 529.265 370.324 529.101 370.285L526.194 381.825C525.973 382.367 525.415 383.179 524.156 382.871C524.2 382.935 520.924 382.072 520.924 382.072L518.717 387.111L524.503 388.539C525.58 388.806 526.634 389.085 527.673 389.348L525.833 396.662L530.274 397.759L532.096 390.523C533.31 390.849 534.487 391.15 535.64 391.433L533.824 398.636L538.27 399.733L540.11 392.432C547.692 393.853 553.394 393.28 555.794 386.491C557.727 381.025 555.697 377.872 551.708 375.816C554.613 375.153 556.802 373.262 557.386 369.354ZM547.226 383.456C545.852 388.922 536.556 385.967 533.541 385.226L535.983 375.537C538.997 376.282 548.662 377.756 547.226 383.456ZM548.602 369.275C547.348 374.247 539.61 371.721 537.1 371.101L539.314 362.313C541.824 362.933 549.907 364.088 548.602 369.275Z" fill="#F8F9FA"/>
<path d="M589.572 435.829C608.031 435.829 622.995 420.865 622.995 402.406C622.995 383.948 608.031 368.984 589.572 368.984C571.114 368.984 556.15 383.948 556.15 402.406C556.15 420.865 571.114 435.829 589.572 435.829Z" fill="#22A6FF"/>
<g clip-path="url(#clip0_308_121)">
<path d="M592.217 392.872L587.971 392.271L586.787 400.642L593.467 401.587L592.971 405.092L586.291 404.147L585.107 412.517L589.561 413.147C590.705 413.309 598.938 414.605 600.321 404.735C601.704 394.866 593.805 393.096 592.217 392.872Z" fill="white"/>
<path d="M594.274 373.187C577.862 370.866 562.675 382.288 560.354 398.7C558.032 415.113 569.454 430.299 585.867 432.621C602.279 434.942 617.465 423.52 619.787 407.108C622.108 390.695 610.686 375.509 594.274 373.187ZM588.967 419.119L578.205 417.597L580.229 403.289L576.436 402.753L576.931 399.248L580.725 399.785L582.749 385.476L591.985 386.783C594.17 387.092 608.707 388.686 606.333 405.468C603.92 422.528 588.967 419.119 588.967 419.119Z" fill="white"/>
</g>
<path d="M668.006 360.802C663.863 363.943 660.744 368.242 659.045 373.156C657.345 378.069 657.141 383.376 658.457 388.406C659.774 393.436 662.552 397.962 666.441 401.412C670.331 404.863 675.155 407.083 680.306 407.791C685.457 408.499 690.702 407.664 695.378 405.392C700.054 403.119 703.951 399.511 706.577 395.024C709.202 390.536 710.438 385.371 710.128 380.181C709.818 374.991 707.976 370.01 704.835 365.867C702.763 363.118 700.17 360.804 697.205 359.057C694.239 357.31 690.958 356.165 687.549 355.686C684.141 355.207 680.671 355.404 677.339 356.266C674.006 357.128 670.876 358.638 668.127 360.71L668.006 360.802ZM684.781 382.19L688.176 391.198L699.842 382.353C699.917 382.292 700.003 382.246 700.096 382.218C700.189 382.19 700.287 382.181 700.383 382.191C700.48 382.201 700.573 382.23 700.659 382.276C700.744 382.322 700.82 382.384 700.881 382.46L701.027 382.652L702.666 386.921C702.747 387.12 702.757 387.341 702.696 387.548C702.635 387.754 702.505 387.933 702.328 388.056L684.475 401.592L679.738 389.129L677.16 392.681L676.151 389.771L678.73 386.219L672.095 368.724C672.017 368.524 672.007 368.304 672.069 368.098C672.13 367.893 672.258 367.714 672.433 367.589L676.947 364.167C677.022 364.105 677.109 364.06 677.202 364.032C677.295 364.004 677.392 363.995 677.489 364.005C677.585 364.015 677.679 364.043 677.764 364.09C677.85 364.136 677.925 364.198 677.986 364.273L678.132 364.466L683.734 379.229L686.313 375.677L687.449 378.65L684.781 382.19Z" fill="#22A6FF"/>
<path d="M14.706 236.631C10.282 236.631 6.68457 240.549 6.68457 245.321C6.68457 250.093 10.282 254.011 14.706 254.011C19.1299 254.011 22.7274 250.093 22.7274 245.321C22.7274 240.499 19.1299 236.631 14.706 236.631ZM14.706 250.947C11.8863 250.947 9.60143 248.385 9.60143 245.271C9.60143 242.156 11.8863 239.595 14.706 239.595C17.5256 239.595 19.8105 242.156 19.8105 245.271C19.8105 248.435 17.5256 250.947 14.706 250.947Z" fill="#22A6FF"/>
<path d="M68.8502 236.631C64.0578 236.631 60.1606 240.549 60.1606 245.321C60.1606 250.093 64.0578 254.011 68.8502 254.011C73.6426 254.011 77.5398 250.093 77.5398 245.321C77.5925 240.499 73.6953 236.631 68.8502 236.631ZM68.8502 250.947C65.7957 250.947 63.3205 248.385 63.3205 245.271C63.3205 242.156 65.7957 239.595 68.8502 239.595C71.9047 239.595 74.38 242.156 74.38 245.271C74.4326 248.435 71.9574 250.947 68.8502 250.947Z" fill="#22A6FF"/>
<path d="M64.1714 243.315H20.0537V245.989H64.1714V243.315Z" fill="#22A6FF"/>
<path d="M584.23 133.318L584.23 143.461L584.231 143.461C584.234 144.275 584.566 145.055 585.158 145.636C585.749 146.217 586.553 146.553 587.398 146.573L587.398 146.603L597.258 146.603C597.306 146.601 597.352 146.589 597.401 146.589C597.45 146.589 597.496 146.601 597.545 146.603L597.711 146.603L597.711 146.619C600.002 146.775 601.815 148.593 601.815 150.835C601.815 151.808 601.461 152.694 600.889 153.41L600.976 153.41C600.387 154.389 600.077 155.5 600.078 156.631C600.078 157.481 600.252 158.322 600.59 159.107C600.928 159.893 601.424 160.606 602.048 161.207C602.673 161.808 603.415 162.284 604.231 162.609C605.047 162.935 605.922 163.102 606.805 163.102C607.689 163.102 608.564 162.934 609.38 162.609C610.196 162.284 610.937 161.807 611.562 161.207C612.186 160.606 612.682 159.892 613.02 159.107C613.358 158.322 613.532 157.48 613.532 156.631C613.532 155.457 613.202 154.359 612.633 153.41L612.708 153.41C612.118 152.676 611.797 151.775 611.794 150.847C611.794 148.606 613.607 146.788 615.899 146.633L615.899 146.603L627.78 146.603L627.78 146.587C628.64 146.584 629.462 146.253 630.069 145.667C630.675 145.081 631.016 144.288 631.016 143.461C631.016 143.416 631.004 143.373 631.002 143.328L631.002 132.764L630.967 132.764C630.967 132.296 630.773 131.847 630.429 131.515C630.085 131.184 629.619 130.998 629.132 130.997C628.947 130.997 628.772 131.033 628.604 131.083C627.602 131.503 626.52 131.719 625.427 131.719C621.015 131.719 617.438 128.279 617.438 124.035C617.438 119.791 621.015 116.352 625.427 116.352C626.492 116.351 627.545 116.555 628.526 116.952C628.728 117.025 628.941 117.064 629.156 117.066C629.397 117.066 629.635 117.02 629.858 116.931C630.081 116.843 630.283 116.713 630.454 116.549C630.624 116.385 630.759 116.19 630.851 115.975C630.943 115.761 630.99 115.531 630.99 115.299C630.99 115.199 630.976 115.102 630.959 115.006L631.002 115.006L631.002 104.865C631.005 104.82 631.016 104.777 631.016 104.731C631.016 103.902 630.673 103.107 630.064 102.521C629.454 101.934 628.627 101.605 627.766 101.604C627.676 101.604 627.592 101.622 627.505 101.629L616.711 101.629C616.47 101.63 616.231 101.675 616.008 101.764C615.785 101.853 615.583 101.983 615.413 102.148C615.242 102.312 615.107 102.507 615.015 102.721C614.922 102.935 614.875 103.165 614.875 103.397C614.875 103.592 614.916 103.776 614.977 103.951L614.98 103.962C614.994 104.003 615.002 104.046 615.019 104.084L615.013 104.084C615.227 104.785 615.336 105.512 615.337 106.242C615.338 107.251 615.131 108.25 614.73 109.183C614.329 110.115 613.74 110.962 612.999 111.676C612.257 112.389 611.376 112.955 610.407 113.341C609.438 113.727 608.399 113.926 607.35 113.926C606.301 113.926 605.263 113.727 604.294 113.341C603.325 112.955 602.444 112.389 601.702 111.675C600.961 110.962 600.372 110.115 599.971 109.183C599.57 108.25 599.363 107.251 599.363 106.242C599.364 105.512 599.474 104.785 599.688 104.084L599.668 104.084C599.786 103.816 599.834 103.523 599.806 103.232C599.779 102.941 599.677 102.662 599.509 102.418C599.342 102.175 599.114 101.975 598.847 101.837C598.58 101.699 598.281 101.626 597.977 101.626C597.967 101.626 597.957 101.629 597.946 101.629L587.48 101.629C586.624 101.63 585.803 101.956 585.195 102.536C584.588 103.115 584.242 103.902 584.233 104.725L584.229 104.725L584.229 115.006L584.266 115.006C584.32 115.433 584.534 115.825 584.868 116.11C585.202 116.395 585.633 116.552 586.079 116.552L586.079 116.63C586.764 116.448 587.47 116.355 588.18 116.352C592.591 116.352 596.168 119.792 596.168 124.036C596.168 128.28 592.591 131.72 588.18 131.72C587.452 131.72 586.75 131.619 586.079 131.442L586.079 131.516L586.059 131.515C585.233 131.515 584.543 132.042 584.313 132.765L584.229 132.765L584.229 133.241C584.229 133.254 584.225 133.266 584.225 133.279C584.226 133.293 584.23 133.305 584.23 133.318Z" fill="#22A6FF"/>
<path d="M379.671 42.7331V28.1793H379.67C379.666 27.0126 379.201 25.8933 378.373 25.0596C377.545 24.2259 376.42 23.7435 375.237 23.715V23.6721H361.432C361.364 23.6743 361.3 23.6924 361.232 23.6924C361.163 23.6924 361.099 23.6743 361.031 23.6721H360.799V23.6484C357.591 23.4248 355.053 20.816 355.053 17.5996C355.053 16.2038 355.548 14.9333 356.348 13.9056H356.227C357.051 12.501 357.485 10.907 357.485 9.2843C357.485 8.06488 357.241 6.8574 356.768 5.73083C356.294 4.60426 355.601 3.58067 354.726 2.71851C353.851 1.85635 352.813 1.17252 351.67 0.706076C350.527 0.23963 349.303 -0.000296385 348.066 2.74771e-07C346.829 -0.000148064 345.605 0.239896 344.462 0.706423C343.319 1.17295 342.281 1.85682 341.407 2.71898C340.532 3.58113 339.839 4.60469 339.366 5.73118C338.892 6.85767 338.649 8.06503 338.649 9.2843C338.649 10.9681 339.111 12.5436 339.907 13.9056H339.803C340.628 14.9588 341.078 16.2515 341.082 17.5827C341.082 20.7979 338.544 23.4067 335.335 23.6292V23.6721H318.701V23.6947C317.498 23.6997 316.346 24.1744 315.497 25.0149C314.648 25.8553 314.171 26.9931 314.171 28.1793C314.171 28.2448 314.188 28.3058 314.19 28.3713V43.5281H314.24C314.24 44.2 314.511 44.8442 314.992 45.3194C315.474 45.7945 316.127 46.0618 316.809 46.0624C317.068 46.0624 317.313 46.0115 317.548 45.9393C318.951 45.3371 320.465 45.0265 321.995 45.0268C328.173 45.0268 333.18 49.9631 333.18 56.0514C333.18 62.1408 328.173 67.076 321.995 67.076C320.505 67.0776 319.03 66.7846 317.656 66.2143C317.375 66.1093 317.077 66.0543 316.776 66.0517C316.438 66.0514 316.104 66.1167 315.792 66.244C315.48 66.3713 315.197 66.558 314.958 66.7934C314.72 67.0288 314.531 67.3083 314.402 67.6159C314.273 67.9235 314.207 68.2531 314.208 68.5859C314.208 68.7293 314.227 68.8682 314.251 69.006H314.19V83.5564C314.187 83.6219 314.171 83.6829 314.171 83.7484C314.172 84.9382 314.651 86.0791 315.504 86.9204C316.358 87.7618 317.515 88.2347 318.722 88.2353C318.847 88.2353 318.965 88.2093 319.087 88.1991H334.198C334.536 88.199 334.87 88.1333 335.182 88.0057C335.494 87.8782 335.777 87.6913 336.016 87.4558C336.255 87.2202 336.444 86.9406 336.573 86.633C336.702 86.3253 336.768 85.9956 336.768 85.6627C336.768 85.3826 336.711 85.1194 336.626 84.8676L336.622 84.8518C336.602 84.7942 336.591 84.7321 336.567 84.6767H336.576C336.276 83.6714 336.123 82.6291 336.121 81.5812C336.121 80.1334 336.41 78.6996 336.972 77.3619C337.533 76.0242 338.357 74.8088 339.395 73.785C340.434 72.7612 341.667 71.9491 343.023 71.3952C344.38 70.8413 345.834 70.5563 347.303 70.5566C348.771 70.5565 350.225 70.8415 351.582 71.3955C352.939 71.9495 354.172 72.7616 355.21 73.7853C356.248 74.8091 357.072 76.0245 357.634 77.3621C358.196 78.6997 358.485 80.1334 358.485 81.5812C358.483 82.6291 358.33 83.6715 358.03 84.6767H358.059C357.892 85.0623 357.826 85.4824 357.865 85.8995C357.903 86.3166 358.046 86.7178 358.281 87.0672C358.515 87.4165 358.834 87.7032 359.208 87.9015C359.582 88.0998 360 88.2036 360.425 88.2037C360.44 88.2037 360.454 88.1991 360.469 88.1991H375.121C376.319 88.1977 377.469 87.7306 378.32 86.8991C379.171 86.0676 379.655 84.9387 379.667 83.7575H379.673V69.006H379.62C379.545 68.3945 379.245 67.8314 378.778 67.4228C378.31 67.0142 377.707 66.7884 377.082 66.788V66.6762C376.124 66.9375 375.136 67.0716 374.142 67.0749C367.966 67.0749 362.959 62.1396 362.959 56.0502C362.959 49.962 367.966 45.0256 374.142 45.0256C375.161 45.0256 376.144 45.1713 377.082 45.4243V45.3181L377.111 45.3204C378.268 45.3204 379.233 44.5637 379.555 43.527H379.673V42.8437C379.673 42.8245 379.679 42.8076 379.679 42.7884C379.677 42.7692 379.672 42.7523 379.671 42.7331Z" fill="#22A6FF"/>
<path d="M624.224 402.847C624.224 422.015 608.794 437.547 589.768 437.547C570.742 437.547 555.312 422.015 555.312 402.847C555.312 383.68 570.742 368.147 589.768 368.147C608.794 368.147 624.224 383.68 624.224 402.847Z" fill="#15202B" stroke="#22A6FF"/>
<path d="M602.702 414.457H586.494L590.694 405.607L601.426 403.693V397.647L593.834 398.999L597.9 390.44L601.396 383.085H600.39H593.877H591.915L590.29 386.506L584.899 397.857L583.476 400.852L581.361 401.229L574.437 402.464V407.824V408.51L579.993 407.522L580.337 407.46L576.265 416.025C574.713 419.292 577.08 423.071 580.674 423.071H593.663H601.426L605.155 414.457H602.702Z" fill="white"/>
<defs>
<clipPath id="clip0_308_121">
<rect width="60.0249" height="60.0249" fill="white" transform="translate(564.557 368.984) rotate(8.05142)"/>
</clipPath>
</defs>
</svg>
