<svg width="650" height="230" viewBox="0 0 650 230" fill="none" xmlns="http://www.w3.org/2000/svg">
<path d="M291.51 68.7686C297.928 62.3677 297.928 51.9897 291.51 45.5888C285.091 39.1879 274.685 39.1879 268.267 45.5888C261.849 51.9897 261.849 62.3677 268.267 68.7686C274.685 75.1695 285.091 75.1695 291.51 68.7686Z" fill="white"/>
<path d="M282.427 64.26C282.222 64.26 282.01 64.2117 281.81 64.1151C280.521 63.4875 279.256 64.085 279.202 64.1091C278.5 64.4471 277.653 64.1634 277.308 63.4694C276.963 62.7754 277.235 61.9366 277.925 61.5866C278.028 61.5322 280.473 60.3192 283.051 61.5745C283.752 61.9185 284.049 62.7633 283.704 63.4634C283.456 63.9703 282.954 64.26 282.427 64.26Z" fill="#22A6FF"/>
<path d="M285.864 60.4213C285.586 60.4213 285.301 60.3369 285.053 60.1679C280.497 56.9815 276.128 60.1136 276.085 60.1498C275.456 60.6145 274.566 60.4817 274.101 59.848C273.635 59.2204 273.768 58.3333 274.403 57.8686C276.479 56.3418 281.713 54.3745 286.681 57.8505C287.322 58.2971 287.48 59.1782 287.026 59.8179C286.754 60.2101 286.312 60.4213 285.864 60.4213Z" fill="#22A6FF"/>
<path d="M289.307 56.837C289.004 56.837 288.696 56.7405 288.442 56.5413C280 50.0298 273.114 56.1913 272.823 56.4568C272.249 56.9819 271.353 56.9517 270.82 56.3784C270.288 55.8051 270.318 54.918 270.887 54.3869C270.978 54.3024 279.788 46.3003 290.172 54.3024C290.79 54.7792 290.904 55.6663 290.426 56.2879C290.154 56.65 289.731 56.837 289.307 56.837Z" fill="#22A6FF"/>
<path d="M481.673 40.7591C481.673 62.7299 464.1 80.5181 442.45 80.5181C420.801 80.5181 403.228 62.7299 403.228 40.7591C403.228 18.7882 420.801 1 442.45 1C464.1 1 481.673 18.7882 481.673 40.7591Z" fill="#15202B" stroke="#22A6FF" stroke-width="2"/>
<path d="M38.0776 134.076C34.823 134.076 32.1782 131.431 32.1782 128.177C32.1782 124.922 34.823 122.277 38.0776 122.277C41.3321 122.277 43.9769 124.922 43.9769 128.177C43.9769 131.431 41.3248 134.076 38.0776 134.076ZM38.0776 125.532C36.6229 125.532 35.4401 126.715 35.4401 128.177C35.4401 129.639 36.6229 130.821 38.0776 130.821C39.5395 130.821 40.7223 129.639 40.7223 128.177C40.7223 126.715 39.5322 125.532 38.0776 125.532Z" fill="#22A6FF"/>
<path d="M5.36304 134.076C2.40435 134.076 0 131.431 0 128.177C0 124.922 2.40435 122.277 5.36304 122.277C8.32172 122.277 10.7261 124.922 10.7261 128.177C10.7261 131.431 8.32172 134.076 5.36304 134.076ZM5.36304 125.532C4.03396 125.532 2.95869 126.715 2.95869 128.177C2.95869 129.639 4.03396 130.821 5.36304 130.821C6.68543 130.821 7.76071 129.639 7.76071 128.177C7.76071 126.715 6.68543 125.532 5.36304 125.532Z" fill="#22A6FF"/>
<path d="M35.3962 129.785H8.58105V126.568H35.3962V129.785Z" fill="#22A6FF"/>
<path d="M545.013 197.818C542.211 197.818 539.936 199.991 539.936 202.664C539.936 205.338 542.211 207.51 545.013 207.51C547.808 207.51 550.09 205.338 550.09 202.664C550.09 199.991 547.808 197.818 545.013 197.818ZM545.013 200.498C546.265 200.498 547.288 201.469 547.288 202.664C547.288 203.859 546.271 204.837 545.013 204.837C543.76 204.837 542.737 203.865 542.737 202.664C542.737 201.469 543.754 200.498 545.013 200.498Z" fill="#22A6FF"/>
<path d="M441.693 69.7199C441.693 81.1568 432.487 90.4223 421.138 90.4223C409.789 90.4223 400.583 81.1568 400.583 69.7199C400.583 58.283 409.789 49.0176 421.138 49.0176C432.487 49.0176 441.693 58.283 441.693 69.7199Z" fill="#15202B" stroke="#22A6FF"/>
<path d="M428.928 76.7128H419.165L421.696 71.3824L428.16 70.2293V66.5877L423.587 67.4023L426.036 62.2468L428.142 57.8167H427.536H423.613H422.431L421.452 59.8774L418.205 66.7142L417.348 68.5183L416.074 68.7452L411.903 69.4891V72.7178V73.1307L415.25 72.5355L415.457 72.4983L413.004 77.6576C412.07 79.6253 413.495 81.9018 415.66 81.9018H423.484H428.16L430.406 76.7128H428.928Z" fill="white"/>
<path d="M521.681 55.3381C521.681 72.7889 507.633 86.9296 490.312 86.9296C472.991 86.9296 458.943 72.7889 458.943 55.3381C458.943 37.8873 472.991 23.7466 490.312 23.7466C507.633 23.7466 521.681 37.8873 521.681 55.3381Z" fill="#15202B" stroke="#22A6FF"/>
<path opacity="0.5" d="M490.309 59.9231L502.019 52.6218L495.904 40.7014L494.369 37.6992L492.452 33.9685L490.309 29.7964L484.145 41.8217L478.616 52.5998L478.605 52.6218L481.438 54.3878L490.309 59.9231Z" fill="white"/>
<path opacity="0.5" d="M479.337 56.532L479.208 56.6558L488.137 74.2048L490.418 78.6864L497.005 65.7484L501.785 56.3574L490.418 63.4964L479.337 56.532Z" fill="white"/>
<path d="M454.983 43.0417C453.685 41.3065 451.934 40.2627 449.744 39.9103C454.039 38.4211 456.19 35.5755 456.19 31.3605C456.19 28.5282 455.206 26.188 453.246 24.3464C453.134 24.24 453.01 24.1403 452.891 24.0406C451.862 23.1696 450.669 22.5248 449.298 22.1192C448.774 21.9663 448.223 21.84 447.646 21.7535V17.0199V16.0891H443.109V21.3746V21.5807H442.892H440.748V16.0891H436.211V21.5807H431.188V32.8165V39.4981V44.87V58.8649H436.211V64.3564H440.748V58.8649H443.109V64.1969V64.3564H447.646V59.8422V58.7984C448.085 58.7585 448.505 58.6986 448.918 58.6255C451.01 58.2665 452.734 57.4753 454.078 56.2387C455.547 54.8891 456.439 53.1672 456.773 51.0862C456.872 50.4679 456.931 49.8297 456.931 49.1516C456.931 46.8113 456.281 44.7769 454.983 43.0417ZM439.122 36.5595V31.8857V28.4817H442.669H444.322C445.462 28.4817 446.387 28.8274 447.082 29.5189C447.102 29.5388 447.108 29.5587 447.128 29.5787C447.79 30.2701 448.125 31.2541 448.125 32.5505C448.125 33.8802 447.777 34.8775 447.082 35.549C446.387 36.2204 445.462 36.5595 444.322 36.5595H439.85H439.122ZM447.797 50.8469C447.082 51.5915 439.122 51.9638 439.122 51.9638V43.4672H445.2C446.282 43.4672 447.161 43.8594 447.843 44.6373C448.525 45.4152 448.866 46.459 448.866 47.7687C448.859 49.0784 448.505 50.1023 447.797 50.8469Z" fill="white"/>
</svg>
