<svg width="640" height="213" viewBox="0 0 640 213" fill="none" xmlns="http://www.w3.org/2000/svg">
<path d="M50.4911 73.1519H14.7563V76.8921H48.9333L91.3223 119.166H181.019V115.426H92.88L50.4911 73.1519Z" fill="#22A6FF"/>
<path d="M69.9964 153.216H12.1655V156.957H71.5456L92.8798 135.689H181.611V131.948H91.3221L69.9964 153.216Z" fill="#22A6FF"/>
<path d="M78.7671 192.105H53.0137V195.845H80.3163L125 151.283H176.718V147.543H123.45L78.7671 192.105Z" fill="#22A6FF"/>
<path d="M10.616 68.3901C6.86561 68.3901 3.81787 71.4296 3.81787 75.1698C3.81787 78.9101 6.86561 81.9495 10.616 81.9495C14.3664 81.9495 17.4142 78.9101 17.4142 75.1698C17.4142 71.4296 14.3664 68.3901 10.616 68.3901ZM10.616 78.2009C8.93976 78.2009 7.57675 76.8415 7.57675 75.1614C7.57675 73.4812 8.93976 72.1219 10.616 72.1219C12.3007 72.1219 13.6638 73.4812 13.6638 75.1614C13.6638 76.8415 12.3007 78.2009 10.616 78.2009Z" fill="#22A6FF"/>
<path d="M7.66094 148.311C3.91053 148.311 0.862793 151.351 0.862793 155.091C0.862793 158.831 3.91053 161.871 7.66094 161.871C11.4114 161.871 14.4591 158.831 14.4591 155.091C14.4591 151.351 11.4114 148.311 7.66094 148.311ZM7.66094 158.122C5.98469 158.122 4.62167 156.763 4.62167 155.083C4.62167 153.411 5.98469 152.043 7.66094 152.043C9.34567 152.043 10.7087 153.402 10.7087 155.083C10.7087 156.763 9.34567 158.122 7.66094 158.122Z" fill="#22A6FF"/>
<path d="M110.669 182.287C108.006 182.287 105.842 184.45 105.842 187.114C105.842 189.777 108.006 191.941 110.669 191.941C113.331 191.941 115.495 189.777 115.495 187.114C115.495 184.45 113.331 182.287 110.669 182.287ZM110.669 189.277C109.478 189.277 108.505 188.31 108.505 187.114C108.505 185.923 109.472 184.951 110.669 184.951C111.859 184.951 112.826 185.917 112.826 187.114C112.832 188.305 111.865 189.277 110.669 189.277Z" fill="#22A6FF"/>
<path d="M110.669 202.667C108.006 202.667 105.842 204.83 105.842 207.493C105.842 210.157 108.006 212.32 110.669 212.32C113.331 212.32 115.495 210.157 115.495 207.493C115.495 204.83 113.331 202.667 110.669 202.667ZM110.669 209.657C109.478 209.657 108.505 208.69 108.505 207.493C108.505 206.303 109.472 205.33 110.669 205.33C111.859 205.33 112.826 206.297 112.826 207.493C112.832 208.684 111.865 209.657 110.669 209.657Z" fill="#22A6FF"/>
<path d="M48.7464 187.199C44.996 187.199 41.9482 190.239 41.9482 193.979C41.9482 197.719 44.996 200.759 48.7464 200.759C52.4883 200.759 55.5361 197.719 55.5361 193.979C55.5361 190.239 52.4968 187.199 48.7464 187.199ZM48.7464 197.01C47.0617 197.01 45.6987 195.651 45.6987 193.97C45.6987 192.29 47.0617 190.931 48.7464 190.931C50.4226 190.931 51.7857 192.29 51.7857 193.97C51.7857 195.651 50.4226 197.01 48.7464 197.01Z" fill="#22A6FF"/>
<path d="M112.277 189.795H109.06V205.885H112.277V189.795Z" fill="#22A6FF"/>
<path d="M575.406 47.1387H603.531V50.4517H576.632L543.27 87.8977H472.673V84.5847H542.044L575.406 47.1387Z" fill="#22A6FF"/>
<path d="M580.045 156.668H630.147V159.91H578.702L560.219 141.468H483.339V138.234H561.562L580.045 156.668Z" fill="#22A6FF"/>
<path d="M332.223 167.257H369.211V169.763H331.232L317.586 155.512H260.829V153.013H318.577L332.223 167.257Z" fill="#22A6FF"/>
<path d="M572.523 190.129H594.677V193.41H571.183L532.747 154.323H488.266V151.042H534.087L572.523 190.129Z" fill="#22A6FF"/>
<path d="M601.574 49.5577C601.574 52.8191 604.225 55.4694 607.486 55.4694C610.747 55.4694 613.398 52.8191 613.398 49.5577C613.398 46.2963 610.747 43.646 607.486 43.646C604.225 43.646 601.574 46.2963 601.574 49.5577ZM604.836 49.5577C604.836 48.0927 606.021 46.9074 607.486 46.9074C608.944 46.9074 610.129 48.0927 610.129 49.5577C610.129 51.0154 608.944 52.2081 607.486 52.2081C606.021 52.2007 604.836 51.0154 604.836 49.5577Z" fill="#22A6FF"/>
<path d="M628.177 157.939C628.177 161.2 630.834 163.851 634.088 163.851C637.35 163.851 640 161.2 640 157.939C640 154.678 637.35 152.027 634.088 152.027C630.834 152.035 628.177 154.685 628.177 157.939ZM631.438 157.939C631.438 156.481 632.623 155.289 634.088 155.289C635.546 155.289 636.731 156.474 636.731 157.939C636.731 159.397 635.546 160.589 634.088 160.589C632.631 160.589 631.438 159.404 631.438 157.939Z" fill="#22A6FF"/>
<path d="M369.264 168.392C369.294 170.838 371.311 172.801 373.751 172.772C376.197 172.742 378.161 170.73 378.131 168.285C378.101 165.839 376.09 163.875 373.644 163.905C371.204 163.94 369.235 165.951 369.264 168.392ZM371.71 168.362C371.697 167.269 372.575 166.364 373.673 166.351C374.767 166.337 375.666 167.215 375.68 168.314C375.693 169.407 374.815 170.313 373.722 170.326C372.628 170.339 371.723 169.461 371.71 168.362Z" fill="#22A6FF"/>
<path d="M592.706 191.439C592.706 194.7 595.358 197.351 598.614 197.351C601.877 197.351 604.529 194.7 604.529 191.439C604.529 188.178 601.877 185.527 598.614 185.527C595.358 185.535 592.706 188.185 592.706 191.439ZM595.969 191.439C595.969 189.981 597.155 188.789 598.614 188.789C600.08 188.789 601.266 189.974 601.266 191.439C601.266 192.904 600.08 194.089 598.614 194.089C597.162 194.089 595.969 192.904 595.969 191.439Z" fill="#22A6FF"/>
<path d="M594.676 86.0132C591.959 86.0132 589.75 88.2218 589.75 90.9396C589.75 93.6574 591.959 95.8661 594.676 95.8661C597.394 95.8661 599.603 93.6574 599.603 90.9396C599.603 88.2279 597.394 86.0132 594.676 86.0132ZM594.676 88.731C595.891 88.731 596.885 89.7187 596.885 90.9396C596.885 92.1544 595.897 93.1421 594.676 93.1421C593.462 93.1421 592.468 92.1544 592.468 90.9396C592.474 89.7187 593.462 88.731 594.676 88.731Z" fill="#22A6FF"/>
<path d="M594.676 112.616C591.959 112.616 589.75 114.825 589.75 117.542C589.75 120.26 591.959 122.469 594.676 122.469C597.394 122.469 599.603 120.26 599.603 117.542C599.603 114.825 597.394 112.616 594.676 112.616ZM594.676 115.334C595.891 115.334 596.885 116.322 596.885 117.536C596.885 118.757 595.897 119.745 594.676 119.745C593.462 119.745 592.468 118.757 592.468 117.536C592.474 116.322 593.462 115.334 594.676 115.334Z" fill="#22A6FF"/>
<path d="M596.647 92.9102H593.691V115.572H596.647V92.9102Z" fill="#22A6FF"/>
<g opacity="0.5">
<path d="M191.628 161.207L187.634 188.84H235.063L230.573 161.207H191.628Z" fill="white"/>
<path d="M251.547 192.823H171.163V194.815H251.547V192.823Z" fill="white"/>
<path d="M187.634 188.84L171.163 192.823H251.541L235.064 188.84H187.634Z" fill="#22A6FF"/>
</g>
<path d="M304.012 146.977H118.693V51.1263C118.693 46.9019 122.13 43.4741 126.366 43.4741H296.339C300.581 43.4741 304.012 46.9019 304.012 51.1263V146.977Z" fill="#22A6FF"/>
<path d="M296.369 164.695H126.336C122.112 164.695 118.693 161.285 118.693 157.073V146.983H304.012V157.073C304.012 161.279 300.593 164.695 296.369 164.695Z" fill="#22A6FF"/>
<path d="M297.18 49.4485H125.531V140.568H297.18V49.4485Z" fill="#141D27"/>
<path d="M214.968 155.13C214.968 157.122 213.346 158.739 211.349 158.739C209.352 158.739 207.73 157.122 207.73 155.13C207.73 153.139 209.352 151.521 211.349 151.521C213.352 151.521 214.968 153.139 214.968 155.13Z" fill="#15202B"/>
<path d="M201.262 59.8464H140.483V130.599H201.262V59.8464Z" fill="white" fill-opacity="0.5"/>
<path d="M192.481 69.4961H149.269V73.3523H192.481V69.4961Z" fill="white" fill-opacity="0.5"/>
<path d="M192.481 76.575H149.269V80.4312H192.481V76.575Z" fill="white" fill-opacity="0.5"/>
<path d="M192.481 83.6479H149.269V87.5042H192.481V83.6479Z" fill="white" fill-opacity="0.5"/>
<path d="M192.481 90.7207H149.269V94.577H192.481V90.7207Z" fill="white" fill-opacity="0.5"/>
<path d="M192.481 97.7993H149.269V101.656H192.481V97.7993Z" fill="white" fill-opacity="0.5"/>
<path d="M192.481 104.872H149.269V108.728H192.481V104.872Z" fill="white" fill-opacity="0.5"/>
<path d="M192.481 111.951H149.269V115.807H192.481V111.951Z" fill="white" fill-opacity="0.5"/>
<path d="M192.481 119.024H149.269V122.88H192.481V119.024Z" fill="white" fill-opacity="0.5"/>
<path d="M519.273 59.041H473.006C467.42 59.041 462.894 63.5551 462.894 69.1252V158.821C462.894 164.391 467.42 168.905 473.006 168.905H519.273C524.859 168.905 529.385 164.391 529.385 158.821V69.1252C529.385 63.5551 524.859 59.041 519.273 59.041Z" fill="white"/>
<path d="M515.437 64.2427H476.836C472.176 64.2427 468.4 68.0084 468.4 72.6552V147.493C468.4 152.14 472.176 155.905 476.836 155.905H515.437C520.096 155.905 523.872 152.14 523.872 147.493V72.6552C523.872 68.0084 520.096 64.2427 515.437 64.2427Z" fill="#141D27"/>
<path d="M499.395 161.753C499.395 163.546 497.937 165.006 496.134 165.006C494.336 165.006 492.872 163.552 492.872 161.753C492.872 159.961 494.33 158.5 496.134 158.5C497.937 158.507 499.395 159.961 499.395 161.753Z" fill="#22A6FF"/>
<path d="M279.161 86.9988H159.941V134.293H279.161V86.9988Z" fill="white"/>
<path d="M207.554 124.184L194.132 110.798L207.742 97.2261L210.023 99.5012L198.695 110.798L209.841 121.908L207.554 124.184Z" fill="#22A6FF"/>
<path d="M230.604 124.184L228.323 121.908L239.651 110.611L228.51 99.5012L230.792 97.2261L244.213 110.611L230.604 124.184Z" fill="#22A6FF"/>
<path d="M222.593 98.779L212.765 122.434L215.744 123.665L225.573 100.01L222.593 98.779Z" fill="#22A6FF"/>
<path d="M279.161 81.0869H159.941V86.9986H279.161V81.0869Z" fill="#22A6FF"/>
<path opacity="0.5" d="M396.965 94.887L387.864 94.887C387.135 94.8898 386.435 95.2336 385.914 95.8437C385.392 96.4538 385.091 97.283 385.073 98.1548L385.046 98.1548L385.046 108.329C385.047 108.379 385.059 108.426 385.059 108.477C385.059 108.527 385.047 108.575 385.046 108.624L385.046 108.796L385.031 108.796C384.891 111.16 383.26 113.03 381.249 113.03C380.376 113.03 379.581 112.666 378.939 112.075L378.939 112.165C378.06 111.558 377.064 111.238 376.049 111.238C375.286 111.238 374.531 111.418 373.827 111.767C373.122 112.115 372.482 112.627 371.943 113.271C371.404 113.916 370.976 114.681 370.685 115.523C370.393 116.366 370.243 117.268 370.243 118.18C370.243 119.091 370.393 119.994 370.685 120.836C370.977 121.678 371.404 122.443 371.943 123.087C372.483 123.732 373.123 124.243 373.827 124.592C374.531 124.941 375.286 125.12 376.049 125.12C377.102 125.12 378.087 124.78 378.939 124.193L378.939 124.27C379.597 123.661 380.406 123.33 381.238 123.327C383.249 123.327 384.88 125.198 385.019 127.562L385.046 127.562L385.046 139.821L385.06 139.821C385.063 140.708 385.36 141.557 385.886 142.183C386.411 142.809 387.123 143.16 387.864 143.16C387.905 143.16 387.944 143.147 387.985 143.146L397.463 143.146L397.463 143.11C397.883 143.109 398.286 142.91 398.583 142.555C398.88 142.2 399.047 141.718 399.047 141.216C399.047 141.025 399.016 140.845 398.97 140.671C398.594 139.637 398.4 138.521 398.4 137.394C398.4 132.841 401.487 129.151 405.294 129.151C409.102 129.151 412.188 132.841 412.188 137.394C412.189 138.492 412.006 139.579 411.649 140.591C411.583 140.799 411.549 141.019 411.547 141.24C411.547 141.489 411.588 141.736 411.667 141.965C411.747 142.195 411.864 142.404 412.011 142.58C412.158 142.756 412.333 142.895 412.525 142.99C412.718 143.085 412.924 143.134 413.132 143.133C413.222 143.133 413.308 143.119 413.395 143.101L413.395 143.146L422.493 143.146C422.534 143.148 422.573 143.16 422.613 143.16C423.358 143.16 424.071 142.806 424.597 142.177C425.123 141.548 425.419 140.696 425.419 139.806C425.419 139.714 425.403 139.627 425.397 139.537L425.397 128.4C425.397 128.152 425.355 127.905 425.276 127.675C425.196 127.445 425.079 127.236 424.932 127.061C424.784 126.885 424.61 126.745 424.417 126.65C424.225 126.555 424.019 126.506 423.811 126.506C423.635 126.506 423.471 126.548 423.313 126.611L423.303 126.614C423.267 126.628 423.229 126.637 423.194 126.655L423.194 126.648C422.565 126.869 421.914 126.982 421.258 126.983C420.353 126.983 419.456 126.77 418.62 126.356C417.783 125.942 417.023 125.335 416.383 124.57C415.743 123.804 415.235 122.896 414.889 121.896C414.542 120.896 414.364 119.824 414.364 118.742C414.364 117.66 414.542 116.588 414.889 115.588C415.235 114.588 415.743 113.68 416.383 112.915C417.023 112.149 417.783 111.542 418.62 111.128C419.456 110.714 420.353 110.501 421.258 110.501C421.914 110.502 422.565 110.615 423.194 110.836L423.194 110.815C423.435 110.938 423.698 110.987 423.959 110.958C424.219 110.93 424.47 110.824 424.689 110.652C424.907 110.479 425.086 110.244 425.211 109.968C425.335 109.692 425.399 109.384 425.399 109.071C425.399 109.06 425.397 109.05 425.397 109.039L425.397 98.2401C425.396 97.3571 425.104 96.51 424.584 95.8828C424.064 95.2555 423.358 94.8986 422.619 94.8895L422.619 94.8853L413.395 94.8853L413.395 94.9241C413.012 94.9798 412.66 95.2008 412.405 95.5454C412.149 95.89 412.008 96.3344 412.008 96.7949L411.938 96.7949C412.101 97.5007 412.185 98.2295 412.187 98.9619C412.187 103.514 409.101 107.204 405.293 107.204C401.486 107.204 398.399 103.514 398.399 98.9619C398.399 98.2106 398.49 97.4862 398.648 96.7949L398.582 96.7949L398.583 96.7738C398.583 95.9211 398.11 95.2095 397.462 94.9723L397.462 94.8853L397.035 94.8853C397.023 94.8853 397.012 94.8811 397 94.8811C396.988 94.8828 396.977 94.8862 396.965 94.887Z" fill="white"/>
<path d="M522.536 105.554C522.249 105.573 521.962 105.531 521.695 105.429C521.641 105.405 521.583 105.39 521.524 105.385C521.37 105.385 521.214 105.385 521.06 105.385H520.676C520.556 103.822 519.92 102.339 518.861 101.16L518.975 101.048L519.424 100.61C519.557 100.481 519.606 100.316 519.707 100.165C519.855 99.9355 520.054 99.7403 520.288 99.5939C520.503 99.4605 520.724 99.3359 520.925 99.1836C521.115 99.0602 521.263 98.886 521.353 98.6821C521.427 98.4597 521.322 98.2585 521.165 98.0995C521.094 98.0216 521.006 97.961 520.907 97.9224C520.808 97.8838 520.701 97.8683 520.595 97.8771C520.399 97.9121 520.221 98.0099 520.089 98.1551C519.787 98.4542 519.627 98.8522 519.355 99.1714C519.166 99.3809 518.933 99.5482 518.671 99.6617C518.616 99.6822 518.565 99.7115 518.52 99.7485C518.406 99.8597 518.292 99.9709 518.178 100.089L517.945 100.298C517.204 99.7084 516.352 99.2648 515.438 98.9912C514.871 98.8023 514.283 98.6792 513.686 98.6243V97.7503C513.688 97.7252 513.688 97.6998 513.686 97.6747C513.675 97.6202 513.641 97.5635 513.623 97.5101C513.579 97.3675 513.549 97.2212 513.532 97.0731C513.471 96.5861 513.675 96.1424 513.725 95.6632C513.744 95.4719 513.751 95.254 513.643 95.0839C513.535 94.9137 513.31 94.857 513.103 94.8492H513.076C512.859 94.8396 512.647 94.9108 512.481 95.0483C512.37 95.1729 512.311 95.3343 512.316 95.4997C512.303 95.9112 512.462 96.3037 512.524 96.7062C512.555 96.9856 512.524 97.2683 512.431 97.5346C512.4 97.6065 512.376 97.6809 512.358 97.757C512.349 97.901 512.349 98.0455 512.358 98.1895V98.6299C510.817 98.7739 509.356 99.3675 508.165 100.333L508.021 100.187L507.595 99.7752C507.575 99.7531 507.554 99.7327 507.532 99.714C507.488 99.6904 507.441 99.6703 507.394 99.654C507.252 99.5844 507.118 99.5022 506.992 99.4082C506.571 99.0924 506.392 98.6054 506.052 98.2207C505.929 98.0549 505.745 97.9415 505.538 97.9038C505.418 97.8974 505.297 97.9167 505.184 97.9605C505.072 98.0043 504.971 98.0714 504.888 98.1573C504.142 98.9078 505.589 99.3971 506.015 99.7974C506.22 100.004 506.388 100.244 506.511 100.506C506.524 100.533 506.542 100.558 506.564 100.579C506.685 100.701 506.81 100.819 506.933 100.94L507.23 101.228C507.2 101.263 507.168 101.295 507.139 101.33C506.176 102.481 505.601 103.893 505.492 105.375H504.66C504.606 105.372 504.552 105.378 504.5 105.394C504.3 105.466 504.093 105.515 503.881 105.539C503.403 105.585 502.945 105.373 502.47 105.338C502.253 105.312 502.032 105.351 501.837 105.449C501.744 105.507 501.668 105.588 501.619 105.684C501.569 105.78 501.546 105.887 501.553 105.994C501.568 107.024 502.914 106.485 503.514 106.413C503.792 106.393 504.071 106.431 504.332 106.525C504.392 106.552 504.456 106.571 504.522 106.581C504.676 106.594 504.836 106.581 504.99 106.581H505.309C508.404 106.268 511.163 106.461 512.356 107.79C513.323 108.869 512.619 111.133 511.655 113.156C511.883 113.195 512.121 113.226 512.356 113.245V114.197C512.354 114.224 512.354 114.25 512.356 114.277C512.371 114.325 512.389 114.372 512.411 114.417C512.456 114.552 512.489 114.691 512.51 114.832C512.544 115.08 512.529 115.332 512.466 115.574C512.405 115.804 512.358 116.037 512.325 116.272C512.304 116.469 512.297 116.692 512.407 116.868C512.518 117.044 512.756 117.106 512.977 117.109C513.194 117.12 513.407 117.048 513.571 116.908C513.682 116.782 513.74 116.619 513.735 116.453C513.748 116.042 513.589 115.65 513.528 115.248C513.497 114.969 513.529 114.686 513.621 114.421C513.652 114.349 513.676 114.274 513.693 114.198C513.701 114.054 513.701 113.91 513.693 113.766V113.236C514.274 113.185 514.848 113.07 515.403 112.893C516.305 112.628 517.148 112.197 517.886 111.624L518.019 111.755L518.456 112.18C518.475 112.204 518.498 112.225 518.522 112.244C518.558 112.267 518.596 112.285 518.636 112.3C518.764 112.358 518.887 112.427 519.003 112.507C519.223 112.666 519.409 112.866 519.549 113.095C519.679 113.311 519.823 113.518 519.981 113.716C520.108 113.888 520.294 114.011 520.505 114.064C520.624 114.076 520.745 114.061 520.857 114.019C520.969 113.977 521.069 113.91 521.15 113.823C521.917 113.051 520.495 112.57 520.047 112.156C519.834 111.956 519.664 111.718 519.545 111.455C519.532 111.422 519.513 111.391 519.488 111.365C519.374 111.243 519.247 111.129 519.127 111.011L518.84 110.732C519.894 109.569 520.537 108.106 520.672 106.559H521.387C521.441 106.562 521.496 106.555 521.548 106.539C521.76 106.461 521.981 106.411 522.206 106.39C522.678 106.358 523.132 106.574 523.603 106.598C523.819 106.62 524.037 106.578 524.228 106.478C524.429 106.36 524.494 106.158 524.497 105.938C524.473 104.938 523.106 105.493 522.536 105.554ZM510.415 105.373H508.022C508.12 104.493 508.451 103.654 508.981 102.936L510.227 104.152L510.726 104.64C510.586 104.868 510.482 105.115 510.415 105.373V105.373ZM512.353 102.783V103.439C512.103 103.501 511.865 103.6 511.646 103.731C511.054 103.153 510.462 102.576 509.87 101.999C510.174 101.751 510.505 101.538 510.857 101.362C511.33 101.142 511.834 100.995 512.353 100.924V102.783ZM517.078 102.894C517.612 103.578 517.964 104.38 518.104 105.229C518.112 105.281 518.117 105.333 518.124 105.384H515.646C515.583 105.109 515.475 104.846 515.325 104.605L517.078 102.894ZM513.688 100.92C514.61 101.047 515.478 101.42 516.196 101.998L514.847 103.317L514.419 103.734C514.191 103.603 513.945 103.504 513.688 103.442V100.92ZM513.688 110.945V108.425C513.916 108.368 514.135 108.281 514.338 108.167L516.143 109.927C515.456 110.45 514.645 110.795 513.784 110.928L513.688 110.945ZM515.812 107.79L515.282 107.274C515.424 107.054 515.534 106.814 515.607 106.564H518.126C518.007 107.46 517.643 108.308 517.071 109.019L515.812 107.79Z" fill="#22A6FF"/>
<path d="M478.627 110.039C478.627 109.919 478.513 109.809 478.291 109.705C478.07 109.602 477.727 109.556 477.266 109.556C477.012 109.55 476.759 109.572 476.51 109.621C476.359 109.649 476.216 109.708 476.09 109.792C476.004 109.851 475.939 109.935 475.907 110.032C475.88 110.119 475.867 110.21 475.867 110.3C475.87 110.396 475.895 110.491 475.942 110.576C475.988 110.66 476.054 110.733 476.135 110.788C476.353 110.951 476.592 111.085 476.845 111.187C477.139 111.312 477.474 111.437 477.849 111.561C478.225 111.686 478.609 111.825 479.004 111.979C479.398 112.133 479.784 112.309 480.157 112.506C480.521 112.697 480.858 112.931 481.161 113.205C481.456 113.473 481.697 113.793 481.872 114.148C482.058 114.536 482.15 114.961 482.14 115.39C482.14 115.994 482.021 116.5 481.782 116.91C481.544 117.319 481.201 117.66 480.785 117.899C480.317 118.164 479.805 118.346 479.272 118.436C478.636 118.548 477.992 118.601 477.347 118.595C476.94 118.595 476.535 118.565 476.133 118.505C475.744 118.448 475.361 118.36 474.986 118.243C474.636 118.135 474.298 117.994 473.975 117.823C473.682 117.67 473.41 117.481 473.166 117.261C472.947 117.063 472.765 116.829 472.629 116.569C472.499 116.318 472.432 116.04 472.433 115.758C472.429 115.561 472.465 115.366 472.539 115.183C472.603 115.03 472.699 114.892 472.821 114.778C472.937 114.673 473.073 114.593 473.222 114.542C473.373 114.49 473.532 114.464 473.693 114.465C473.897 114.466 474.1 114.504 474.29 114.576C474.489 114.648 474.671 114.758 474.827 114.898C475.001 115.055 475.14 115.246 475.232 115.459C475.325 115.672 475.37 115.902 475.364 116.134C475.37 116.211 475.404 116.285 475.46 116.34C475.539 116.425 475.634 116.494 475.739 116.544C475.883 116.616 476.036 116.67 476.194 116.705C476.399 116.751 476.608 116.772 476.818 116.77C477.08 116.775 477.342 116.755 477.6 116.708C477.758 116.681 477.91 116.625 478.048 116.543C478.138 116.488 478.208 116.405 478.246 116.308C478.276 116.225 478.292 116.137 478.293 116.049C478.293 115.938 478.211 115.847 478.048 115.764C477.84 115.666 477.624 115.583 477.404 115.515C477.139 115.432 476.834 115.342 476.492 115.247C476.15 115.153 475.801 115.039 475.448 114.907C475.09 114.774 474.741 114.617 474.404 114.439C474.069 114.264 473.762 114.042 473.492 113.782C473.224 113.522 473.007 113.217 472.849 112.882C472.678 112.505 472.594 112.095 472.603 111.682C472.598 111.271 472.656 110.861 472.775 110.466C472.879 110.125 473.041 109.804 473.253 109.515C473.457 109.242 473.707 109.004 473.991 108.81C474.288 108.609 474.61 108.447 474.95 108.325C475.319 108.194 475.701 108.1 476.09 108.048C476.508 107.988 476.93 107.958 477.352 107.96C478.026 107.947 478.699 108.024 479.351 108.19C479.83 108.31 480.284 108.511 480.694 108.781C481.003 108.99 481.258 109.266 481.437 109.589C481.585 109.854 481.666 110.15 481.672 110.453C481.678 110.683 481.621 110.911 481.507 111.112C481.399 111.294 481.252 111.451 481.076 111.571C480.893 111.695 480.688 111.785 480.472 111.837C480.248 111.893 480.019 111.921 479.788 111.922C479.57 111.922 479.354 111.898 479.142 111.85C478.946 111.806 478.759 111.732 478.588 111.631C478.434 111.543 478.301 111.425 478.197 111.284C478.097 111.147 478.045 110.981 478.05 110.812C478.042 110.707 478.073 110.604 478.139 110.52C478.198 110.46 478.265 110.409 478.338 110.367C478.407 110.328 478.473 110.284 478.536 110.238C478.568 110.215 478.592 110.185 478.608 110.15C478.624 110.115 478.63 110.077 478.627 110.039V110.039Z" fill="#22A6FF"/>
<path d="M491.353 113.721H488.367V115.694C488.359 115.849 488.388 116.003 488.45 116.146C488.496 116.243 488.566 116.328 488.653 116.393C488.73 116.447 488.818 116.484 488.91 116.504C489.004 116.527 489.089 116.55 489.166 116.576C489.237 116.6 489.304 116.638 489.362 116.687C489.391 116.716 489.413 116.751 489.426 116.789C489.44 116.828 489.445 116.869 489.441 116.909C489.441 117.449 489.156 117.838 488.585 118.077C488.015 118.315 487.19 118.435 486.11 118.437C485.645 118.441 485.181 118.411 484.721 118.349C484.367 118.306 484.022 118.215 483.695 118.078C483.446 117.976 483.229 117.812 483.065 117.603C482.919 117.401 482.843 117.158 482.849 116.91C482.846 116.87 482.851 116.829 482.864 116.791C482.878 116.752 482.9 116.717 482.929 116.688C482.986 116.641 483.053 116.606 483.124 116.584C483.202 116.561 483.286 116.539 483.376 116.517C483.467 116.496 483.552 116.458 483.628 116.405C483.712 116.344 483.779 116.263 483.824 116.17C483.884 116.029 483.912 115.877 483.904 115.725V110.842C483.911 110.69 483.884 110.538 483.824 110.398C483.78 110.303 483.712 110.221 483.628 110.159C483.552 110.106 483.466 110.069 483.376 110.047C483.286 110.026 483.202 110.004 483.124 109.979C483.052 109.959 482.986 109.924 482.929 109.876C482.9 109.847 482.878 109.812 482.864 109.773C482.851 109.735 482.846 109.694 482.849 109.654C482.843 109.408 482.918 109.166 483.065 108.965C483.229 108.757 483.447 108.594 483.695 108.493C484.022 108.356 484.367 108.264 484.721 108.222C485.181 108.159 485.645 108.13 486.11 108.134C486.589 108.13 487.068 108.159 487.543 108.222C487.902 108.264 488.253 108.356 488.587 108.493C488.838 108.593 489.057 108.756 489.224 108.965C489.37 109.166 489.446 109.408 489.439 109.654C489.443 109.694 489.438 109.735 489.424 109.773C489.41 109.812 489.388 109.847 489.359 109.876C489.302 109.924 489.235 109.959 489.163 109.979C489.087 110.004 489.001 110.026 488.908 110.047C488.817 110.068 488.73 110.106 488.653 110.159C488.569 110.221 488.502 110.303 488.458 110.398C488.398 110.538 488.37 110.69 488.378 110.842V112.472H491.353V110.842C491.36 110.69 491.333 110.538 491.273 110.398C491.229 110.303 491.162 110.221 491.078 110.159C491.001 110.106 490.914 110.068 490.823 110.047C490.729 110.026 490.645 110.004 490.567 109.979C490.495 109.959 490.428 109.924 490.371 109.876C490.343 109.847 490.321 109.812 490.307 109.773C490.293 109.735 490.288 109.694 490.292 109.654C490.292 109.12 490.576 108.732 491.144 108.493C491.712 108.254 492.538 108.134 493.621 108.134C494.684 108.134 495.5 108.253 496.068 108.493C496.637 108.732 496.915 109.12 496.915 109.654C496.919 109.694 496.914 109.735 496.9 109.774C496.886 109.812 496.863 109.847 496.833 109.876C496.773 109.924 496.702 109.959 496.627 109.979C496.546 110.004 496.456 110.026 496.359 110.047C496.263 110.068 496.172 110.106 496.09 110.159C496.002 110.22 495.931 110.302 495.885 110.398C495.822 110.538 495.794 110.69 495.802 110.842V115.694C495.794 115.849 495.822 116.004 495.885 116.146C495.931 116.244 496.002 116.329 496.09 116.393C496.172 116.447 496.263 116.485 496.359 116.504C496.456 116.527 496.546 116.55 496.627 116.576C496.702 116.6 496.772 116.638 496.833 116.687C496.863 116.716 496.886 116.751 496.9 116.789C496.914 116.827 496.919 116.868 496.915 116.909C496.922 117.157 496.846 117.4 496.7 117.602C496.536 117.812 496.317 117.975 496.068 118.077C495.737 118.214 495.389 118.305 495.033 118.348C494.565 118.41 494.093 118.44 493.621 118.436C493.142 118.44 492.663 118.41 492.188 118.348C491.829 118.305 491.477 118.214 491.144 118.077C490.892 117.976 490.673 117.812 490.507 117.602C490.361 117.4 490.285 117.157 490.292 116.909C490.288 116.869 490.293 116.828 490.307 116.79C490.321 116.751 490.343 116.716 490.371 116.687C490.429 116.638 490.496 116.6 490.567 116.576C490.645 116.55 490.729 116.527 490.823 116.504C490.915 116.484 491.001 116.447 491.078 116.393C491.162 116.329 491.229 116.245 491.273 116.15C491.334 116.005 491.361 115.85 491.353 115.694V113.721Z" fill="#22A6FF"/>
<path d="M506.157 110.842C506.261 110.788 506.346 110.706 506.403 110.605C506.434 110.544 506.452 110.477 506.456 110.408C506.454 110.369 506.443 110.331 506.423 110.297C506.403 110.263 506.376 110.233 506.342 110.212C506.269 110.153 506.187 110.093 506.096 110.03C506.008 109.97 505.926 109.901 505.851 109.826C505.815 109.791 505.786 109.75 505.766 109.705C505.747 109.659 505.737 109.61 505.737 109.561C505.728 109.314 505.801 109.071 505.946 108.868C506.088 108.678 506.278 108.525 506.496 108.424C506.742 108.31 507.003 108.233 507.272 108.193C507.565 108.148 507.861 108.125 508.158 108.126C508.494 108.124 508.83 108.15 509.162 108.203C509.449 108.246 509.729 108.327 509.994 108.442C510.215 108.537 510.41 108.681 510.564 108.863C510.706 109.037 510.782 109.255 510.777 109.478C510.783 109.609 510.739 109.739 510.654 109.84C510.56 109.938 510.448 110.016 510.322 110.069C510.167 110.138 510.006 110.192 509.841 110.232C509.659 110.277 509.472 110.329 509.278 110.389C509.077 110.453 508.881 110.53 508.691 110.62C508.491 110.714 508.306 110.837 508.144 110.985L506.754 112.258L509.525 115.705C509.641 115.857 509.778 115.992 509.933 116.106C510.054 116.191 510.182 116.265 510.315 116.328C510.422 116.379 510.533 116.424 510.646 116.461C510.738 116.488 510.827 116.525 510.911 116.572C510.986 116.614 511.047 116.675 511.087 116.75C511.135 116.852 511.157 116.964 511.15 117.076C511.15 117.555 510.88 117.902 510.338 118.117C509.796 118.332 509.014 118.439 507.992 118.437C507.531 118.44 507.07 118.41 506.613 118.347C506.256 118.299 505.907 118.204 505.576 118.064C505.32 117.959 505.095 117.792 504.923 117.579C504.769 117.374 504.689 117.125 504.695 116.871C504.692 116.824 504.701 116.777 504.721 116.734C504.741 116.691 504.771 116.654 504.809 116.625C504.889 116.569 504.974 116.522 505.063 116.483C505.156 116.442 505.241 116.4 505.319 116.357C505.355 116.339 505.384 116.31 505.404 116.276C505.425 116.242 505.434 116.202 505.433 116.163C505.43 116.097 505.41 116.034 505.376 115.978C505.323 115.889 505.264 115.804 505.2 115.722L504.06 114.268C504.018 114.213 503.964 114.167 503.902 114.134C503.84 114.103 503.774 114.078 503.706 114.06C503.634 114.043 503.561 114.033 503.487 114.031H503.259H503.127V115.699C503.119 115.853 503.146 116.007 503.206 116.149C503.249 116.247 503.318 116.331 503.404 116.396C503.482 116.449 503.57 116.487 503.663 116.507C503.756 116.53 503.842 116.553 503.921 116.579C503.995 116.603 504.062 116.641 504.121 116.69C504.149 116.719 504.171 116.754 504.185 116.793C504.198 116.831 504.203 116.872 504.2 116.912C504.2 117.452 503.915 117.841 503.345 118.08C502.775 118.318 501.951 118.438 500.872 118.439C500.407 118.443 499.943 118.413 499.482 118.351C499.129 118.308 498.784 118.217 498.457 118.08C498.208 117.978 497.99 117.814 497.826 117.605C497.68 117.403 497.605 117.16 497.611 116.912C497.607 116.872 497.613 116.831 497.626 116.793C497.64 116.754 497.662 116.719 497.691 116.69C497.748 116.643 497.815 116.608 497.887 116.586C497.964 116.563 498.047 116.541 498.139 116.518C498.229 116.498 498.315 116.46 498.391 116.407C498.475 116.346 498.542 116.265 498.587 116.172C498.646 116.031 498.673 115.879 498.665 115.727V110.842C498.673 110.69 498.646 110.538 498.587 110.397C498.542 110.303 498.475 110.221 498.391 110.158C498.314 110.106 498.229 110.069 498.139 110.047C498.047 110.026 497.964 110.004 497.887 109.979C497.815 109.959 497.748 109.923 497.691 109.876C497.662 109.846 497.64 109.811 497.626 109.773C497.613 109.735 497.607 109.694 497.611 109.653C497.604 109.407 497.68 109.166 497.826 108.965C497.991 108.757 498.208 108.594 498.457 108.492C498.784 108.355 499.129 108.264 499.482 108.221C499.943 108.159 500.407 108.129 500.872 108.133C501.351 108.129 501.829 108.159 502.304 108.221C502.663 108.264 503.015 108.355 503.348 108.492C503.599 108.593 503.818 108.756 503.984 108.965C504.131 109.166 504.206 109.407 504.2 109.653C504.203 109.694 504.198 109.734 504.185 109.773C504.171 109.811 504.149 109.846 504.121 109.876C504.063 109.924 503.995 109.959 503.921 109.979C503.842 110.004 503.756 110.026 503.663 110.047C503.57 110.069 503.483 110.106 503.404 110.158C503.318 110.22 503.25 110.302 503.206 110.397C503.145 110.538 503.118 110.69 503.126 110.842V112.86C503.25 112.86 503.38 112.854 503.517 112.841C503.652 112.83 503.781 112.782 503.89 112.702L506.157 110.842Z" fill="#22A6FF"/>
<path d="M512.762 183.819C509.96 183.819 507.685 185.991 507.685 188.665C507.685 191.338 509.96 193.511 512.762 193.511C515.557 193.511 517.839 191.338 517.839 188.665C517.833 185.991 515.557 183.819 512.762 183.819ZM512.762 186.498C514.014 186.498 515.037 187.47 515.037 188.665C515.037 189.859 514.02 190.837 512.762 190.837C511.509 190.837 510.486 189.865 510.486 188.665C510.486 187.47 511.503 186.498 512.762 186.498Z" fill="#22A6FF"/>
<path d="M152.394 20.5525C152.271 20.5525 152.153 20.5574 152.035 20.5623C152.271 19.5998 152.394 18.593 152.394 17.5568C152.394 10.5341 146.687 4.84235 139.645 4.84235C136.681 4.84235 133.953 5.854 131.786 7.54829C129.752 3.22664 125.35 0.230957 120.243 0.230957C114.142 0.230957 109.04 4.5084 107.79 10.2248C106.47 9.76313 105.052 9.50776 103.57 9.50776C97.094 9.50776 91.7511 14.3205 90.9337 20.5574C90.8943 20.5574 90.8598 20.5525 90.8204 20.5525C87.1863 20.5525 84.02 22.5365 82.3457 25.4733C81.9025 26.2492 82.4639 27.2167 83.3601 27.2167H100.068H108.858H134.356H143.136H159.845C160.741 27.2167 161.302 26.2492 160.859 25.4733C159.195 22.5365 156.028 20.5525 152.394 20.5525Z" fill="white"/>
<path d="M380.091 108.64V97.9137C380.088 97.0539 379.744 96.229 379.134 95.6146C378.524 95.0001 377.695 94.6446 376.823 94.6236V94.592H366.649C366.599 94.5936 366.551 94.6069 366.501 94.6069C366.45 94.6069 366.403 94.5936 366.353 94.592H366.182V94.5745C363.818 94.4097 361.947 92.487 361.947 90.1166C361.947 89.0878 362.312 88.1515 362.902 87.3941H362.813C363.42 86.3589 363.74 85.1841 363.739 83.9882C363.739 83.0895 363.56 82.1996 363.211 81.3693C362.862 80.5391 362.351 79.7847 361.706 79.1493C361.062 78.5139 360.296 78.0099 359.454 77.6661C358.612 77.3224 357.709 77.1455 356.798 77.1458C355.886 77.1456 354.984 77.3226 354.142 77.6664C353.3 78.0102 352.535 78.5142 351.89 79.1496C351.246 79.785 350.734 80.5394 350.386 81.3696C350.037 82.1998 349.858 83.0896 349.858 83.9882C349.858 85.2292 350.198 86.3903 350.785 87.3941H350.708C351.316 88.1703 351.648 89.123 351.651 90.1041C351.651 92.4737 349.78 94.3964 347.415 94.5603V94.592H335.156V94.6086C334.269 94.6123 333.42 94.9622 332.795 95.5816C332.169 96.201 331.818 97.0395 331.817 97.9137C331.817 97.962 331.83 98.007 331.832 98.0552V109.226H331.868C331.868 109.721 332.068 110.196 332.423 110.546C332.778 110.896 333.259 111.093 333.762 111.093C333.952 111.093 334.133 111.056 334.306 111.003C335.34 110.559 336.456 110.33 337.584 110.33C342.137 110.33 345.827 113.968 345.827 118.455C345.827 122.943 342.137 126.58 337.584 126.58C336.486 126.582 335.398 126.366 334.386 125.945C334.179 125.868 333.959 125.827 333.737 125.825C333.488 125.825 333.242 125.873 333.012 125.967C332.782 126.061 332.573 126.199 332.398 126.372C332.222 126.546 332.082 126.752 331.988 126.978C331.893 127.205 331.844 127.448 331.844 127.693C331.844 127.799 331.859 127.901 331.876 128.003H331.832V138.726C331.829 138.775 331.817 138.82 331.817 138.868C331.818 139.745 332.171 140.586 332.8 141.206C333.429 141.826 334.282 142.174 335.171 142.175C335.263 142.175 335.35 142.156 335.441 142.148H346.577C346.826 142.148 347.072 142.1 347.302 142.006C347.532 141.912 347.741 141.774 347.917 141.6C348.093 141.427 348.232 141.221 348.328 140.994C348.423 140.767 348.472 140.524 348.472 140.279C348.472 140.072 348.429 139.878 348.367 139.693L348.363 139.681C348.349 139.639 348.341 139.593 348.323 139.552H348.33C348.109 138.811 347.996 138.043 347.995 137.271C347.994 136.204 348.207 135.147 348.621 134.161C349.035 133.175 349.642 132.279 350.408 131.525C351.173 130.77 352.082 130.172 353.082 129.764C354.081 129.355 355.153 129.145 356.236 129.146C357.318 129.145 358.389 129.356 359.389 129.764C360.389 130.172 361.298 130.771 362.063 131.525C362.828 132.28 363.435 133.175 363.849 134.161C364.263 135.147 364.477 136.204 364.476 137.271C364.475 138.043 364.362 138.811 364.141 139.552H364.162C364.04 139.836 363.991 140.146 364.019 140.453C364.048 140.761 364.153 141.056 364.326 141.314C364.499 141.571 364.734 141.783 365.009 141.929C365.285 142.075 365.593 142.151 365.907 142.151C365.917 142.151 365.928 142.148 365.939 142.148H376.737C377.62 142.147 378.468 141.803 379.095 141.19C379.722 140.577 380.079 139.745 380.088 138.875H380.092V128.003H380.053C379.998 127.552 379.777 127.137 379.432 126.836C379.088 126.535 378.889 126.786 378.183 126.978C377.477 127.171 376.748 127.691 376.016 127.693C370.736 128.092 367.774 122.942 367.774 118.454C367.774 113.967 369.751 108.557 376.016 109.66C376.756 109.791 377.434 109.966 378.126 110.153L379.432 109.66L378.779 109.907C379.632 109.907 379.853 109.404 380.091 108.64L380.092 109.225V108.721C380.092 108.707 380.096 108.695 380.096 108.681C380.095 108.666 380.091 108.654 380.091 108.64Z" fill="white"/>
</svg>
