<svg width="650" height="390" viewBox="0 0 650 390" fill="none" xmlns="http://www.w3.org/2000/svg">
<path d="M309.025 132.211V99.6433H296.946V132.211H291.979L297.482 140.259L302.986 148.306L308.489 140.259L313.993 132.211H309.025Z" fill="white"/>
<path d="M147.707 289.66H139.533V314.892H147.707V289.66Z" fill="white"/>
<path d="M159.787 278.875H151.613V314.892H159.787V278.875Z" fill="white"/>
<path d="M173.888 268.104H165.714V314.892H173.888V268.104Z" fill="white"/>
<path d="M466.355 362.656C487.152 362.656 504.011 345.797 504.011 325C504.011 304.203 487.152 287.344 466.355 287.344C445.558 287.344 428.699 304.203 428.699 325C428.699 345.797 445.558 362.656 466.355 362.656Z" fill="#22A6FF"/>
<path d="M483.068 320.107C483.767 315.48 480.208 312.993 475.343 311.334L476.921 305.067L473.068 304.116L471.531 310.218C470.518 309.968 469.478 309.733 468.444 309.499L469.991 303.357L466.14 302.406L464.561 308.671C463.722 308.482 462.899 308.295 462.1 308.098L462.104 308.079L456.79 306.765L455.765 310.84C455.765 310.84 458.624 311.488 458.563 311.529C460.124 311.914 460.406 312.937 460.359 313.747L458.561 320.887C458.669 320.914 458.808 320.953 458.962 321.014C458.833 320.982 458.696 320.947 458.555 320.914L456.035 330.915C455.844 331.384 455.36 332.089 454.269 331.821C454.307 331.877 451.468 331.129 451.468 331.129L449.555 335.496L454.569 336.733C455.502 336.965 456.417 337.207 457.317 337.435L455.722 343.774L459.571 344.725L461.15 338.453C462.202 338.736 463.223 338.997 464.221 339.242L462.647 345.484L466.501 346.435L468.096 340.108C474.667 341.339 479.608 340.843 481.688 334.959C483.364 330.222 481.605 327.489 478.147 325.707C480.665 325.133 482.562 323.493 483.068 320.107ZM474.263 332.329C473.072 337.066 465.015 334.505 462.403 333.863L464.519 325.465C467.131 326.111 475.508 327.388 474.263 332.329ZM475.455 320.038C474.368 324.347 467.662 322.158 465.487 321.621L467.405 314.005C469.581 314.541 476.586 315.543 475.455 320.038Z" fill="#F8F9FA"/>
<path d="M578.938 312.695C575.348 315.417 572.645 319.143 571.172 323.401C569.699 327.66 569.522 332.259 570.663 336.618C571.804 340.977 574.212 344.9 577.583 347.891C580.953 350.881 585.135 352.805 589.599 353.419C594.063 354.033 598.608 353.309 602.661 351.34C606.714 349.37 610.091 346.243 612.367 342.354C614.642 338.465 615.713 333.988 615.444 329.49C615.176 324.992 613.579 320.675 610.857 317.085C609.061 314.702 606.814 312.697 604.244 311.183C601.674 309.669 598.83 308.676 595.876 308.261C592.922 307.846 589.915 308.017 587.027 308.764C584.139 309.511 581.426 310.819 579.044 312.615L578.938 312.695ZM593.477 331.231L596.419 339.038L606.529 331.372C606.595 331.319 606.67 331.28 606.75 331.256C606.831 331.231 606.915 331.223 606.999 331.232C607.083 331.241 607.164 331.266 607.238 331.306C607.312 331.345 607.377 331.4 607.43 331.465L607.557 331.632L608.977 335.331C609.047 335.504 609.056 335.696 609.003 335.874C608.95 336.053 608.838 336.209 608.685 336.315L593.212 348.046L589.106 337.245L586.872 340.323L585.998 337.802L588.233 334.723L582.483 319.561C582.415 319.388 582.407 319.197 582.46 319.019C582.513 318.84 582.624 318.685 582.775 318.577L586.687 315.611C586.753 315.558 586.828 315.518 586.908 315.494C586.989 315.47 587.073 315.462 587.157 315.471C587.241 315.479 587.322 315.504 587.396 315.544C587.47 315.584 587.535 315.638 587.588 315.704L587.715 315.871L592.57 328.665L594.805 325.586L595.789 328.163L593.477 331.231Z" fill="#22A6FF"/>
<path d="M12.7453 205.08C8.91126 205.08 5.79346 208.476 5.79346 212.612C5.79346 216.747 8.91126 220.143 12.7453 220.143C16.5794 220.143 19.6972 216.747 19.6972 212.612C19.6972 208.432 16.5794 205.08 12.7453 205.08ZM12.7453 217.487C10.3016 217.487 8.3214 215.267 8.3214 212.568C8.3214 209.869 10.3016 207.649 12.7453 207.649C15.189 207.649 17.1692 209.869 17.1692 212.568C17.1692 215.311 15.189 217.487 12.7453 217.487Z" fill="#22A6FF"/>
<path d="M59.6701 205.08C55.5167 205.08 52.1392 208.476 52.1392 212.612C52.1392 216.747 55.5167 220.143 59.6701 220.143C63.8236 220.143 67.2011 216.747 67.2011 212.612C67.2467 208.432 63.8692 205.08 59.6701 205.08ZM59.6701 217.487C57.0229 217.487 54.8777 215.267 54.8777 212.568C54.8777 209.869 57.0229 207.649 59.6701 207.649C62.3174 207.649 64.4626 209.869 64.4626 212.568C64.5082 215.311 62.363 217.487 59.6701 217.487Z" fill="#22A6FF"/>
<path d="M55.6152 210.873H17.3799V213.191H55.6152V210.873Z" fill="#22A6FF"/>
<path d="M506.333 115.542L506.333 124.333L506.334 124.333C506.336 125.038 506.624 125.714 507.137 126.218C507.649 126.721 508.346 127.013 509.078 127.03L509.078 127.056L517.624 127.056C517.666 127.054 517.706 127.044 517.748 127.044C517.791 127.044 517.83 127.054 517.872 127.056L518.016 127.056L518.016 127.07C520.002 127.205 521.573 128.781 521.573 130.724C521.573 131.567 521.267 132.334 520.771 132.955L520.846 132.955C520.336 133.804 520.067 134.766 520.068 135.747C520.068 136.483 520.218 137.213 520.511 137.893C520.804 138.574 521.234 139.192 521.775 139.713C522.317 140.233 522.96 140.646 523.667 140.928C524.374 141.21 525.133 141.355 525.898 141.355C526.664 141.355 527.422 141.21 528.129 140.928C528.837 140.646 529.479 140.233 530.021 139.712C530.562 139.192 530.991 138.573 531.284 137.893C531.577 137.212 531.728 136.483 531.728 135.747C531.728 134.73 531.442 133.778 530.949 132.955L531.014 132.955C530.503 132.319 530.224 131.538 530.222 130.734C530.222 128.792 531.793 127.216 533.779 127.082L533.779 127.056L544.076 127.056L544.076 127.042C544.821 127.039 545.534 126.752 546.06 126.245C546.586 125.737 546.881 125.05 546.881 124.333C546.881 124.294 546.87 124.257 546.869 124.217L546.869 115.062L546.838 115.062C546.838 114.656 546.671 114.267 546.372 113.98C546.074 113.693 545.67 113.532 545.248 113.531C545.088 113.531 544.936 113.562 544.79 113.606C543.922 113.969 542.985 114.157 542.037 114.157C538.213 114.157 535.114 111.175 535.114 107.497C535.114 103.819 538.213 100.838 542.037 100.838C542.96 100.837 543.873 101.014 544.723 101.359C544.897 101.422 545.082 101.455 545.268 101.457C545.477 101.457 545.684 101.418 545.877 101.341C546.07 101.264 546.246 101.151 546.393 101.009C546.541 100.867 546.658 100.698 546.738 100.512C546.818 100.326 546.859 100.127 546.858 99.9261C546.858 99.8394 546.846 99.7555 546.831 99.6723L546.869 99.6723L546.869 90.8833C546.871 90.8437 546.881 90.8069 546.881 90.7673C546.88 90.0486 546.584 89.3595 546.055 88.8513C545.527 88.3431 544.811 88.0574 544.064 88.0571C543.986 88.0571 543.913 88.0728 543.837 88.0789L534.483 88.0789C534.274 88.079 534.067 88.1187 533.874 88.1957C533.681 88.2728 533.506 88.3857 533.358 88.5279C533.21 88.6702 533.093 88.8391 533.013 89.0249C532.933 89.2108 532.892 89.4099 532.892 89.611C532.892 89.7802 532.927 89.9392 532.98 90.0913L532.983 90.1008C532.995 90.1356 533.002 90.1731 533.017 90.2066L533.011 90.2066C533.197 90.8138 533.292 91.4434 533.293 92.0764C533.293 92.951 533.114 93.817 532.766 94.625C532.418 95.433 531.908 96.1672 531.266 96.7856C530.623 97.404 529.86 97.8946 529.02 98.2292C528.18 98.5638 527.28 98.7359 526.371 98.7357C525.462 98.7358 524.561 98.5636 523.721 98.229C522.882 97.8943 522.118 97.4038 521.476 96.7854C520.833 96.167 520.323 95.4329 519.975 94.6249C519.627 93.8169 519.448 92.9509 519.448 92.0764C519.449 91.4434 519.544 90.8138 519.73 90.2066L519.712 90.2066C519.815 89.9737 519.856 89.7199 519.832 89.468C519.808 89.216 519.72 88.9737 519.575 88.7627C519.43 88.5516 519.233 88.3785 519.001 88.2587C518.769 88.1389 518.51 88.0762 518.247 88.0762C518.238 88.0762 518.23 88.0789 518.22 88.0789L509.15 88.0789C508.408 88.0797 507.697 88.3619 507.17 88.8642C506.643 89.3665 506.343 90.0483 506.335 90.7618L506.332 90.7618L506.332 99.6723L506.364 99.6723C506.411 100.042 506.597 100.382 506.886 100.629C507.176 100.875 507.549 101.012 507.936 101.012L507.936 101.08C508.529 100.922 509.141 100.841 509.756 100.839C513.579 100.839 516.679 103.82 516.679 107.498C516.679 111.176 513.579 114.157 509.756 114.157C509.125 114.157 508.517 114.069 507.936 113.917L507.936 113.981L507.918 113.979C507.202 113.979 506.604 114.436 506.405 115.063L506.332 115.063L506.332 115.475C506.332 115.487 506.328 115.497 506.328 115.509C506.33 115.52 506.333 115.531 506.333 115.542V115.542Z" fill="#22A6FF"/>
<path d="M174.169 106.318C179.234 106.318 183.339 102.217 183.339 97.1588C183.339 92.1005 179.234 88 174.169 88C169.105 88 165 92.1005 165 97.1588C165 102.217 169.105 106.318 174.169 106.318Z" fill="white"/>
</svg>
