<svg width="750" height="381" viewBox="0 0 750 381" fill="none" xmlns="http://www.w3.org/2000/svg">
<path d="M431.664 189.885V192.673H590.534L643.231 248.156L645.201 246.237L591.679 189.885H431.664Z" fill="#22A6FF"/>
<path d="M309.034 203.621V200.833H150.164L97.4671 145.349L95.4966 147.268L149.019 203.621H309.034Z" fill="#22A6FF"/>
<path d="M630.996 166.576H431.664V169.318H629.805L683.281 225.579H727.913V222.837H684.472L630.996 166.576Z" fill="#22A6FF"/>
<path d="M109.702 226.929H309.034V224.187H110.893L57.4173 167.926H12.7852V170.669H56.2259L109.702 226.929Z" fill="#22A6FF"/>
<path d="M629.805 144.593H431.664V147.335H630.996L657.894 119.045H731.212V116.302H656.703L629.805 144.593Z" fill="#22A6FF"/>
<path d="M589.342 123.843H431.664V126.586H590.488L646.851 67.2627H679.706V64.5205H645.66L589.342 123.843Z" fill="#22A6FF"/>
<path d="M488.806 217.672C484.636 217.672 481.245 221.237 481.245 225.579C481.245 229.921 484.636 233.485 488.806 233.485C492.975 233.485 496.366 229.921 496.366 225.579C496.412 221.237 493.021 217.672 488.806 217.672ZM488.806 230.743C486.148 230.743 483.994 228.412 483.994 225.579C483.994 222.745 486.148 220.414 488.806 220.414C491.463 220.414 493.617 222.745 493.617 225.579C493.663 228.412 491.463 230.743 488.806 230.743Z" fill="#22A6FF"/>
<path d="M575.916 224.208H171.612V226.95H575.916V224.208Z" fill="#22A6FF"/>
<path d="M195.583 166.053C190.307 157.507 185.225 148.835 179.969 140.269C172.593 128.254 174.984 115.45 186.648 107.508C193.986 102.509 201.672 98.017 209.348 93.5539C212.581 91.6732 212.716 90.1726 210.519 87.1908C196.241 67.8186 200.675 40.1927 220.054 26.8427C240.362 12.8398 267.06 18.1018 280.37 38.7213C285.481 46.6339 285.49 46.6534 293.757 41.5765C314.269 28.9865 334.761 16.3673 355.273 3.77733C356.648 2.92955 358.071 2.15974 359.513 1.43864C364.837 -1.21188 368.215 -0.266649 371.351 4.82976C376.366 12.9665 381.593 20.996 386.21 29.3568C388.533 33.5567 390.663 33.6736 394.051 31.0524C395.958 29.5712 398.097 28.3824 400.169 27.1253C406.025 23.5783 409.49 24.2994 413.101 30.1656C422.684 45.7666 432.161 61.4359 441.647 77.0954C452.557 95.1131 463.456 113.141 474.288 131.207C475.817 133.76 477.173 134.812 480.444 133.575C510.075 122.378 539.879 139.714 545.813 171.374C547.614 180.992 549.25 190.561 546.104 200.237C544.203 206.082 543.753 206.888 541.089 211.716C521.546 243.493 478.199 243.532 458.916 211.872C456.845 208.462 454.928 207.848 451.55 209.923C420.332 229.169 389.075 248.346 357.819 267.524C343.367 276.391 329.002 285.424 314.366 293.99C298.82 303.081 282.306 300.597 269.876 287.461C266.885 284.304 265.462 284.947 262.723 287.714C246.635 303.978 220.315 313.839 198.758 302.731C183.038 294.633 173.687 281.79 171.886 264.249C170.037 246.31 176.6 231.381 191.062 220.457C198.467 214.864 206.889 211.034 215.824 208.579C219.25 207.643 220.18 206.523 218.157 203.297C212.571 194.371 207.054 185.396 201.71 176.324C199.696 172.904 199.734 172.778 195.583 166.053Z" fill="#141D27"/>
<path d="M188.594 147.733C188.71 150.667 190.133 152.128 191.101 153.746C200.81 169.844 210.674 185.844 220.218 202.04C222.464 205.86 225 207.263 229.443 207.351C251.62 207.77 270.757 224.365 274.562 246.329C276.856 259.601 278.705 272.971 278.424 286.486C278.337 290.823 280.244 292.947 284.048 294.35C295.199 298.453 305.46 296.718 315.45 290.559C355.331 265.964 395.3 241.515 435.229 216.998C454.647 205.08 474.036 193.124 493.483 181.264C497.075 179.072 498.778 176.597 496.32 172.543C490.008 162.155 483.716 151.758 477.415 141.37C476.301 139.538 474.898 138.554 472.594 139.246C454.376 144.713 435.723 148.679 417.854 155.344C407.632 159.154 398.087 157.985 389.714 150.861C375.669 138.905 376.975 117.087 392.541 107.001C406.499 97.9485 420.806 89.4317 435.065 80.8565C438.346 78.8881 438.734 77.1439 436.73 73.9087C428.289 60.2663 420.071 46.4875 411.746 32.7671C408.038 26.667 406.606 26.326 400.575 30.0289C338.74 67.9645 276.875 105.842 215.127 143.914C206.85 149.01 198.632 152.05 188.594 147.733Z" fill="#22A6FF"/>
<path d="M301.509 137.517L300.873 140.164L343.287 150.613L386.947 124.014L388.736 119.84L342.855 147.669L301.509 137.517Z" fill="#141D27"/>
<path d="M287.819 159.822L265.582 173.169L266.996 175.525L288.292 162.742L330.38 173.111L385.024 140.788L383.634 138.473L329.972 170.207L287.819 159.822Z" fill="#141D27"/>
<path d="M329.772 202.203L293.802 223.794L295.191 226.109L332.142 203.929L337.504 182.756L390.342 150.801L388.952 148.486L335.134 181.03L329.772 202.203Z" fill="#141D27"/>
<path d="M349.729 223.038L333.706 232.656L335.096 234.971L352.059 224.789L363.318 180.464L401.853 155.018L398.884 154.005L360.923 178.697L349.729 223.038Z" fill="#141D27"/>
<path d="M261.252 171.791C258.922 173.189 258.163 176.186 259.577 178.542C260.967 180.857 263.993 181.637 266.323 180.238C268.652 178.84 269.452 175.818 268.038 173.463C266.624 171.107 263.582 170.392 261.252 171.791ZM264.909 177.883C263.846 178.521 262.516 178.158 261.883 177.103C261.249 176.047 261.62 174.719 262.642 174.106C263.704 173.468 265.034 173.83 265.643 174.845C266.277 175.901 265.971 177.245 264.909 177.883Z" fill="#141D27"/>
<path d="M295.314 134.33C292.984 135.728 292.184 138.75 293.598 141.105C294.988 143.42 298.014 144.2 300.385 142.777C302.714 141.379 303.473 138.382 302.06 136.026C300.687 133.646 297.644 132.931 295.314 134.33ZM298.971 140.422C297.908 141.06 296.579 140.697 295.969 139.682C295.335 138.626 295.706 137.299 296.728 136.685C297.791 136.047 299.12 136.41 299.73 137.425C300.38 138.416 300.033 139.784 298.971 140.422Z" fill="#141D27"/>
<path d="M289.153 222.441C286.823 223.84 286.064 226.836 287.478 229.192C288.867 231.507 291.893 232.287 294.223 230.888C296.553 229.49 297.353 226.468 295.939 224.113C294.55 221.798 291.483 221.043 289.153 222.441ZM292.809 228.533C291.747 229.171 290.417 228.809 289.808 227.793C289.174 226.737 289.545 225.41 290.567 224.797C291.629 224.159 292.959 224.521 293.568 225.536C294.178 226.551 293.872 227.895 292.809 228.533Z" fill="#141D27"/>
<path d="M374.056 185.013C371.726 186.411 370.967 189.408 372.356 191.723C373.746 194.038 376.772 194.818 379.102 193.419C381.432 192.021 382.19 189.024 380.777 186.668C379.428 184.329 376.386 183.614 374.056 185.013ZM377.712 191.104C376.649 191.742 375.32 191.38 374.711 190.365C374.077 189.309 374.448 187.981 375.469 187.368C376.532 186.73 377.862 187.092 378.471 188.108C379.121 189.098 378.775 190.466 377.712 191.104Z" fill="#141D27"/>
<path d="M385.098 203.41C382.769 204.808 382.01 207.805 383.399 210.12C384.789 212.435 387.815 213.215 390.145 211.816C392.474 210.418 393.233 207.421 391.819 205.065C390.495 202.767 387.428 202.011 385.098 203.41ZM388.755 209.501C387.692 210.139 386.363 209.777 385.753 208.762C385.12 207.706 385.49 206.378 386.512 205.765C387.575 205.127 388.905 205.489 389.514 206.505C390.189 207.536 389.818 208.863 388.755 209.501Z" fill="#141D27"/>
<path d="M329.221 231.205C326.891 232.604 326.091 235.625 327.505 237.98C328.895 240.295 331.921 241.075 334.291 239.652C336.621 238.254 337.38 235.257 335.966 232.902C334.552 230.546 331.551 229.807 329.221 231.205ZM332.877 237.297C331.815 237.935 330.485 237.573 329.876 236.557C329.242 235.501 329.613 234.174 330.635 233.561C331.698 232.923 333.027 233.285 333.636 234.3C334.246 235.315 333.899 236.683 332.877 237.297Z" fill="#141D27"/>
<path d="M379.141 190.799L376.811 192.198L385.27 206.29L387.6 204.891L379.141 190.799Z" fill="#141D27"/>
<path d="M295.319 184.544C292.989 185.943 292.23 188.939 293.644 191.295C295.033 193.61 298.059 194.39 300.389 192.991C302.719 191.593 303.519 188.571 302.105 186.216C300.715 183.901 297.648 183.146 295.319 184.544ZM298.975 190.636C297.912 191.274 296.583 190.912 295.974 189.896C295.34 188.84 295.711 187.513 296.732 186.9C297.795 186.262 299.125 186.624 299.734 187.639C300.409 188.67 300.038 189.998 298.975 190.636Z" fill="#141D27"/>
<path d="M271.325 198.947C268.954 200.37 268.219 203.407 269.609 205.722C270.998 208.037 274.024 208.817 276.395 207.394C278.766 205.971 279.484 202.999 278.07 200.643C276.681 198.328 273.655 197.548 271.325 198.947ZM274.981 205.039C273.918 205.676 272.589 205.314 271.98 204.299C271.346 203.243 271.717 201.916 272.739 201.302C273.801 200.664 275.131 201.026 275.74 202.042C276.374 203.098 276.003 204.425 274.981 205.039Z" fill="#141D27"/>
<path d="M294.817 188.988L275.156 200.79L276.545 203.105L296.206 191.303L294.817 188.988Z" fill="#141D27"/>
<path d="M407.196 154.817C411.988 154.866 416.421 153.667 420.526 151.134C434.397 142.559 448.249 133.954 462.217 125.535C465.218 123.722 465.905 122.134 463.96 119.006C456.777 107.449 449.72 95.8239 442.809 84.1013C441.057 81.139 439.537 80.8759 436.701 82.6688C425.908 89.4705 414.979 96.0481 404.109 102.723C400.391 105.003 396.578 107.147 393.044 109.69C383.984 116.229 380.431 127.308 383.829 137.686C387.227 148.064 396.365 154.769 407.196 154.817Z" fill="#FEFEFE"/>
<path d="M237.129 104.702C229.318 102.753 222.638 98.9818 216.414 94.3044C214.556 92.9109 213.036 94.2362 211.564 95.1327C203.985 99.7613 196.386 104.361 188.884 109.106C183.938 112.234 180.221 116.541 179.108 122.447C177.491 130.973 179.843 138.418 186.968 143.514C194.412 148.835 202.407 148.591 210.151 143.855C239.23 126.072 268.047 107.849 297.445 90.621C307.106 84.9594 306.67 75.8872 309.148 67.3218C300.078 71.9407 291.473 76.9396 282.944 82.075C281.909 82.6987 281.212 83.9752 280.505 85.0471C272.5 97.0329 261.271 103.445 247.051 104.556C244.554 104.751 242.395 105.442 240.246 106.699C227.004 114.446 213.733 122.145 200.433 129.784C199.164 130.515 197.925 131.967 196.135 130.944C196.135 130.535 196.009 130.047 196.154 129.94C209.174 120.702 223.645 113.871 237.129 104.702Z" fill="white"/>
<path d="M532.097 178.605C532.184 156.046 512.166 139.841 490.318 144.801C484.346 146.155 483.891 147.062 486.843 151.992C490.744 158.521 494.693 165.03 498.643 171.53C500.376 174.385 500.821 177.211 498.885 180.183C493.735 188.076 490.463 196.954 485.943 205.178C483.939 208.823 485.12 210.255 488.74 211.366C510.046 217.914 532.01 201.378 532.097 178.605Z" fill="white"/>
<path d="M284.735 77.6996C292.77 73.0027 299.642 68.91 306.602 64.9537C309.506 63.3069 310.861 61.1923 311.239 57.6745C313.175 39.8614 323.716 27.5151 339.805 23.705C355.041 20.0897 367.441 25.079 377.44 36.675C379.512 39.0721 381.099 39.1209 383.558 37.5325C386.181 35.8467 385.9 34.1219 384.526 31.8417C379.405 23.3931 374.439 14.8374 369.251 6.42786C366.482 1.93562 364.382 1.41916 360.045 4.06968C336.465 18.4624 312.943 32.9428 289.382 47.3648C287.426 48.5633 285.965 50.064 286.439 52.4514C288.026 60.5589 287.223 68.5299 284.735 77.6996Z" fill="white"/>
<path d="M498.362 132.669C492.874 132.464 487.763 133.828 482.642 135.426C478.615 136.683 478.441 138.593 480.667 141.78C482.332 144.157 484.2 144.079 486.562 143.3C494.481 140.688 502.418 140.64 510.288 143.495C529.135 150.316 539.183 170.633 533.113 189.587C526.966 208.793 507.2 219.317 487.492 213.49C483.397 212.282 481.422 213.159 480.222 216.939C478.77 221.5 482.748 221.247 484.965 221.87C503.076 226.976 519.087 222.854 531.652 208.851C544.497 194.537 547.227 177.62 539.502 159.914C531.758 142.17 517.345 133.624 498.362 132.669Z" fill="white"/>
<path d="M313.688 60.5783C313.843 64.7392 314.588 69.6797 316.718 74.3278C317.241 75.4679 317.676 76.7834 319.38 76.6665C322.884 76.4229 325.788 72.2425 324.655 68.715C322.923 63.3165 322.623 57.9278 324.239 52.4708C329.999 33.0987 353.298 27.3396 368.022 41.8103C370.684 44.4316 372.881 44.7726 375.407 42.356C378.263 39.6178 375.243 37.9612 373.82 36.3923C364.227 25.8585 349.068 22.4381 335.72 27.6417C322.758 32.6991 313.727 45.825 313.688 60.5783Z" fill="white"/>
<path d="M333.406 57.4211C335.594 53.8546 335.594 53.8546 335.555 49.8691C337.462 49.1578 337.985 52.7632 340.095 51.3698C341.973 50.1322 338.943 47.9007 341.276 46.4683C343.522 49.5475 345.961 48.5439 348.613 46.7606C352.543 44.1198 356.715 43.9055 360.007 47.6084C362.688 50.6292 364.963 49.645 366.86 47.4135C369.135 44.7435 366.144 43.35 364.653 42.015C357.209 35.3497 346.222 34.2973 337.597 39.2378C328.585 44.4024 324.2 54.3808 326.282 65.0511C327.385 70.7419 328.585 71.2486 333.571 68.1694C335.081 67.2339 336.62 66.3374 338.11 65.3727C341.44 63.2289 341.547 60.6953 338.798 58.035C337.104 56.398 335.4 58.3566 333.406 57.4211Z" fill="white"/>
<path d="M498.633 232.813C511.323 232.891 521.129 228.974 529.686 221.695C530.935 220.633 532.213 219.444 530.935 217.583C529.57 215.585 527.992 216.131 526.356 217.261C525.03 218.187 523.704 219.112 522.3 219.902C510.007 226.811 497.113 228.34 483.59 224.219C482.196 223.79 480.28 222.27 479.447 224.491C478.789 226.255 480.135 227.882 481.79 228.857C482.622 229.344 483.523 229.705 484.423 230.055C489.447 232.024 494.635 233.028 498.633 232.813Z" fill="white"/>
<path d="M353.531 47.3748C349.33 48.7585 345.39 51.2433 341.837 54.2447C340.105 55.7064 341.566 57.5091 342.428 59.039C343.396 60.754 344.799 61.1633 346.484 60.1694C349.804 58.2107 353.105 56.2228 356.357 54.157C357.654 53.3287 359.542 52.5881 358.864 50.5515C358.109 48.281 356.047 47.6573 353.531 47.3748Z" fill="white"/>
<path d="M733.136 216.118C728.967 216.118 725.576 219.683 725.576 224.025C725.576 228.367 728.967 231.932 733.136 231.932C737.306 231.932 740.697 228.367 740.697 224.025C740.743 219.683 737.352 216.118 733.136 216.118ZM733.136 229.19C730.479 229.19 728.325 226.859 728.325 224.025C728.325 221.191 730.479 218.861 733.136 218.861C735.794 218.861 737.948 221.191 737.948 224.025C737.994 226.859 735.794 229.19 733.136 229.19Z" fill="#22A6FF"/>
<path d="M648.959 242.946C644.789 242.946 641.398 246.511 641.398 250.853C641.398 255.195 644.789 258.76 648.959 258.76C653.129 258.76 656.52 255.195 656.52 250.853C656.52 246.465 653.129 242.946 648.959 242.946ZM648.959 256.017C646.301 256.017 644.147 253.687 644.147 250.853C644.147 248.019 646.301 245.688 648.959 245.688C651.616 245.688 653.77 248.019 653.77 250.853C653.77 253.687 651.616 256.017 648.959 256.017Z" fill="#22A6FF"/>
<path d="M736.894 109.767C732.724 109.767 729.333 113.332 729.333 117.674C729.333 122.015 732.724 125.58 736.894 125.58C741.064 125.58 744.455 122.015 744.455 117.674C744.455 113.286 741.064 109.767 736.894 109.767ZM736.894 122.792C734.236 122.792 732.083 120.461 732.083 117.628C732.083 114.794 734.236 112.463 736.894 112.463C739.552 112.463 741.706 114.794 741.706 117.628C741.706 120.507 739.552 122.792 736.894 122.792Z" fill="#22A6FF"/>
<path d="M685.068 57.9851C680.898 57.9851 677.507 61.55 677.507 65.8918C677.507 70.2336 680.898 73.7985 685.068 73.7985C689.238 73.7985 692.629 70.2336 692.629 65.8918C692.674 61.55 689.283 57.9851 685.068 57.9851ZM685.068 71.0563C682.41 71.0563 680.256 68.7254 680.256 65.8918C680.256 63.0582 682.41 60.7273 685.068 60.7273C687.725 60.7273 689.879 63.0582 689.879 65.8918C689.925 68.7254 687.725 71.0563 685.068 71.0563Z" fill="#22A6FF"/>
<path d="M579.994 217.672C575.824 217.672 572.433 221.237 572.433 225.579C572.433 229.921 575.824 233.485 579.994 233.485C584.164 233.485 587.555 229.921 587.555 225.579C587.601 221.237 584.164 217.672 579.994 217.672ZM579.994 230.743C577.336 230.743 575.183 228.412 575.183 225.579C575.183 222.745 577.336 220.414 579.994 220.414C582.652 220.414 584.806 222.745 584.806 225.579C584.852 228.412 582.652 230.743 579.994 230.743Z" fill="#22A6FF"/>
<path d="M7.56136 177.387C11.7313 177.387 15.1223 173.822 15.1223 169.48C15.1223 165.138 11.7313 161.573 7.56136 161.573C3.39141 161.573 0.000458418 165.138 0.000458418 169.48C-0.0453652 173.822 3.34559 177.387 7.56136 177.387ZM7.56136 164.316C10.2191 164.316 12.3728 166.646 12.3728 169.48C12.3728 172.314 10.2191 174.645 7.56136 174.645C4.90359 174.645 2.7499 172.314 2.7499 169.48C2.70408 166.646 4.90359 164.316 7.56136 164.316Z" fill="#22A6FF"/>
<path d="M91.7391 150.559C95.9091 150.559 99.3 146.994 99.3 142.652C99.3 138.311 95.9091 134.746 91.7391 134.746C87.5692 134.746 84.1782 138.311 84.1782 142.652C84.1782 147.04 87.5692 150.559 91.7391 150.559ZM91.7391 137.488C94.3969 137.488 96.5506 139.819 96.5506 142.652C96.5506 145.486 94.3969 147.817 91.7391 147.817C89.0814 147.817 86.9276 145.486 86.9276 142.652C86.9276 139.819 89.0814 137.488 91.7391 137.488Z" fill="#22A6FF"/>
<path d="M416.159 131.566C416.012 137.525 411.161 142.061 405.123 141.896C399.261 141.731 394.527 136.731 394.703 130.877C394.864 125.009 399.906 120.248 405.724 120.442C411.469 120.652 416.305 125.787 416.159 131.566Z" fill="#141D27"/>
</svg>
