<svg width="650" height="270" viewBox="0 0 650 270" fill="none" xmlns="http://www.w3.org/2000/svg">
<path d="M511.395 92.8261C523.228 92.8261 532.82 83.2338 532.82 71.4012C532.82 59.5686 523.228 49.9763 511.395 49.9763C499.563 49.9763 489.97 59.5686 489.97 71.4012C489.97 83.2338 499.563 92.8261 511.395 92.8261Z" fill="white"/>
<path d="M647.861 93.0386C649.041 90.5907 647.893 87.5847 645.327 86.348C642.76 85.1113 639.694 86.0865 638.514 88.5344C637.335 90.9822 638.482 93.9882 641.049 95.2249C643.602 96.4885 646.669 95.5134 647.861 93.0386ZM640.135 89.3154C640.887 87.7552 642.874 87.1549 644.549 87.962C646.224 88.7691 646.992 90.6973 646.24 92.2575C645.488 93.8177 643.501 94.4181 641.827 93.6109C640.112 92.8177 639.383 90.8756 640.135 89.3154Z" fill="white"/>
<path d="M448.986 211.035C451.074 206.702 449.042 201.381 444.5 199.192C439.957 197.003 434.53 198.729 432.442 203.062C430.354 207.395 432.386 212.715 436.928 214.904C441.447 217.141 446.875 215.415 448.986 211.035ZM435.311 204.445C436.641 201.683 440.158 200.62 443.123 202.049C446.087 203.478 447.448 206.891 446.117 209.652C444.786 212.414 441.269 213.476 438.305 212.048C435.317 210.667 433.98 207.206 435.311 204.445Z" fill="white"/>
<path d="M193.957 107.006C207.053 107.006 217.67 96.3893 217.67 83.2927C217.67 70.196 207.053 59.5791 193.957 59.5791C180.86 59.5791 170.243 70.196 170.243 83.2927C170.243 96.3893 180.86 107.006 193.957 107.006Z" fill="#22A6FF"/>
<path d="M110.723 125.367C110.723 110.486 122.788 98.4211 137.669 98.4211C152.55 98.4211 166.007 110.486 166.007 125.367C166.007 140.248 152.55 152.313 137.669 152.313C122.788 152.313 110.723 140.248 110.723 125.367Z" fill="#22A6FF"/>
<path d="M202.525 221.101C214.27 221.101 223.791 211.581 223.791 199.836C223.791 188.091 214.27 178.571 202.525 178.571C190.781 178.571 181.26 188.091 181.26 199.836C181.26 211.581 190.781 221.101 202.525 221.101Z" fill="#22A6FF"/>
<path d="M537.017 231.717C551.167 231.717 562.638 220.246 562.638 206.095C562.638 191.945 551.167 180.473 537.017 180.473C522.866 180.473 511.395 191.945 511.395 206.095C511.395 220.246 522.866 231.717 537.017 231.717Z" fill="#22A6FF"/>
<path d="M146.581 131.406C144.986 130.777 143.234 131.156 142.05 132.233L133.89 127.675C134.45 126.105 134.315 124.447 133.636 123.035L141.344 118.017C141.819 118.48 142.394 118.862 143.051 119.123C145.677 120.16 148.672 118.899 149.725 116.314C150.778 113.73 149.497 110.781 146.872 109.745C144.246 108.708 141.251 109.969 140.198 112.554C139.746 113.66 139.723 114.833 140.052 115.895L132.119 121.057C131.608 120.62 131.018 120.256 130.353 119.991C127.182 118.741 123.567 120.259 122.297 123.381C121.027 126.502 122.569 130.061 125.74 131.311C128.16 132.266 130.838 131.605 132.538 129.851L140.773 134.45C140.343 136.428 141.412 138.487 143.384 139.266C145.587 140.138 148.097 139.079 148.982 136.91C149.856 134.748 148.784 132.274 146.581 131.406Z" fill="white"/>
<path d="M210.883 188.833C209.749 188.108 208.311 188.083 207.135 188.72C206.872 188.861 206.613 189.013 206.349 189.157C204.99 189.914 203.63 190.668 202.27 191.425C201.252 191.992 200.234 192.552 199.219 193.123C198.307 193.633 197.593 194.503 197.33 195.549C197.073 196.567 197.244 197.56 197.705 198.479C197.155 198.786 196.605 199.092 196.055 199.399C195.037 199.966 194.019 200.526 193.004 201.096C192.092 201.607 191.378 202.477 191.115 203.523C190.852 204.576 191.04 205.601 191.535 206.541C191.89 207.221 192.246 207.9 192.601 208.58C192.922 209.196 193.216 209.859 193.67 210.383C194.562 211.405 195.994 211.852 197.289 211.538C197.787 211.419 198.225 211.172 198.669 210.926C201.105 209.57 203.544 208.214 205.98 206.861C206.049 206.823 206.114 206.787 206.182 206.749C207.368 206.069 208.164 204.759 208.15 203.343C208.143 202.635 207.928 202.026 207.641 201.424C207.75 201.364 207.863 201.3 207.972 201.241C209.38 200.459 210.788 199.673 212.199 198.892C212.267 198.853 212.332 198.818 212.4 198.779C213.586 198.099 214.382 196.789 214.368 195.373C214.358 194.479 214.02 193.739 213.623 192.978C213.244 192.249 212.862 191.524 212.482 190.795C212.072 190.02 211.632 189.312 210.883 188.833ZM208.157 190.136C208.136 190.14 208.143 190.14 208.157 190.136ZM201.983 198.092C201.99 198.089 201.997 198.089 202.004 198.085C202.099 198.057 202.195 198.029 202.294 198.008C202.342 197.997 202.393 197.99 202.441 197.979C202.458 197.976 202.472 197.972 202.482 197.969C202.492 197.969 202.506 197.969 202.519 197.969C202.642 197.965 202.765 197.965 202.888 197.976C202.902 197.976 203.011 197.99 203.032 197.993C203.059 198 203.083 198.004 203.111 198.011C203.264 198.046 203.415 198.099 203.562 198.159C203.565 198.159 203.565 198.159 203.568 198.163C203.575 198.166 203.585 198.173 203.599 198.18C203.661 198.219 203.729 198.251 203.79 198.293C203.838 198.321 204.071 198.508 203.999 198.441C204.084 198.518 204.17 198.603 204.245 198.691C204.279 198.73 204.313 198.772 204.347 198.814C204.341 198.811 204.416 198.92 204.433 198.944C204.713 199.416 204.949 199.923 205.205 200.409C205.256 200.512 205.311 200.61 205.362 200.712C205.311 200.74 205.26 200.769 205.208 200.797C205.181 200.811 205.154 200.829 205.123 200.843C204.692 201.082 204.262 201.322 203.831 201.561C203.763 201.6 203.698 201.635 203.63 201.674C203.551 201.716 203.469 201.755 203.387 201.794C203.425 201.772 203.175 201.86 203.124 201.875C203.052 201.892 202.977 201.903 202.902 201.92C202.892 201.924 202.882 201.924 202.871 201.927C202.868 201.927 202.865 201.927 202.861 201.927C202.701 201.938 202.543 201.924 202.383 201.917C202.369 201.917 202.342 201.913 202.321 201.91C202.27 201.899 202.215 201.885 202.164 201.875C202.045 201.843 201.932 201.801 201.816 201.758C201.802 201.755 201.792 201.748 201.781 201.748C201.771 201.741 201.761 201.734 201.744 201.723C201.703 201.698 201.658 201.674 201.614 201.649C201.549 201.61 201.488 201.572 201.43 201.526C201.402 201.505 201.375 201.484 201.348 201.462C201.344 201.459 201.341 201.459 201.337 201.455C201.235 201.36 201.136 201.262 201.047 201.153C201.03 201.131 201.013 201.11 200.996 201.089C200.996 201.086 200.917 200.973 200.907 200.959C200.866 200.888 200.825 200.811 200.787 200.737C200.517 200.223 200.247 199.705 199.977 199.187C200.411 198.944 200.845 198.705 201.279 198.462C201.402 198.391 201.525 198.325 201.652 198.254C201.669 198.244 201.689 198.233 201.706 198.222C201.805 198.177 201.894 198.131 201.983 198.092ZM201.939 198.106C201.918 198.113 201.925 198.11 201.939 198.106ZM206.162 202.244C206.179 202.276 206.196 202.311 206.213 202.343C206.25 202.413 206.281 202.487 206.315 202.561C206.319 202.572 206.322 202.579 206.329 202.586C206.329 202.589 206.332 202.596 206.332 202.6C206.384 202.762 206.414 202.924 206.449 203.09C206.452 203.1 206.455 203.128 206.455 203.146C206.459 203.206 206.462 203.262 206.462 203.322C206.462 203.424 206.455 203.526 206.445 203.628C206.442 203.632 206.425 203.759 206.421 203.776C206.411 203.826 206.397 203.875 206.384 203.921C206.363 203.995 206.339 204.065 206.315 204.136C206.305 204.164 206.295 204.192 206.281 204.22C206.278 204.227 206.274 204.234 206.271 204.241C206.206 204.364 206.141 204.484 206.066 204.6C206.052 204.622 206.035 204.643 206.021 204.664C206.011 204.674 205.936 204.766 205.922 204.78C205.837 204.875 205.741 204.96 205.646 205.044C205.632 205.055 205.622 205.065 205.615 205.072C205.605 205.079 205.594 205.083 205.581 205.093C205.512 205.136 205.447 205.178 205.379 205.217C203.223 206.418 201.064 207.615 198.908 208.816C198.478 209.056 198.047 209.295 197.617 209.535C197.548 209.573 197.483 209.608 197.415 209.647C197.336 209.689 197.254 209.728 197.172 209.767C197.21 209.746 196.961 209.834 196.909 209.848C196.838 209.866 196.762 209.876 196.687 209.89C196.677 209.894 196.667 209.894 196.657 209.897C196.653 209.897 196.65 209.897 196.646 209.897C196.486 209.908 196.329 209.894 196.168 209.887C196.154 209.887 196.127 209.883 196.106 209.88C196.055 209.869 196.001 209.855 195.949 209.844C195.83 209.813 195.717 209.77 195.601 209.728C195.587 209.725 195.577 209.721 195.567 209.718C195.556 209.711 195.546 209.704 195.529 209.693C195.488 209.668 195.444 209.644 195.399 209.619C195.334 209.58 195.273 209.542 195.215 209.496C195.187 209.475 195.16 209.454 195.133 209.432C195.129 209.429 195.126 209.429 195.122 209.425C195.02 209.33 194.921 209.232 194.832 209.122C194.815 209.101 194.798 209.08 194.781 209.059C194.781 209.056 194.702 208.943 194.692 208.929C194.651 208.858 194.61 208.781 194.572 208.707C194.258 208.108 193.944 207.506 193.629 206.904C193.377 206.421 193.11 205.946 192.874 205.456C192.85 205.407 192.83 205.358 192.809 205.312C192.803 205.298 192.796 205.284 192.792 205.273C192.789 205.263 192.786 205.248 192.782 205.234C192.748 205.108 192.714 204.984 192.69 204.858C192.686 204.84 192.669 204.699 192.669 204.706C192.666 204.667 192.666 204.629 192.666 204.59C192.666 204.526 192.666 204.463 192.669 204.4C192.669 204.375 192.69 204.195 192.69 204.185C192.71 204.083 192.734 203.981 192.765 203.878C192.782 203.819 192.806 203.759 192.827 203.702C192.833 203.685 192.847 203.657 192.857 203.632C192.909 203.53 192.96 203.431 193.021 203.336C193.049 203.29 193.079 203.245 193.114 203.202C193.107 203.216 193.213 203.086 193.233 203.065C193.319 202.973 193.414 202.889 193.51 202.808C193.523 202.797 193.541 202.787 193.547 202.78C193.616 202.737 193.681 202.695 193.749 202.656C193.766 202.646 193.78 202.639 193.797 202.628C193.916 202.561 194.033 202.498 194.152 202.431C194.654 202.153 195.153 201.875 195.655 201.596C196.602 201.068 197.552 200.543 198.498 200.015C198.505 200.026 198.508 200.036 198.515 200.047L198.508 200.05L198.56 200.149H198.566C198.648 200.304 198.727 200.459 198.809 200.614C199.13 201.23 199.424 201.892 199.878 202.417C200.77 203.438 202.202 203.885 203.497 203.572C203.995 203.452 204.433 203.206 204.877 202.959C205.253 202.751 205.629 202.544 206.001 202.332C206.059 202.301 206.11 202.272 206.162 202.244ZM211.42 192.436C211.741 193.049 212.062 193.658 212.38 194.271C212.397 194.303 212.414 194.338 212.431 194.369C212.469 194.44 212.499 194.514 212.534 194.588C212.537 194.598 212.54 194.605 212.547 194.612C212.547 194.616 212.551 194.623 212.551 194.627C212.602 194.789 212.633 194.951 212.667 195.116C212.67 195.127 212.674 195.155 212.674 195.172C212.677 195.232 212.68 195.289 212.68 195.349C212.68 195.451 212.674 195.553 212.663 195.655C212.66 195.658 212.643 195.785 212.639 195.803C212.629 195.852 212.616 195.901 212.602 195.947C212.581 196.021 212.561 196.092 212.534 196.162C212.523 196.19 212.513 196.218 212.499 196.247C212.496 196.254 212.493 196.261 212.489 196.268C212.424 196.391 212.359 196.511 212.284 196.627C212.27 196.648 212.253 196.669 212.24 196.69C212.229 196.701 212.154 196.793 212.141 196.807C212.055 196.902 211.96 196.986 211.864 197.071C211.85 197.081 211.84 197.092 211.833 197.099C211.823 197.102 211.813 197.109 211.799 197.12C211.731 197.162 211.666 197.205 211.597 197.243C210.121 198.064 208.645 198.884 207.169 199.705C207.06 199.765 206.954 199.825 206.845 199.885C206.65 199.511 206.455 199.138 206.261 198.765C205.857 197.99 205.417 197.282 204.668 196.803C203.534 196.078 202.096 196.053 200.92 196.69C200.657 196.831 200.398 196.983 200.135 197.127C199.82 197.303 199.503 197.479 199.188 197.652C199.161 197.595 199.13 197.539 199.103 197.479C199.079 197.43 199.058 197.381 199.038 197.335C199.031 197.321 199.024 197.307 199.021 197.296C199.017 197.286 199.014 197.271 199.011 197.257C198.976 197.131 198.942 197.007 198.918 196.881C198.915 196.863 198.898 196.722 198.898 196.729C198.894 196.69 198.894 196.652 198.894 196.613C198.894 196.549 198.894 196.486 198.898 196.423C198.898 196.398 198.918 196.218 198.918 196.208C198.939 196.106 198.963 196.004 198.993 195.901C199.011 195.842 199.035 195.782 199.055 195.725C199.062 195.708 199.076 195.68 199.086 195.655C199.137 195.553 199.188 195.454 199.25 195.359C199.277 195.313 199.308 195.268 199.342 195.225C199.335 195.239 199.441 195.109 199.462 195.088C199.547 194.996 199.643 194.912 199.738 194.831C199.752 194.82 199.769 194.81 199.776 194.803C199.844 194.76 199.909 194.718 199.977 194.679C199.995 194.669 200.008 194.662 200.025 194.651C200.145 194.584 200.261 194.521 200.381 194.454C200.883 194.176 201.382 193.898 201.884 193.619C203.254 192.859 204.624 192.094 205.994 191.334C206.5 191.052 207.009 190.77 207.515 190.488C207.638 190.418 207.761 190.351 207.884 190.281C207.901 190.27 207.921 190.26 207.938 190.249C208.027 190.203 208.112 190.157 208.205 190.119C208.212 190.115 208.218 190.115 208.225 190.112C208.321 190.083 208.417 190.055 208.516 190.034C208.563 190.024 208.615 190.016 208.663 190.006C208.68 190.002 208.693 189.999 208.704 189.995C208.714 189.995 208.727 189.995 208.741 189.995C208.864 189.992 208.987 189.992 209.11 189.999C209.124 189.999 209.233 190.013 209.254 190.016C209.281 190.024 209.305 190.027 209.332 190.034C209.486 190.073 209.636 190.122 209.783 190.182C209.787 190.182 209.787 190.182 209.79 190.186C209.797 190.193 209.807 190.196 209.821 190.203C209.882 190.242 209.951 190.277 210.012 190.316C210.06 190.344 210.292 190.531 210.221 190.464C210.306 190.541 210.391 190.626 210.466 190.714C210.501 190.753 210.535 190.795 210.569 190.837C210.562 190.834 210.637 190.943 210.654 190.967C210.928 191.443 211.163 191.95 211.42 192.436Z" fill="white"/>
<path d="M200.084 70.8362C199.38 69.8888 198.419 69.1991 197.297 68.8439C196.541 68.6035 195.778 68.6035 195.04 68.6035H192.894C191.898 68.6035 191.02 68.7916 190.212 69.1817C189.185 69.6763 188.29 70.5715 187.76 71.6339C187.377 72.4037 187.182 73.2501 187.182 74.1453V85.4935H188.889V74.0861C188.889 73.6402 188.937 73.3372 189.084 72.8809C189.195 72.5256 189.474 72.017 189.714 71.7245C190.035 71.3309 190.334 71.0766 190.78 70.8119C191.188 70.5715 191.592 70.4322 192.131 70.3416C192.156 70.3381 192.226 70.3277 192.41 70.3172C192.487 70.3138 192.57 70.3103 192.671 70.3103H195.677C196.134 70.3103 196.44 70.359 196.896 70.5053C197.252 70.6168 197.76 70.8955 198.053 71.1358C198.447 71.4562 198.701 71.7558 198.966 72.2016C199.206 72.6092 199.345 73.0132 199.436 73.5531C199.439 73.5775 199.45 73.6507 199.46 73.8318C199.464 73.9084 199.467 73.9885 199.467 74.0895V85.497H201.174V74.0861C201.17 72.9157 200.794 71.7906 200.084 70.8362Z" fill="white"/>
<path d="M185.231 81.2266V93.5988C185.231 95.2708 186.586 96.6292 188.262 96.6292H199.652C201.324 96.6292 202.682 95.2742 202.682 93.5988V81.2266H185.231ZM194.539 89.1543V92.1324C194.539 92.3553 194.281 92.533 193.964 92.533H193.953C193.636 92.533 193.379 92.3553 193.379 92.1324V89.1543C192.393 88.8965 191.668 88.0014 191.668 86.9355C191.668 85.6676 192.696 84.6436 193.96 84.6436C195.225 84.6436 196.252 85.6711 196.252 86.9355C196.249 88.0014 195.521 88.8965 194.539 89.1543Z" fill="white"/>
<path d="M1.46735 76.4911C0.658084 79.2577 2.38151 82.2042 5.28207 83.0526C8.18263 83.901 11.2222 82.3478 12.0315 79.5811C12.8408 76.8145 11.1173 73.868 8.21677 73.0196C5.32511 72.1408 2.28551 73.694 1.46735 76.4911ZM10.1996 79.0453C9.68377 80.8087 7.70865 81.7821 5.81565 81.2284C3.92266 80.6747 2.78349 78.7903 3.29928 77.0269C3.81508 75.2635 5.79019 74.2901 7.68319 74.8438C9.58508 75.3671 10.7154 77.2819 10.1996 79.0453Z" fill="white"/>
<g clip-path="url(#clip0_432_122)">
<path d="M605.052 164.157C619.381 165.466 632.058 154.91 633.367 140.581C634.675 126.251 624.12 113.574 609.79 112.266C595.461 110.958 582.784 121.513 581.475 135.843C580.167 150.172 590.723 162.849 605.052 164.157Z" fill="#F8F9FA"/>
<path d="M610.078 109.117C604.323 108.592 598.542 109.784 593.466 112.544C588.389 115.305 584.245 119.508 581.558 124.623C578.87 129.739 577.76 135.536 578.367 141.282C578.974 147.029 581.272 152.466 584.969 156.906C588.667 161.347 593.598 164.591 599.139 166.229C604.681 167.867 610.583 167.825 616.101 166.108C621.618 164.392 626.503 161.077 630.136 156.585C633.77 152.092 635.99 146.623 636.516 140.868C636.875 137.06 636.48 133.218 635.354 129.562C634.228 125.905 632.393 122.507 629.954 119.56C627.515 116.613 624.519 114.175 621.137 112.386C617.756 110.597 614.055 109.491 610.247 109.132L610.078 109.117ZM607.824 139.243L603.862 149.181L620.065 150.661C620.173 150.667 620.278 150.694 620.375 150.741C620.472 150.788 620.559 150.853 620.631 150.934C620.703 151.014 620.758 151.108 620.794 151.21C620.829 151.311 620.845 151.419 620.838 151.527L620.814 151.795L618.961 156.527C618.878 156.751 618.721 156.94 618.516 157.064C618.311 157.187 618.071 157.237 617.834 157.205L593.036 154.941L598.486 141.161L593.707 142.145L595.06 139.001L599.838 138.017L607.499 118.684C607.584 118.462 607.742 118.274 607.946 118.151C608.15 118.028 608.39 117.977 608.627 118.006L614.896 118.578C615.004 118.584 615.11 118.612 615.207 118.658C615.304 118.705 615.391 118.771 615.463 118.851C615.535 118.932 615.59 119.026 615.625 119.127C615.661 119.229 615.676 119.337 615.67 119.445L615.645 119.712L609.183 136.029L613.961 135.044L612.666 138.336L607.824 139.243Z" fill="#22A6FF"/>
</g>
<path d="M548.307 203.085C548.773 199.975 546.404 198.303 543.166 197.188L544.217 192.975L541.652 192.336L540.629 196.438C539.955 196.27 539.263 196.111 538.575 195.954L539.605 191.825L537.041 191.186L535.99 195.397C535.432 195.27 534.884 195.145 534.352 195.013L534.355 194.999L530.818 194.116L530.136 196.855C530.136 196.855 532.039 197.291 531.999 197.318C533.038 197.578 533.225 198.265 533.194 198.81L531.997 203.609C532.069 203.627 532.162 203.654 532.264 203.695C532.179 203.673 532.087 203.65 531.993 203.627L530.316 210.351C530.189 210.666 529.867 211.139 529.141 210.96C529.166 210.997 527.276 210.495 527.276 210.495L526.003 213.43L529.341 214.262C529.962 214.417 530.57 214.58 531.169 214.734L530.108 218.995L532.669 219.634L533.721 215.418C534.42 215.608 535.1 215.783 535.764 215.948L534.717 220.144L537.282 220.783L538.343 216.53C542.716 217.358 546.005 217.024 547.389 213.069C548.505 209.885 547.334 208.048 545.033 206.85C546.708 206.464 547.971 205.361 548.307 203.085ZM542.448 211.301C541.655 214.485 536.293 212.764 534.554 212.332L535.962 206.687C537.701 207.121 543.276 207.98 542.448 211.301ZM543.241 203.039C542.518 205.935 538.054 204.464 536.607 204.103L537.884 198.983C539.331 199.344 543.994 200.017 543.241 203.039Z" fill="#F8F9FA"/>
<path d="M513.193 63.0105L509.992 62.5576L509.099 68.869L514.135 69.5814L513.762 72.2239L508.725 71.5115L507.832 77.8224L511.191 78.2974C512.053 78.4194 518.26 79.3969 519.303 71.9554C520.346 64.5139 514.39 63.1798 513.193 63.0105Z" fill="#22A6FF"/>
<path d="M514.744 48.1694C502.37 46.419 490.92 55.0311 489.169 67.4053C487.419 79.7795 496.031 91.2296 508.405 92.98C520.779 94.7304 532.229 86.1183 533.98 73.7441C535.73 61.3698 527.118 49.9198 514.744 48.1694ZM510.743 82.8003L502.629 81.6525L504.155 70.8653L501.295 70.4607L501.668 67.8182L504.529 68.2228L506.055 57.4348L513.019 58.4199C514.666 58.653 525.626 59.8544 523.837 72.5078C522.017 85.3705 510.743 82.8003 510.743 82.8003L510.743 82.8003Z" fill="#22A6FF"/>
<defs>
<clipPath id="clip0_432_122">
<rect width="58.4315" height="58.4315" fill="white" transform="translate(580.983 106.46) rotate(5.21713)"/>
</clipPath>
</defs>
</svg>
