<svg width="650" height="387" viewBox="0 0 650 387" fill="none" xmlns="http://www.w3.org/2000/svg">
<path d="M561.705 151.783C558.002 151.783 554.991 154.971 554.991 158.854C554.991 162.737 558.002 165.926 561.705 165.926C565.408 165.926 568.419 162.737 568.419 158.854C568.419 154.93 565.408 151.783 561.705 151.783ZM561.705 163.432C559.345 163.432 557.433 161.348 557.433 158.813C557.433 156.279 559.345 154.194 561.705 154.194C564.065 154.194 565.977 156.279 565.977 158.813C565.977 161.388 564.065 163.432 561.705 163.432Z" fill="#22A6FF"/>
<path d="M604.876 151.783C601.174 151.783 598.163 154.971 598.163 158.854C598.163 162.737 601.174 165.926 604.876 165.926C608.579 165.926 611.59 162.737 611.59 158.854C611.631 154.93 608.62 151.783 604.876 151.783ZM604.876 163.432C602.516 163.432 600.604 161.348 600.604 158.813C600.604 156.279 602.516 154.194 604.876 154.194C607.236 154.194 609.149 156.279 609.149 158.813C609.189 161.388 607.277 163.432 604.876 163.432Z" fill="#22A6FF"/>
<path d="M601.255 157.587H565.896V160.04H601.255V157.587Z" fill="#22A6FF"/>
<path d="M498.218 279.233H397.979V374.242H348.753" stroke="white" stroke-width="2" stroke-miterlimit="10"/>
<path d="M426.955 111.395V244.228H328.79" stroke="white" stroke-width="2" stroke-miterlimit="10"/>
<path d="M86.1152 323.448V359.044H225.301" stroke="white" stroke-width="2" stroke-miterlimit="10"/>
<path d="M14.0112 131.641H113.85V229.405" stroke="white" stroke-width="2" stroke-miterlimit="10"/>
<path d="M107.5 229.405H216.946" stroke="white" stroke-width="2" stroke-miterlimit="10"/>
<path d="M573.688 311.676H649V208.556H580.344" stroke="white" stroke-width="2" stroke-miterlimit="10"/>
<path d="M531.379 197.07V171.479H521.841V197.07H517.915L522.262 203.387L526.61 209.715L530.946 203.387L535.294 197.07H531.379Z" fill="white"/>
<path d="M321.46 307.044H286.094V326.807H321.46V307.044Z" fill="#253141"/>
<path d="M334.912 330.167C334.052 326.325 330.614 323.448 326.512 323.448H279.789C275.672 323.448 272.249 326.325 271.389 330.167H334.912Z" fill="#253141"/>
<path d="M415.311 309.574C415.311 312.346 413.034 314.621 410.259 314.621H196.043C193.268 314.621 190.991 312.346 190.991 309.574V179.227C190.991 176.456 193.268 174.181 196.043 174.181H410.259C413.034 174.181 415.311 176.456 415.311 179.227V309.574Z" fill="#22A6FF"/>
<path d="M406.896 182.586H199.407V306.2H406.896V182.586Z" fill="#141D27"/>
<path d="M567.104 329.055H468.093V229.412H567.104C575.775 229.412 582.799 236.462 582.799 245.152V313.3C582.799 322.005 575.775 329.055 567.104 329.055Z" fill="white"/>
<path d="M570.116 289.661H585.116V267.647H570.116C568.807 267.647 567.736 269.206 567.736 271.12V286.179C567.736 288.102 568.796 289.661 570.116 289.661Z" fill="#22A6FF"/>
<path d="M576.426 281.551C578.026 281.551 579.323 280.254 579.323 278.654C579.323 277.054 578.026 275.758 576.426 275.758C574.826 275.758 573.529 277.054 573.529 278.654C573.529 280.254 574.826 281.551 576.426 281.551Z" fill="white"/>
<path d="M8.55114 139.881C13.2738 139.881 17.1023 136.057 17.1023 131.34C17.1023 126.622 13.2738 122.798 8.55114 122.798C3.82848 122.798 0 126.622 0 131.34C0 136.057 3.82848 139.881 8.55114 139.881Z" fill="white"/>
<path d="M86.1146 331.99C90.8373 331.99 94.6658 328.166 94.6658 323.448C94.6658 318.731 90.8373 314.907 86.1146 314.907C81.3919 314.907 77.5635 318.731 77.5635 323.448C77.5635 328.166 81.3919 331.99 86.1146 331.99Z" fill="white"/>
<path d="M113.849 241.471C121.004 241.471 126.804 235.678 126.804 228.531C126.804 221.385 121.004 215.591 113.849 215.591C106.695 215.591 100.895 221.385 100.895 228.531C100.895 235.678 106.695 241.471 113.849 241.471Z" fill="white"/>
<path d="M426.954 124.335C434.109 124.335 439.909 118.541 439.909 111.395C439.909 104.248 434.109 98.4551 426.954 98.4551C419.799 98.4551 413.999 104.248 413.999 111.395C413.999 118.541 419.799 124.335 426.954 124.335Z" fill="white"/>
<path d="M576.426 217.825C581.225 217.825 585.116 213.935 585.116 209.135C585.116 204.336 581.225 200.446 576.426 200.446C571.627 200.446 567.736 204.336 567.736 209.135C567.736 213.935 571.627 217.825 576.426 217.825Z" fill="white"/>
<path d="M403.729 158.951C403.231 158.951 402.718 159.012 402.251 159.177C402.07 153.965 397.787 149.778 392.523 149.778C388.255 149.778 384.636 152.504 383.309 156.3C381.981 155.411 380.383 154.884 378.663 154.884C374.094 154.884 370.384 158.59 370.384 163.154C370.384 163.501 370.399 163.862 370.474 164.194H383.957H386.883H398.465H401.074H408.992C408.977 161.301 406.624 158.951 403.729 158.951Z" fill="white"/>
<path d="M239.04 245.674H374.742" stroke="white" stroke-width="2" stroke-miterlimit="10"/>
<path d="M226.387 230.686H247.018V222.611H273.139" stroke="white" stroke-width="2" stroke-miterlimit="10"/>
<path d="M260.788 205.725H274.828L280.861 212.036" stroke="white" stroke-width="2" stroke-miterlimit="10"/>
<path d="M264.904 259.954L243.157 259.864L235.239 253.658H219.117" stroke="white" stroke-width="2" stroke-miterlimit="10"/>
<path d="M235.239 274.115H276.08" stroke="white" stroke-width="2" stroke-miterlimit="10"/>
<path d="M382.585 230.686H361.938V222.611H335.833" stroke="white" stroke-width="2" stroke-miterlimit="10"/>
<path d="M353.357 212.172H339.301L333.269 218.484" stroke="white" stroke-width="2" stroke-miterlimit="10"/>
<path d="M298.31 263.992L310.902 267.592H352.361L359.585 260.376H367.443" stroke="white" stroke-width="2" stroke-miterlimit="10"/>
<path d="M373.716 274.115H319.257" stroke="white" stroke-width="2" stroke-miterlimit="10"/>
<path d="M339.301 194.818C335.757 196.28 334.565 197.47 333.102 201.01C331.639 197.47 330.448 196.28 326.904 194.818C330.448 193.357 331.639 192.167 333.102 188.627C334.58 192.167 335.757 193.357 339.301 194.818Z" fill="white"/>
<path d="M251.181 222.973C251.181 225.006 249.537 226.648 247.501 226.648C245.465 226.648 243.821 225.006 243.821 222.973C243.821 220.939 245.465 219.297 247.501 219.297C249.537 219.282 251.181 220.939 251.181 222.973Z" fill="#4A4A4A" stroke="white" stroke-miterlimit="10"/>
<path d="M264.467 205.724C264.467 207.758 262.823 209.4 260.787 209.4C258.751 209.4 257.107 207.758 257.107 205.724C257.107 203.691 258.751 202.049 260.787 202.049C262.823 202.049 264.467 203.691 264.467 205.724Z" fill="#4A4A4A" stroke="white" stroke-miterlimit="10"/>
<path d="M243.444 245.508C243.444 247.542 241.8 249.184 239.764 249.184C237.728 249.184 236.084 247.542 236.084 245.508C236.084 243.474 237.728 241.832 239.764 241.832C241.8 241.817 243.444 243.474 243.444 245.508Z" fill="#4A4A4A" stroke="white" stroke-miterlimit="10"/>
<path d="M222.812 253.658C222.812 255.691 221.168 257.333 219.132 257.333C217.097 257.333 215.453 255.691 215.453 253.658C215.453 251.624 217.097 249.982 219.132 249.982C221.153 249.967 222.812 251.624 222.812 253.658Z" fill="#4A4A4A" stroke="white" stroke-miterlimit="10"/>
<path d="M228.272 230.686C228.272 232.719 226.628 234.361 224.592 234.361C222.556 234.361 220.912 232.719 220.912 230.686C220.912 228.652 222.556 227.01 224.592 227.01C226.613 227.01 228.272 228.652 228.272 230.686Z" fill="#4A4A4A" stroke="white" stroke-miterlimit="10"/>
<path d="M238.919 274.114C238.919 276.148 237.275 277.79 235.239 277.79C233.203 277.79 231.56 276.148 231.56 274.114C231.56 272.081 233.203 270.439 235.239 270.439C237.275 270.439 238.919 272.081 238.919 274.114Z" fill="#4A4A4A" stroke="white" stroke-miterlimit="10"/>
<path d="M371.138 260.376C371.138 262.41 369.494 264.052 367.458 264.052C365.422 264.052 363.778 262.41 363.778 260.376C363.778 258.342 365.422 256.7 367.458 256.7C369.479 256.7 371.138 258.342 371.138 260.376Z" fill="#4A4A4A" stroke="white" stroke-miterlimit="10"/>
<path d="M377.411 245.674C377.411 247.708 375.768 249.35 373.732 249.35C371.696 249.35 370.052 247.708 370.052 245.674C370.052 243.64 371.696 241.999 373.732 241.999C375.768 241.999 377.411 243.64 377.411 245.674Z" fill="#4A4A4A" stroke="white" stroke-miterlimit="10"/>
<path d="M386.264 230.686C386.264 232.719 384.621 234.361 382.585 234.361C380.549 234.361 378.905 232.719 378.905 230.686C378.905 228.652 380.549 227.01 382.585 227.01C384.621 227.01 386.264 228.652 386.264 230.686Z" fill="#4A4A4A" stroke="white" stroke-miterlimit="10"/>
<path d="M356.976 212.037C356.976 214.07 355.333 215.712 353.297 215.712C351.261 215.712 349.617 214.07 349.617 212.037C349.617 210.003 351.261 208.361 353.297 208.361C355.333 208.361 356.976 210.003 356.976 212.037Z" fill="#4A4A4A" stroke="white" stroke-miterlimit="10"/>
<path d="M377.08 273.301C377.08 275.335 375.436 276.976 373.4 276.976C371.364 276.976 369.72 275.335 369.72 273.301C369.72 271.267 371.364 269.625 373.4 269.625C375.421 269.61 377.08 271.267 377.08 273.301Z" fill="#4A4A4A" stroke="white" stroke-miterlimit="10"/>
<path d="M303.15 285.789C325.331 285.789 343.312 267.829 343.312 245.674C343.312 223.519 325.331 205.559 303.15 205.559C280.97 205.559 262.989 223.519 262.989 245.674C262.989 267.829 280.97 285.789 303.15 285.789Z" fill="white"/>
<path d="M223.793 359.044V309.861" stroke="white" stroke-width="2" stroke-miterlimit="10"/>
<path d="M324.145 234.983C324.005 234.789 323.819 234.63 323.603 234.52C323.387 234.41 323.147 234.353 322.903 234.353H290.467L288.011 226.073C287.048 222.812 284.76 222.46 283.822 222.46H277.275C276.436 222.46 275.757 223.124 275.757 223.944C275.757 224.764 276.437 225.428 277.275 225.428H283.821C284.028 225.428 284.66 225.428 285.091 226.885L293.538 257.242C293.721 257.882 294.318 258.325 294.999 258.325H315.63C316.271 258.325 316.842 257.932 317.059 257.343L324.331 236.339C324.498 235.884 324.428 235.377 324.145 234.983ZM314.562 255.357H296.151L291.32 237.322H320.745L314.562 255.357ZM311.552 261.333C309.442 261.333 307.731 263.005 307.731 265.069C307.731 267.133 309.442 268.806 311.552 268.806C313.663 268.806 315.373 267.133 315.373 265.069C315.373 263.005 313.663 261.333 311.552 261.333ZM297.797 261.333C295.686 261.333 293.976 263.005 293.976 265.069C293.976 267.133 295.686 268.806 297.797 268.806C299.908 268.806 301.618 267.133 301.618 265.069C301.618 263.005 299.908 261.333 297.797 261.333Z" fill="#22A6FF"/>
<path d="M560.657 265.884C560.3 265.908 559.942 265.855 559.609 265.729C559.541 265.699 559.469 265.68 559.396 265.673C559.204 265.673 559.009 265.673 558.818 265.673H558.339C558.19 263.725 557.396 261.877 556.078 260.407L556.22 260.269L556.78 259.723C556.944 259.562 557.005 259.356 557.132 259.169C557.316 258.882 557.564 258.639 557.856 258.456C558.123 258.29 558.399 258.135 558.65 257.945C558.886 257.791 559.071 257.574 559.183 257.32C559.275 257.043 559.144 256.792 558.948 256.594C558.86 256.497 558.75 256.421 558.627 256.373C558.504 256.325 558.371 256.306 558.238 256.317C557.994 256.36 557.772 256.482 557.608 256.663C557.231 257.036 557.032 257.532 556.693 257.93C556.457 258.191 556.167 258.399 555.841 258.541C555.772 258.566 555.708 258.603 555.652 258.649C555.51 258.787 555.368 258.926 555.226 259.073L554.936 259.333C554.012 258.599 552.951 258.046 551.811 257.705C551.104 257.47 550.372 257.316 549.628 257.248V256.159C549.631 256.127 549.631 256.096 549.628 256.064C549.614 255.997 549.571 255.926 549.55 255.859C549.495 255.682 549.457 255.499 549.436 255.315C549.36 254.708 549.614 254.155 549.676 253.558C549.701 253.319 549.709 253.048 549.574 252.836C549.439 252.624 549.159 252.553 548.901 252.543H548.868C548.598 252.531 548.333 252.62 548.127 252.791C547.988 252.947 547.914 253.148 547.921 253.354C547.904 253.867 548.103 254.356 548.179 254.858C548.219 255.206 548.18 255.558 548.064 255.89C548.026 255.979 547.995 256.072 547.974 256.167C547.962 256.347 547.962 256.527 547.974 256.706V257.255C546.053 257.434 544.232 258.174 542.748 259.378L542.568 259.195L542.037 258.682C542.013 258.655 541.987 258.629 541.958 258.606C541.903 258.577 541.846 258.552 541.787 258.531C541.61 258.444 541.442 258.342 541.285 258.225C540.761 257.831 540.538 257.224 540.115 256.745C539.961 256.538 539.732 256.397 539.474 256.35C539.324 256.342 539.173 256.366 539.033 256.421C538.893 256.475 538.767 256.559 538.663 256.666C537.734 257.601 539.537 258.211 540.068 258.71C540.324 258.968 540.532 259.266 540.686 259.593C540.702 259.627 540.725 259.658 540.753 259.684C540.903 259.836 541.059 259.983 541.213 260.134L541.582 260.493C541.545 260.536 541.505 260.576 541.468 260.619C540.269 262.054 539.552 263.814 539.416 265.661H538.379C538.312 265.657 538.245 265.665 538.18 265.684C537.931 265.774 537.673 265.835 537.409 265.866C536.813 265.923 536.242 265.658 535.651 265.615C535.379 265.582 535.104 265.631 534.861 265.754C534.745 265.826 534.651 265.927 534.589 266.046C534.527 266.165 534.499 266.299 534.507 266.433C534.526 267.716 536.203 267.044 536.952 266.955C537.298 266.929 537.645 266.977 537.97 267.094C538.046 267.127 538.125 267.151 538.207 267.164C538.399 267.18 538.599 267.164 538.791 267.164H539.189C543.045 266.774 546.484 267.015 547.971 268.671C549.175 270.015 548.299 272.836 547.097 275.358C547.381 275.407 547.678 275.446 547.971 275.469V276.655C547.968 276.688 547.968 276.722 547.971 276.755C547.989 276.815 548.012 276.873 548.039 276.93C548.095 277.098 548.137 277.271 548.162 277.447C548.205 277.755 548.186 278.069 548.107 278.371C548.032 278.657 547.973 278.948 547.932 279.241C547.905 279.486 547.897 279.765 548.035 279.984C548.172 280.203 548.469 280.28 548.745 280.285C549.015 280.298 549.281 280.208 549.485 280.034C549.623 279.876 549.696 279.674 549.689 279.467C549.705 278.954 549.507 278.466 549.431 277.965C549.393 277.617 549.432 277.265 549.547 276.934C549.585 276.844 549.615 276.751 549.637 276.657C549.647 276.477 549.647 276.297 549.637 276.118V275.458C550.361 275.394 551.076 275.251 551.767 275.03C552.892 274.699 553.943 274.163 554.862 273.449L555.028 273.612L555.572 274.142C555.597 274.171 555.624 274.198 555.655 274.222C555.699 274.25 555.747 274.273 555.797 274.291C555.957 274.363 556.11 274.45 556.254 274.549C556.529 274.747 556.76 274.996 556.934 275.282C557.096 275.551 557.276 275.809 557.473 276.055C557.632 276.27 557.863 276.424 558.126 276.489C558.275 276.504 558.425 276.485 558.565 276.433C558.704 276.381 558.829 276.298 558.93 276.19C559.886 275.227 558.113 274.628 557.555 274.111C557.29 273.863 557.078 273.566 556.93 273.238C556.914 273.196 556.89 273.158 556.859 273.126C556.717 272.973 556.558 272.832 556.409 272.685L556.051 272.337C557.365 270.888 558.166 269.065 558.335 267.137H559.225C559.293 267.14 559.361 267.132 559.426 267.112C559.69 267.015 559.966 266.952 560.247 266.926C560.835 266.886 561.4 267.155 561.986 267.185C562.256 267.212 562.527 267.16 562.766 267.035C563.016 266.889 563.097 266.636 563.101 266.362C563.072 265.116 561.367 265.808 560.657 265.884ZM545.552 265.658H542.569C542.692 264.562 543.104 263.516 543.765 262.622L545.318 264.136L545.94 264.745C545.765 265.029 545.634 265.337 545.552 265.658V265.658ZM547.966 262.431V263.248C547.656 263.326 547.359 263.449 547.086 263.613C546.348 262.892 545.611 262.172 544.873 261.454C545.251 261.145 545.664 260.879 546.103 260.66C546.692 260.386 547.32 260.202 547.966 260.114V262.431ZM553.855 262.569C554.521 263.422 554.96 264.421 555.133 265.479C555.143 265.544 555.15 265.608 555.159 265.672H552.071C551.993 265.329 551.857 265.002 551.671 264.702L553.855 262.569ZM549.631 260.109C550.78 260.267 551.861 260.732 552.756 261.452L551.076 263.096L550.541 263.615C550.258 263.452 549.951 263.33 549.631 263.252V260.109ZM549.631 272.602V269.462C549.915 269.391 550.187 269.283 550.441 269.14L552.69 271.334C551.834 271.986 550.823 272.415 549.75 272.581L549.631 272.602ZM552.277 268.671L551.617 268.028C551.794 267.753 551.931 267.455 552.021 267.142H555.162C555.013 268.259 554.559 269.316 553.847 270.202L552.277 268.671Z" fill="#22A6FF"/>
<path d="M505.936 271.473C505.936 271.324 505.794 271.187 505.518 271.058C505.243 270.929 504.815 270.872 504.24 270.872C503.924 270.864 503.608 270.891 503.298 270.952C503.11 270.988 502.932 271.06 502.774 271.166C502.667 271.239 502.587 271.344 502.547 271.465C502.513 271.573 502.497 271.686 502.497 271.799C502.5 271.919 502.532 272.036 502.59 272.142C502.648 272.248 502.73 272.339 502.831 272.407C503.102 272.61 503.4 272.777 503.716 272.904C504.082 273.06 504.499 273.215 504.967 273.371C505.435 273.526 505.914 273.699 506.406 273.892C506.898 274.083 507.378 274.302 507.843 274.548C508.296 274.786 508.717 275.078 509.095 275.419C509.462 275.754 509.762 276.152 509.981 276.594C510.212 277.078 510.326 277.608 510.315 278.142C510.315 278.895 510.166 279.526 509.869 280.036C509.572 280.546 509.144 280.972 508.626 281.269C508.043 281.599 507.404 281.826 506.74 281.939C505.948 282.077 505.145 282.144 504.341 282.137C503.834 282.137 503.329 282.099 502.828 282.025C502.344 281.953 501.866 281.844 501.399 281.698C500.963 281.563 500.541 281.387 500.139 281.174C499.774 280.984 499.435 280.748 499.131 280.474C498.858 280.227 498.631 279.935 498.462 279.612C498.3 279.298 498.216 278.952 498.218 278.6C498.212 278.355 498.257 278.112 498.35 277.884C498.428 277.693 498.548 277.521 498.701 277.38C498.845 277.249 499.015 277.149 499.201 277.086C499.389 277.021 499.587 276.988 499.787 276.989C500.042 276.99 500.294 277.037 500.531 277.127C500.779 277.218 501.006 277.354 501.2 277.529C501.418 277.724 501.59 277.963 501.706 278.228C501.821 278.494 501.877 278.78 501.869 279.069C501.877 279.166 501.92 279.257 501.99 279.327C502.088 279.431 502.206 279.518 502.337 279.58C502.517 279.67 502.708 279.737 502.905 279.781C503.16 279.838 503.42 279.865 503.682 279.861C504.008 279.868 504.335 279.843 504.656 279.785C504.854 279.751 505.043 279.681 505.214 279.579C505.327 279.51 505.414 279.407 505.461 279.286C505.499 279.183 505.519 279.073 505.52 278.963C505.52 278.825 505.417 278.711 505.214 278.609C504.955 278.486 504.687 278.382 504.412 278.298C504.082 278.194 503.702 278.082 503.275 277.964C502.849 277.847 502.415 277.705 501.974 277.54C501.528 277.374 501.094 277.179 500.673 276.957C500.257 276.738 499.874 276.462 499.537 276.138C499.203 275.814 498.932 275.434 498.736 275.017C498.522 274.546 498.418 274.036 498.429 273.522C498.423 273.009 498.495 272.498 498.644 272.006C498.773 271.581 498.974 271.181 499.239 270.821C499.494 270.48 499.805 270.183 500.159 269.942C500.529 269.692 500.931 269.489 501.354 269.338C501.813 269.174 502.289 269.058 502.774 268.992C503.295 268.917 503.821 268.881 504.348 268.882C505.188 268.866 506.026 268.962 506.839 269.169C507.436 269.319 508.002 269.569 508.512 269.906C508.898 270.166 509.215 270.511 509.438 270.912C509.623 271.243 509.723 271.612 509.731 271.989C509.739 272.276 509.668 272.56 509.525 272.811C509.391 273.038 509.208 273.233 508.988 273.383C508.76 273.537 508.505 273.65 508.235 273.714C507.957 273.784 507.671 273.819 507.383 273.82C507.112 273.82 506.842 273.79 506.578 273.731C506.334 273.676 506.101 273.584 505.887 273.458C505.696 273.348 505.53 273.201 505.4 273.026C505.275 272.854 505.211 272.647 505.217 272.437C505.207 272.306 505.246 272.177 505.328 272.074C505.401 271.999 505.485 271.934 505.576 271.882C505.662 271.833 505.744 271.779 505.824 271.722C505.862 271.693 505.893 271.655 505.913 271.612C505.933 271.568 505.94 271.521 505.936 271.473V271.473Z" fill="#22A6FF"/>
<path d="M521.795 276.061H518.074V278.52C518.065 278.713 518.1 278.906 518.178 279.084C518.236 279.204 518.322 279.31 518.431 279.391C518.527 279.458 518.636 279.505 518.752 279.53C518.868 279.557 518.975 279.587 519.07 279.618C519.159 279.649 519.242 279.696 519.314 279.757C519.35 279.794 519.378 279.837 519.395 279.885C519.412 279.933 519.418 279.984 519.414 280.034C519.414 280.707 519.058 281.192 518.347 281.489C517.636 281.787 516.607 281.936 515.262 281.938C514.683 281.943 514.104 281.906 513.531 281.829C513.09 281.775 512.66 281.661 512.252 281.491C511.942 281.364 511.671 281.16 511.467 280.899C511.285 280.647 511.19 280.344 511.198 280.036C511.194 279.985 511.2 279.934 511.217 279.886C511.234 279.839 511.262 279.795 511.298 279.758C511.369 279.7 511.452 279.656 511.541 279.63C511.637 279.6 511.742 279.573 511.855 279.545C511.968 279.519 512.074 279.472 512.168 279.406C512.273 279.33 512.357 279.229 512.413 279.113C512.488 278.937 512.522 278.748 512.512 278.558V272.474C512.522 272.284 512.488 272.094 512.413 271.919C512.358 271.802 512.274 271.699 512.168 271.621C512.074 271.556 511.967 271.509 511.855 271.483C511.742 271.456 511.637 271.429 511.541 271.398C511.451 271.373 511.368 271.329 511.298 271.269C511.262 271.233 511.234 271.189 511.217 271.141C511.2 271.094 511.194 271.043 511.198 270.992C511.19 270.685 511.284 270.384 511.467 270.134C511.672 269.875 511.943 269.672 512.252 269.545C512.66 269.375 513.09 269.261 513.531 269.207C514.104 269.13 514.683 269.093 515.262 269.098C515.859 269.093 516.456 269.129 517.047 269.207C517.495 269.261 517.933 269.374 518.348 269.545C518.661 269.671 518.935 269.874 519.142 270.134C519.325 270.384 519.419 270.685 519.411 270.992C519.416 271.043 519.409 271.094 519.392 271.141C519.375 271.189 519.347 271.233 519.311 271.269C519.24 271.329 519.157 271.373 519.067 271.398C518.972 271.429 518.865 271.456 518.749 271.483C518.635 271.509 518.527 271.556 518.431 271.621C518.326 271.7 518.242 271.802 518.188 271.919C518.113 272.094 518.079 272.284 518.088 272.474V274.505H521.795V272.474C521.805 272.284 521.771 272.094 521.696 271.919C521.642 271.802 521.558 271.699 521.453 271.621C521.357 271.556 521.249 271.509 521.135 271.483C521.018 271.456 520.913 271.429 520.817 271.398C520.727 271.373 520.644 271.329 520.572 271.269C520.537 271.233 520.509 271.189 520.492 271.141C520.475 271.093 520.469 271.043 520.473 270.992C520.473 270.327 520.828 269.843 521.535 269.545C522.243 269.248 523.273 269.098 524.622 269.098C525.947 269.098 526.964 269.247 527.671 269.545C528.381 269.843 528.728 270.327 528.728 270.992C528.733 271.043 528.726 271.094 528.708 271.142C528.691 271.19 528.663 271.233 528.626 271.269C528.55 271.329 528.463 271.373 528.369 271.398C528.268 271.429 528.156 271.456 528.035 271.483C527.915 271.509 527.802 271.556 527.7 271.621C527.59 271.698 527.502 271.8 527.444 271.919C527.366 272.094 527.33 272.283 527.34 272.474V278.52C527.33 278.713 527.366 278.906 527.444 279.084C527.502 279.205 527.589 279.311 527.7 279.391C527.801 279.458 527.915 279.505 528.035 279.53C528.156 279.557 528.268 279.587 528.369 279.618C528.462 279.649 528.549 279.696 528.626 279.757C528.663 279.793 528.691 279.837 528.708 279.885C528.726 279.932 528.733 279.983 528.728 280.034C528.736 280.343 528.642 280.645 528.46 280.897C528.255 281.159 527.983 281.363 527.671 281.489C527.26 281.66 526.826 281.774 526.382 281.827C525.798 281.905 525.21 281.942 524.622 281.937C524.025 281.942 523.428 281.905 522.836 281.827C522.389 281.774 521.951 281.66 521.535 281.489C521.222 281.364 520.948 281.16 520.742 280.897C520.559 280.645 520.465 280.343 520.473 280.034C520.469 279.984 520.475 279.933 520.492 279.885C520.509 279.837 520.537 279.794 520.572 279.757C520.644 279.696 520.727 279.649 520.817 279.618C520.913 279.587 521.018 279.557 521.135 279.53C521.249 279.505 521.358 279.458 521.453 279.391C521.558 279.311 521.642 279.207 521.696 279.088C521.772 278.908 521.806 278.714 521.795 278.52V276.061Z" fill="#22A6FF"/>
<path d="M540.245 272.474C540.374 272.407 540.481 272.304 540.551 272.179C540.589 272.102 540.612 272.019 540.617 271.934C540.615 271.885 540.601 271.837 540.576 271.795C540.551 271.752 540.517 271.716 540.475 271.688C540.384 271.615 540.282 271.54 540.168 271.462C540.059 271.387 539.957 271.301 539.863 271.208C539.818 271.165 539.782 271.113 539.758 271.057C539.733 271 539.721 270.939 539.721 270.878C539.71 270.57 539.801 270.267 539.981 270.014C540.159 269.777 540.395 269.587 540.667 269.46C540.973 269.319 541.299 269.222 541.634 269.173C541.999 269.116 542.368 269.088 542.738 269.089C543.157 269.087 543.576 269.119 543.989 269.186C544.347 269.239 544.696 269.339 545.026 269.484C545.302 269.602 545.545 269.781 545.736 270.007C545.914 270.225 546.008 270.496 546.002 270.774C546.01 270.938 545.955 271.099 545.848 271.226C545.732 271.348 545.592 271.445 545.435 271.511C545.242 271.596 545.041 271.664 544.836 271.713C544.609 271.77 544.375 271.835 544.134 271.91C543.884 271.989 543.639 272.085 543.403 272.197C543.153 272.315 542.923 272.468 542.721 272.653L540.988 274.238L544.442 278.534C544.587 278.723 544.758 278.892 544.951 279.034C545.101 279.14 545.26 279.232 545.427 279.311C545.56 279.375 545.698 279.43 545.838 279.476C545.954 279.51 546.065 279.557 546.169 279.615C546.262 279.667 546.338 279.744 546.388 279.837C546.448 279.964 546.475 280.103 546.468 280.243C546.468 280.84 546.13 281.273 545.455 281.541C544.78 281.809 543.805 281.941 542.532 281.939C541.957 281.943 541.382 281.906 540.813 281.826C540.368 281.768 539.933 281.649 539.521 281.474C539.201 281.344 538.921 281.136 538.707 280.87C538.515 280.615 538.415 280.304 538.423 279.988C538.419 279.929 538.43 279.871 538.455 279.817C538.479 279.764 538.517 279.717 538.565 279.681C538.664 279.612 538.77 279.552 538.882 279.504C538.997 279.453 539.103 279.4 539.2 279.347C539.245 279.324 539.282 279.289 539.307 279.246C539.332 279.203 539.344 279.154 539.342 279.105C539.338 279.024 539.314 278.945 539.271 278.875C539.205 278.764 539.132 278.658 539.052 278.556L537.632 276.744C537.579 276.675 537.512 276.618 537.434 276.577C537.357 276.537 537.275 276.506 537.19 276.484C537.101 276.463 537.009 276.451 536.917 276.448H536.633H536.469V278.527C536.459 278.719 536.492 278.91 536.567 279.088C536.621 279.209 536.706 279.315 536.814 279.396C536.911 279.462 537.02 279.509 537.136 279.534C537.253 279.562 537.359 279.591 537.458 279.623C537.55 279.653 537.634 279.701 537.707 279.762C537.743 279.798 537.77 279.842 537.787 279.89C537.804 279.938 537.81 279.989 537.805 280.039C537.805 280.711 537.45 281.196 536.74 281.494C536.03 281.791 535.002 281.941 533.658 281.941C533.079 281.946 532.5 281.91 531.926 281.832C531.486 281.779 531.056 281.665 530.648 281.494C530.338 281.367 530.067 281.163 529.863 280.902C529.68 280.65 529.586 280.347 529.594 280.039C529.59 279.988 529.596 279.938 529.613 279.89C529.63 279.842 529.658 279.798 529.694 279.762C529.766 279.703 529.849 279.66 529.938 279.633C530.034 279.604 530.138 279.576 530.252 279.548C530.365 279.523 530.471 279.475 530.566 279.41C530.671 279.333 530.754 279.232 530.81 279.116C530.884 278.94 530.917 278.751 530.908 278.562V272.474C530.917 272.285 530.884 272.095 530.81 271.92C530.755 271.802 530.671 271.7 530.566 271.622C530.471 271.557 530.364 271.51 530.252 271.483C530.138 271.457 530.034 271.429 529.938 271.399C529.848 271.373 529.765 271.329 529.694 271.27C529.658 271.233 529.63 271.189 529.613 271.142C529.596 271.094 529.59 271.043 529.594 270.993C529.586 270.686 529.68 270.385 529.863 270.135C530.068 269.876 530.339 269.673 530.648 269.546C531.056 269.375 531.486 269.261 531.926 269.208C532.5 269.13 533.079 269.094 533.658 269.098C534.255 269.093 534.851 269.13 535.443 269.208C535.891 269.261 536.328 269.375 536.744 269.546C537.056 269.671 537.33 269.874 537.537 270.135C537.719 270.385 537.813 270.686 537.805 270.993C537.81 271.043 537.804 271.094 537.787 271.142C537.77 271.189 537.743 271.233 537.707 271.27C537.635 271.33 537.55 271.374 537.458 271.399C537.359 271.429 537.253 271.457 537.136 271.483C537.021 271.51 536.912 271.557 536.814 271.622C536.706 271.699 536.621 271.801 536.567 271.92C536.491 272.095 536.457 272.284 536.467 272.474V274.989C536.622 274.989 536.784 274.981 536.954 274.966C537.123 274.951 537.283 274.891 537.419 274.792L540.245 272.474Z" fill="#22A6FF"/>
<path d="M510.963 377.718C526.96 377.718 539.929 364.75 539.929 348.752C539.929 332.755 526.96 319.786 510.963 319.786C494.965 319.786 481.997 332.755 481.997 348.752C481.997 364.75 494.965 377.718 510.963 377.718Z" fill="#22A6FF"/>
<g clip-path="url(#clip0_433_239)">
<path d="M513.254 340.489L509.575 339.968L508.548 347.223L514.338 348.042L513.908 351.079L508.119 350.26L507.093 357.515L510.953 358.061C511.945 358.201 519.079 359.325 520.278 350.771C521.477 342.217 514.631 340.683 513.254 340.489Z" fill="white"/>
<path d="M515.037 323.429C500.813 321.417 487.652 331.317 485.64 345.541C483.628 359.764 493.527 372.926 507.751 374.938C521.975 376.95 535.136 367.051 537.148 352.827C539.16 338.603 529.261 325.441 515.037 323.429ZM510.438 363.237L501.111 361.917L502.865 349.518L499.577 349.053L500.007 346.015L503.295 346.48L505.049 334.08L513.054 335.212C514.948 335.48 527.546 336.861 525.489 351.406C523.397 366.191 510.438 363.237 510.438 363.237Z" fill="white"/>
</g>
<path d="M340.851 386.218C348.006 386.218 353.806 380.425 353.806 373.278C353.806 366.132 348.006 360.339 340.851 360.339C333.697 360.339 327.896 366.132 327.896 373.278C327.896 380.425 333.697 386.218 340.851 386.218Z" fill="white"/>
<path d="M329.048 37.0353V24.422H329.047C329.044 23.4109 328.64 22.4409 327.923 21.7183C327.205 20.9958 326.23 20.5777 325.205 20.553V20.5158H313.241C313.182 20.5178 313.127 20.5334 313.067 20.5334C313.008 20.5334 312.952 20.5178 312.893 20.5158H312.692V20.4953C309.912 20.3015 307.712 18.0405 307.712 15.253C307.712 14.0433 308.141 12.9422 308.835 12.0515H308.73C309.444 10.8342 309.82 9.45271 309.82 8.04639C309.82 6.98956 309.609 5.94308 309.199 4.96672C308.788 3.99036 308.187 3.10324 307.429 2.35604C306.671 1.60884 305.771 1.01619 304.781 0.611933C303.79 0.207679 302.729 -0.000256867 301.657 2.38135e-07C300.585 -0.000128322 299.524 0.20791 298.534 0.612234C297.543 1.01656 296.644 1.60924 295.886 2.35645C295.128 3.10365 294.527 3.99073 294.117 4.96702C293.707 5.94331 293.496 6.98969 293.496 8.04639C293.496 9.50573 293.896 10.8711 294.586 12.0515H294.495C295.211 12.9643 295.601 14.0846 295.604 15.2383C295.604 18.0249 293.404 20.2858 290.624 20.4786V20.5158H276.207V20.5354C275.165 20.5398 274.166 20.9512 273.431 21.6796C272.695 22.4079 272.282 23.394 272.281 24.422C272.281 24.4788 272.296 24.5317 272.298 24.5884V37.7244H272.341C272.341 38.3066 272.576 38.865 272.993 39.2768C273.411 39.6886 273.977 39.9202 274.567 39.9207C274.792 39.9207 275.004 39.8767 275.208 39.814C276.424 39.2922 277.736 39.023 279.063 39.0232C284.416 39.0232 288.755 43.3014 288.755 48.5779C288.755 53.8553 284.416 58.1325 279.063 58.1325C277.771 58.1339 276.492 57.88 275.302 57.3857C275.058 57.2948 274.8 57.247 274.539 57.2448C274.246 57.2445 273.956 57.3012 273.686 57.4115C273.416 57.5218 273.17 57.6836 272.964 57.8876C272.757 58.0916 272.593 58.3339 272.481 58.6005C272.37 58.867 272.312 59.1527 272.313 59.4411C272.313 59.5654 272.33 59.6858 272.351 59.8052H272.298V72.4156C272.295 72.4723 272.281 72.5252 272.281 72.582C272.282 73.6131 272.697 74.6019 273.437 75.3311C274.177 76.0602 275.179 76.4701 276.225 76.4706C276.334 76.4706 276.436 76.4481 276.542 76.4393H289.638C289.931 76.4391 290.22 76.3822 290.491 76.2716C290.761 76.1611 291.007 75.9991 291.214 75.795C291.42 75.5909 291.584 75.3486 291.696 75.0819C291.808 74.8153 291.866 74.5295 291.866 74.241C291.866 73.9982 291.816 73.7702 291.743 73.5519L291.739 73.5382C291.722 73.4883 291.712 73.4345 291.691 73.3865H291.699C291.439 72.5152 291.306 71.6119 291.305 70.7037C291.304 69.4489 291.555 68.2064 292.042 67.047C292.529 65.8877 293.243 64.8343 294.143 63.947C295.042 63.0597 296.111 62.3559 297.287 61.8758C298.463 61.3958 299.723 61.1488 300.996 61.1491C302.268 61.1489 303.529 61.396 304.704 61.8761C305.88 62.3562 306.949 63.06 307.848 63.9473C308.748 64.8345 309.462 65.8879 309.949 67.0472C310.436 68.2064 310.687 69.449 310.687 70.7037C310.685 71.6119 310.553 72.5153 310.292 73.3865H310.317C310.173 73.7206 310.115 74.0847 310.149 74.4462C310.183 74.8078 310.307 75.1554 310.51 75.4582C310.713 75.761 310.989 76.0094 311.313 76.1813C311.638 76.3532 312 76.4432 312.368 76.4432C312.381 76.4432 312.393 76.4393 312.406 76.4393H325.105C326.143 76.438 327.139 76.0332 327.877 75.3125C328.615 74.5919 329.034 73.6136 329.045 72.5898H329.05V59.8052H329.004C328.939 59.2753 328.679 58.7872 328.274 58.4331C327.868 58.079 327.346 57.8833 326.804 57.8829V57.786C325.974 58.0125 325.117 58.1287 324.256 58.1315C318.903 58.1315 314.564 53.8544 314.564 48.5769C314.564 43.3004 318.903 39.0222 324.256 39.0222C325.14 39.0222 325.991 39.1485 326.804 39.3677V39.2757L326.829 39.2777C327.832 39.2777 328.669 38.6219 328.948 37.7234H329.05V37.1313C329.05 37.1146 329.055 37.0999 329.055 37.0833C329.053 37.0667 329.049 37.052 329.048 37.0353V37.0353Z" fill="#22A6FF"/>
<path d="M540.927 349.134C540.927 365.71 527.584 379.141 511.132 379.141C494.68 379.141 481.337 365.71 481.337 349.134C481.337 332.559 494.68 319.128 511.132 319.128C527.584 319.128 540.927 332.559 540.927 349.134Z" fill="#15202B" stroke="#22A6FF"/>
<path d="M522.342 359.196H508.294L511.935 351.526L521.236 349.867V344.627L514.656 345.799L518.18 338.381L521.21 332.007H520.338H514.693H512.993L511.584 334.972L506.912 344.809L505.679 347.405L503.846 347.731L497.845 348.802V353.447V354.042L502.661 353.185L502.958 353.132L499.429 360.555C498.084 363.386 500.136 366.662 503.25 366.662H514.507H521.236L524.468 359.196H522.342Z" fill="white"/>
<defs>
<clipPath id="clip0_433_239">
<rect width="52.0215" height="52.0215" fill="white" transform="translate(489.283 319.786) rotate(8.05142)"/>
</clipPath>
</defs>
</svg>
