<svg width="650" height="305" viewBox="0 0 650 305" fill="none" xmlns="http://www.w3.org/2000/svg">
<path d="M65.8537 155.906C68.5715 155.906 70.7815 153.567 70.7815 150.718C70.7815 147.869 68.5715 145.529 65.8537 145.529C63.1359 145.529 60.9259 147.869 60.9259 150.718C60.9259 153.597 63.1359 155.906 65.8537 155.906ZM65.8537 147.329C67.5859 147.329 68.9896 148.858 68.9896 150.718C68.9896 152.577 67.5859 154.107 65.8537 154.107C64.1215 154.107 62.7178 152.577 62.7178 150.718C62.7178 148.858 64.1215 147.329 65.8537 147.329Z" fill="#22A6FF"/>
<path d="M112.772 257.311C115.49 257.311 117.7 254.971 117.7 252.122C117.7 249.273 115.49 246.933 112.772 246.933C110.055 246.933 107.845 249.273 107.845 252.122C107.815 254.971 110.025 257.311 112.772 257.311ZM112.772 248.733C114.505 248.733 115.908 250.263 115.908 252.122C115.908 253.982 114.505 255.511 112.772 255.511C111.04 255.511 109.637 253.982 109.637 252.122C109.607 250.233 111.04 248.733 112.772 248.733Z" fill="#22A6FF"/>
<path d="M112.772 283.254C115.49 283.254 117.7 280.915 117.7 278.065C117.7 275.216 115.49 272.877 112.772 272.877C110.055 272.877 107.845 275.216 107.845 278.065C107.815 280.915 110.025 283.254 112.772 283.254ZM112.772 274.676C114.505 274.676 115.908 276.206 115.908 278.065C115.908 279.925 114.505 281.454 112.772 281.454C111.04 281.454 109.637 279.925 109.637 278.065C109.607 276.206 111.04 274.676 112.772 274.676Z" fill="#22A6FF"/>
<path d="M111.876 275.246H113.668V255.391H111.876V275.246Z" fill="#22A6FF"/>
<path d="M4.92815 207.913C7.64591 207.913 9.85596 205.574 9.85596 202.725C9.85596 199.875 7.64591 197.536 4.92815 197.536C2.21039 197.536 0.000338119 199.875 0.000338119 202.725C-0.0295274 205.604 2.18052 207.913 4.92815 207.913ZM4.92815 199.366C6.66035 199.366 8.06403 200.895 8.06403 202.755C8.06403 204.614 6.66035 206.144 4.92815 206.144C3.19595 206.144 1.79226 204.614 1.79226 202.755C1.7624 200.865 3.16608 199.366 4.92815 199.366Z" fill="#22A6FF"/>
<path d="M578.901 192.166C575.967 192.166 573.581 194.693 573.581 197.77C573.581 200.847 575.967 203.374 578.901 203.374C581.836 203.374 584.222 200.847 584.222 197.77C584.222 194.66 581.836 192.166 578.901 192.166ZM578.901 201.43C577.031 201.43 575.516 199.778 575.516 197.77C575.516 195.761 577.031 194.11 578.901 194.11C580.771 194.11 582.287 195.761 582.287 197.77C582.287 199.778 580.771 201.43 578.901 201.43Z" fill="#22A6FF"/>
<path d="M610.468 135.999C607.534 135.999 605.148 138.525 605.148 141.603C605.148 144.68 607.534 147.206 610.468 147.206C613.402 147.206 615.789 144.68 615.789 141.603C615.789 138.493 613.402 135.999 610.468 135.999ZM610.468 145.23C608.598 145.23 607.083 143.578 607.083 141.57C607.083 139.562 608.598 137.91 610.468 137.91C612.338 137.91 613.854 139.562 613.854 141.57C613.854 143.611 612.338 145.23 610.468 145.23Z" fill="#22A6FF"/>
<path d="M644.68 135.999C641.745 135.999 639.359 138.525 639.359 141.603C639.359 144.68 641.745 147.206 644.68 147.206C647.614 147.206 650 144.68 650 141.603C650.032 138.493 647.646 135.999 644.68 135.999ZM644.68 145.23C642.81 145.23 641.294 143.578 641.294 141.57C641.294 139.562 642.81 137.91 644.68 137.91C646.55 137.91 648.065 139.562 648.065 141.57C648.098 143.611 646.582 145.23 644.68 145.23Z" fill="#22A6FF"/>
<path d="M641.809 140.598H613.789V142.542H641.809V140.598Z" fill="#22A6FF"/>
<path d="M253.347 88.9702C256.083 83.0755 254.963 76.2719 251.034 70.919C250.501 70.1937 249.39 70.2671 248.968 71.0659L243.872 80.569C242.504 83.1215 239.382 84.1682 236.756 82.947L231.366 80.4496C228.741 79.2284 227.519 76.1709 228.584 73.4807L232.551 63.4543C232.881 62.6188 232.23 61.719 231.33 61.7833C224.701 62.2424 218.788 65.7773 216.051 71.6719C212.471 79.3937 215.491 88.6672 222.8 94.2129C223.259 94.5618 223.397 95.1953 223.14 95.7095L190.306 162.12C188.901 165.059 190.168 168.575 193.116 169.943C196.072 171.311 199.57 170.007 200.902 167.042L230.412 99.0884C230.641 98.5558 231.21 98.2528 231.78 98.3814C240.732 100.374 249.767 96.6919 253.347 88.9702ZM195.071 165.72C193.749 165.104 193.171 163.534 193.786 162.212C194.401 160.89 197.762 156.465 199.084 157.08C200.406 157.695 199.194 163.112 198.579 164.443C197.973 165.766 196.394 166.335 195.071 165.72Z" fill="#ADB5BD"/>
<path d="M460.12 273.013C460.12 287.984 448.068 300.115 433.21 300.115C418.351 300.115 406.3 287.984 406.3 273.013C406.3 258.041 418.351 245.911 433.21 245.911C448.068 245.911 460.12 258.041 460.12 273.013Z" fill="#15202B" stroke="#22A6FF"/>
<path d="M443.351 282.116H430.642L433.936 275.177L442.351 273.676V268.935L436.398 269.996L439.586 263.284L442.327 257.517H441.539H436.432H434.893L433.618 260.199L429.392 269.1L428.276 271.448L426.617 271.744L421.188 272.712V276.915V277.453L425.545 276.678L425.814 276.63L422.621 283.346C421.404 285.908 423.26 288.871 426.078 288.871H436.263H442.351L445.275 282.116H443.351Z" fill="white"/>
<path d="M536.597 259.722C536.597 277.893 521.971 292.617 503.935 292.617C485.899 292.617 471.272 277.893 471.272 259.722C471.272 241.552 485.899 226.828 503.935 226.828C521.971 226.828 536.597 241.552 536.597 259.722Z" fill="#15202B" stroke="#22A6FF"/>
<path d="M503.932 264.493L516.117 256.895L509.755 244.491L508.157 241.367L506.162 237.485L503.932 233.143L497.518 245.657L491.764 256.873L491.753 256.895L494.702 258.733L503.932 264.493Z" fill="white"/>
<path d="M492.513 260.965L492.379 261.094L501.671 279.355L504.045 284.019L510.898 270.556L515.873 260.783L504.045 268.212L492.513 260.965Z" fill="white"/>
</svg>
